%
M48
M72
T01C0.0157
T02C0.0197
T03C0.0236
T04C0.0512
T05C0.1102
%
T01
X7193Y9555
X6799Y11130
X8768Y13098
X9949Y13098
X16642Y15461
X17035Y15461
X17035Y16248
X16642Y16248
X19791Y18512
X22941Y15461
X22154Y14673
X21366Y12705
X21366Y7193
X21878Y6622
X20579Y6012
X21366Y5224
X33177Y15854
X34358Y17035
T02
X22154Y15854
X17528Y16799
T03
X18748Y9220
T04
X15098Y4091
X9530Y9659
T05
X8768Y22547
X20579Y22941
X37902Y22547
M30
