G75*
%MOIN*%
%OFA0B0*%
%FSLAX25Y25*%
%IPPOS*%
%LPD*%
%AMOC8*
5,1,8,0,0,1.08239X$1,22.5*
%
%ADD10C,0.11424*%
%ADD11R,0.07480X0.00394*%
%ADD12R,0.08268X0.00394*%
%ADD13R,0.16535X0.00394*%
%ADD14R,0.16929X0.00394*%
%ADD15R,0.22047X0.00394*%
%ADD16R,0.22441X0.00394*%
%ADD17R,0.25984X0.00394*%
%ADD18R,0.26772X0.00394*%
%ADD19R,0.29921X0.00394*%
%ADD20R,0.30315X0.00394*%
%ADD21R,0.33071X0.00394*%
%ADD22R,0.33465X0.00394*%
%ADD23R,0.36220X0.00394*%
%ADD24R,0.36614X0.00394*%
%ADD25R,0.38976X0.00394*%
%ADD26R,0.41732X0.00394*%
%ADD27R,0.42126X0.00394*%
%ADD28R,0.44094X0.00394*%
%ADD29R,0.43701X0.00394*%
%ADD30R,0.46457X0.00394*%
%ADD31R,0.46063X0.00394*%
%ADD32R,0.48425X0.00394*%
%ADD33R,0.50394X0.00394*%
%ADD34R,0.52362X0.00394*%
%ADD35R,0.54331X0.00394*%
%ADD36R,0.53937X0.00394*%
%ADD37R,0.55906X0.00394*%
%ADD38R,0.57480X0.00394*%
%ADD39R,0.57874X0.00394*%
%ADD40R,0.59055X0.00394*%
%ADD41R,0.59449X0.00394*%
%ADD42R,0.60630X0.00394*%
%ADD43R,0.61024X0.00394*%
%ADD44R,0.62205X0.00394*%
%ADD45R,0.62598X0.00394*%
%ADD46R,0.63780X0.00394*%
%ADD47R,0.64173X0.00394*%
%ADD48R,0.65354X0.00394*%
%ADD49R,0.65748X0.00394*%
%ADD50R,0.66535X0.00394*%
%ADD51R,0.68110X0.00394*%
%ADD52R,0.69291X0.00394*%
%ADD53R,0.69685X0.00394*%
%ADD54R,0.70866X0.00394*%
%ADD55R,0.72047X0.00394*%
%ADD56R,0.73228X0.00394*%
%ADD57R,0.73622X0.00394*%
%ADD58R,0.74409X0.00394*%
%ADD59R,0.75591X0.00394*%
%ADD60R,0.75984X0.00394*%
%ADD61R,0.76772X0.00394*%
%ADD62R,0.77953X0.00394*%
%ADD63R,0.78740X0.00394*%
%ADD64R,0.79134X0.00394*%
%ADD65R,0.80315X0.00394*%
%ADD66R,0.79921X0.00394*%
%ADD67R,0.81102X0.00394*%
%ADD68R,0.81496X0.00394*%
%ADD69R,0.82283X0.00394*%
%ADD70R,0.83071X0.00394*%
%ADD71R,0.84252X0.00394*%
%ADD72R,0.84646X0.00394*%
%ADD73R,0.85039X0.00394*%
%ADD74R,0.85433X0.00394*%
%ADD75R,0.86220X0.00394*%
%ADD76R,0.87402X0.00394*%
%ADD77R,0.87008X0.00394*%
%ADD78R,0.88189X0.00394*%
%ADD79R,0.87795X0.00394*%
%ADD80R,0.88976X0.00394*%
%ADD81R,0.89370X0.00394*%
%ADD82R,0.89764X0.00394*%
%ADD83R,0.90157X0.00394*%
%ADD84R,0.90551X0.00394*%
%ADD85R,0.90945X0.00394*%
%ADD86R,0.91732X0.00394*%
%ADD87R,0.92520X0.00394*%
%ADD88R,0.93307X0.00394*%
%ADD89R,0.94094X0.00394*%
%ADD90R,0.94882X0.00394*%
%ADD91R,0.95669X0.00394*%
%ADD92R,0.96457X0.00394*%
%ADD93R,0.97244X0.00394*%
%ADD94R,0.98031X0.00394*%
%ADD95R,0.98819X0.00394*%
%ADD96R,0.99606X0.00394*%
%ADD97R,1.00394X0.00394*%
%ADD98R,1.01181X0.00394*%
%ADD99R,1.01575X0.00394*%
%ADD100R,1.01969X0.00394*%
%ADD101R,0.48031X0.00394*%
%ADD102R,0.47638X0.00394*%
%ADD103R,0.44882X0.00394*%
%ADD104R,0.14961X0.00394*%
%ADD105R,0.44488X0.00394*%
%ADD106R,0.42913X0.00394*%
%ADD107R,0.42520X0.00394*%
%ADD108R,0.41339X0.00394*%
%ADD109R,0.40157X0.00394*%
%ADD110R,0.40551X0.00394*%
%ADD111R,0.39370X0.00394*%
%ADD112R,0.38583X0.00394*%
%ADD113R,0.37795X0.00394*%
%ADD114R,0.37402X0.00394*%
%ADD115R,0.37008X0.00394*%
%ADD116R,0.35827X0.00394*%
%ADD117R,0.35433X0.00394*%
%ADD118R,0.35039X0.00394*%
%ADD119R,0.34646X0.00394*%
%ADD120R,0.34252X0.00394*%
%ADD121R,0.33858X0.00394*%
%ADD122R,0.06693X0.00394*%
%ADD123R,0.32677X0.00394*%
%ADD124R,0.06299X0.00394*%
%ADD125R,0.32283X0.00394*%
%ADD126R,0.31890X0.00394*%
%ADD127R,0.31496X0.00394*%
%ADD128R,0.31102X0.00394*%
%ADD129R,0.30709X0.00394*%
%ADD130R,0.29528X0.00394*%
%ADD131R,0.29134X0.00394*%
%ADD132R,0.28740X0.00394*%
%ADD133R,0.28346X0.00394*%
%ADD134R,0.27953X0.00394*%
%ADD135R,0.04331X0.00394*%
%ADD136R,0.03150X0.00394*%
%ADD137R,0.27559X0.00394*%
%ADD138R,0.01969X0.00394*%
%ADD139R,0.00394X0.00394*%
%ADD140R,0.27165X0.00394*%
%ADD141R,0.03543X0.00394*%
%ADD142R,0.09843X0.00394*%
%ADD143R,0.12992X0.00394*%
%ADD144R,0.16142X0.00394*%
%ADD145R,0.18504X0.00394*%
%ADD146R,0.20079X0.00394*%
%ADD147R,0.26378X0.00394*%
%ADD148R,0.21654X0.00394*%
%ADD149R,0.23228X0.00394*%
%ADD150R,0.24803X0.00394*%
%ADD151R,0.25591X0.00394*%
%ADD152R,0.25197X0.00394*%
%ADD153R,0.38189X0.00394*%
%ADD154R,0.24409X0.00394*%
%ADD155R,0.24016X0.00394*%
%ADD156R,0.45276X0.00394*%
%ADD157R,0.46850X0.00394*%
%ADD158R,0.23622X0.00394*%
%ADD159R,0.22835X0.00394*%
%ADD160R,0.05118X0.00394*%
%ADD161R,0.49213X0.00394*%
%ADD162R,0.10236X0.00394*%
%ADD163R,0.11811X0.00394*%
%ADD164R,0.21260X0.00394*%
%ADD165R,0.49606X0.00394*%
%ADD166R,0.13386X0.00394*%
%ADD167R,0.50000X0.00394*%
%ADD168R,0.14567X0.00394*%
%ADD169R,0.15748X0.00394*%
%ADD170R,0.20866X0.00394*%
%ADD171R,0.20472X0.00394*%
%ADD172R,0.50787X0.00394*%
%ADD173R,0.17323X0.00394*%
%ADD174R,0.18110X0.00394*%
%ADD175R,0.08661X0.00394*%
%ADD176R,0.18898X0.00394*%
%ADD177R,0.19685X0.00394*%
%ADD178R,0.11417X0.00394*%
%ADD179R,0.51181X0.00394*%
%ADD180R,0.12598X0.00394*%
%ADD181R,0.51575X0.00394*%
%ADD182R,0.14173X0.00394*%
%ADD183R,0.09055X0.00394*%
%ADD184R,0.07874X0.00394*%
%ADD185R,0.07087X0.00394*%
%ADD186R,0.19291X0.00394*%
%ADD187R,0.05906X0.00394*%
%ADD188R,0.05512X0.00394*%
%ADD189R,0.09449X0.00394*%
%ADD190R,0.10630X0.00394*%
%ADD191R,0.04724X0.00394*%
%ADD192R,0.13780X0.00394*%
%ADD193R,0.12205X0.00394*%
%ADD194R,0.39764X0.00394*%
%ADD195R,0.00787X0.00394*%
%ADD196R,0.02756X0.00394*%
%ADD197R,0.01181X0.00394*%
%ADD198R,0.02362X0.00394*%
%ADD199R,0.40945X0.00394*%
%ADD200R,0.43307X0.00394*%
%ADD201R,0.45669X0.00394*%
%ADD202R,0.52756X0.00394*%
%ADD203R,0.53150X0.00394*%
%ADD204R,0.51969X0.00394*%
%ADD205R,0.80709X0.00394*%
%ADD206R,0.81890X0.00394*%
%ADD207R,0.82677X0.00394*%
%ADD208R,0.83465X0.00394*%
%ADD209R,0.83858X0.00394*%
%ADD210R,1.33858X0.00394*%
%ADD211R,1.33465X0.00394*%
%ADD212R,1.33071X0.00394*%
%ADD213R,1.32677X0.00394*%
%ADD214R,1.32283X0.00394*%
%ADD215R,1.31890X0.00394*%
%ADD216R,1.31496X0.00394*%
%ADD217R,1.30709X0.00394*%
%ADD218R,1.30315X0.00394*%
%ADD219R,1.29528X0.00394*%
%ADD220R,1.29134X0.00394*%
%ADD221R,1.28740X0.00394*%
%ADD222R,1.28346X0.00394*%
%ADD223R,1.27953X0.00394*%
%ADD224R,1.27559X0.00394*%
%ADD225R,1.27165X0.00394*%
%ADD226R,1.26378X0.00394*%
%ADD227R,1.25591X0.00394*%
%ADD228R,1.25197X0.00394*%
%ADD229R,1.24409X0.00394*%
%ADD230R,1.23622X0.00394*%
%ADD231R,1.23228X0.00394*%
%ADD232R,1.22441X0.00394*%
%ADD233R,1.21654X0.00394*%
%ADD234R,1.21260X0.00394*%
%ADD235R,1.20866X0.00394*%
%ADD236R,1.20472X0.00394*%
%ADD237R,1.19685X0.00394*%
%ADD238R,1.18898X0.00394*%
%ADD239R,1.18110X0.00394*%
%ADD240R,1.17323X0.00394*%
%ADD241R,1.16929X0.00394*%
%ADD242R,1.16535X0.00394*%
%ADD243R,1.16142X0.00394*%
%ADD244R,1.15748X0.00394*%
%ADD245R,1.15354X0.00394*%
%ADD246R,1.14961X0.00394*%
%ADD247R,1.14567X0.00394*%
%ADD248R,1.13780X0.00394*%
%ADD249R,1.13386X0.00394*%
%ADD250R,1.12992X0.00394*%
%ADD251R,1.12598X0.00394*%
%ADD252R,1.12205X0.00394*%
%ADD253R,0.97638X0.00394*%
%ADD254R,0.15354X0.00394*%
%ADD255R,1.03150X0.00394*%
%ADD256R,1.03937X0.00394*%
%ADD257R,1.04331X0.00394*%
%ADD258R,1.05118X0.00394*%
%ADD259R,1.05906X0.00394*%
%ADD260R,1.06299X0.00394*%
%ADD261R,1.07087X0.00394*%
%ADD262R,1.07480X0.00394*%
%ADD263R,1.08268X0.00394*%
%ADD264R,1.08661X0.00394*%
%ADD265R,1.09055X0.00394*%
%ADD266R,1.09843X0.00394*%
%ADD267R,1.10236X0.00394*%
%ADD268R,1.11024X0.00394*%
%ADD269R,1.11417X0.00394*%
%ADD270R,0.11024X0.00394*%
%ADD271R,1.14173X0.00394*%
%ADD272R,0.58268X0.00394*%
%ADD273R,0.56693X0.00394*%
%ADD274R,0.56299X0.00394*%
%ADD275R,0.55118X0.00394*%
%ADD276R,0.53543X0.00394*%
%ADD277R,0.48819X0.00394*%
%ADD278R,0.47244X0.00394*%
%ADD279C,0.08077*%
D10*
X0087677Y0225472D03*
X0205787Y0229409D03*
X0379016Y0225472D03*
D11*
X0308150Y0195157D03*
X0307756Y0194764D03*
X0307362Y0193976D03*
X0306969Y0193583D03*
X0306575Y0192795D03*
X0305787Y0191614D03*
X0305000Y0190433D03*
X0304606Y0189646D03*
X0304213Y0189252D03*
X0303819Y0188465D03*
X0303425Y0188071D03*
X0303031Y0187283D03*
X0302638Y0186890D03*
X0302244Y0186102D03*
X0301457Y0184921D03*
X0301063Y0184134D03*
X0300669Y0183740D03*
X0300276Y0182953D03*
X0299882Y0182559D03*
X0299488Y0181772D03*
X0299094Y0181378D03*
X0298701Y0180591D03*
X0297913Y0179409D03*
X0297126Y0178228D03*
X0296732Y0177441D03*
X0296339Y0177047D03*
X0295945Y0176260D03*
X0295551Y0175866D03*
X0295157Y0175079D03*
X0294764Y0174685D03*
X0294370Y0173898D03*
X0282559Y0182165D03*
X0281772Y0180984D03*
X0281378Y0180197D03*
X0280984Y0179803D03*
X0280591Y0179016D03*
X0280197Y0178622D03*
X0279803Y0177835D03*
X0279409Y0177441D03*
X0279016Y0176654D03*
X0278228Y0175472D03*
X0277441Y0174291D03*
X0277047Y0173504D03*
X0276654Y0173110D03*
X0264449Y0180591D03*
X0264055Y0180197D03*
X0263661Y0179409D03*
X0262874Y0178228D03*
X0262087Y0177047D03*
X0261693Y0176260D03*
X0261299Y0175866D03*
X0260906Y0175079D03*
X0260512Y0174685D03*
X0260118Y0173898D03*
X0259724Y0173504D03*
X0264843Y0181378D03*
X0265236Y0181772D03*
X0265630Y0182559D03*
X0266024Y0182953D03*
X0266417Y0183740D03*
X0267205Y0184921D03*
X0267992Y0186102D03*
X0268386Y0186890D03*
X0268780Y0187283D03*
X0269173Y0188071D03*
X0269567Y0188465D03*
X0269961Y0189252D03*
X0270354Y0189646D03*
X0270748Y0190433D03*
X0271535Y0191614D03*
X0271929Y0192402D03*
X0272323Y0192795D03*
X0272717Y0193583D03*
X0273110Y0193976D03*
X0273504Y0194764D03*
X0273898Y0195157D03*
X0286102Y0187677D03*
X0285315Y0186496D03*
X0284921Y0185709D03*
X0284528Y0185315D03*
X0284134Y0184528D03*
X0283740Y0184134D03*
X0283346Y0183346D03*
X0286890Y0188858D03*
X0287677Y0190039D03*
X0288071Y0190827D03*
X0288465Y0191220D03*
X0288858Y0192008D03*
X0289252Y0192402D03*
X0289646Y0193189D03*
X0290433Y0194370D03*
X0291220Y0195551D03*
X0240827Y0196339D03*
X0240039Y0197520D03*
X0239646Y0197913D03*
X0206181Y0116417D03*
X0272323Y0114055D03*
X0272717Y0113268D03*
X0273110Y0112874D03*
X0273504Y0112087D03*
X0273898Y0111693D03*
X0274291Y0110906D03*
X0274685Y0110512D03*
X0274685Y0110118D03*
X0275079Y0109724D03*
X0275472Y0109331D03*
X0275866Y0108543D03*
X0276260Y0108150D03*
X0277441Y0106575D03*
X0282165Y0100669D03*
X0288465Y0105787D03*
X0103425Y0101850D03*
X0103425Y0091220D03*
X0087677Y0090827D03*
X0087283Y0091220D03*
X0087283Y0101457D03*
X0095157Y0027441D03*
X0100669Y0204213D03*
X0100276Y0204606D03*
X0099882Y0205394D03*
D12*
X0101457Y0203425D03*
X0101850Y0203031D03*
X0214843Y0126260D03*
X0215236Y0126654D03*
X0214449Y0125866D03*
X0214055Y0125472D03*
X0213661Y0125079D03*
X0213268Y0124685D03*
X0212874Y0124291D03*
X0212480Y0123898D03*
X0212087Y0123504D03*
X0211693Y0123110D03*
X0210118Y0121142D03*
X0209724Y0120748D03*
X0209331Y0120354D03*
X0208937Y0119961D03*
X0208543Y0119567D03*
X0208150Y0119173D03*
X0207756Y0118780D03*
X0207362Y0118386D03*
X0206969Y0117992D03*
X0206181Y0116811D03*
X0216811Y0128622D03*
X0217205Y0129016D03*
X0217598Y0129409D03*
X0217992Y0129803D03*
X0218386Y0130197D03*
X0218780Y0130591D03*
X0219173Y0130984D03*
X0219567Y0131378D03*
X0219961Y0131772D03*
X0220354Y0132165D03*
X0221535Y0133740D03*
X0221929Y0134134D03*
X0222323Y0134528D03*
X0222717Y0134921D03*
X0223110Y0135315D03*
X0223504Y0135709D03*
X0223898Y0136102D03*
X0224291Y0136496D03*
X0224685Y0136890D03*
X0225079Y0137283D03*
X0226654Y0139252D03*
X0227047Y0139646D03*
X0227441Y0140039D03*
X0227835Y0140433D03*
X0228228Y0140827D03*
X0228622Y0141220D03*
X0229016Y0141614D03*
X0229409Y0142008D03*
X0229803Y0142402D03*
X0230197Y0142795D03*
X0231378Y0144370D03*
X0231772Y0144764D03*
X0232165Y0145157D03*
X0232559Y0145551D03*
X0232953Y0145945D03*
X0233346Y0146339D03*
X0233740Y0146732D03*
X0234134Y0147126D03*
X0234528Y0147520D03*
X0234921Y0147913D03*
X0236102Y0149488D03*
X0236496Y0149882D03*
X0236890Y0150276D03*
X0237283Y0150669D03*
X0237677Y0151063D03*
X0238071Y0151457D03*
X0238465Y0151850D03*
X0238858Y0152244D03*
X0239252Y0152638D03*
X0239646Y0153031D03*
X0240827Y0154606D03*
X0241220Y0155000D03*
X0241614Y0155394D03*
X0242008Y0155787D03*
X0242402Y0156181D03*
X0242795Y0156575D03*
X0243189Y0156969D03*
X0243583Y0157362D03*
X0243976Y0157756D03*
X0244370Y0158150D03*
X0244764Y0158543D03*
X0245945Y0160118D03*
X0246339Y0160512D03*
X0246732Y0160906D03*
X0247126Y0161299D03*
X0252244Y0166811D03*
X0246732Y0143976D03*
X0283740Y0091614D03*
X0288465Y0027441D03*
X0095551Y0084134D03*
X0088071Y0090433D03*
X0237283Y0200669D03*
X0237677Y0200276D03*
X0238071Y0199882D03*
X0238465Y0199488D03*
D13*
X0246929Y0141220D03*
X0095354Y0086496D03*
X0095354Y0027835D03*
X0056772Y0144370D03*
D14*
X0095551Y0106181D03*
X0112480Y0197126D03*
X0145945Y0206969D03*
X0288465Y0090827D03*
X0288465Y0027835D03*
D15*
X0149685Y0083346D03*
X0149685Y0083740D03*
X0149685Y0084134D03*
X0150472Y0102638D03*
X0150472Y0103031D03*
X0056378Y0141220D03*
X0095354Y0028228D03*
X0246535Y0137677D03*
D16*
X0246339Y0137283D03*
X0187677Y0115630D03*
X0150669Y0103819D03*
X0150669Y0103425D03*
X0056181Y0140827D03*
X0112874Y0198701D03*
X0288465Y0028228D03*
D17*
X0338661Y0070354D03*
X0338661Y0070748D03*
X0339055Y0071142D03*
X0339449Y0071929D03*
X0339055Y0119173D03*
X0339055Y0119567D03*
X0338661Y0119961D03*
X0338268Y0120748D03*
X0245354Y0133346D03*
X0245354Y0133740D03*
X0238661Y0120748D03*
X0238268Y0119961D03*
X0237874Y0119567D03*
X0237874Y0119173D03*
X0237480Y0071929D03*
X0237874Y0071142D03*
X0238268Y0070748D03*
X0238268Y0070354D03*
X0146142Y0071535D03*
X0145748Y0070748D03*
X0145354Y0069961D03*
X0095354Y0028622D03*
X0045748Y0069567D03*
X0045354Y0070354D03*
X0044961Y0070748D03*
X0044961Y0071142D03*
X0044567Y0118780D03*
X0044961Y0119567D03*
X0045354Y0119961D03*
X0045354Y0120354D03*
X0055197Y0137283D03*
X0055197Y0137677D03*
X0145354Y0120354D03*
X0145748Y0119961D03*
X0145748Y0119567D03*
X0146142Y0119173D03*
X0113071Y0199882D03*
D18*
X0131969Y0169961D03*
X0131575Y0169567D03*
X0131181Y0168780D03*
X0130787Y0168386D03*
X0130787Y0167992D03*
X0130394Y0167598D03*
X0130394Y0167205D03*
X0130000Y0166811D03*
X0129606Y0166024D03*
X0129213Y0165630D03*
X0129213Y0165236D03*
X0128819Y0164843D03*
X0128819Y0164449D03*
X0128425Y0164055D03*
X0128031Y0163268D03*
X0127638Y0162874D03*
X0127638Y0162480D03*
X0127244Y0162087D03*
X0127244Y0161693D03*
X0126850Y0161299D03*
X0126457Y0160512D03*
X0126063Y0160118D03*
X0126063Y0159724D03*
X0125669Y0159331D03*
X0125669Y0158937D03*
X0125276Y0158543D03*
X0124882Y0158150D03*
X0124882Y0157756D03*
X0124488Y0157362D03*
X0124488Y0156969D03*
X0124094Y0156575D03*
X0124094Y0156181D03*
X0123701Y0155787D03*
X0123307Y0155394D03*
X0123307Y0155000D03*
X0122913Y0154606D03*
X0122913Y0154213D03*
X0122520Y0153819D03*
X0122126Y0153031D03*
X0121732Y0152638D03*
X0121732Y0152244D03*
X0121339Y0151850D03*
X0121339Y0151457D03*
X0120945Y0151063D03*
X0144173Y0122717D03*
X0144173Y0122323D03*
X0144567Y0121929D03*
X0187874Y0114449D03*
X0239055Y0121535D03*
X0239449Y0121929D03*
X0239449Y0122323D03*
X0239843Y0122717D03*
X0244961Y0132165D03*
X0244961Y0132559D03*
X0337087Y0122717D03*
X0337480Y0122323D03*
X0337874Y0121535D03*
X0337480Y0068386D03*
X0337087Y0067598D03*
X0288661Y0028622D03*
X0239843Y0067598D03*
X0239843Y0067992D03*
X0239449Y0068386D03*
X0144567Y0068386D03*
X0144173Y0067992D03*
X0046929Y0067598D03*
X0046535Y0067992D03*
X0046535Y0068386D03*
X0046142Y0068780D03*
X0046535Y0122323D03*
X0046929Y0123110D03*
X0054803Y0136496D03*
D19*
X0139055Y0129409D03*
X0187874Y0071142D03*
X0139055Y0060906D03*
X0095354Y0029016D03*
X0051654Y0061299D03*
X0244567Y0061299D03*
X0244961Y0060906D03*
X0331969Y0060906D03*
X0332362Y0061299D03*
X0332362Y0129409D03*
X0331969Y0129803D03*
X0306772Y0154606D03*
X0204409Y0218780D03*
X0138268Y0205394D03*
D20*
X0137677Y0205000D03*
X0137283Y0204606D03*
X0204213Y0218386D03*
X0138465Y0130197D03*
X0138858Y0129803D03*
X0187677Y0113268D03*
X0138465Y0060512D03*
X0052638Y0060118D03*
X0052244Y0060512D03*
X0051850Y0060906D03*
X0245157Y0060512D03*
X0245551Y0060118D03*
X0288465Y0029016D03*
X0331378Y0060118D03*
X0331772Y0060512D03*
D21*
X0328031Y0056969D03*
X0248898Y0056969D03*
X0187874Y0072323D03*
X0135118Y0056969D03*
X0095354Y0029409D03*
X0055984Y0056969D03*
X0134724Y0133740D03*
X0135512Y0170748D03*
X0135512Y0171142D03*
X0204409Y0214449D03*
X0204409Y0214843D03*
D22*
X0204606Y0214055D03*
X0122323Y0147520D03*
X0187677Y0112087D03*
X0134528Y0056575D03*
X0249488Y0056575D03*
X0288465Y0029409D03*
X0327441Y0056575D03*
X0327835Y0133740D03*
X0327441Y0134134D03*
X0307756Y0153031D03*
D23*
X0324488Y0054213D03*
X0095354Y0029803D03*
X0059528Y0054213D03*
D24*
X0131378Y0054213D03*
X0187677Y0073898D03*
X0187677Y0110512D03*
X0122717Y0145551D03*
X0206181Y0212874D03*
X0252638Y0054213D03*
X0288465Y0029803D03*
D25*
X0288465Y0030197D03*
X0187677Y0075079D03*
X0187677Y0109331D03*
X0128622Y0138071D03*
X0123110Y0144370D03*
X0207756Y0211693D03*
X0321929Y0137677D03*
X0095551Y0030197D03*
D26*
X0095354Y0030591D03*
X0126850Y0051850D03*
X0125669Y0140039D03*
X0209921Y0209724D03*
X0309134Y0149094D03*
D27*
X0319567Y0138858D03*
X0210512Y0209331D03*
X0123504Y0142402D03*
X0123504Y0142008D03*
X0125079Y0140433D03*
X0187677Y0107362D03*
X0187677Y0077047D03*
X0288465Y0030591D03*
D28*
X0187874Y0105787D03*
X0095354Y0030984D03*
X0309528Y0147913D03*
X0120945Y0201063D03*
D29*
X0187677Y0106181D03*
X0187677Y0078622D03*
X0187677Y0078228D03*
X0288465Y0030984D03*
D30*
X0315827Y0140433D03*
X0095354Y0031378D03*
D31*
X0187677Y0080197D03*
X0187677Y0080591D03*
X0187677Y0103819D03*
X0187677Y0104213D03*
X0288465Y0031378D03*
X0309724Y0146732D03*
D32*
X0310118Y0145551D03*
X0187677Y0101457D03*
X0187677Y0101063D03*
X0187677Y0083346D03*
X0187677Y0082953D03*
X0095551Y0031772D03*
X0288465Y0031772D03*
D33*
X0288661Y0032165D03*
X0313071Y0141614D03*
X0125276Y0224685D03*
X0095354Y0032165D03*
D34*
X0095551Y0032559D03*
X0288465Y0032559D03*
D35*
X0095354Y0032953D03*
X0125276Y0223110D03*
D36*
X0288465Y0032953D03*
D37*
X0288661Y0033346D03*
X0095354Y0033346D03*
X0125276Y0222323D03*
D38*
X0125276Y0221142D03*
X0095354Y0033740D03*
D39*
X0288465Y0033740D03*
D40*
X0095354Y0034134D03*
D41*
X0288465Y0034134D03*
D42*
X0095354Y0034528D03*
D43*
X0288465Y0034528D03*
D44*
X0095354Y0034921D03*
D45*
X0288465Y0034921D03*
D46*
X0095354Y0035315D03*
D47*
X0288465Y0035315D03*
D48*
X0095354Y0035709D03*
D49*
X0288465Y0035709D03*
D50*
X0288465Y0036102D03*
X0095551Y0036102D03*
D51*
X0095551Y0036496D03*
X0288465Y0036496D03*
D52*
X0095354Y0036890D03*
D53*
X0288465Y0036890D03*
D54*
X0288661Y0037283D03*
X0095354Y0037283D03*
D55*
X0095551Y0037677D03*
X0288465Y0037677D03*
D56*
X0095354Y0038071D03*
D57*
X0288465Y0038071D03*
D58*
X0288465Y0038465D03*
X0095551Y0038465D03*
D59*
X0095354Y0038858D03*
D60*
X0288465Y0038858D03*
D61*
X0288465Y0039252D03*
X0095551Y0039252D03*
D62*
X0095354Y0039646D03*
X0288661Y0039646D03*
D63*
X0095354Y0040039D03*
D64*
X0288465Y0040039D03*
D65*
X0289055Y0167598D03*
X0289449Y0167992D03*
X0289843Y0168386D03*
X0095354Y0040433D03*
D66*
X0288465Y0040433D03*
D67*
X0289843Y0169173D03*
X0095354Y0040827D03*
D68*
X0288465Y0040827D03*
X0290039Y0169567D03*
D69*
X0290039Y0170354D03*
X0288465Y0041220D03*
X0095551Y0041220D03*
D70*
X0095551Y0041614D03*
X0288465Y0041614D03*
X0290433Y0171142D03*
D71*
X0290630Y0172323D03*
X0290630Y0172717D03*
X0095354Y0042008D03*
D72*
X0288465Y0042008D03*
D73*
X0095354Y0042402D03*
D74*
X0288465Y0042402D03*
D75*
X0288465Y0042795D03*
X0095551Y0042795D03*
D76*
X0095354Y0043189D03*
D77*
X0288465Y0043189D03*
D78*
X0095354Y0043583D03*
D79*
X0288465Y0043583D03*
D80*
X0095354Y0043976D03*
D81*
X0288465Y0043976D03*
D82*
X0095354Y0044370D03*
D83*
X0288465Y0044370D03*
D84*
X0095354Y0044764D03*
D85*
X0288465Y0044764D03*
D86*
X0288465Y0045157D03*
X0095551Y0045157D03*
D87*
X0095551Y0045551D03*
X0288465Y0045551D03*
D88*
X0288465Y0045945D03*
X0095551Y0045945D03*
D89*
X0095551Y0046339D03*
X0288465Y0046339D03*
D90*
X0288465Y0046732D03*
X0095551Y0046732D03*
D91*
X0095551Y0047126D03*
X0288465Y0047126D03*
D92*
X0288465Y0047520D03*
X0095551Y0047520D03*
D93*
X0095551Y0047913D03*
X0288465Y0047913D03*
D94*
X0288465Y0048307D03*
X0095551Y0048307D03*
D95*
X0095551Y0048701D03*
X0288465Y0048701D03*
X0299882Y0196339D03*
D96*
X0288465Y0049094D03*
X0095551Y0049094D03*
D97*
X0095551Y0049488D03*
X0288465Y0049488D03*
X0299488Y0196732D03*
D98*
X0288465Y0049882D03*
X0095551Y0049882D03*
D99*
X0095354Y0050276D03*
X0299291Y0197126D03*
D100*
X0299094Y0197520D03*
X0288465Y0050276D03*
D101*
X0261102Y0050669D03*
X0187874Y0082559D03*
X0187874Y0101850D03*
X0122520Y0050669D03*
X0068189Y0050669D03*
X0309921Y0145945D03*
X0315039Y0140827D03*
D102*
X0187677Y0102638D03*
X0187677Y0102244D03*
X0187677Y0082165D03*
X0187677Y0081772D03*
X0316024Y0050669D03*
X0122717Y0201457D03*
D103*
X0125276Y0225866D03*
X0309528Y0147520D03*
X0317795Y0051063D03*
X0124488Y0051063D03*
X0066220Y0051063D03*
D104*
X0095354Y0106969D03*
X0056772Y0145157D03*
X0175669Y0056575D03*
X0175669Y0056181D03*
X0175669Y0055787D03*
X0175669Y0055394D03*
X0175669Y0055000D03*
X0175669Y0054606D03*
X0175669Y0054213D03*
X0175669Y0053819D03*
X0175669Y0053425D03*
X0175669Y0053031D03*
X0175669Y0052638D03*
X0175669Y0052244D03*
X0175669Y0051850D03*
X0175669Y0051457D03*
X0175669Y0051063D03*
X0200472Y0128228D03*
X0200472Y0128622D03*
X0200472Y0129016D03*
X0200472Y0129409D03*
X0200472Y0129803D03*
X0200472Y0130197D03*
X0200472Y0130591D03*
X0200472Y0130984D03*
X0200472Y0131378D03*
X0200472Y0131772D03*
X0200472Y0132165D03*
X0200472Y0132559D03*
X0200472Y0132953D03*
X0200472Y0133346D03*
X0200472Y0133740D03*
X0246929Y0142008D03*
X0288268Y0089646D03*
D105*
X0259331Y0051063D03*
X0187677Y0079016D03*
X0187677Y0105394D03*
X0317598Y0139646D03*
D106*
X0187677Y0106575D03*
X0187677Y0077835D03*
X0125866Y0051457D03*
X0064843Y0051457D03*
X0123504Y0141614D03*
D107*
X0124488Y0140827D03*
X0187874Y0106969D03*
X0187874Y0077441D03*
X0257953Y0051457D03*
X0318976Y0051457D03*
X0309134Y0148701D03*
X0211496Y0208543D03*
X0211102Y0208937D03*
X0125276Y0226260D03*
D108*
X0209724Y0210118D03*
X0308937Y0149488D03*
X0187677Y0107756D03*
X0187677Y0076654D03*
X0256969Y0051850D03*
X0319961Y0051850D03*
X0129803Y0135315D03*
X0126260Y0139646D03*
X0123504Y0142795D03*
X0064055Y0051850D03*
D109*
X0063071Y0052244D03*
X0187874Y0075866D03*
X0187874Y0108543D03*
X0129606Y0136102D03*
X0127638Y0138858D03*
X0123307Y0143583D03*
X0208740Y0210906D03*
X0308740Y0149882D03*
X0321339Y0138071D03*
X0320945Y0052244D03*
X0255984Y0052244D03*
D110*
X0187677Y0076260D03*
X0187677Y0108150D03*
X0129803Y0135709D03*
X0127047Y0139252D03*
X0123504Y0143189D03*
X0127835Y0052244D03*
D111*
X0128425Y0052638D03*
X0187874Y0075472D03*
X0255197Y0052638D03*
X0321732Y0052638D03*
X0308740Y0150276D03*
X0129606Y0136890D03*
X0129606Y0136496D03*
X0128031Y0138465D03*
X0123307Y0143976D03*
X0062283Y0052638D03*
D112*
X0061496Y0053031D03*
X0129213Y0053031D03*
X0254409Y0053031D03*
X0322520Y0053031D03*
X0308740Y0150669D03*
X0207165Y0212087D03*
X0129606Y0137283D03*
D113*
X0122913Y0144764D03*
X0130000Y0053425D03*
X0060709Y0053425D03*
X0254016Y0053425D03*
X0308346Y0151063D03*
D114*
X0323504Y0136890D03*
X0206575Y0212480D03*
X0122717Y0145157D03*
X0187677Y0110118D03*
X0187677Y0074291D03*
X0323110Y0053425D03*
D115*
X0323701Y0053819D03*
X0253228Y0053819D03*
X0130787Y0053819D03*
X0060315Y0053819D03*
X0308346Y0151457D03*
X0324094Y0136496D03*
D116*
X0324685Y0136102D03*
X0308150Y0151850D03*
X0187677Y0110906D03*
X0187677Y0073504D03*
X0131772Y0054606D03*
X0058937Y0054606D03*
X0122717Y0145945D03*
X0251850Y0054606D03*
X0325079Y0054606D03*
D117*
X0325669Y0055000D03*
X0325276Y0135709D03*
X0307953Y0152244D03*
X0205591Y0213268D03*
X0122520Y0146339D03*
X0132362Y0055000D03*
X0058346Y0055000D03*
D118*
X0132953Y0055394D03*
X0187677Y0073110D03*
X0187677Y0111299D03*
X0251457Y0055000D03*
X0325866Y0135315D03*
D119*
X0326457Y0134921D03*
X0326063Y0055394D03*
X0250866Y0055394D03*
X0133543Y0055787D03*
X0057953Y0055394D03*
X0122520Y0146732D03*
X0205197Y0213661D03*
D120*
X0122323Y0147126D03*
X0133346Y0134921D03*
X0133740Y0134528D03*
X0187677Y0111693D03*
X0187677Y0072717D03*
X0249882Y0056181D03*
X0250276Y0055787D03*
X0326654Y0055787D03*
X0307756Y0152638D03*
X0057362Y0055787D03*
D121*
X0056772Y0056181D03*
X0056378Y0056575D03*
X0133937Y0056181D03*
X0134331Y0134134D03*
X0135512Y0170354D03*
X0326850Y0134528D03*
X0327244Y0056181D03*
D122*
X0288465Y0086890D03*
X0294370Y0092402D03*
X0294370Y0100276D03*
X0293976Y0100669D03*
X0282165Y0100276D03*
X0269567Y0118780D03*
X0269173Y0119567D03*
X0268780Y0120354D03*
X0268386Y0121142D03*
X0267992Y0121929D03*
X0267598Y0122717D03*
X0267598Y0123110D03*
X0267205Y0123504D03*
X0267205Y0123898D03*
X0266811Y0124291D03*
X0266811Y0124685D03*
X0266417Y0125079D03*
X0266417Y0125472D03*
X0266024Y0125866D03*
X0266024Y0126260D03*
X0266024Y0126654D03*
X0265630Y0127047D03*
X0265630Y0127441D03*
X0265236Y0127835D03*
X0265236Y0128228D03*
X0264843Y0129016D03*
X0264449Y0129803D03*
X0264449Y0130197D03*
X0264055Y0130984D03*
X0263661Y0131772D03*
X0263661Y0132165D03*
X0263268Y0132953D03*
X0263268Y0133346D03*
X0262874Y0134134D03*
X0262480Y0135315D03*
X0262087Y0136102D03*
X0262087Y0136496D03*
X0261693Y0137283D03*
X0261693Y0137677D03*
X0261299Y0138465D03*
X0260512Y0141220D03*
X0260118Y0142402D03*
X0259724Y0143583D03*
X0258937Y0146339D03*
X0258543Y0147520D03*
X0257756Y0150276D03*
X0199488Y0127047D03*
X0199094Y0125866D03*
X0198701Y0124685D03*
X0198307Y0123898D03*
X0198307Y0123504D03*
X0197913Y0122717D03*
X0197520Y0121535D03*
X0197126Y0120354D03*
X0174685Y0119173D03*
X0174291Y0119961D03*
X0173898Y0120748D03*
X0173504Y0121535D03*
X0173110Y0122323D03*
X0172717Y0123110D03*
X0172323Y0123898D03*
X0171929Y0124685D03*
X0171535Y0125472D03*
X0171142Y0126260D03*
X0170748Y0127047D03*
X0170354Y0127835D03*
X0169961Y0128622D03*
X0169567Y0129409D03*
X0169173Y0130197D03*
X0168780Y0130984D03*
X0168386Y0131772D03*
X0167992Y0132559D03*
X0167598Y0133346D03*
X0167205Y0134134D03*
X0166811Y0134921D03*
X0166417Y0135709D03*
X0166024Y0136496D03*
X0165630Y0137283D03*
X0165236Y0138071D03*
X0164843Y0138858D03*
X0164449Y0139646D03*
X0164055Y0140433D03*
X0163661Y0141220D03*
X0163268Y0142008D03*
X0162874Y0142795D03*
X0162480Y0143583D03*
X0162087Y0144370D03*
X0161693Y0144764D03*
X0161693Y0145157D03*
X0161299Y0145551D03*
X0161299Y0145945D03*
X0160906Y0146339D03*
X0160906Y0146732D03*
X0160512Y0147126D03*
X0160512Y0147520D03*
X0160118Y0147913D03*
X0160118Y0148307D03*
X0159724Y0148701D03*
X0159724Y0149094D03*
X0159331Y0149488D03*
X0159331Y0149882D03*
X0158937Y0150276D03*
X0158937Y0150669D03*
X0158543Y0151063D03*
X0158543Y0151457D03*
X0158150Y0151850D03*
X0158150Y0152244D03*
X0157756Y0152638D03*
X0157756Y0153031D03*
X0157362Y0153425D03*
X0157362Y0153819D03*
X0156969Y0154213D03*
X0156969Y0154606D03*
X0156575Y0155000D03*
X0156575Y0155394D03*
X0156181Y0155787D03*
X0156181Y0156181D03*
X0155787Y0156575D03*
X0155787Y0156969D03*
X0155394Y0157362D03*
X0155394Y0157756D03*
X0155000Y0158150D03*
X0154606Y0158937D03*
X0154606Y0159331D03*
X0154213Y0159724D03*
X0153819Y0160512D03*
X0153819Y0160906D03*
X0153425Y0161299D03*
X0153031Y0162087D03*
X0152638Y0162874D03*
X0152244Y0163661D03*
X0151850Y0164449D03*
X0151457Y0165236D03*
X0151063Y0166024D03*
X0150669Y0166811D03*
X0150276Y0167598D03*
X0149882Y0168386D03*
X0149488Y0169173D03*
X0149094Y0169961D03*
X0135709Y0196732D03*
X0135315Y0197520D03*
X0134921Y0198307D03*
X0134528Y0199094D03*
X0134134Y0199882D03*
X0133740Y0200669D03*
X0152244Y0209724D03*
X0152244Y0210118D03*
X0152638Y0210512D03*
X0152638Y0216811D03*
X0152638Y0217205D03*
X0152244Y0217598D03*
X0152244Y0217992D03*
X0098307Y0217598D03*
X0097913Y0217205D03*
X0097913Y0216811D03*
X0098307Y0208543D03*
X0098701Y0207756D03*
X0098701Y0207362D03*
X0099094Y0206969D03*
X0099094Y0206575D03*
X0112480Y0134921D03*
X0112087Y0134134D03*
X0111693Y0133346D03*
X0111299Y0132559D03*
X0110906Y0131772D03*
X0110512Y0130984D03*
X0109724Y0129803D03*
X0109331Y0129016D03*
X0108937Y0128228D03*
X0108543Y0127441D03*
X0108150Y0126654D03*
X0107756Y0125866D03*
X0107362Y0125079D03*
X0106969Y0124291D03*
X0106575Y0123504D03*
X0106181Y0122717D03*
X0105787Y0121929D03*
X0105394Y0121142D03*
X0105000Y0120354D03*
X0104606Y0119567D03*
X0104213Y0118780D03*
X0103819Y0117992D03*
X0103031Y0116811D03*
X0102638Y0116024D03*
X0102244Y0115236D03*
X0101850Y0114449D03*
X0101457Y0113661D03*
X0101063Y0112874D03*
X0100669Y0112087D03*
X0100276Y0111299D03*
X0099882Y0110512D03*
X0099488Y0109724D03*
X0104213Y0100669D03*
X0104606Y0099882D03*
X0104606Y0093189D03*
X0104606Y0092795D03*
X0104213Y0092402D03*
X0086496Y0092402D03*
X0086102Y0093189D03*
X0086102Y0099488D03*
X0086496Y0100276D03*
X0086890Y0101063D03*
X0178622Y0063268D03*
X0178228Y0062087D03*
X0177441Y0059331D03*
X0177047Y0058150D03*
X0176654Y0056969D03*
D123*
X0135315Y0057362D03*
X0055394Y0057362D03*
X0055000Y0057756D03*
X0135315Y0133346D03*
X0135709Y0132953D03*
X0121929Y0147913D03*
X0204213Y0215236D03*
X0204213Y0215630D03*
X0204213Y0216024D03*
X0204213Y0216417D03*
X0307362Y0153425D03*
X0328228Y0133346D03*
X0328622Y0057362D03*
X0248307Y0057362D03*
D124*
X0282362Y0092402D03*
X0281969Y0092795D03*
X0281969Y0099882D03*
X0294567Y0092795D03*
X0265039Y0128622D03*
X0264646Y0129409D03*
X0264252Y0130591D03*
X0263858Y0131378D03*
X0263465Y0132559D03*
X0263071Y0133740D03*
X0262677Y0134528D03*
X0262677Y0134921D03*
X0262283Y0135709D03*
X0261890Y0136890D03*
X0261496Y0138071D03*
X0261102Y0138858D03*
X0261102Y0139252D03*
X0261102Y0139646D03*
X0260709Y0140039D03*
X0260709Y0140433D03*
X0260709Y0140827D03*
X0260315Y0141614D03*
X0260315Y0142008D03*
X0259921Y0142795D03*
X0259921Y0143189D03*
X0259528Y0143976D03*
X0259528Y0144370D03*
X0259528Y0144764D03*
X0259134Y0145157D03*
X0259134Y0145551D03*
X0259134Y0145945D03*
X0258740Y0146732D03*
X0258740Y0147126D03*
X0258346Y0147913D03*
X0258346Y0148307D03*
X0258346Y0148701D03*
X0257953Y0149094D03*
X0257953Y0149488D03*
X0257953Y0149882D03*
X0257559Y0150669D03*
X0257559Y0151063D03*
X0257559Y0151457D03*
X0257165Y0151850D03*
X0257165Y0152244D03*
X0257165Y0152638D03*
X0257165Y0153031D03*
X0256772Y0153425D03*
X0256772Y0153819D03*
X0256772Y0154213D03*
X0256772Y0154606D03*
X0256378Y0155000D03*
X0256378Y0155394D03*
X0256378Y0155787D03*
X0255984Y0156181D03*
X0255984Y0156575D03*
X0255984Y0156969D03*
X0255984Y0157362D03*
X0255591Y0157756D03*
X0255591Y0158150D03*
X0255591Y0158543D03*
X0255591Y0158937D03*
X0255197Y0159331D03*
X0255197Y0159724D03*
X0255197Y0160118D03*
X0254803Y0160512D03*
X0254803Y0160906D03*
X0254803Y0161299D03*
X0251260Y0173110D03*
X0199685Y0127835D03*
X0199685Y0127441D03*
X0199291Y0126654D03*
X0199291Y0126260D03*
X0198898Y0125472D03*
X0198898Y0125079D03*
X0198504Y0124291D03*
X0198110Y0123110D03*
X0197717Y0122323D03*
X0197717Y0121929D03*
X0197323Y0121142D03*
X0197323Y0120748D03*
X0196929Y0119961D03*
X0206378Y0116024D03*
X0174488Y0118780D03*
X0105197Y0098701D03*
X0105197Y0098307D03*
X0105197Y0097913D03*
X0105197Y0097520D03*
X0105197Y0097126D03*
X0105197Y0095551D03*
X0105197Y0095157D03*
X0105197Y0094764D03*
X0105197Y0094370D03*
X0104803Y0093976D03*
X0104803Y0093583D03*
X0104803Y0099094D03*
X0104803Y0099488D03*
X0086299Y0099882D03*
X0085906Y0099094D03*
X0085906Y0098701D03*
X0085512Y0097520D03*
X0085512Y0097126D03*
X0085512Y0096732D03*
X0085512Y0096339D03*
X0085512Y0095945D03*
X0085512Y0095551D03*
X0085512Y0095157D03*
X0085906Y0094370D03*
X0085906Y0093976D03*
X0085906Y0093583D03*
X0086299Y0092795D03*
X0178819Y0064449D03*
X0178819Y0064055D03*
X0178819Y0063661D03*
X0178425Y0062874D03*
X0178425Y0062480D03*
X0178031Y0061693D03*
X0178031Y0061299D03*
X0178031Y0060906D03*
X0177638Y0060512D03*
X0177638Y0060118D03*
X0177638Y0059724D03*
X0177244Y0058937D03*
X0177244Y0058543D03*
X0176850Y0057756D03*
X0176850Y0057362D03*
X0098504Y0208150D03*
X0098110Y0208937D03*
X0098110Y0209331D03*
X0098110Y0209724D03*
X0097717Y0210118D03*
X0097717Y0210512D03*
X0097717Y0210906D03*
X0097717Y0211299D03*
X0097323Y0212480D03*
X0097323Y0212874D03*
X0097323Y0213268D03*
X0097323Y0213661D03*
X0097323Y0214055D03*
X0097323Y0214449D03*
X0097323Y0214843D03*
X0097323Y0215236D03*
X0097717Y0216024D03*
X0097717Y0216417D03*
X0152835Y0216417D03*
X0152835Y0216024D03*
X0153228Y0215236D03*
X0153228Y0214843D03*
X0153228Y0214449D03*
X0153228Y0214055D03*
X0153228Y0213661D03*
X0153228Y0213268D03*
X0153228Y0212874D03*
X0153228Y0212480D03*
X0152835Y0211693D03*
X0152835Y0211299D03*
X0152835Y0210906D03*
D125*
X0135512Y0171929D03*
X0135512Y0171535D03*
X0187874Y0112480D03*
X0136299Y0058150D03*
X0135906Y0057756D03*
X0248110Y0057756D03*
X0328819Y0057756D03*
X0329213Y0132559D03*
X0328819Y0132953D03*
D126*
X0329803Y0058543D03*
X0329409Y0058150D03*
X0247520Y0058150D03*
X0247126Y0058543D03*
X0187677Y0071929D03*
X0136496Y0132165D03*
X0136102Y0132559D03*
X0121929Y0148307D03*
X0131772Y0201850D03*
X0204213Y0216811D03*
X0204213Y0217205D03*
X0054213Y0058543D03*
X0054606Y0058150D03*
D127*
X0053622Y0058937D03*
X0136693Y0058543D03*
X0137087Y0058937D03*
X0137087Y0131772D03*
X0135512Y0172323D03*
X0133150Y0202244D03*
X0204409Y0217598D03*
X0307165Y0153819D03*
X0329606Y0132165D03*
X0330000Y0131772D03*
X0330394Y0131378D03*
D128*
X0330984Y0059724D03*
X0330591Y0059331D03*
X0330197Y0058937D03*
X0246732Y0058937D03*
X0246339Y0059331D03*
X0187677Y0071535D03*
X0137677Y0059331D03*
X0187677Y0112874D03*
X0137677Y0130984D03*
X0137283Y0131378D03*
X0121929Y0148701D03*
X0135709Y0172717D03*
X0134134Y0202638D03*
X0134921Y0203031D03*
X0135315Y0203425D03*
X0204213Y0217992D03*
X0053425Y0059331D03*
D129*
X0052835Y0059724D03*
X0137874Y0059724D03*
X0138268Y0060118D03*
X0138268Y0130591D03*
X0121732Y0149094D03*
X0135512Y0173110D03*
X0135906Y0203819D03*
X0136693Y0204213D03*
X0307165Y0154213D03*
X0330787Y0130984D03*
X0331181Y0130591D03*
X0331575Y0130197D03*
X0246142Y0059724D03*
D130*
X0244370Y0061693D03*
X0243976Y0062087D03*
X0243583Y0062480D03*
X0332559Y0061693D03*
X0332953Y0128622D03*
X0332559Y0129016D03*
X0204213Y0219173D03*
X0138858Y0205787D03*
X0121535Y0149488D03*
X0139646Y0129016D03*
X0053031Y0132165D03*
X0052638Y0131378D03*
X0052244Y0130984D03*
X0052244Y0130591D03*
X0051850Y0130197D03*
X0051850Y0129803D03*
X0051457Y0129409D03*
X0051063Y0129016D03*
X0051063Y0061693D03*
X0139252Y0061299D03*
X0139646Y0061693D03*
X0140039Y0062087D03*
D131*
X0140236Y0062480D03*
X0140630Y0062874D03*
X0050866Y0062087D03*
X0050472Y0062480D03*
X0050472Y0128228D03*
X0050866Y0128622D03*
X0052835Y0131772D03*
X0053228Y0132559D03*
X0053622Y0133346D03*
X0121339Y0149882D03*
X0139843Y0128622D03*
X0140236Y0128228D03*
X0140630Y0127835D03*
X0333150Y0128228D03*
X0333543Y0127835D03*
X0333937Y0127441D03*
X0333543Y0062480D03*
X0333150Y0062087D03*
D132*
X0333740Y0062874D03*
X0334134Y0063268D03*
X0243189Y0062874D03*
X0242795Y0063268D03*
X0187677Y0070748D03*
X0141220Y0063661D03*
X0140827Y0063268D03*
X0187677Y0113661D03*
X0141220Y0127047D03*
X0140827Y0127441D03*
X0053819Y0133740D03*
X0053425Y0132953D03*
X0050276Y0127835D03*
X0049882Y0127441D03*
X0049488Y0063661D03*
X0049882Y0063268D03*
X0050276Y0062874D03*
X0113661Y0200669D03*
X0139252Y0206181D03*
X0204213Y0219567D03*
X0306575Y0155000D03*
X0334134Y0127047D03*
X0334528Y0126654D03*
D133*
X0334724Y0126260D03*
X0335118Y0125866D03*
X0306772Y0155394D03*
X0307165Y0155787D03*
X0307165Y0156181D03*
X0307559Y0156575D03*
X0307953Y0156969D03*
X0307953Y0157362D03*
X0308346Y0157756D03*
X0308740Y0158150D03*
X0308740Y0158543D03*
X0309134Y0158937D03*
X0309528Y0159331D03*
X0309921Y0159724D03*
X0309921Y0160118D03*
X0310315Y0160512D03*
X0310709Y0160906D03*
X0310709Y0161299D03*
X0311102Y0161693D03*
X0311496Y0162087D03*
X0311496Y0162480D03*
X0311890Y0162874D03*
X0312283Y0163268D03*
X0312283Y0163661D03*
X0312677Y0164055D03*
X0313071Y0164449D03*
X0313465Y0164843D03*
X0313465Y0165236D03*
X0313858Y0165630D03*
X0314252Y0166024D03*
X0314252Y0166417D03*
X0314646Y0166811D03*
X0318976Y0173110D03*
X0319370Y0173504D03*
X0319764Y0173898D03*
X0319764Y0174291D03*
X0320157Y0174685D03*
X0320551Y0175079D03*
X0320551Y0175472D03*
X0320945Y0175866D03*
X0321339Y0176260D03*
X0321339Y0176654D03*
X0321732Y0177047D03*
X0322126Y0177441D03*
X0322520Y0177835D03*
X0322520Y0178228D03*
X0322913Y0178622D03*
X0323307Y0179016D03*
X0323307Y0179409D03*
X0323701Y0179803D03*
X0324094Y0180197D03*
X0324094Y0180591D03*
X0324488Y0180984D03*
X0324882Y0181378D03*
X0324882Y0181772D03*
X0325276Y0182165D03*
X0325669Y0182559D03*
X0326063Y0182953D03*
X0326063Y0183346D03*
X0326457Y0183740D03*
X0326850Y0184134D03*
X0326850Y0184528D03*
X0327244Y0184921D03*
X0327638Y0185315D03*
X0327638Y0185709D03*
X0328031Y0186102D03*
X0328425Y0186496D03*
X0328819Y0187283D03*
X0329213Y0187677D03*
X0329606Y0188071D03*
X0329606Y0188465D03*
X0330000Y0188858D03*
X0330394Y0189252D03*
X0330394Y0189646D03*
X0330787Y0190039D03*
X0331181Y0190433D03*
X0331181Y0190827D03*
X0331575Y0191220D03*
X0331969Y0191614D03*
X0332362Y0192008D03*
X0332362Y0192402D03*
X0332756Y0192795D03*
X0333150Y0193189D03*
X0333150Y0193583D03*
X0333543Y0193976D03*
X0333937Y0194370D03*
X0333937Y0194764D03*
X0334331Y0195157D03*
X0334724Y0195551D03*
X0243780Y0129409D03*
X0243386Y0128622D03*
X0242992Y0127835D03*
X0242598Y0127047D03*
X0242205Y0126260D03*
X0241811Y0064843D03*
X0242205Y0064055D03*
X0242598Y0063661D03*
X0334331Y0063661D03*
X0334724Y0064055D03*
X0141811Y0064449D03*
X0141417Y0064055D03*
X0049291Y0064055D03*
X0048898Y0064449D03*
X0049291Y0126654D03*
X0049685Y0127047D03*
X0054016Y0134134D03*
X0054016Y0134528D03*
X0141417Y0126654D03*
X0141811Y0126260D03*
D134*
X0142008Y0125866D03*
X0142402Y0125472D03*
X0121142Y0150276D03*
X0187677Y0114055D03*
X0241614Y0125472D03*
X0242008Y0125866D03*
X0242402Y0126654D03*
X0242795Y0127441D03*
X0243189Y0128228D03*
X0243583Y0129016D03*
X0243976Y0129803D03*
X0328622Y0186890D03*
X0335315Y0125472D03*
X0335709Y0125079D03*
X0335709Y0065630D03*
X0335315Y0064843D03*
X0334921Y0064449D03*
X0242008Y0064449D03*
X0241220Y0065630D03*
X0187677Y0070354D03*
X0142402Y0065236D03*
X0142008Y0064843D03*
X0048701Y0064843D03*
X0048307Y0065236D03*
X0048307Y0125079D03*
X0048701Y0125472D03*
X0048701Y0125866D03*
X0049094Y0126260D03*
X0054213Y0134921D03*
D135*
X0173898Y0117992D03*
X0178228Y0064843D03*
D136*
X0177638Y0065236D03*
X0173701Y0117598D03*
D137*
X0143386Y0123898D03*
X0142992Y0124291D03*
X0142992Y0124685D03*
X0142598Y0125079D03*
X0120945Y0150669D03*
X0054409Y0135315D03*
X0048110Y0124685D03*
X0047717Y0124291D03*
X0047717Y0066417D03*
X0047717Y0066024D03*
X0048110Y0065630D03*
X0142598Y0065630D03*
X0142992Y0066024D03*
X0240630Y0066417D03*
X0241024Y0066024D03*
X0241417Y0065236D03*
X0241024Y0124685D03*
X0241417Y0125079D03*
X0244173Y0130197D03*
X0244173Y0130591D03*
X0244567Y0130984D03*
X0244567Y0131378D03*
X0335906Y0124685D03*
X0336299Y0124291D03*
X0336299Y0066417D03*
X0335906Y0066024D03*
X0335512Y0065236D03*
X0140236Y0206575D03*
D138*
X0198701Y0118780D03*
X0206575Y0114055D03*
X0177047Y0065630D03*
D139*
X0176654Y0066024D03*
X0172717Y0116417D03*
D140*
X0143976Y0123110D03*
X0143583Y0123504D03*
X0122323Y0153425D03*
X0126654Y0160906D03*
X0128228Y0163661D03*
X0129803Y0166417D03*
X0131378Y0169173D03*
X0113268Y0200276D03*
X0204213Y0219961D03*
X0244764Y0131772D03*
X0240827Y0124291D03*
X0240433Y0123898D03*
X0240433Y0123504D03*
X0240039Y0123110D03*
X0240039Y0067205D03*
X0240433Y0066811D03*
X0336496Y0066811D03*
X0336890Y0067205D03*
X0337283Y0067992D03*
X0336890Y0123110D03*
X0336496Y0123504D03*
X0336496Y0123898D03*
X0143976Y0067598D03*
X0143583Y0067205D03*
X0143583Y0066811D03*
X0143189Y0066417D03*
X0047520Y0066811D03*
X0047126Y0067205D03*
X0046732Y0122717D03*
X0047126Y0123504D03*
X0047520Y0123898D03*
X0054606Y0135709D03*
X0054606Y0136102D03*
D141*
X0187677Y0066417D03*
X0206575Y0114843D03*
X0198307Y0119173D03*
X0288465Y0086496D03*
D142*
X0187677Y0066811D03*
X0187677Y0117598D03*
X0251850Y0165630D03*
X0233740Y0203819D03*
X0101457Y0089646D03*
D143*
X0095551Y0107756D03*
X0187677Y0067205D03*
X0246732Y0142795D03*
X0251063Y0162874D03*
X0227441Y0207756D03*
X0112480Y0196339D03*
D144*
X0187677Y0116811D03*
X0187677Y0067598D03*
X0095551Y0106575D03*
X0288465Y0090433D03*
D145*
X0246732Y0140039D03*
X0187677Y0116417D03*
X0187677Y0067992D03*
X0112480Y0197520D03*
D146*
X0056575Y0142402D03*
X0095551Y0104606D03*
X0149882Y0098307D03*
X0149488Y0088465D03*
X0149488Y0088071D03*
X0187677Y0068386D03*
X0187677Y0116024D03*
X0246732Y0139252D03*
X0286102Y0103031D03*
D147*
X0245157Y0132953D03*
X0238858Y0121142D03*
X0238465Y0120354D03*
X0238465Y0069961D03*
X0238858Y0069567D03*
X0238858Y0069173D03*
X0239252Y0068780D03*
X0187677Y0069961D03*
X0145551Y0070354D03*
X0145157Y0069567D03*
X0144764Y0069173D03*
X0144764Y0068780D03*
X0145157Y0120748D03*
X0145157Y0121142D03*
X0144764Y0121535D03*
X0055000Y0136890D03*
X0046339Y0121929D03*
X0045945Y0121535D03*
X0045945Y0121142D03*
X0045551Y0120748D03*
X0045551Y0069961D03*
X0045945Y0069173D03*
X0204213Y0208150D03*
X0204213Y0220354D03*
X0337677Y0121929D03*
X0338071Y0121142D03*
X0338465Y0120354D03*
X0338465Y0069961D03*
X0338071Y0069567D03*
X0338071Y0069173D03*
X0337677Y0068780D03*
D148*
X0187677Y0068780D03*
X0149488Y0084528D03*
X0150276Y0101850D03*
X0150276Y0102244D03*
X0095551Y0103425D03*
X0095551Y0089252D03*
D149*
X0040039Y0105000D03*
X0039646Y0103031D03*
X0039646Y0102638D03*
X0039646Y0102244D03*
X0039646Y0101850D03*
X0039252Y0100669D03*
X0039252Y0100276D03*
X0039252Y0099882D03*
X0039252Y0099488D03*
X0039252Y0099094D03*
X0039252Y0098701D03*
X0039252Y0098307D03*
X0039252Y0097913D03*
X0039252Y0097520D03*
X0039252Y0097126D03*
X0039252Y0096732D03*
X0039252Y0096339D03*
X0039252Y0095945D03*
X0039252Y0095551D03*
X0039252Y0095157D03*
X0039252Y0094764D03*
X0039252Y0094370D03*
X0039252Y0093976D03*
X0039252Y0093583D03*
X0039252Y0093189D03*
X0039252Y0092795D03*
X0039252Y0092402D03*
X0039252Y0092008D03*
X0039252Y0091614D03*
X0039252Y0091220D03*
X0039252Y0090827D03*
X0039252Y0090433D03*
X0039252Y0090039D03*
X0039646Y0088465D03*
X0039646Y0088071D03*
X0039646Y0087677D03*
X0039646Y0087283D03*
X0056181Y0140433D03*
X0150669Y0105000D03*
X0150669Y0104606D03*
X0187677Y0069173D03*
X0232953Y0086102D03*
X0232953Y0086496D03*
X0232559Y0088071D03*
X0232559Y0088465D03*
X0232559Y0088858D03*
X0232559Y0089252D03*
X0232559Y0089646D03*
X0232559Y0090039D03*
X0232559Y0090433D03*
X0232165Y0091220D03*
X0232165Y0091614D03*
X0232165Y0092008D03*
X0232165Y0092402D03*
X0232165Y0092795D03*
X0232165Y0093189D03*
X0232165Y0093583D03*
X0232165Y0093976D03*
X0232165Y0094370D03*
X0232165Y0094764D03*
X0232165Y0095157D03*
X0232165Y0095551D03*
X0232165Y0095945D03*
X0232165Y0096339D03*
X0232165Y0096732D03*
X0232165Y0097126D03*
X0232165Y0097520D03*
X0232165Y0097913D03*
X0232165Y0098307D03*
X0232165Y0098701D03*
X0232165Y0099094D03*
X0232559Y0099882D03*
X0232559Y0100276D03*
X0232559Y0100669D03*
X0232559Y0101063D03*
X0232559Y0101457D03*
X0232559Y0101850D03*
X0232559Y0102244D03*
X0232953Y0104213D03*
X0246339Y0136890D03*
X0343976Y0104606D03*
X0344370Y0102638D03*
X0344370Y0102244D03*
X0344370Y0101850D03*
X0344370Y0101457D03*
X0344370Y0101063D03*
X0344370Y0100669D03*
X0344764Y0099488D03*
X0344764Y0099094D03*
X0344764Y0098701D03*
X0344764Y0098307D03*
X0344764Y0097913D03*
X0344764Y0097520D03*
X0344764Y0097126D03*
X0344764Y0096732D03*
X0344764Y0096339D03*
X0344764Y0095945D03*
X0344764Y0095551D03*
X0344764Y0095157D03*
X0344764Y0094764D03*
X0344764Y0094370D03*
X0344764Y0093976D03*
X0344764Y0093583D03*
X0344764Y0093189D03*
X0344764Y0092795D03*
X0344764Y0092402D03*
X0344764Y0092008D03*
X0344764Y0091614D03*
X0344764Y0091220D03*
X0344764Y0090827D03*
X0344370Y0089646D03*
X0344370Y0089252D03*
X0344370Y0088858D03*
X0344370Y0088465D03*
X0344370Y0088071D03*
X0343976Y0086102D03*
X0204213Y0207362D03*
X0204213Y0221142D03*
D150*
X0204213Y0220748D03*
X0204213Y0207756D03*
X0112874Y0199488D03*
X0055787Y0138858D03*
X0043189Y0115630D03*
X0042795Y0114843D03*
X0042795Y0114449D03*
X0042402Y0114055D03*
X0042402Y0113661D03*
X0042008Y0077835D03*
X0042402Y0077047D03*
X0042402Y0076654D03*
X0042795Y0075866D03*
X0042795Y0075472D03*
X0043189Y0074685D03*
X0147913Y0075472D03*
X0147913Y0075866D03*
X0148307Y0076260D03*
X0148307Y0076654D03*
X0148701Y0077441D03*
X0187677Y0069567D03*
X0235315Y0077047D03*
X0235709Y0076260D03*
X0235709Y0075866D03*
X0236102Y0075472D03*
X0236102Y0075079D03*
X0235315Y0113268D03*
X0235315Y0113661D03*
X0235709Y0114055D03*
X0235709Y0114449D03*
X0236102Y0115236D03*
X0245945Y0135315D03*
X0340433Y0116417D03*
X0340827Y0115630D03*
X0340827Y0115236D03*
X0341220Y0114843D03*
X0341220Y0114449D03*
X0341614Y0113661D03*
X0341614Y0113268D03*
X0341614Y0077047D03*
X0341220Y0076260D03*
X0341220Y0075866D03*
X0340827Y0075079D03*
X0148701Y0112874D03*
X0148307Y0114055D03*
X0148307Y0114449D03*
X0147913Y0114843D03*
X0147913Y0115236D03*
X0147520Y0116024D03*
D151*
X0146732Y0117598D03*
X0146732Y0117992D03*
X0146339Y0118386D03*
X0146339Y0118780D03*
X0147126Y0073504D03*
X0146732Y0072717D03*
X0146732Y0072323D03*
X0146339Y0071929D03*
X0145945Y0071142D03*
X0236890Y0073110D03*
X0237283Y0072717D03*
X0237283Y0072323D03*
X0237677Y0071535D03*
X0236890Y0117205D03*
X0237283Y0117992D03*
X0237283Y0118386D03*
X0237677Y0118780D03*
X0245551Y0134134D03*
X0339252Y0118780D03*
X0339646Y0118386D03*
X0339646Y0117992D03*
X0340039Y0117205D03*
X0340039Y0073110D03*
X0339646Y0072323D03*
X0339252Y0071535D03*
X0055394Y0138071D03*
X0044764Y0119173D03*
X0044370Y0118386D03*
X0043976Y0117598D03*
X0043583Y0073898D03*
X0043976Y0073110D03*
X0043976Y0072717D03*
X0044370Y0072323D03*
X0044370Y0071929D03*
X0044764Y0071535D03*
D152*
X0043780Y0073504D03*
X0043386Y0074291D03*
X0042992Y0075079D03*
X0042992Y0115236D03*
X0043386Y0116024D03*
X0043386Y0116417D03*
X0043780Y0116811D03*
X0043780Y0117205D03*
X0044173Y0117992D03*
X0055591Y0138465D03*
X0146929Y0117205D03*
X0147323Y0116811D03*
X0147323Y0116417D03*
X0147717Y0115630D03*
X0187874Y0114843D03*
X0235906Y0114843D03*
X0236299Y0115630D03*
X0236299Y0116024D03*
X0236693Y0116417D03*
X0236693Y0116811D03*
X0237087Y0117598D03*
X0245748Y0134528D03*
X0245748Y0134921D03*
X0236299Y0074685D03*
X0236299Y0074291D03*
X0236693Y0073898D03*
X0236693Y0073504D03*
X0147717Y0074685D03*
X0147717Y0075079D03*
X0147323Y0074291D03*
X0147323Y0073898D03*
X0146929Y0073110D03*
X0339843Y0072717D03*
X0340236Y0073504D03*
X0340236Y0073898D03*
X0340630Y0074291D03*
X0340630Y0074685D03*
X0341024Y0075472D03*
X0340630Y0116024D03*
X0340236Y0116811D03*
X0339843Y0117598D03*
D153*
X0322717Y0137283D03*
X0187677Y0109724D03*
X0187677Y0074685D03*
X0129409Y0137677D03*
D154*
X0148504Y0113661D03*
X0148504Y0113268D03*
X0148898Y0112480D03*
X0148898Y0112087D03*
X0149291Y0111693D03*
X0149291Y0111299D03*
X0149291Y0110906D03*
X0149685Y0080591D03*
X0149291Y0079409D03*
X0149291Y0079016D03*
X0148898Y0078622D03*
X0148898Y0078228D03*
X0148898Y0077835D03*
X0148504Y0077047D03*
X0234331Y0080197D03*
X0234724Y0079016D03*
X0234724Y0078622D03*
X0235118Y0078228D03*
X0235118Y0077835D03*
X0235118Y0077441D03*
X0235512Y0076654D03*
X0234331Y0110512D03*
X0234724Y0111299D03*
X0234724Y0111693D03*
X0234724Y0112087D03*
X0235118Y0112480D03*
X0235118Y0112874D03*
X0341417Y0114055D03*
X0341811Y0112874D03*
X0341811Y0112480D03*
X0342205Y0112087D03*
X0342205Y0111693D03*
X0342598Y0110512D03*
X0342598Y0080197D03*
X0342598Y0079803D03*
X0342205Y0079016D03*
X0342205Y0078622D03*
X0342205Y0078228D03*
X0341811Y0077835D03*
X0341811Y0077441D03*
X0341417Y0076654D03*
X0042598Y0076260D03*
X0042205Y0077441D03*
X0041811Y0078228D03*
X0041811Y0078622D03*
X0041417Y0079409D03*
X0041417Y0079803D03*
X0041417Y0110906D03*
X0041811Y0111693D03*
X0041811Y0112087D03*
X0041811Y0112480D03*
X0042205Y0112874D03*
X0042205Y0113268D03*
D155*
X0041614Y0111299D03*
X0041220Y0110512D03*
X0041220Y0110118D03*
X0041220Y0109724D03*
X0040827Y0109331D03*
X0040827Y0108937D03*
X0040827Y0108543D03*
X0040433Y0107362D03*
X0040433Y0106969D03*
X0040433Y0083346D03*
X0040827Y0082165D03*
X0040827Y0081772D03*
X0040827Y0081378D03*
X0041220Y0080984D03*
X0041220Y0080591D03*
X0041220Y0080197D03*
X0041614Y0079016D03*
X0055787Y0139252D03*
X0149488Y0110512D03*
X0149488Y0110118D03*
X0149882Y0109724D03*
X0149882Y0109331D03*
X0149882Y0108937D03*
X0150276Y0108150D03*
X0150276Y0107756D03*
X0150276Y0107362D03*
X0150669Y0105787D03*
X0187677Y0115236D03*
X0233346Y0106575D03*
X0233740Y0107756D03*
X0233740Y0108150D03*
X0233740Y0108543D03*
X0234134Y0109331D03*
X0234134Y0109724D03*
X0234134Y0110118D03*
X0234528Y0110906D03*
X0245945Y0135709D03*
X0233346Y0084134D03*
X0233740Y0082559D03*
X0233740Y0082165D03*
X0233740Y0081772D03*
X0234134Y0081378D03*
X0234134Y0080984D03*
X0234134Y0080591D03*
X0234528Y0079803D03*
X0234528Y0079409D03*
X0149882Y0080984D03*
X0149488Y0080197D03*
X0149488Y0079803D03*
X0342402Y0079409D03*
X0342795Y0080591D03*
X0342795Y0080984D03*
X0342795Y0081378D03*
X0343189Y0081772D03*
X0343189Y0082165D03*
X0343189Y0082559D03*
X0343583Y0083740D03*
X0343583Y0106575D03*
X0343189Y0108150D03*
X0343189Y0108543D03*
X0343189Y0108937D03*
X0342795Y0109331D03*
X0342795Y0109724D03*
X0342795Y0110118D03*
X0342402Y0110906D03*
X0342402Y0111299D03*
D156*
X0187677Y0105000D03*
X0187677Y0104606D03*
X0187677Y0079803D03*
X0187677Y0079409D03*
D157*
X0187677Y0080984D03*
X0187677Y0081378D03*
X0187677Y0103031D03*
X0187677Y0103425D03*
X0309724Y0146339D03*
D158*
X0343386Y0107756D03*
X0343386Y0107362D03*
X0343386Y0106969D03*
X0343780Y0106181D03*
X0343780Y0105787D03*
X0343780Y0105394D03*
X0343780Y0105000D03*
X0344173Y0104213D03*
X0344173Y0103819D03*
X0344173Y0103425D03*
X0344173Y0103031D03*
X0344567Y0100276D03*
X0344567Y0099882D03*
X0344567Y0090433D03*
X0344567Y0090039D03*
X0344173Y0087677D03*
X0344173Y0087283D03*
X0344173Y0086890D03*
X0344173Y0086496D03*
X0343780Y0085709D03*
X0343780Y0085315D03*
X0343780Y0084921D03*
X0343780Y0084528D03*
X0343780Y0084134D03*
X0343386Y0083346D03*
X0343386Y0082953D03*
X0246142Y0136102D03*
X0246142Y0136496D03*
X0233937Y0108937D03*
X0233543Y0107362D03*
X0233543Y0106969D03*
X0233150Y0106181D03*
X0233150Y0105787D03*
X0233150Y0105394D03*
X0233150Y0105000D03*
X0233150Y0104606D03*
X0232756Y0103819D03*
X0232756Y0103425D03*
X0232756Y0103031D03*
X0232756Y0102638D03*
X0232362Y0099488D03*
X0232362Y0090827D03*
X0232756Y0087677D03*
X0232756Y0087283D03*
X0232756Y0086890D03*
X0233150Y0085709D03*
X0233150Y0085315D03*
X0233150Y0084921D03*
X0233150Y0084528D03*
X0233543Y0083740D03*
X0233543Y0083346D03*
X0233543Y0082953D03*
X0149685Y0081772D03*
X0149685Y0081378D03*
X0150866Y0105394D03*
X0150472Y0106181D03*
X0150472Y0106575D03*
X0150472Y0106969D03*
X0150079Y0108543D03*
X0055984Y0139646D03*
X0055984Y0140039D03*
X0040630Y0108150D03*
X0040630Y0107756D03*
X0040236Y0106575D03*
X0040236Y0106181D03*
X0040236Y0105787D03*
X0040236Y0105394D03*
X0039843Y0104606D03*
X0039843Y0104213D03*
X0039843Y0103819D03*
X0039843Y0103425D03*
X0039449Y0101457D03*
X0039449Y0101063D03*
X0039449Y0089646D03*
X0039449Y0089252D03*
X0039449Y0088858D03*
X0039843Y0086890D03*
X0039843Y0086496D03*
X0039843Y0086102D03*
X0039843Y0085709D03*
X0040236Y0085315D03*
X0040236Y0084921D03*
X0040236Y0084528D03*
X0040236Y0084134D03*
X0040236Y0083740D03*
X0040630Y0082953D03*
X0040630Y0082559D03*
X0112677Y0199094D03*
D159*
X0150472Y0104213D03*
X0149685Y0082953D03*
X0149685Y0082559D03*
X0149685Y0082165D03*
D160*
X0174291Y0118386D03*
X0197520Y0119567D03*
X0280984Y0097520D03*
X0280984Y0097126D03*
X0280984Y0096732D03*
X0280984Y0096339D03*
X0280984Y0095945D03*
X0280984Y0095551D03*
X0280984Y0095157D03*
X0295551Y0094764D03*
X0295551Y0097913D03*
X0095551Y0083740D03*
D161*
X0187677Y0083740D03*
X0187677Y0084134D03*
X0187677Y0084528D03*
X0187677Y0099882D03*
X0187677Y0100276D03*
X0187677Y0100669D03*
X0310118Y0145157D03*
X0314055Y0141220D03*
D162*
X0251654Y0165236D03*
X0246929Y0143583D03*
X0288268Y0087677D03*
X0233150Y0204213D03*
X0232756Y0204606D03*
X0112283Y0195945D03*
X0103622Y0201850D03*
X0056772Y0146732D03*
X0097323Y0108937D03*
X0089449Y0089646D03*
X0095354Y0084528D03*
D163*
X0095354Y0084921D03*
X0056772Y0146339D03*
X0229606Y0206575D03*
X0251260Y0164055D03*
X0251260Y0163661D03*
X0246929Y0143189D03*
D164*
X0246535Y0138465D03*
X0246535Y0138071D03*
X0150472Y0101457D03*
X0149685Y0085709D03*
X0149685Y0085315D03*
X0149685Y0084921D03*
X0095354Y0103819D03*
X0056378Y0141614D03*
X0112677Y0198307D03*
D165*
X0187874Y0084921D03*
D166*
X0095354Y0085315D03*
X0250866Y0162480D03*
X0288268Y0088858D03*
D167*
X0310118Y0144764D03*
X0187677Y0099488D03*
X0187677Y0099094D03*
X0187677Y0098701D03*
X0187677Y0098307D03*
X0187677Y0086102D03*
X0187677Y0085709D03*
X0187677Y0085315D03*
D168*
X0095551Y0085709D03*
X0250669Y0161693D03*
D169*
X0246929Y0141614D03*
X0288268Y0090039D03*
X0095354Y0086102D03*
X0056772Y0144764D03*
D170*
X0056575Y0142008D03*
X0095551Y0088858D03*
X0149488Y0086102D03*
X0150276Y0100276D03*
X0150276Y0100669D03*
X0150276Y0101063D03*
D171*
X0150079Y0099882D03*
X0150079Y0099488D03*
X0150079Y0099094D03*
X0150079Y0098701D03*
X0149685Y0087677D03*
X0149685Y0087283D03*
X0149685Y0086890D03*
X0149685Y0086496D03*
X0095354Y0088465D03*
X0095354Y0104213D03*
X0246535Y0138858D03*
D172*
X0187677Y0097913D03*
X0187677Y0097520D03*
X0187677Y0097126D03*
X0187677Y0096732D03*
X0187677Y0096339D03*
X0187677Y0088071D03*
X0187677Y0087677D03*
X0187677Y0087283D03*
X0187677Y0086890D03*
X0187677Y0086496D03*
X0310118Y0144370D03*
D173*
X0246929Y0140827D03*
X0288268Y0091220D03*
X0095354Y0086890D03*
X0056772Y0143976D03*
D174*
X0056772Y0143583D03*
X0095354Y0105787D03*
X0095354Y0087283D03*
X0246929Y0140433D03*
D175*
X0235906Y0149094D03*
X0235512Y0148701D03*
X0235118Y0148307D03*
X0231181Y0143976D03*
X0230787Y0143583D03*
X0230394Y0143189D03*
X0226457Y0138858D03*
X0226063Y0138465D03*
X0225669Y0138071D03*
X0225276Y0137677D03*
X0221339Y0133346D03*
X0220945Y0132953D03*
X0220551Y0132559D03*
X0216614Y0128228D03*
X0216220Y0127835D03*
X0215827Y0127441D03*
X0215433Y0127047D03*
X0211496Y0122717D03*
X0211102Y0122323D03*
X0210709Y0121929D03*
X0210315Y0121535D03*
X0206772Y0117598D03*
X0206378Y0117205D03*
X0239843Y0153425D03*
X0240236Y0153819D03*
X0240630Y0154213D03*
X0244961Y0158937D03*
X0245354Y0159331D03*
X0245748Y0159724D03*
X0252047Y0166417D03*
X0236693Y0201063D03*
X0236299Y0201457D03*
X0150472Y0207756D03*
X0150472Y0219961D03*
X0100079Y0219961D03*
X0102441Y0102638D03*
X0088268Y0102638D03*
X0088661Y0090039D03*
X0288268Y0087283D03*
X0292992Y0091614D03*
D176*
X0095354Y0087677D03*
X0095354Y0105394D03*
X0056772Y0143189D03*
D177*
X0095354Y0088071D03*
X0149685Y0088858D03*
X0149685Y0089252D03*
X0149685Y0089646D03*
X0149685Y0090039D03*
X0149685Y0090433D03*
X0149685Y0090827D03*
X0149685Y0091220D03*
X0149685Y0091614D03*
X0149685Y0092008D03*
X0149685Y0092402D03*
X0150079Y0096732D03*
X0150079Y0097126D03*
X0150079Y0097520D03*
X0150079Y0097913D03*
X0285118Y0104213D03*
X0285512Y0103819D03*
X0285906Y0103425D03*
X0286299Y0102638D03*
X0286693Y0102244D03*
X0287087Y0101850D03*
X0112677Y0197913D03*
D178*
X0230197Y0206181D03*
X0251457Y0164449D03*
X0288465Y0088071D03*
X0096732Y0108543D03*
D179*
X0187874Y0095945D03*
X0187874Y0088465D03*
X0310315Y0143976D03*
X0125276Y0224291D03*
D180*
X0228031Y0207362D03*
X0251260Y0163268D03*
X0288268Y0088465D03*
X0056772Y0145945D03*
D181*
X0187677Y0095551D03*
X0187677Y0095157D03*
X0187677Y0094764D03*
X0187677Y0094370D03*
X0187677Y0093976D03*
X0187677Y0093583D03*
X0187677Y0093189D03*
X0187677Y0092795D03*
X0187677Y0092402D03*
X0187677Y0092008D03*
X0187677Y0091614D03*
X0187677Y0091220D03*
X0187677Y0090827D03*
X0187677Y0090433D03*
X0187677Y0090039D03*
X0187677Y0089646D03*
X0187677Y0089252D03*
X0187677Y0088858D03*
X0312087Y0142008D03*
D182*
X0246929Y0142402D03*
X0288268Y0089252D03*
X0226457Y0208150D03*
X0056772Y0145551D03*
D183*
X0101850Y0103031D03*
X0102244Y0090039D03*
X0236102Y0201850D03*
X0235709Y0202244D03*
X0102244Y0202638D03*
X0282559Y0101063D03*
X0288465Y0105394D03*
D184*
X0293386Y0101063D03*
X0278819Y0105000D03*
X0278425Y0105394D03*
X0278031Y0105787D03*
X0277638Y0106181D03*
X0277244Y0106969D03*
X0276850Y0107362D03*
X0276457Y0107756D03*
X0275669Y0108937D03*
X0240630Y0196732D03*
X0240236Y0197126D03*
X0239449Y0198307D03*
X0239055Y0198701D03*
X0238661Y0199094D03*
X0151260Y0208543D03*
X0150866Y0208150D03*
X0151260Y0219173D03*
X0150866Y0219567D03*
X0100866Y0203819D03*
X0099291Y0219173D03*
X0099685Y0219567D03*
X0056772Y0147126D03*
X0098898Y0109331D03*
X0102835Y0102244D03*
X0103228Y0090827D03*
X0102835Y0090433D03*
X0087874Y0102244D03*
X0087480Y0101850D03*
D185*
X0086693Y0100669D03*
X0086693Y0092008D03*
X0087087Y0091614D03*
X0104016Y0091614D03*
X0104016Y0092008D03*
X0104409Y0100276D03*
X0104016Y0101063D03*
X0103622Y0101457D03*
X0099685Y0110118D03*
X0100079Y0110906D03*
X0100472Y0111693D03*
X0100866Y0112480D03*
X0101260Y0113268D03*
X0101654Y0114055D03*
X0102047Y0114843D03*
X0102441Y0115630D03*
X0102835Y0116417D03*
X0103228Y0117205D03*
X0103622Y0117598D03*
X0104016Y0118386D03*
X0104409Y0119173D03*
X0104803Y0119961D03*
X0105197Y0120748D03*
X0105591Y0121535D03*
X0105984Y0122323D03*
X0106378Y0123110D03*
X0106772Y0123898D03*
X0107165Y0124685D03*
X0107559Y0125472D03*
X0107953Y0126260D03*
X0108346Y0127047D03*
X0108740Y0127835D03*
X0109134Y0128622D03*
X0109528Y0129409D03*
X0109921Y0130197D03*
X0110315Y0130591D03*
X0110709Y0131378D03*
X0111102Y0132165D03*
X0111496Y0132953D03*
X0111890Y0133740D03*
X0112283Y0134528D03*
X0154803Y0158543D03*
X0154016Y0160118D03*
X0153228Y0161693D03*
X0152835Y0162480D03*
X0152441Y0163268D03*
X0152047Y0164055D03*
X0151654Y0164843D03*
X0151260Y0165630D03*
X0150866Y0166417D03*
X0150472Y0167205D03*
X0150079Y0167992D03*
X0149685Y0168780D03*
X0149291Y0169567D03*
X0162283Y0143976D03*
X0162677Y0143189D03*
X0163071Y0142402D03*
X0163465Y0141614D03*
X0163858Y0140827D03*
X0164252Y0140039D03*
X0164646Y0139252D03*
X0165039Y0138465D03*
X0165433Y0137677D03*
X0165827Y0136890D03*
X0166220Y0136102D03*
X0166614Y0135315D03*
X0167008Y0134528D03*
X0167402Y0133740D03*
X0167795Y0132953D03*
X0168189Y0132165D03*
X0168583Y0131378D03*
X0168976Y0130591D03*
X0169370Y0129803D03*
X0169764Y0129016D03*
X0170157Y0128228D03*
X0170551Y0127441D03*
X0170945Y0126654D03*
X0171339Y0125866D03*
X0171732Y0125079D03*
X0172126Y0124291D03*
X0172520Y0123504D03*
X0172913Y0122717D03*
X0173307Y0121929D03*
X0173701Y0121142D03*
X0174094Y0120354D03*
X0174488Y0119567D03*
X0259528Y0173110D03*
X0260315Y0174291D03*
X0261102Y0175472D03*
X0261890Y0176654D03*
X0262283Y0177441D03*
X0262677Y0177835D03*
X0263071Y0178622D03*
X0263465Y0179016D03*
X0263858Y0179803D03*
X0264646Y0180984D03*
X0265433Y0182165D03*
X0266220Y0183346D03*
X0266614Y0184134D03*
X0267008Y0184528D03*
X0267402Y0185315D03*
X0267795Y0185709D03*
X0268189Y0186496D03*
X0268976Y0187677D03*
X0269764Y0188858D03*
X0270551Y0190039D03*
X0270945Y0190827D03*
X0271339Y0191220D03*
X0271732Y0192008D03*
X0272520Y0193189D03*
X0273307Y0194370D03*
X0274094Y0195551D03*
X0286299Y0188071D03*
X0286693Y0188465D03*
X0287087Y0189252D03*
X0287480Y0189646D03*
X0287874Y0190433D03*
X0288661Y0191614D03*
X0289449Y0192795D03*
X0289843Y0193583D03*
X0290236Y0193976D03*
X0290630Y0194764D03*
X0291024Y0195157D03*
X0285906Y0187283D03*
X0285512Y0186890D03*
X0285118Y0186102D03*
X0284331Y0184921D03*
X0283543Y0183740D03*
X0283150Y0182953D03*
X0282756Y0182559D03*
X0282362Y0181772D03*
X0281969Y0181378D03*
X0281575Y0180591D03*
X0280787Y0179409D03*
X0280000Y0178228D03*
X0279213Y0177047D03*
X0278819Y0176260D03*
X0278425Y0175866D03*
X0278031Y0175079D03*
X0277638Y0174685D03*
X0277244Y0173898D03*
X0293780Y0173110D03*
X0294173Y0173504D03*
X0294567Y0174291D03*
X0295354Y0175472D03*
X0296142Y0176654D03*
X0296929Y0177835D03*
X0297323Y0178622D03*
X0297717Y0179016D03*
X0298110Y0179803D03*
X0298504Y0180197D03*
X0298898Y0180984D03*
X0299685Y0182165D03*
X0300472Y0183346D03*
X0301260Y0184528D03*
X0301654Y0185315D03*
X0302047Y0185709D03*
X0302441Y0186496D03*
X0303228Y0187677D03*
X0304016Y0188858D03*
X0304803Y0190039D03*
X0305197Y0190827D03*
X0305591Y0191220D03*
X0305984Y0192008D03*
X0306378Y0192402D03*
X0306772Y0193189D03*
X0307559Y0194370D03*
X0308346Y0195551D03*
X0267795Y0122323D03*
X0268189Y0121535D03*
X0268583Y0120748D03*
X0268976Y0119961D03*
X0269370Y0119173D03*
X0269764Y0118386D03*
X0270157Y0117992D03*
X0270157Y0117598D03*
X0270551Y0117205D03*
X0270551Y0116811D03*
X0270945Y0116417D03*
X0271339Y0116024D03*
X0271339Y0115630D03*
X0271732Y0115236D03*
X0271732Y0114843D03*
X0272126Y0114449D03*
X0272520Y0113661D03*
X0273307Y0112480D03*
X0274094Y0111299D03*
X0282756Y0092008D03*
X0293780Y0092008D03*
X0135906Y0196339D03*
X0135512Y0197126D03*
X0135118Y0197913D03*
X0134724Y0198701D03*
X0134331Y0199488D03*
X0133937Y0200276D03*
X0151654Y0208937D03*
X0152047Y0209331D03*
X0152047Y0218386D03*
X0151654Y0218780D03*
X0100079Y0205000D03*
X0099685Y0205787D03*
X0099291Y0206181D03*
X0098504Y0217992D03*
X0098504Y0218386D03*
X0098898Y0218780D03*
D186*
X0056575Y0142795D03*
X0095551Y0105000D03*
X0149882Y0096339D03*
X0149882Y0095945D03*
X0149882Y0095551D03*
X0149882Y0095157D03*
X0149882Y0094764D03*
X0149882Y0094370D03*
X0149882Y0093976D03*
X0149882Y0093583D03*
X0149882Y0093189D03*
X0149882Y0092795D03*
X0246732Y0139646D03*
X0284528Y0104606D03*
X0287283Y0101457D03*
D187*
X0281772Y0099488D03*
X0281378Y0099094D03*
X0281378Y0093976D03*
X0281772Y0093189D03*
X0294764Y0093189D03*
X0295157Y0093583D03*
X0295157Y0099094D03*
X0295157Y0099488D03*
X0294764Y0099882D03*
X0246732Y0144370D03*
X0153031Y0212087D03*
X0153031Y0215630D03*
X0112087Y0195551D03*
X0097520Y0211693D03*
X0097520Y0212087D03*
X0097520Y0215630D03*
X0085709Y0098307D03*
X0085709Y0097913D03*
X0085709Y0094764D03*
X0105394Y0095945D03*
X0105394Y0096339D03*
X0105394Y0096732D03*
D188*
X0056772Y0147520D03*
X0206378Y0115630D03*
X0281181Y0098701D03*
X0281181Y0098307D03*
X0281181Y0097913D03*
X0281181Y0094764D03*
X0281181Y0094370D03*
X0281575Y0093583D03*
X0295354Y0093976D03*
X0295354Y0094370D03*
X0295748Y0095157D03*
X0295748Y0095551D03*
X0295748Y0095945D03*
X0295748Y0096339D03*
X0295748Y0096732D03*
X0295748Y0097126D03*
X0295748Y0097520D03*
X0295354Y0098307D03*
X0295354Y0098701D03*
D189*
X0252047Y0166024D03*
X0235118Y0202638D03*
X0234724Y0203031D03*
X0234331Y0203425D03*
X0149685Y0207362D03*
X0149685Y0220354D03*
X0100866Y0220354D03*
X0102835Y0202244D03*
X0089055Y0103031D03*
D190*
X0231378Y0205394D03*
X0232165Y0205000D03*
X0251457Y0164843D03*
X0288465Y0105000D03*
D191*
X0288268Y0106181D03*
X0206378Y0115236D03*
X0187874Y0117992D03*
D192*
X0187677Y0117205D03*
X0250669Y0162087D03*
X0095551Y0107362D03*
D193*
X0095945Y0108150D03*
X0229016Y0206969D03*
D194*
X0208150Y0211299D03*
X0187677Y0108937D03*
D195*
X0206772Y0113661D03*
D196*
X0206575Y0114449D03*
D197*
X0199094Y0118386D03*
X0173110Y0116811D03*
D198*
X0173307Y0117205D03*
D199*
X0209134Y0210512D03*
X0320551Y0138465D03*
D200*
X0318583Y0139252D03*
X0309134Y0148307D03*
X0123701Y0141220D03*
D201*
X0309528Y0147126D03*
X0316614Y0140039D03*
D202*
X0311102Y0142402D03*
X0310315Y0143189D03*
D203*
X0310512Y0142795D03*
D204*
X0310315Y0143583D03*
X0125276Y0223898D03*
D205*
X0288858Y0167205D03*
X0290039Y0168780D03*
D206*
X0290236Y0169961D03*
D207*
X0290236Y0170748D03*
D208*
X0290236Y0171535D03*
D209*
X0290433Y0171929D03*
D210*
X0187480Y0173504D03*
X0187480Y0173898D03*
D211*
X0187677Y0174291D03*
D212*
X0187480Y0174685D03*
D213*
X0187677Y0175079D03*
D214*
X0187874Y0175472D03*
D215*
X0187677Y0175866D03*
D216*
X0187874Y0176260D03*
X0187874Y0176654D03*
D217*
X0187874Y0177047D03*
D218*
X0188071Y0177441D03*
X0188071Y0177835D03*
D219*
X0188071Y0178228D03*
X0188071Y0178622D03*
D220*
X0188268Y0179016D03*
D221*
X0188071Y0179409D03*
D222*
X0188268Y0179803D03*
D223*
X0188465Y0180197D03*
D224*
X0188268Y0180591D03*
D225*
X0188465Y0180984D03*
X0188465Y0181378D03*
D226*
X0188465Y0181772D03*
X0188465Y0182165D03*
D227*
X0188465Y0182559D03*
D228*
X0188661Y0182953D03*
X0188661Y0183346D03*
D229*
X0188661Y0183740D03*
X0188661Y0184134D03*
D230*
X0188661Y0184528D03*
X0188661Y0184921D03*
D231*
X0188858Y0185315D03*
D232*
X0188858Y0185709D03*
X0188858Y0186102D03*
D233*
X0188858Y0186496D03*
X0188858Y0186890D03*
D234*
X0189055Y0187283D03*
D235*
X0188858Y0187677D03*
D236*
X0189055Y0188071D03*
D237*
X0189055Y0188465D03*
X0189055Y0188858D03*
D238*
X0189055Y0189252D03*
X0189055Y0189646D03*
D239*
X0189055Y0190039D03*
X0189055Y0190433D03*
D240*
X0189055Y0190827D03*
D241*
X0189252Y0191220D03*
X0303425Y0214055D03*
D242*
X0303228Y0213661D03*
X0302835Y0213268D03*
X0302441Y0212874D03*
X0302441Y0212480D03*
X0302047Y0212087D03*
X0303622Y0214449D03*
X0304016Y0214843D03*
X0304409Y0215236D03*
X0189055Y0191614D03*
D243*
X0189252Y0192008D03*
X0301457Y0210906D03*
X0301850Y0211299D03*
X0301850Y0211693D03*
X0304606Y0215630D03*
X0305000Y0216024D03*
X0305394Y0216417D03*
D244*
X0301260Y0210512D03*
X0301260Y0210118D03*
X0300866Y0209724D03*
X0189055Y0192402D03*
D245*
X0189252Y0192795D03*
X0300669Y0209331D03*
X0305787Y0216811D03*
X0306181Y0217205D03*
D246*
X0306772Y0217598D03*
X0300472Y0208937D03*
X0300472Y0208543D03*
X0189055Y0193189D03*
D247*
X0189252Y0193583D03*
X0300276Y0208150D03*
D248*
X0299882Y0206969D03*
X0189252Y0193976D03*
D249*
X0189055Y0194370D03*
X0299685Y0206181D03*
X0299685Y0206575D03*
X0307953Y0218386D03*
D250*
X0299488Y0205787D03*
X0189252Y0194764D03*
D251*
X0189055Y0195157D03*
X0189055Y0195551D03*
X0299291Y0205000D03*
X0299291Y0205394D03*
D252*
X0299094Y0204606D03*
X0188858Y0195945D03*
D253*
X0300472Y0195945D03*
D254*
X0112480Y0196732D03*
D255*
X0298898Y0197913D03*
D256*
X0298898Y0198307D03*
D257*
X0298701Y0198701D03*
D258*
X0298701Y0199094D03*
D259*
X0298701Y0199488D03*
D260*
X0298504Y0199882D03*
D261*
X0298504Y0200276D03*
D262*
X0298701Y0200669D03*
D263*
X0298701Y0201063D03*
D264*
X0298504Y0201457D03*
D265*
X0298701Y0201850D03*
D266*
X0298701Y0202244D03*
X0298701Y0202638D03*
D267*
X0298898Y0203031D03*
X0309528Y0218780D03*
D268*
X0298898Y0203819D03*
X0298898Y0203425D03*
D269*
X0299094Y0204213D03*
D270*
X0230787Y0205787D03*
D271*
X0300079Y0207362D03*
X0300079Y0207756D03*
X0307165Y0217992D03*
D272*
X0125276Y0220748D03*
D273*
X0125276Y0221535D03*
D274*
X0125472Y0221929D03*
D275*
X0125276Y0222717D03*
D276*
X0125276Y0223504D03*
D277*
X0125276Y0225079D03*
D278*
X0125276Y0225472D03*
D279*
X0095303Y0096586D03*
X0150981Y0040909D03*
M02*
