G75*
%MOIN*%
%OFA0B0*%
%FSLAX25Y25*%
%IPPOS*%
%LPD*%
%AMOC8*
5,1,8,0,0,1.08239X$1,22.5*
%
%ADD10C,0.11424*%
%ADD11R,0.05124X0.10636*%
%ADD12C,0.05512*%
%ADD13R,0.10636X0.05124*%
%ADD14R,0.06699X0.07487*%
%ADD15R,0.07487X0.06699*%
%ADD16R,0.03550X0.05124*%
%ADD17R,0.02800X0.09100*%
%ADD18C,0.08077*%
D10*
X0087677Y0225472D03*
X0205787Y0229409D03*
X0379016Y0225472D03*
D11*
G36*
X0323495Y0148553D02*
X0327119Y0144929D01*
X0319599Y0137409D01*
X0315975Y0141033D01*
X0323495Y0148553D01*
G37*
G36*
X0336858Y0135190D02*
X0340482Y0131566D01*
X0332962Y0124046D01*
X0329338Y0127670D01*
X0336858Y0135190D01*
G37*
G36*
X0249810Y0144929D02*
X0253434Y0148553D01*
X0260954Y0141033D01*
X0257330Y0137409D01*
X0249810Y0144929D01*
G37*
G36*
X0236447Y0131566D02*
X0240071Y0135190D01*
X0247591Y0127670D01*
X0243967Y0124046D01*
X0236447Y0131566D01*
G37*
G36*
X0143944Y0134206D02*
X0147568Y0130582D01*
X0140048Y0123062D01*
X0136424Y0126686D01*
X0143944Y0134206D01*
G37*
G36*
X0130582Y0147568D02*
X0134206Y0143944D01*
X0126686Y0136424D01*
X0123062Y0140048D01*
X0130582Y0147568D01*
G37*
G36*
X0056897Y0143944D02*
X0060521Y0147568D01*
X0068041Y0140048D01*
X0064417Y0136424D01*
X0056897Y0143944D01*
G37*
G36*
X0043534Y0130582D02*
X0047158Y0134206D01*
X0054678Y0126686D01*
X0051054Y0123062D01*
X0043534Y0130582D01*
G37*
G36*
X0047158Y0057881D02*
X0043534Y0061505D01*
X0051054Y0069025D01*
X0054678Y0065401D01*
X0047158Y0057881D01*
G37*
G36*
X0060521Y0044518D02*
X0056897Y0048142D01*
X0064417Y0055662D01*
X0068041Y0052038D01*
X0060521Y0044518D01*
G37*
X0086102Y0040433D03*
X0105000Y0040433D03*
G36*
X0134206Y0048536D02*
X0130582Y0044912D01*
X0123062Y0052432D01*
X0126686Y0056056D01*
X0134206Y0048536D01*
G37*
G36*
X0147568Y0061899D02*
X0143944Y0058275D01*
X0136424Y0065795D01*
X0140048Y0069419D01*
X0147568Y0061899D01*
G37*
G36*
X0240071Y0057881D02*
X0236447Y0061505D01*
X0243967Y0069025D01*
X0247591Y0065401D01*
X0240071Y0057881D01*
G37*
G36*
X0253434Y0044518D02*
X0249810Y0048142D01*
X0257330Y0055662D01*
X0260954Y0052038D01*
X0253434Y0044518D01*
G37*
X0279016Y0040433D03*
X0297913Y0040433D03*
G36*
X0327119Y0048142D02*
X0323495Y0044518D01*
X0315975Y0052038D01*
X0319599Y0055662D01*
X0327119Y0048142D01*
G37*
G36*
X0340482Y0061505D02*
X0336858Y0057881D01*
X0329338Y0065401D01*
X0332962Y0069025D01*
X0340482Y0061505D01*
G37*
D12*
X0325472Y0056772D02*
X0325474Y0056877D01*
X0325480Y0056982D01*
X0325490Y0057086D01*
X0325504Y0057190D01*
X0325522Y0057294D01*
X0325544Y0057396D01*
X0325569Y0057498D01*
X0325599Y0057599D01*
X0325632Y0057698D01*
X0325669Y0057796D01*
X0325710Y0057893D01*
X0325755Y0057988D01*
X0325803Y0058081D01*
X0325854Y0058173D01*
X0325910Y0058262D01*
X0325968Y0058349D01*
X0326030Y0058434D01*
X0326094Y0058517D01*
X0326162Y0058597D01*
X0326233Y0058674D01*
X0326307Y0058748D01*
X0326384Y0058820D01*
X0326463Y0058889D01*
X0326545Y0058954D01*
X0326629Y0059017D01*
X0326716Y0059076D01*
X0326805Y0059132D01*
X0326896Y0059185D01*
X0326989Y0059234D01*
X0327083Y0059279D01*
X0327179Y0059321D01*
X0327277Y0059359D01*
X0327376Y0059393D01*
X0327477Y0059424D01*
X0327578Y0059450D01*
X0327681Y0059473D01*
X0327784Y0059492D01*
X0327888Y0059507D01*
X0327992Y0059518D01*
X0328097Y0059525D01*
X0328202Y0059528D01*
X0328307Y0059527D01*
X0328412Y0059522D01*
X0328516Y0059513D01*
X0328620Y0059500D01*
X0328724Y0059483D01*
X0328827Y0059462D01*
X0328929Y0059437D01*
X0329030Y0059409D01*
X0329129Y0059376D01*
X0329228Y0059340D01*
X0329325Y0059300D01*
X0329420Y0059257D01*
X0329514Y0059209D01*
X0329606Y0059159D01*
X0329696Y0059105D01*
X0329784Y0059047D01*
X0329869Y0058986D01*
X0329952Y0058922D01*
X0330033Y0058855D01*
X0330111Y0058785D01*
X0330186Y0058711D01*
X0330258Y0058636D01*
X0330328Y0058557D01*
X0330394Y0058476D01*
X0330458Y0058392D01*
X0330518Y0058306D01*
X0330574Y0058218D01*
X0330628Y0058127D01*
X0330678Y0058035D01*
X0330724Y0057941D01*
X0330767Y0057845D01*
X0330806Y0057747D01*
X0330841Y0057649D01*
X0330872Y0057548D01*
X0330900Y0057447D01*
X0330924Y0057345D01*
X0330944Y0057242D01*
X0330960Y0057138D01*
X0330972Y0057034D01*
X0330980Y0056929D01*
X0330984Y0056824D01*
X0330984Y0056720D01*
X0330980Y0056615D01*
X0330972Y0056510D01*
X0330960Y0056406D01*
X0330944Y0056302D01*
X0330924Y0056199D01*
X0330900Y0056097D01*
X0330872Y0055996D01*
X0330841Y0055895D01*
X0330806Y0055797D01*
X0330767Y0055699D01*
X0330724Y0055603D01*
X0330678Y0055509D01*
X0330628Y0055417D01*
X0330574Y0055326D01*
X0330518Y0055238D01*
X0330458Y0055152D01*
X0330394Y0055068D01*
X0330328Y0054987D01*
X0330258Y0054908D01*
X0330186Y0054833D01*
X0330111Y0054759D01*
X0330033Y0054689D01*
X0329952Y0054622D01*
X0329869Y0054558D01*
X0329784Y0054497D01*
X0329696Y0054439D01*
X0329606Y0054385D01*
X0329514Y0054335D01*
X0329420Y0054287D01*
X0329325Y0054244D01*
X0329228Y0054204D01*
X0329129Y0054168D01*
X0329030Y0054135D01*
X0328929Y0054107D01*
X0328827Y0054082D01*
X0328724Y0054061D01*
X0328620Y0054044D01*
X0328516Y0054031D01*
X0328412Y0054022D01*
X0328307Y0054017D01*
X0328202Y0054016D01*
X0328097Y0054019D01*
X0327992Y0054026D01*
X0327888Y0054037D01*
X0327784Y0054052D01*
X0327681Y0054071D01*
X0327578Y0054094D01*
X0327477Y0054120D01*
X0327376Y0054151D01*
X0327277Y0054185D01*
X0327179Y0054223D01*
X0327083Y0054265D01*
X0326989Y0054310D01*
X0326896Y0054359D01*
X0326805Y0054412D01*
X0326716Y0054468D01*
X0326629Y0054527D01*
X0326545Y0054590D01*
X0326463Y0054655D01*
X0326384Y0054724D01*
X0326307Y0054796D01*
X0326233Y0054870D01*
X0326162Y0054947D01*
X0326094Y0055027D01*
X0326030Y0055110D01*
X0325968Y0055195D01*
X0325910Y0055282D01*
X0325854Y0055371D01*
X0325803Y0055463D01*
X0325755Y0055556D01*
X0325710Y0055651D01*
X0325669Y0055748D01*
X0325632Y0055846D01*
X0325599Y0055945D01*
X0325569Y0056046D01*
X0325544Y0056148D01*
X0325522Y0056250D01*
X0325504Y0056354D01*
X0325490Y0056458D01*
X0325480Y0056562D01*
X0325474Y0056667D01*
X0325472Y0056772D01*
X0285709Y0040433D02*
X0285711Y0040538D01*
X0285717Y0040643D01*
X0285727Y0040747D01*
X0285741Y0040851D01*
X0285759Y0040955D01*
X0285781Y0041057D01*
X0285806Y0041159D01*
X0285836Y0041260D01*
X0285869Y0041359D01*
X0285906Y0041457D01*
X0285947Y0041554D01*
X0285992Y0041649D01*
X0286040Y0041742D01*
X0286091Y0041834D01*
X0286147Y0041923D01*
X0286205Y0042010D01*
X0286267Y0042095D01*
X0286331Y0042178D01*
X0286399Y0042258D01*
X0286470Y0042335D01*
X0286544Y0042409D01*
X0286621Y0042481D01*
X0286700Y0042550D01*
X0286782Y0042615D01*
X0286866Y0042678D01*
X0286953Y0042737D01*
X0287042Y0042793D01*
X0287133Y0042846D01*
X0287226Y0042895D01*
X0287320Y0042940D01*
X0287416Y0042982D01*
X0287514Y0043020D01*
X0287613Y0043054D01*
X0287714Y0043085D01*
X0287815Y0043111D01*
X0287918Y0043134D01*
X0288021Y0043153D01*
X0288125Y0043168D01*
X0288229Y0043179D01*
X0288334Y0043186D01*
X0288439Y0043189D01*
X0288544Y0043188D01*
X0288649Y0043183D01*
X0288753Y0043174D01*
X0288857Y0043161D01*
X0288961Y0043144D01*
X0289064Y0043123D01*
X0289166Y0043098D01*
X0289267Y0043070D01*
X0289366Y0043037D01*
X0289465Y0043001D01*
X0289562Y0042961D01*
X0289657Y0042918D01*
X0289751Y0042870D01*
X0289843Y0042820D01*
X0289933Y0042766D01*
X0290021Y0042708D01*
X0290106Y0042647D01*
X0290189Y0042583D01*
X0290270Y0042516D01*
X0290348Y0042446D01*
X0290423Y0042372D01*
X0290495Y0042297D01*
X0290565Y0042218D01*
X0290631Y0042137D01*
X0290695Y0042053D01*
X0290755Y0041967D01*
X0290811Y0041879D01*
X0290865Y0041788D01*
X0290915Y0041696D01*
X0290961Y0041602D01*
X0291004Y0041506D01*
X0291043Y0041408D01*
X0291078Y0041310D01*
X0291109Y0041209D01*
X0291137Y0041108D01*
X0291161Y0041006D01*
X0291181Y0040903D01*
X0291197Y0040799D01*
X0291209Y0040695D01*
X0291217Y0040590D01*
X0291221Y0040485D01*
X0291221Y0040381D01*
X0291217Y0040276D01*
X0291209Y0040171D01*
X0291197Y0040067D01*
X0291181Y0039963D01*
X0291161Y0039860D01*
X0291137Y0039758D01*
X0291109Y0039657D01*
X0291078Y0039556D01*
X0291043Y0039458D01*
X0291004Y0039360D01*
X0290961Y0039264D01*
X0290915Y0039170D01*
X0290865Y0039078D01*
X0290811Y0038987D01*
X0290755Y0038899D01*
X0290695Y0038813D01*
X0290631Y0038729D01*
X0290565Y0038648D01*
X0290495Y0038569D01*
X0290423Y0038494D01*
X0290348Y0038420D01*
X0290270Y0038350D01*
X0290189Y0038283D01*
X0290106Y0038219D01*
X0290021Y0038158D01*
X0289933Y0038100D01*
X0289843Y0038046D01*
X0289751Y0037996D01*
X0289657Y0037948D01*
X0289562Y0037905D01*
X0289465Y0037865D01*
X0289366Y0037829D01*
X0289267Y0037796D01*
X0289166Y0037768D01*
X0289064Y0037743D01*
X0288961Y0037722D01*
X0288857Y0037705D01*
X0288753Y0037692D01*
X0288649Y0037683D01*
X0288544Y0037678D01*
X0288439Y0037677D01*
X0288334Y0037680D01*
X0288229Y0037687D01*
X0288125Y0037698D01*
X0288021Y0037713D01*
X0287918Y0037732D01*
X0287815Y0037755D01*
X0287714Y0037781D01*
X0287613Y0037812D01*
X0287514Y0037846D01*
X0287416Y0037884D01*
X0287320Y0037926D01*
X0287226Y0037971D01*
X0287133Y0038020D01*
X0287042Y0038073D01*
X0286953Y0038129D01*
X0286866Y0038188D01*
X0286782Y0038251D01*
X0286700Y0038316D01*
X0286621Y0038385D01*
X0286544Y0038457D01*
X0286470Y0038531D01*
X0286399Y0038608D01*
X0286331Y0038688D01*
X0286267Y0038771D01*
X0286205Y0038856D01*
X0286147Y0038943D01*
X0286091Y0039032D01*
X0286040Y0039124D01*
X0285992Y0039217D01*
X0285947Y0039312D01*
X0285906Y0039409D01*
X0285869Y0039507D01*
X0285836Y0039606D01*
X0285806Y0039707D01*
X0285781Y0039809D01*
X0285759Y0039911D01*
X0285741Y0040015D01*
X0285727Y0040119D01*
X0285717Y0040223D01*
X0285711Y0040328D01*
X0285709Y0040433D01*
X0245945Y0056772D02*
X0245947Y0056877D01*
X0245953Y0056982D01*
X0245963Y0057086D01*
X0245977Y0057190D01*
X0245995Y0057294D01*
X0246017Y0057396D01*
X0246042Y0057498D01*
X0246072Y0057599D01*
X0246105Y0057698D01*
X0246142Y0057796D01*
X0246183Y0057893D01*
X0246228Y0057988D01*
X0246276Y0058081D01*
X0246327Y0058173D01*
X0246383Y0058262D01*
X0246441Y0058349D01*
X0246503Y0058434D01*
X0246567Y0058517D01*
X0246635Y0058597D01*
X0246706Y0058674D01*
X0246780Y0058748D01*
X0246857Y0058820D01*
X0246936Y0058889D01*
X0247018Y0058954D01*
X0247102Y0059017D01*
X0247189Y0059076D01*
X0247278Y0059132D01*
X0247369Y0059185D01*
X0247462Y0059234D01*
X0247556Y0059279D01*
X0247652Y0059321D01*
X0247750Y0059359D01*
X0247849Y0059393D01*
X0247950Y0059424D01*
X0248051Y0059450D01*
X0248154Y0059473D01*
X0248257Y0059492D01*
X0248361Y0059507D01*
X0248465Y0059518D01*
X0248570Y0059525D01*
X0248675Y0059528D01*
X0248780Y0059527D01*
X0248885Y0059522D01*
X0248989Y0059513D01*
X0249093Y0059500D01*
X0249197Y0059483D01*
X0249300Y0059462D01*
X0249402Y0059437D01*
X0249503Y0059409D01*
X0249602Y0059376D01*
X0249701Y0059340D01*
X0249798Y0059300D01*
X0249893Y0059257D01*
X0249987Y0059209D01*
X0250079Y0059159D01*
X0250169Y0059105D01*
X0250257Y0059047D01*
X0250342Y0058986D01*
X0250425Y0058922D01*
X0250506Y0058855D01*
X0250584Y0058785D01*
X0250659Y0058711D01*
X0250731Y0058636D01*
X0250801Y0058557D01*
X0250867Y0058476D01*
X0250931Y0058392D01*
X0250991Y0058306D01*
X0251047Y0058218D01*
X0251101Y0058127D01*
X0251151Y0058035D01*
X0251197Y0057941D01*
X0251240Y0057845D01*
X0251279Y0057747D01*
X0251314Y0057649D01*
X0251345Y0057548D01*
X0251373Y0057447D01*
X0251397Y0057345D01*
X0251417Y0057242D01*
X0251433Y0057138D01*
X0251445Y0057034D01*
X0251453Y0056929D01*
X0251457Y0056824D01*
X0251457Y0056720D01*
X0251453Y0056615D01*
X0251445Y0056510D01*
X0251433Y0056406D01*
X0251417Y0056302D01*
X0251397Y0056199D01*
X0251373Y0056097D01*
X0251345Y0055996D01*
X0251314Y0055895D01*
X0251279Y0055797D01*
X0251240Y0055699D01*
X0251197Y0055603D01*
X0251151Y0055509D01*
X0251101Y0055417D01*
X0251047Y0055326D01*
X0250991Y0055238D01*
X0250931Y0055152D01*
X0250867Y0055068D01*
X0250801Y0054987D01*
X0250731Y0054908D01*
X0250659Y0054833D01*
X0250584Y0054759D01*
X0250506Y0054689D01*
X0250425Y0054622D01*
X0250342Y0054558D01*
X0250257Y0054497D01*
X0250169Y0054439D01*
X0250079Y0054385D01*
X0249987Y0054335D01*
X0249893Y0054287D01*
X0249798Y0054244D01*
X0249701Y0054204D01*
X0249602Y0054168D01*
X0249503Y0054135D01*
X0249402Y0054107D01*
X0249300Y0054082D01*
X0249197Y0054061D01*
X0249093Y0054044D01*
X0248989Y0054031D01*
X0248885Y0054022D01*
X0248780Y0054017D01*
X0248675Y0054016D01*
X0248570Y0054019D01*
X0248465Y0054026D01*
X0248361Y0054037D01*
X0248257Y0054052D01*
X0248154Y0054071D01*
X0248051Y0054094D01*
X0247950Y0054120D01*
X0247849Y0054151D01*
X0247750Y0054185D01*
X0247652Y0054223D01*
X0247556Y0054265D01*
X0247462Y0054310D01*
X0247369Y0054359D01*
X0247278Y0054412D01*
X0247189Y0054468D01*
X0247102Y0054527D01*
X0247018Y0054590D01*
X0246936Y0054655D01*
X0246857Y0054724D01*
X0246780Y0054796D01*
X0246706Y0054870D01*
X0246635Y0054947D01*
X0246567Y0055027D01*
X0246503Y0055110D01*
X0246441Y0055195D01*
X0246383Y0055282D01*
X0246327Y0055371D01*
X0246276Y0055463D01*
X0246228Y0055556D01*
X0246183Y0055651D01*
X0246142Y0055748D01*
X0246105Y0055846D01*
X0246072Y0055945D01*
X0246042Y0056046D01*
X0246017Y0056148D01*
X0245995Y0056250D01*
X0245977Y0056354D01*
X0245963Y0056458D01*
X0245953Y0056562D01*
X0245947Y0056667D01*
X0245945Y0056772D01*
X0229606Y0096535D02*
X0229608Y0096640D01*
X0229614Y0096745D01*
X0229624Y0096849D01*
X0229638Y0096953D01*
X0229656Y0097057D01*
X0229678Y0097159D01*
X0229703Y0097261D01*
X0229733Y0097362D01*
X0229766Y0097461D01*
X0229803Y0097559D01*
X0229844Y0097656D01*
X0229889Y0097751D01*
X0229937Y0097844D01*
X0229988Y0097936D01*
X0230044Y0098025D01*
X0230102Y0098112D01*
X0230164Y0098197D01*
X0230228Y0098280D01*
X0230296Y0098360D01*
X0230367Y0098437D01*
X0230441Y0098511D01*
X0230518Y0098583D01*
X0230597Y0098652D01*
X0230679Y0098717D01*
X0230763Y0098780D01*
X0230850Y0098839D01*
X0230939Y0098895D01*
X0231030Y0098948D01*
X0231123Y0098997D01*
X0231217Y0099042D01*
X0231313Y0099084D01*
X0231411Y0099122D01*
X0231510Y0099156D01*
X0231611Y0099187D01*
X0231712Y0099213D01*
X0231815Y0099236D01*
X0231918Y0099255D01*
X0232022Y0099270D01*
X0232126Y0099281D01*
X0232231Y0099288D01*
X0232336Y0099291D01*
X0232441Y0099290D01*
X0232546Y0099285D01*
X0232650Y0099276D01*
X0232754Y0099263D01*
X0232858Y0099246D01*
X0232961Y0099225D01*
X0233063Y0099200D01*
X0233164Y0099172D01*
X0233263Y0099139D01*
X0233362Y0099103D01*
X0233459Y0099063D01*
X0233554Y0099020D01*
X0233648Y0098972D01*
X0233740Y0098922D01*
X0233830Y0098868D01*
X0233918Y0098810D01*
X0234003Y0098749D01*
X0234086Y0098685D01*
X0234167Y0098618D01*
X0234245Y0098548D01*
X0234320Y0098474D01*
X0234392Y0098399D01*
X0234462Y0098320D01*
X0234528Y0098239D01*
X0234592Y0098155D01*
X0234652Y0098069D01*
X0234708Y0097981D01*
X0234762Y0097890D01*
X0234812Y0097798D01*
X0234858Y0097704D01*
X0234901Y0097608D01*
X0234940Y0097510D01*
X0234975Y0097412D01*
X0235006Y0097311D01*
X0235034Y0097210D01*
X0235058Y0097108D01*
X0235078Y0097005D01*
X0235094Y0096901D01*
X0235106Y0096797D01*
X0235114Y0096692D01*
X0235118Y0096587D01*
X0235118Y0096483D01*
X0235114Y0096378D01*
X0235106Y0096273D01*
X0235094Y0096169D01*
X0235078Y0096065D01*
X0235058Y0095962D01*
X0235034Y0095860D01*
X0235006Y0095759D01*
X0234975Y0095658D01*
X0234940Y0095560D01*
X0234901Y0095462D01*
X0234858Y0095366D01*
X0234812Y0095272D01*
X0234762Y0095180D01*
X0234708Y0095089D01*
X0234652Y0095001D01*
X0234592Y0094915D01*
X0234528Y0094831D01*
X0234462Y0094750D01*
X0234392Y0094671D01*
X0234320Y0094596D01*
X0234245Y0094522D01*
X0234167Y0094452D01*
X0234086Y0094385D01*
X0234003Y0094321D01*
X0233918Y0094260D01*
X0233830Y0094202D01*
X0233740Y0094148D01*
X0233648Y0094098D01*
X0233554Y0094050D01*
X0233459Y0094007D01*
X0233362Y0093967D01*
X0233263Y0093931D01*
X0233164Y0093898D01*
X0233063Y0093870D01*
X0232961Y0093845D01*
X0232858Y0093824D01*
X0232754Y0093807D01*
X0232650Y0093794D01*
X0232546Y0093785D01*
X0232441Y0093780D01*
X0232336Y0093779D01*
X0232231Y0093782D01*
X0232126Y0093789D01*
X0232022Y0093800D01*
X0231918Y0093815D01*
X0231815Y0093834D01*
X0231712Y0093857D01*
X0231611Y0093883D01*
X0231510Y0093914D01*
X0231411Y0093948D01*
X0231313Y0093986D01*
X0231217Y0094028D01*
X0231123Y0094073D01*
X0231030Y0094122D01*
X0230939Y0094175D01*
X0230850Y0094231D01*
X0230763Y0094290D01*
X0230679Y0094353D01*
X0230597Y0094418D01*
X0230518Y0094487D01*
X0230441Y0094559D01*
X0230367Y0094633D01*
X0230296Y0094710D01*
X0230228Y0094790D01*
X0230164Y0094873D01*
X0230102Y0094958D01*
X0230044Y0095045D01*
X0229988Y0095134D01*
X0229937Y0095226D01*
X0229889Y0095319D01*
X0229844Y0095414D01*
X0229803Y0095511D01*
X0229766Y0095609D01*
X0229733Y0095708D01*
X0229703Y0095809D01*
X0229678Y0095911D01*
X0229656Y0096013D01*
X0229638Y0096117D01*
X0229624Y0096221D01*
X0229614Y0096325D01*
X0229608Y0096430D01*
X0229606Y0096535D01*
X0245945Y0136299D02*
X0245947Y0136404D01*
X0245953Y0136509D01*
X0245963Y0136613D01*
X0245977Y0136717D01*
X0245995Y0136821D01*
X0246017Y0136923D01*
X0246042Y0137025D01*
X0246072Y0137126D01*
X0246105Y0137225D01*
X0246142Y0137323D01*
X0246183Y0137420D01*
X0246228Y0137515D01*
X0246276Y0137608D01*
X0246327Y0137700D01*
X0246383Y0137789D01*
X0246441Y0137876D01*
X0246503Y0137961D01*
X0246567Y0138044D01*
X0246635Y0138124D01*
X0246706Y0138201D01*
X0246780Y0138275D01*
X0246857Y0138347D01*
X0246936Y0138416D01*
X0247018Y0138481D01*
X0247102Y0138544D01*
X0247189Y0138603D01*
X0247278Y0138659D01*
X0247369Y0138712D01*
X0247462Y0138761D01*
X0247556Y0138806D01*
X0247652Y0138848D01*
X0247750Y0138886D01*
X0247849Y0138920D01*
X0247950Y0138951D01*
X0248051Y0138977D01*
X0248154Y0139000D01*
X0248257Y0139019D01*
X0248361Y0139034D01*
X0248465Y0139045D01*
X0248570Y0139052D01*
X0248675Y0139055D01*
X0248780Y0139054D01*
X0248885Y0139049D01*
X0248989Y0139040D01*
X0249093Y0139027D01*
X0249197Y0139010D01*
X0249300Y0138989D01*
X0249402Y0138964D01*
X0249503Y0138936D01*
X0249602Y0138903D01*
X0249701Y0138867D01*
X0249798Y0138827D01*
X0249893Y0138784D01*
X0249987Y0138736D01*
X0250079Y0138686D01*
X0250169Y0138632D01*
X0250257Y0138574D01*
X0250342Y0138513D01*
X0250425Y0138449D01*
X0250506Y0138382D01*
X0250584Y0138312D01*
X0250659Y0138238D01*
X0250731Y0138163D01*
X0250801Y0138084D01*
X0250867Y0138003D01*
X0250931Y0137919D01*
X0250991Y0137833D01*
X0251047Y0137745D01*
X0251101Y0137654D01*
X0251151Y0137562D01*
X0251197Y0137468D01*
X0251240Y0137372D01*
X0251279Y0137274D01*
X0251314Y0137176D01*
X0251345Y0137075D01*
X0251373Y0136974D01*
X0251397Y0136872D01*
X0251417Y0136769D01*
X0251433Y0136665D01*
X0251445Y0136561D01*
X0251453Y0136456D01*
X0251457Y0136351D01*
X0251457Y0136247D01*
X0251453Y0136142D01*
X0251445Y0136037D01*
X0251433Y0135933D01*
X0251417Y0135829D01*
X0251397Y0135726D01*
X0251373Y0135624D01*
X0251345Y0135523D01*
X0251314Y0135422D01*
X0251279Y0135324D01*
X0251240Y0135226D01*
X0251197Y0135130D01*
X0251151Y0135036D01*
X0251101Y0134944D01*
X0251047Y0134853D01*
X0250991Y0134765D01*
X0250931Y0134679D01*
X0250867Y0134595D01*
X0250801Y0134514D01*
X0250731Y0134435D01*
X0250659Y0134360D01*
X0250584Y0134286D01*
X0250506Y0134216D01*
X0250425Y0134149D01*
X0250342Y0134085D01*
X0250257Y0134024D01*
X0250169Y0133966D01*
X0250079Y0133912D01*
X0249987Y0133862D01*
X0249893Y0133814D01*
X0249798Y0133771D01*
X0249701Y0133731D01*
X0249602Y0133695D01*
X0249503Y0133662D01*
X0249402Y0133634D01*
X0249300Y0133609D01*
X0249197Y0133588D01*
X0249093Y0133571D01*
X0248989Y0133558D01*
X0248885Y0133549D01*
X0248780Y0133544D01*
X0248675Y0133543D01*
X0248570Y0133546D01*
X0248465Y0133553D01*
X0248361Y0133564D01*
X0248257Y0133579D01*
X0248154Y0133598D01*
X0248051Y0133621D01*
X0247950Y0133647D01*
X0247849Y0133678D01*
X0247750Y0133712D01*
X0247652Y0133750D01*
X0247556Y0133792D01*
X0247462Y0133837D01*
X0247369Y0133886D01*
X0247278Y0133939D01*
X0247189Y0133995D01*
X0247102Y0134054D01*
X0247018Y0134117D01*
X0246936Y0134182D01*
X0246857Y0134251D01*
X0246780Y0134323D01*
X0246706Y0134397D01*
X0246635Y0134474D01*
X0246567Y0134554D01*
X0246503Y0134637D01*
X0246441Y0134722D01*
X0246383Y0134809D01*
X0246327Y0134898D01*
X0246276Y0134990D01*
X0246228Y0135083D01*
X0246183Y0135178D01*
X0246142Y0135275D01*
X0246105Y0135373D01*
X0246072Y0135472D01*
X0246042Y0135573D01*
X0246017Y0135675D01*
X0245995Y0135777D01*
X0245977Y0135881D01*
X0245963Y0135985D01*
X0245953Y0136089D01*
X0245947Y0136194D01*
X0245945Y0136299D01*
X0325472Y0136299D02*
X0325474Y0136404D01*
X0325480Y0136509D01*
X0325490Y0136613D01*
X0325504Y0136717D01*
X0325522Y0136821D01*
X0325544Y0136923D01*
X0325569Y0137025D01*
X0325599Y0137126D01*
X0325632Y0137225D01*
X0325669Y0137323D01*
X0325710Y0137420D01*
X0325755Y0137515D01*
X0325803Y0137608D01*
X0325854Y0137700D01*
X0325910Y0137789D01*
X0325968Y0137876D01*
X0326030Y0137961D01*
X0326094Y0138044D01*
X0326162Y0138124D01*
X0326233Y0138201D01*
X0326307Y0138275D01*
X0326384Y0138347D01*
X0326463Y0138416D01*
X0326545Y0138481D01*
X0326629Y0138544D01*
X0326716Y0138603D01*
X0326805Y0138659D01*
X0326896Y0138712D01*
X0326989Y0138761D01*
X0327083Y0138806D01*
X0327179Y0138848D01*
X0327277Y0138886D01*
X0327376Y0138920D01*
X0327477Y0138951D01*
X0327578Y0138977D01*
X0327681Y0139000D01*
X0327784Y0139019D01*
X0327888Y0139034D01*
X0327992Y0139045D01*
X0328097Y0139052D01*
X0328202Y0139055D01*
X0328307Y0139054D01*
X0328412Y0139049D01*
X0328516Y0139040D01*
X0328620Y0139027D01*
X0328724Y0139010D01*
X0328827Y0138989D01*
X0328929Y0138964D01*
X0329030Y0138936D01*
X0329129Y0138903D01*
X0329228Y0138867D01*
X0329325Y0138827D01*
X0329420Y0138784D01*
X0329514Y0138736D01*
X0329606Y0138686D01*
X0329696Y0138632D01*
X0329784Y0138574D01*
X0329869Y0138513D01*
X0329952Y0138449D01*
X0330033Y0138382D01*
X0330111Y0138312D01*
X0330186Y0138238D01*
X0330258Y0138163D01*
X0330328Y0138084D01*
X0330394Y0138003D01*
X0330458Y0137919D01*
X0330518Y0137833D01*
X0330574Y0137745D01*
X0330628Y0137654D01*
X0330678Y0137562D01*
X0330724Y0137468D01*
X0330767Y0137372D01*
X0330806Y0137274D01*
X0330841Y0137176D01*
X0330872Y0137075D01*
X0330900Y0136974D01*
X0330924Y0136872D01*
X0330944Y0136769D01*
X0330960Y0136665D01*
X0330972Y0136561D01*
X0330980Y0136456D01*
X0330984Y0136351D01*
X0330984Y0136247D01*
X0330980Y0136142D01*
X0330972Y0136037D01*
X0330960Y0135933D01*
X0330944Y0135829D01*
X0330924Y0135726D01*
X0330900Y0135624D01*
X0330872Y0135523D01*
X0330841Y0135422D01*
X0330806Y0135324D01*
X0330767Y0135226D01*
X0330724Y0135130D01*
X0330678Y0135036D01*
X0330628Y0134944D01*
X0330574Y0134853D01*
X0330518Y0134765D01*
X0330458Y0134679D01*
X0330394Y0134595D01*
X0330328Y0134514D01*
X0330258Y0134435D01*
X0330186Y0134360D01*
X0330111Y0134286D01*
X0330033Y0134216D01*
X0329952Y0134149D01*
X0329869Y0134085D01*
X0329784Y0134024D01*
X0329696Y0133966D01*
X0329606Y0133912D01*
X0329514Y0133862D01*
X0329420Y0133814D01*
X0329325Y0133771D01*
X0329228Y0133731D01*
X0329129Y0133695D01*
X0329030Y0133662D01*
X0328929Y0133634D01*
X0328827Y0133609D01*
X0328724Y0133588D01*
X0328620Y0133571D01*
X0328516Y0133558D01*
X0328412Y0133549D01*
X0328307Y0133544D01*
X0328202Y0133543D01*
X0328097Y0133546D01*
X0327992Y0133553D01*
X0327888Y0133564D01*
X0327784Y0133579D01*
X0327681Y0133598D01*
X0327578Y0133621D01*
X0327477Y0133647D01*
X0327376Y0133678D01*
X0327277Y0133712D01*
X0327179Y0133750D01*
X0327083Y0133792D01*
X0326989Y0133837D01*
X0326896Y0133886D01*
X0326805Y0133939D01*
X0326716Y0133995D01*
X0326629Y0134054D01*
X0326545Y0134117D01*
X0326463Y0134182D01*
X0326384Y0134251D01*
X0326307Y0134323D01*
X0326233Y0134397D01*
X0326162Y0134474D01*
X0326094Y0134554D01*
X0326030Y0134637D01*
X0325968Y0134722D01*
X0325910Y0134809D01*
X0325854Y0134898D01*
X0325803Y0134990D01*
X0325755Y0135083D01*
X0325710Y0135178D01*
X0325669Y0135275D01*
X0325632Y0135373D01*
X0325599Y0135472D01*
X0325569Y0135573D01*
X0325544Y0135675D01*
X0325522Y0135777D01*
X0325504Y0135881D01*
X0325490Y0135985D01*
X0325480Y0136089D01*
X0325474Y0136194D01*
X0325472Y0136299D01*
X0341811Y0096535D02*
X0341813Y0096640D01*
X0341819Y0096745D01*
X0341829Y0096849D01*
X0341843Y0096953D01*
X0341861Y0097057D01*
X0341883Y0097159D01*
X0341908Y0097261D01*
X0341938Y0097362D01*
X0341971Y0097461D01*
X0342008Y0097559D01*
X0342049Y0097656D01*
X0342094Y0097751D01*
X0342142Y0097844D01*
X0342193Y0097936D01*
X0342249Y0098025D01*
X0342307Y0098112D01*
X0342369Y0098197D01*
X0342433Y0098280D01*
X0342501Y0098360D01*
X0342572Y0098437D01*
X0342646Y0098511D01*
X0342723Y0098583D01*
X0342802Y0098652D01*
X0342884Y0098717D01*
X0342968Y0098780D01*
X0343055Y0098839D01*
X0343144Y0098895D01*
X0343235Y0098948D01*
X0343328Y0098997D01*
X0343422Y0099042D01*
X0343518Y0099084D01*
X0343616Y0099122D01*
X0343715Y0099156D01*
X0343816Y0099187D01*
X0343917Y0099213D01*
X0344020Y0099236D01*
X0344123Y0099255D01*
X0344227Y0099270D01*
X0344331Y0099281D01*
X0344436Y0099288D01*
X0344541Y0099291D01*
X0344646Y0099290D01*
X0344751Y0099285D01*
X0344855Y0099276D01*
X0344959Y0099263D01*
X0345063Y0099246D01*
X0345166Y0099225D01*
X0345268Y0099200D01*
X0345369Y0099172D01*
X0345468Y0099139D01*
X0345567Y0099103D01*
X0345664Y0099063D01*
X0345759Y0099020D01*
X0345853Y0098972D01*
X0345945Y0098922D01*
X0346035Y0098868D01*
X0346123Y0098810D01*
X0346208Y0098749D01*
X0346291Y0098685D01*
X0346372Y0098618D01*
X0346450Y0098548D01*
X0346525Y0098474D01*
X0346597Y0098399D01*
X0346667Y0098320D01*
X0346733Y0098239D01*
X0346797Y0098155D01*
X0346857Y0098069D01*
X0346913Y0097981D01*
X0346967Y0097890D01*
X0347017Y0097798D01*
X0347063Y0097704D01*
X0347106Y0097608D01*
X0347145Y0097510D01*
X0347180Y0097412D01*
X0347211Y0097311D01*
X0347239Y0097210D01*
X0347263Y0097108D01*
X0347283Y0097005D01*
X0347299Y0096901D01*
X0347311Y0096797D01*
X0347319Y0096692D01*
X0347323Y0096587D01*
X0347323Y0096483D01*
X0347319Y0096378D01*
X0347311Y0096273D01*
X0347299Y0096169D01*
X0347283Y0096065D01*
X0347263Y0095962D01*
X0347239Y0095860D01*
X0347211Y0095759D01*
X0347180Y0095658D01*
X0347145Y0095560D01*
X0347106Y0095462D01*
X0347063Y0095366D01*
X0347017Y0095272D01*
X0346967Y0095180D01*
X0346913Y0095089D01*
X0346857Y0095001D01*
X0346797Y0094915D01*
X0346733Y0094831D01*
X0346667Y0094750D01*
X0346597Y0094671D01*
X0346525Y0094596D01*
X0346450Y0094522D01*
X0346372Y0094452D01*
X0346291Y0094385D01*
X0346208Y0094321D01*
X0346123Y0094260D01*
X0346035Y0094202D01*
X0345945Y0094148D01*
X0345853Y0094098D01*
X0345759Y0094050D01*
X0345664Y0094007D01*
X0345567Y0093967D01*
X0345468Y0093931D01*
X0345369Y0093898D01*
X0345268Y0093870D01*
X0345166Y0093845D01*
X0345063Y0093824D01*
X0344959Y0093807D01*
X0344855Y0093794D01*
X0344751Y0093785D01*
X0344646Y0093780D01*
X0344541Y0093779D01*
X0344436Y0093782D01*
X0344331Y0093789D01*
X0344227Y0093800D01*
X0344123Y0093815D01*
X0344020Y0093834D01*
X0343917Y0093857D01*
X0343816Y0093883D01*
X0343715Y0093914D01*
X0343616Y0093948D01*
X0343518Y0093986D01*
X0343422Y0094028D01*
X0343328Y0094073D01*
X0343235Y0094122D01*
X0343144Y0094175D01*
X0343055Y0094231D01*
X0342968Y0094290D01*
X0342884Y0094353D01*
X0342802Y0094418D01*
X0342723Y0094487D01*
X0342646Y0094559D01*
X0342572Y0094633D01*
X0342501Y0094710D01*
X0342433Y0094790D01*
X0342369Y0094873D01*
X0342307Y0094958D01*
X0342249Y0095045D01*
X0342193Y0095134D01*
X0342142Y0095226D01*
X0342094Y0095319D01*
X0342049Y0095414D01*
X0342008Y0095511D01*
X0341971Y0095609D01*
X0341938Y0095708D01*
X0341908Y0095809D01*
X0341883Y0095911D01*
X0341861Y0096013D01*
X0341843Y0096117D01*
X0341829Y0096221D01*
X0341819Y0096325D01*
X0341813Y0096430D01*
X0341811Y0096535D01*
X0148898Y0095551D02*
X0148900Y0095656D01*
X0148906Y0095761D01*
X0148916Y0095865D01*
X0148930Y0095969D01*
X0148948Y0096073D01*
X0148970Y0096175D01*
X0148995Y0096277D01*
X0149025Y0096378D01*
X0149058Y0096477D01*
X0149095Y0096575D01*
X0149136Y0096672D01*
X0149181Y0096767D01*
X0149229Y0096860D01*
X0149280Y0096952D01*
X0149336Y0097041D01*
X0149394Y0097128D01*
X0149456Y0097213D01*
X0149520Y0097296D01*
X0149588Y0097376D01*
X0149659Y0097453D01*
X0149733Y0097527D01*
X0149810Y0097599D01*
X0149889Y0097668D01*
X0149971Y0097733D01*
X0150055Y0097796D01*
X0150142Y0097855D01*
X0150231Y0097911D01*
X0150322Y0097964D01*
X0150415Y0098013D01*
X0150509Y0098058D01*
X0150605Y0098100D01*
X0150703Y0098138D01*
X0150802Y0098172D01*
X0150903Y0098203D01*
X0151004Y0098229D01*
X0151107Y0098252D01*
X0151210Y0098271D01*
X0151314Y0098286D01*
X0151418Y0098297D01*
X0151523Y0098304D01*
X0151628Y0098307D01*
X0151733Y0098306D01*
X0151838Y0098301D01*
X0151942Y0098292D01*
X0152046Y0098279D01*
X0152150Y0098262D01*
X0152253Y0098241D01*
X0152355Y0098216D01*
X0152456Y0098188D01*
X0152555Y0098155D01*
X0152654Y0098119D01*
X0152751Y0098079D01*
X0152846Y0098036D01*
X0152940Y0097988D01*
X0153032Y0097938D01*
X0153122Y0097884D01*
X0153210Y0097826D01*
X0153295Y0097765D01*
X0153378Y0097701D01*
X0153459Y0097634D01*
X0153537Y0097564D01*
X0153612Y0097490D01*
X0153684Y0097415D01*
X0153754Y0097336D01*
X0153820Y0097255D01*
X0153884Y0097171D01*
X0153944Y0097085D01*
X0154000Y0096997D01*
X0154054Y0096906D01*
X0154104Y0096814D01*
X0154150Y0096720D01*
X0154193Y0096624D01*
X0154232Y0096526D01*
X0154267Y0096428D01*
X0154298Y0096327D01*
X0154326Y0096226D01*
X0154350Y0096124D01*
X0154370Y0096021D01*
X0154386Y0095917D01*
X0154398Y0095813D01*
X0154406Y0095708D01*
X0154410Y0095603D01*
X0154410Y0095499D01*
X0154406Y0095394D01*
X0154398Y0095289D01*
X0154386Y0095185D01*
X0154370Y0095081D01*
X0154350Y0094978D01*
X0154326Y0094876D01*
X0154298Y0094775D01*
X0154267Y0094674D01*
X0154232Y0094576D01*
X0154193Y0094478D01*
X0154150Y0094382D01*
X0154104Y0094288D01*
X0154054Y0094196D01*
X0154000Y0094105D01*
X0153944Y0094017D01*
X0153884Y0093931D01*
X0153820Y0093847D01*
X0153754Y0093766D01*
X0153684Y0093687D01*
X0153612Y0093612D01*
X0153537Y0093538D01*
X0153459Y0093468D01*
X0153378Y0093401D01*
X0153295Y0093337D01*
X0153210Y0093276D01*
X0153122Y0093218D01*
X0153032Y0093164D01*
X0152940Y0093114D01*
X0152846Y0093066D01*
X0152751Y0093023D01*
X0152654Y0092983D01*
X0152555Y0092947D01*
X0152456Y0092914D01*
X0152355Y0092886D01*
X0152253Y0092861D01*
X0152150Y0092840D01*
X0152046Y0092823D01*
X0151942Y0092810D01*
X0151838Y0092801D01*
X0151733Y0092796D01*
X0151628Y0092795D01*
X0151523Y0092798D01*
X0151418Y0092805D01*
X0151314Y0092816D01*
X0151210Y0092831D01*
X0151107Y0092850D01*
X0151004Y0092873D01*
X0150903Y0092899D01*
X0150802Y0092930D01*
X0150703Y0092964D01*
X0150605Y0093002D01*
X0150509Y0093044D01*
X0150415Y0093089D01*
X0150322Y0093138D01*
X0150231Y0093191D01*
X0150142Y0093247D01*
X0150055Y0093306D01*
X0149971Y0093369D01*
X0149889Y0093434D01*
X0149810Y0093503D01*
X0149733Y0093575D01*
X0149659Y0093649D01*
X0149588Y0093726D01*
X0149520Y0093806D01*
X0149456Y0093889D01*
X0149394Y0093974D01*
X0149336Y0094061D01*
X0149280Y0094150D01*
X0149229Y0094242D01*
X0149181Y0094335D01*
X0149136Y0094430D01*
X0149095Y0094527D01*
X0149058Y0094625D01*
X0149025Y0094724D01*
X0148995Y0094825D01*
X0148970Y0094927D01*
X0148948Y0095029D01*
X0148930Y0095133D01*
X0148916Y0095237D01*
X0148906Y0095341D01*
X0148900Y0095446D01*
X0148898Y0095551D01*
X0132559Y0057165D02*
X0132561Y0057270D01*
X0132567Y0057375D01*
X0132577Y0057479D01*
X0132591Y0057583D01*
X0132609Y0057687D01*
X0132631Y0057789D01*
X0132656Y0057891D01*
X0132686Y0057992D01*
X0132719Y0058091D01*
X0132756Y0058189D01*
X0132797Y0058286D01*
X0132842Y0058381D01*
X0132890Y0058474D01*
X0132941Y0058566D01*
X0132997Y0058655D01*
X0133055Y0058742D01*
X0133117Y0058827D01*
X0133181Y0058910D01*
X0133249Y0058990D01*
X0133320Y0059067D01*
X0133394Y0059141D01*
X0133471Y0059213D01*
X0133550Y0059282D01*
X0133632Y0059347D01*
X0133716Y0059410D01*
X0133803Y0059469D01*
X0133892Y0059525D01*
X0133983Y0059578D01*
X0134076Y0059627D01*
X0134170Y0059672D01*
X0134266Y0059714D01*
X0134364Y0059752D01*
X0134463Y0059786D01*
X0134564Y0059817D01*
X0134665Y0059843D01*
X0134768Y0059866D01*
X0134871Y0059885D01*
X0134975Y0059900D01*
X0135079Y0059911D01*
X0135184Y0059918D01*
X0135289Y0059921D01*
X0135394Y0059920D01*
X0135499Y0059915D01*
X0135603Y0059906D01*
X0135707Y0059893D01*
X0135811Y0059876D01*
X0135914Y0059855D01*
X0136016Y0059830D01*
X0136117Y0059802D01*
X0136216Y0059769D01*
X0136315Y0059733D01*
X0136412Y0059693D01*
X0136507Y0059650D01*
X0136601Y0059602D01*
X0136693Y0059552D01*
X0136783Y0059498D01*
X0136871Y0059440D01*
X0136956Y0059379D01*
X0137039Y0059315D01*
X0137120Y0059248D01*
X0137198Y0059178D01*
X0137273Y0059104D01*
X0137345Y0059029D01*
X0137415Y0058950D01*
X0137481Y0058869D01*
X0137545Y0058785D01*
X0137605Y0058699D01*
X0137661Y0058611D01*
X0137715Y0058520D01*
X0137765Y0058428D01*
X0137811Y0058334D01*
X0137854Y0058238D01*
X0137893Y0058140D01*
X0137928Y0058042D01*
X0137959Y0057941D01*
X0137987Y0057840D01*
X0138011Y0057738D01*
X0138031Y0057635D01*
X0138047Y0057531D01*
X0138059Y0057427D01*
X0138067Y0057322D01*
X0138071Y0057217D01*
X0138071Y0057113D01*
X0138067Y0057008D01*
X0138059Y0056903D01*
X0138047Y0056799D01*
X0138031Y0056695D01*
X0138011Y0056592D01*
X0137987Y0056490D01*
X0137959Y0056389D01*
X0137928Y0056288D01*
X0137893Y0056190D01*
X0137854Y0056092D01*
X0137811Y0055996D01*
X0137765Y0055902D01*
X0137715Y0055810D01*
X0137661Y0055719D01*
X0137605Y0055631D01*
X0137545Y0055545D01*
X0137481Y0055461D01*
X0137415Y0055380D01*
X0137345Y0055301D01*
X0137273Y0055226D01*
X0137198Y0055152D01*
X0137120Y0055082D01*
X0137039Y0055015D01*
X0136956Y0054951D01*
X0136871Y0054890D01*
X0136783Y0054832D01*
X0136693Y0054778D01*
X0136601Y0054728D01*
X0136507Y0054680D01*
X0136412Y0054637D01*
X0136315Y0054597D01*
X0136216Y0054561D01*
X0136117Y0054528D01*
X0136016Y0054500D01*
X0135914Y0054475D01*
X0135811Y0054454D01*
X0135707Y0054437D01*
X0135603Y0054424D01*
X0135499Y0054415D01*
X0135394Y0054410D01*
X0135289Y0054409D01*
X0135184Y0054412D01*
X0135079Y0054419D01*
X0134975Y0054430D01*
X0134871Y0054445D01*
X0134768Y0054464D01*
X0134665Y0054487D01*
X0134564Y0054513D01*
X0134463Y0054544D01*
X0134364Y0054578D01*
X0134266Y0054616D01*
X0134170Y0054658D01*
X0134076Y0054703D01*
X0133983Y0054752D01*
X0133892Y0054805D01*
X0133803Y0054861D01*
X0133716Y0054920D01*
X0133632Y0054983D01*
X0133550Y0055048D01*
X0133471Y0055117D01*
X0133394Y0055189D01*
X0133320Y0055263D01*
X0133249Y0055340D01*
X0133181Y0055420D01*
X0133117Y0055503D01*
X0133055Y0055588D01*
X0132997Y0055675D01*
X0132941Y0055764D01*
X0132890Y0055856D01*
X0132842Y0055949D01*
X0132797Y0056044D01*
X0132756Y0056141D01*
X0132719Y0056239D01*
X0132686Y0056338D01*
X0132656Y0056439D01*
X0132631Y0056541D01*
X0132609Y0056643D01*
X0132591Y0056747D01*
X0132577Y0056851D01*
X0132567Y0056955D01*
X0132561Y0057060D01*
X0132559Y0057165D01*
X0092795Y0040433D02*
X0092797Y0040538D01*
X0092803Y0040643D01*
X0092813Y0040747D01*
X0092827Y0040851D01*
X0092845Y0040955D01*
X0092867Y0041057D01*
X0092892Y0041159D01*
X0092922Y0041260D01*
X0092955Y0041359D01*
X0092992Y0041457D01*
X0093033Y0041554D01*
X0093078Y0041649D01*
X0093126Y0041742D01*
X0093177Y0041834D01*
X0093233Y0041923D01*
X0093291Y0042010D01*
X0093353Y0042095D01*
X0093417Y0042178D01*
X0093485Y0042258D01*
X0093556Y0042335D01*
X0093630Y0042409D01*
X0093707Y0042481D01*
X0093786Y0042550D01*
X0093868Y0042615D01*
X0093952Y0042678D01*
X0094039Y0042737D01*
X0094128Y0042793D01*
X0094219Y0042846D01*
X0094312Y0042895D01*
X0094406Y0042940D01*
X0094502Y0042982D01*
X0094600Y0043020D01*
X0094699Y0043054D01*
X0094800Y0043085D01*
X0094901Y0043111D01*
X0095004Y0043134D01*
X0095107Y0043153D01*
X0095211Y0043168D01*
X0095315Y0043179D01*
X0095420Y0043186D01*
X0095525Y0043189D01*
X0095630Y0043188D01*
X0095735Y0043183D01*
X0095839Y0043174D01*
X0095943Y0043161D01*
X0096047Y0043144D01*
X0096150Y0043123D01*
X0096252Y0043098D01*
X0096353Y0043070D01*
X0096452Y0043037D01*
X0096551Y0043001D01*
X0096648Y0042961D01*
X0096743Y0042918D01*
X0096837Y0042870D01*
X0096929Y0042820D01*
X0097019Y0042766D01*
X0097107Y0042708D01*
X0097192Y0042647D01*
X0097275Y0042583D01*
X0097356Y0042516D01*
X0097434Y0042446D01*
X0097509Y0042372D01*
X0097581Y0042297D01*
X0097651Y0042218D01*
X0097717Y0042137D01*
X0097781Y0042053D01*
X0097841Y0041967D01*
X0097897Y0041879D01*
X0097951Y0041788D01*
X0098001Y0041696D01*
X0098047Y0041602D01*
X0098090Y0041506D01*
X0098129Y0041408D01*
X0098164Y0041310D01*
X0098195Y0041209D01*
X0098223Y0041108D01*
X0098247Y0041006D01*
X0098267Y0040903D01*
X0098283Y0040799D01*
X0098295Y0040695D01*
X0098303Y0040590D01*
X0098307Y0040485D01*
X0098307Y0040381D01*
X0098303Y0040276D01*
X0098295Y0040171D01*
X0098283Y0040067D01*
X0098267Y0039963D01*
X0098247Y0039860D01*
X0098223Y0039758D01*
X0098195Y0039657D01*
X0098164Y0039556D01*
X0098129Y0039458D01*
X0098090Y0039360D01*
X0098047Y0039264D01*
X0098001Y0039170D01*
X0097951Y0039078D01*
X0097897Y0038987D01*
X0097841Y0038899D01*
X0097781Y0038813D01*
X0097717Y0038729D01*
X0097651Y0038648D01*
X0097581Y0038569D01*
X0097509Y0038494D01*
X0097434Y0038420D01*
X0097356Y0038350D01*
X0097275Y0038283D01*
X0097192Y0038219D01*
X0097107Y0038158D01*
X0097019Y0038100D01*
X0096929Y0038046D01*
X0096837Y0037996D01*
X0096743Y0037948D01*
X0096648Y0037905D01*
X0096551Y0037865D01*
X0096452Y0037829D01*
X0096353Y0037796D01*
X0096252Y0037768D01*
X0096150Y0037743D01*
X0096047Y0037722D01*
X0095943Y0037705D01*
X0095839Y0037692D01*
X0095735Y0037683D01*
X0095630Y0037678D01*
X0095525Y0037677D01*
X0095420Y0037680D01*
X0095315Y0037687D01*
X0095211Y0037698D01*
X0095107Y0037713D01*
X0095004Y0037732D01*
X0094901Y0037755D01*
X0094800Y0037781D01*
X0094699Y0037812D01*
X0094600Y0037846D01*
X0094502Y0037884D01*
X0094406Y0037926D01*
X0094312Y0037971D01*
X0094219Y0038020D01*
X0094128Y0038073D01*
X0094039Y0038129D01*
X0093952Y0038188D01*
X0093868Y0038251D01*
X0093786Y0038316D01*
X0093707Y0038385D01*
X0093630Y0038457D01*
X0093556Y0038531D01*
X0093485Y0038608D01*
X0093417Y0038688D01*
X0093353Y0038771D01*
X0093291Y0038856D01*
X0093233Y0038943D01*
X0093177Y0039032D01*
X0093126Y0039124D01*
X0093078Y0039217D01*
X0093033Y0039312D01*
X0092992Y0039409D01*
X0092955Y0039507D01*
X0092922Y0039606D01*
X0092892Y0039707D01*
X0092867Y0039809D01*
X0092845Y0039911D01*
X0092827Y0040015D01*
X0092813Y0040119D01*
X0092803Y0040223D01*
X0092797Y0040328D01*
X0092795Y0040433D01*
X0053031Y0056772D02*
X0053033Y0056877D01*
X0053039Y0056982D01*
X0053049Y0057086D01*
X0053063Y0057190D01*
X0053081Y0057294D01*
X0053103Y0057396D01*
X0053128Y0057498D01*
X0053158Y0057599D01*
X0053191Y0057698D01*
X0053228Y0057796D01*
X0053269Y0057893D01*
X0053314Y0057988D01*
X0053362Y0058081D01*
X0053413Y0058173D01*
X0053469Y0058262D01*
X0053527Y0058349D01*
X0053589Y0058434D01*
X0053653Y0058517D01*
X0053721Y0058597D01*
X0053792Y0058674D01*
X0053866Y0058748D01*
X0053943Y0058820D01*
X0054022Y0058889D01*
X0054104Y0058954D01*
X0054188Y0059017D01*
X0054275Y0059076D01*
X0054364Y0059132D01*
X0054455Y0059185D01*
X0054548Y0059234D01*
X0054642Y0059279D01*
X0054738Y0059321D01*
X0054836Y0059359D01*
X0054935Y0059393D01*
X0055036Y0059424D01*
X0055137Y0059450D01*
X0055240Y0059473D01*
X0055343Y0059492D01*
X0055447Y0059507D01*
X0055551Y0059518D01*
X0055656Y0059525D01*
X0055761Y0059528D01*
X0055866Y0059527D01*
X0055971Y0059522D01*
X0056075Y0059513D01*
X0056179Y0059500D01*
X0056283Y0059483D01*
X0056386Y0059462D01*
X0056488Y0059437D01*
X0056589Y0059409D01*
X0056688Y0059376D01*
X0056787Y0059340D01*
X0056884Y0059300D01*
X0056979Y0059257D01*
X0057073Y0059209D01*
X0057165Y0059159D01*
X0057255Y0059105D01*
X0057343Y0059047D01*
X0057428Y0058986D01*
X0057511Y0058922D01*
X0057592Y0058855D01*
X0057670Y0058785D01*
X0057745Y0058711D01*
X0057817Y0058636D01*
X0057887Y0058557D01*
X0057953Y0058476D01*
X0058017Y0058392D01*
X0058077Y0058306D01*
X0058133Y0058218D01*
X0058187Y0058127D01*
X0058237Y0058035D01*
X0058283Y0057941D01*
X0058326Y0057845D01*
X0058365Y0057747D01*
X0058400Y0057649D01*
X0058431Y0057548D01*
X0058459Y0057447D01*
X0058483Y0057345D01*
X0058503Y0057242D01*
X0058519Y0057138D01*
X0058531Y0057034D01*
X0058539Y0056929D01*
X0058543Y0056824D01*
X0058543Y0056720D01*
X0058539Y0056615D01*
X0058531Y0056510D01*
X0058519Y0056406D01*
X0058503Y0056302D01*
X0058483Y0056199D01*
X0058459Y0056097D01*
X0058431Y0055996D01*
X0058400Y0055895D01*
X0058365Y0055797D01*
X0058326Y0055699D01*
X0058283Y0055603D01*
X0058237Y0055509D01*
X0058187Y0055417D01*
X0058133Y0055326D01*
X0058077Y0055238D01*
X0058017Y0055152D01*
X0057953Y0055068D01*
X0057887Y0054987D01*
X0057817Y0054908D01*
X0057745Y0054833D01*
X0057670Y0054759D01*
X0057592Y0054689D01*
X0057511Y0054622D01*
X0057428Y0054558D01*
X0057343Y0054497D01*
X0057255Y0054439D01*
X0057165Y0054385D01*
X0057073Y0054335D01*
X0056979Y0054287D01*
X0056884Y0054244D01*
X0056787Y0054204D01*
X0056688Y0054168D01*
X0056589Y0054135D01*
X0056488Y0054107D01*
X0056386Y0054082D01*
X0056283Y0054061D01*
X0056179Y0054044D01*
X0056075Y0054031D01*
X0055971Y0054022D01*
X0055866Y0054017D01*
X0055761Y0054016D01*
X0055656Y0054019D01*
X0055551Y0054026D01*
X0055447Y0054037D01*
X0055343Y0054052D01*
X0055240Y0054071D01*
X0055137Y0054094D01*
X0055036Y0054120D01*
X0054935Y0054151D01*
X0054836Y0054185D01*
X0054738Y0054223D01*
X0054642Y0054265D01*
X0054548Y0054310D01*
X0054455Y0054359D01*
X0054364Y0054412D01*
X0054275Y0054468D01*
X0054188Y0054527D01*
X0054104Y0054590D01*
X0054022Y0054655D01*
X0053943Y0054724D01*
X0053866Y0054796D01*
X0053792Y0054870D01*
X0053721Y0054947D01*
X0053653Y0055027D01*
X0053589Y0055110D01*
X0053527Y0055195D01*
X0053469Y0055282D01*
X0053413Y0055371D01*
X0053362Y0055463D01*
X0053314Y0055556D01*
X0053269Y0055651D01*
X0053228Y0055748D01*
X0053191Y0055846D01*
X0053158Y0055945D01*
X0053128Y0056046D01*
X0053103Y0056148D01*
X0053081Y0056250D01*
X0053063Y0056354D01*
X0053049Y0056458D01*
X0053039Y0056562D01*
X0053033Y0056667D01*
X0053031Y0056772D01*
X0036693Y0095551D02*
X0036695Y0095656D01*
X0036701Y0095761D01*
X0036711Y0095865D01*
X0036725Y0095969D01*
X0036743Y0096073D01*
X0036765Y0096175D01*
X0036790Y0096277D01*
X0036820Y0096378D01*
X0036853Y0096477D01*
X0036890Y0096575D01*
X0036931Y0096672D01*
X0036976Y0096767D01*
X0037024Y0096860D01*
X0037075Y0096952D01*
X0037131Y0097041D01*
X0037189Y0097128D01*
X0037251Y0097213D01*
X0037315Y0097296D01*
X0037383Y0097376D01*
X0037454Y0097453D01*
X0037528Y0097527D01*
X0037605Y0097599D01*
X0037684Y0097668D01*
X0037766Y0097733D01*
X0037850Y0097796D01*
X0037937Y0097855D01*
X0038026Y0097911D01*
X0038117Y0097964D01*
X0038210Y0098013D01*
X0038304Y0098058D01*
X0038400Y0098100D01*
X0038498Y0098138D01*
X0038597Y0098172D01*
X0038698Y0098203D01*
X0038799Y0098229D01*
X0038902Y0098252D01*
X0039005Y0098271D01*
X0039109Y0098286D01*
X0039213Y0098297D01*
X0039318Y0098304D01*
X0039423Y0098307D01*
X0039528Y0098306D01*
X0039633Y0098301D01*
X0039737Y0098292D01*
X0039841Y0098279D01*
X0039945Y0098262D01*
X0040048Y0098241D01*
X0040150Y0098216D01*
X0040251Y0098188D01*
X0040350Y0098155D01*
X0040449Y0098119D01*
X0040546Y0098079D01*
X0040641Y0098036D01*
X0040735Y0097988D01*
X0040827Y0097938D01*
X0040917Y0097884D01*
X0041005Y0097826D01*
X0041090Y0097765D01*
X0041173Y0097701D01*
X0041254Y0097634D01*
X0041332Y0097564D01*
X0041407Y0097490D01*
X0041479Y0097415D01*
X0041549Y0097336D01*
X0041615Y0097255D01*
X0041679Y0097171D01*
X0041739Y0097085D01*
X0041795Y0096997D01*
X0041849Y0096906D01*
X0041899Y0096814D01*
X0041945Y0096720D01*
X0041988Y0096624D01*
X0042027Y0096526D01*
X0042062Y0096428D01*
X0042093Y0096327D01*
X0042121Y0096226D01*
X0042145Y0096124D01*
X0042165Y0096021D01*
X0042181Y0095917D01*
X0042193Y0095813D01*
X0042201Y0095708D01*
X0042205Y0095603D01*
X0042205Y0095499D01*
X0042201Y0095394D01*
X0042193Y0095289D01*
X0042181Y0095185D01*
X0042165Y0095081D01*
X0042145Y0094978D01*
X0042121Y0094876D01*
X0042093Y0094775D01*
X0042062Y0094674D01*
X0042027Y0094576D01*
X0041988Y0094478D01*
X0041945Y0094382D01*
X0041899Y0094288D01*
X0041849Y0094196D01*
X0041795Y0094105D01*
X0041739Y0094017D01*
X0041679Y0093931D01*
X0041615Y0093847D01*
X0041549Y0093766D01*
X0041479Y0093687D01*
X0041407Y0093612D01*
X0041332Y0093538D01*
X0041254Y0093468D01*
X0041173Y0093401D01*
X0041090Y0093337D01*
X0041005Y0093276D01*
X0040917Y0093218D01*
X0040827Y0093164D01*
X0040735Y0093114D01*
X0040641Y0093066D01*
X0040546Y0093023D01*
X0040449Y0092983D01*
X0040350Y0092947D01*
X0040251Y0092914D01*
X0040150Y0092886D01*
X0040048Y0092861D01*
X0039945Y0092840D01*
X0039841Y0092823D01*
X0039737Y0092810D01*
X0039633Y0092801D01*
X0039528Y0092796D01*
X0039423Y0092795D01*
X0039318Y0092798D01*
X0039213Y0092805D01*
X0039109Y0092816D01*
X0039005Y0092831D01*
X0038902Y0092850D01*
X0038799Y0092873D01*
X0038698Y0092899D01*
X0038597Y0092930D01*
X0038498Y0092964D01*
X0038400Y0093002D01*
X0038304Y0093044D01*
X0038210Y0093089D01*
X0038117Y0093138D01*
X0038026Y0093191D01*
X0037937Y0093247D01*
X0037850Y0093306D01*
X0037766Y0093369D01*
X0037684Y0093434D01*
X0037605Y0093503D01*
X0037528Y0093575D01*
X0037454Y0093649D01*
X0037383Y0093726D01*
X0037315Y0093806D01*
X0037251Y0093889D01*
X0037189Y0093974D01*
X0037131Y0094061D01*
X0037075Y0094150D01*
X0037024Y0094242D01*
X0036976Y0094335D01*
X0036931Y0094430D01*
X0036890Y0094527D01*
X0036853Y0094625D01*
X0036820Y0094724D01*
X0036790Y0094825D01*
X0036765Y0094927D01*
X0036743Y0095029D01*
X0036725Y0095133D01*
X0036711Y0095237D01*
X0036701Y0095341D01*
X0036695Y0095446D01*
X0036693Y0095551D01*
X0053031Y0135315D02*
X0053033Y0135420D01*
X0053039Y0135525D01*
X0053049Y0135629D01*
X0053063Y0135733D01*
X0053081Y0135837D01*
X0053103Y0135939D01*
X0053128Y0136041D01*
X0053158Y0136142D01*
X0053191Y0136241D01*
X0053228Y0136339D01*
X0053269Y0136436D01*
X0053314Y0136531D01*
X0053362Y0136624D01*
X0053413Y0136716D01*
X0053469Y0136805D01*
X0053527Y0136892D01*
X0053589Y0136977D01*
X0053653Y0137060D01*
X0053721Y0137140D01*
X0053792Y0137217D01*
X0053866Y0137291D01*
X0053943Y0137363D01*
X0054022Y0137432D01*
X0054104Y0137497D01*
X0054188Y0137560D01*
X0054275Y0137619D01*
X0054364Y0137675D01*
X0054455Y0137728D01*
X0054548Y0137777D01*
X0054642Y0137822D01*
X0054738Y0137864D01*
X0054836Y0137902D01*
X0054935Y0137936D01*
X0055036Y0137967D01*
X0055137Y0137993D01*
X0055240Y0138016D01*
X0055343Y0138035D01*
X0055447Y0138050D01*
X0055551Y0138061D01*
X0055656Y0138068D01*
X0055761Y0138071D01*
X0055866Y0138070D01*
X0055971Y0138065D01*
X0056075Y0138056D01*
X0056179Y0138043D01*
X0056283Y0138026D01*
X0056386Y0138005D01*
X0056488Y0137980D01*
X0056589Y0137952D01*
X0056688Y0137919D01*
X0056787Y0137883D01*
X0056884Y0137843D01*
X0056979Y0137800D01*
X0057073Y0137752D01*
X0057165Y0137702D01*
X0057255Y0137648D01*
X0057343Y0137590D01*
X0057428Y0137529D01*
X0057511Y0137465D01*
X0057592Y0137398D01*
X0057670Y0137328D01*
X0057745Y0137254D01*
X0057817Y0137179D01*
X0057887Y0137100D01*
X0057953Y0137019D01*
X0058017Y0136935D01*
X0058077Y0136849D01*
X0058133Y0136761D01*
X0058187Y0136670D01*
X0058237Y0136578D01*
X0058283Y0136484D01*
X0058326Y0136388D01*
X0058365Y0136290D01*
X0058400Y0136192D01*
X0058431Y0136091D01*
X0058459Y0135990D01*
X0058483Y0135888D01*
X0058503Y0135785D01*
X0058519Y0135681D01*
X0058531Y0135577D01*
X0058539Y0135472D01*
X0058543Y0135367D01*
X0058543Y0135263D01*
X0058539Y0135158D01*
X0058531Y0135053D01*
X0058519Y0134949D01*
X0058503Y0134845D01*
X0058483Y0134742D01*
X0058459Y0134640D01*
X0058431Y0134539D01*
X0058400Y0134438D01*
X0058365Y0134340D01*
X0058326Y0134242D01*
X0058283Y0134146D01*
X0058237Y0134052D01*
X0058187Y0133960D01*
X0058133Y0133869D01*
X0058077Y0133781D01*
X0058017Y0133695D01*
X0057953Y0133611D01*
X0057887Y0133530D01*
X0057817Y0133451D01*
X0057745Y0133376D01*
X0057670Y0133302D01*
X0057592Y0133232D01*
X0057511Y0133165D01*
X0057428Y0133101D01*
X0057343Y0133040D01*
X0057255Y0132982D01*
X0057165Y0132928D01*
X0057073Y0132878D01*
X0056979Y0132830D01*
X0056884Y0132787D01*
X0056787Y0132747D01*
X0056688Y0132711D01*
X0056589Y0132678D01*
X0056488Y0132650D01*
X0056386Y0132625D01*
X0056283Y0132604D01*
X0056179Y0132587D01*
X0056075Y0132574D01*
X0055971Y0132565D01*
X0055866Y0132560D01*
X0055761Y0132559D01*
X0055656Y0132562D01*
X0055551Y0132569D01*
X0055447Y0132580D01*
X0055343Y0132595D01*
X0055240Y0132614D01*
X0055137Y0132637D01*
X0055036Y0132663D01*
X0054935Y0132694D01*
X0054836Y0132728D01*
X0054738Y0132766D01*
X0054642Y0132808D01*
X0054548Y0132853D01*
X0054455Y0132902D01*
X0054364Y0132955D01*
X0054275Y0133011D01*
X0054188Y0133070D01*
X0054104Y0133133D01*
X0054022Y0133198D01*
X0053943Y0133267D01*
X0053866Y0133339D01*
X0053792Y0133413D01*
X0053721Y0133490D01*
X0053653Y0133570D01*
X0053589Y0133653D01*
X0053527Y0133738D01*
X0053469Y0133825D01*
X0053413Y0133914D01*
X0053362Y0134006D01*
X0053314Y0134099D01*
X0053269Y0134194D01*
X0053228Y0134291D01*
X0053191Y0134389D01*
X0053158Y0134488D01*
X0053128Y0134589D01*
X0053103Y0134691D01*
X0053081Y0134793D01*
X0053063Y0134897D01*
X0053049Y0135001D01*
X0053039Y0135105D01*
X0053033Y0135210D01*
X0053031Y0135315D01*
X0132559Y0135315D02*
X0132561Y0135420D01*
X0132567Y0135525D01*
X0132577Y0135629D01*
X0132591Y0135733D01*
X0132609Y0135837D01*
X0132631Y0135939D01*
X0132656Y0136041D01*
X0132686Y0136142D01*
X0132719Y0136241D01*
X0132756Y0136339D01*
X0132797Y0136436D01*
X0132842Y0136531D01*
X0132890Y0136624D01*
X0132941Y0136716D01*
X0132997Y0136805D01*
X0133055Y0136892D01*
X0133117Y0136977D01*
X0133181Y0137060D01*
X0133249Y0137140D01*
X0133320Y0137217D01*
X0133394Y0137291D01*
X0133471Y0137363D01*
X0133550Y0137432D01*
X0133632Y0137497D01*
X0133716Y0137560D01*
X0133803Y0137619D01*
X0133892Y0137675D01*
X0133983Y0137728D01*
X0134076Y0137777D01*
X0134170Y0137822D01*
X0134266Y0137864D01*
X0134364Y0137902D01*
X0134463Y0137936D01*
X0134564Y0137967D01*
X0134665Y0137993D01*
X0134768Y0138016D01*
X0134871Y0138035D01*
X0134975Y0138050D01*
X0135079Y0138061D01*
X0135184Y0138068D01*
X0135289Y0138071D01*
X0135394Y0138070D01*
X0135499Y0138065D01*
X0135603Y0138056D01*
X0135707Y0138043D01*
X0135811Y0138026D01*
X0135914Y0138005D01*
X0136016Y0137980D01*
X0136117Y0137952D01*
X0136216Y0137919D01*
X0136315Y0137883D01*
X0136412Y0137843D01*
X0136507Y0137800D01*
X0136601Y0137752D01*
X0136693Y0137702D01*
X0136783Y0137648D01*
X0136871Y0137590D01*
X0136956Y0137529D01*
X0137039Y0137465D01*
X0137120Y0137398D01*
X0137198Y0137328D01*
X0137273Y0137254D01*
X0137345Y0137179D01*
X0137415Y0137100D01*
X0137481Y0137019D01*
X0137545Y0136935D01*
X0137605Y0136849D01*
X0137661Y0136761D01*
X0137715Y0136670D01*
X0137765Y0136578D01*
X0137811Y0136484D01*
X0137854Y0136388D01*
X0137893Y0136290D01*
X0137928Y0136192D01*
X0137959Y0136091D01*
X0137987Y0135990D01*
X0138011Y0135888D01*
X0138031Y0135785D01*
X0138047Y0135681D01*
X0138059Y0135577D01*
X0138067Y0135472D01*
X0138071Y0135367D01*
X0138071Y0135263D01*
X0138067Y0135158D01*
X0138059Y0135053D01*
X0138047Y0134949D01*
X0138031Y0134845D01*
X0138011Y0134742D01*
X0137987Y0134640D01*
X0137959Y0134539D01*
X0137928Y0134438D01*
X0137893Y0134340D01*
X0137854Y0134242D01*
X0137811Y0134146D01*
X0137765Y0134052D01*
X0137715Y0133960D01*
X0137661Y0133869D01*
X0137605Y0133781D01*
X0137545Y0133695D01*
X0137481Y0133611D01*
X0137415Y0133530D01*
X0137345Y0133451D01*
X0137273Y0133376D01*
X0137198Y0133302D01*
X0137120Y0133232D01*
X0137039Y0133165D01*
X0136956Y0133101D01*
X0136871Y0133040D01*
X0136783Y0132982D01*
X0136693Y0132928D01*
X0136601Y0132878D01*
X0136507Y0132830D01*
X0136412Y0132787D01*
X0136315Y0132747D01*
X0136216Y0132711D01*
X0136117Y0132678D01*
X0136016Y0132650D01*
X0135914Y0132625D01*
X0135811Y0132604D01*
X0135707Y0132587D01*
X0135603Y0132574D01*
X0135499Y0132565D01*
X0135394Y0132560D01*
X0135289Y0132559D01*
X0135184Y0132562D01*
X0135079Y0132569D01*
X0134975Y0132580D01*
X0134871Y0132595D01*
X0134768Y0132614D01*
X0134665Y0132637D01*
X0134564Y0132663D01*
X0134463Y0132694D01*
X0134364Y0132728D01*
X0134266Y0132766D01*
X0134170Y0132808D01*
X0134076Y0132853D01*
X0133983Y0132902D01*
X0133892Y0132955D01*
X0133803Y0133011D01*
X0133716Y0133070D01*
X0133632Y0133133D01*
X0133550Y0133198D01*
X0133471Y0133267D01*
X0133394Y0133339D01*
X0133320Y0133413D01*
X0133249Y0133490D01*
X0133181Y0133570D01*
X0133117Y0133653D01*
X0133055Y0133738D01*
X0132997Y0133825D01*
X0132941Y0133914D01*
X0132890Y0134006D01*
X0132842Y0134099D01*
X0132797Y0134194D01*
X0132756Y0134291D01*
X0132719Y0134389D01*
X0132686Y0134488D01*
X0132656Y0134589D01*
X0132631Y0134691D01*
X0132609Y0134793D01*
X0132591Y0134897D01*
X0132577Y0135001D01*
X0132567Y0135105D01*
X0132561Y0135210D01*
X0132559Y0135315D01*
D13*
X0151654Y0105000D03*
X0151654Y0086102D03*
X0232362Y0087087D03*
X0232362Y0105984D03*
X0344567Y0105984D03*
X0344567Y0087087D03*
X0039449Y0086102D03*
X0039449Y0105000D03*
D14*
G36*
X0046274Y0041730D02*
X0041538Y0036994D01*
X0036246Y0042286D01*
X0040982Y0047022D01*
X0046274Y0041730D01*
G37*
G36*
X0054069Y0049525D02*
X0049333Y0044789D01*
X0044041Y0050081D01*
X0048777Y0054817D01*
X0054069Y0049525D01*
G37*
G36*
X0120239Y0077219D02*
X0124975Y0072483D01*
X0119683Y0067191D01*
X0114947Y0071927D01*
X0120239Y0077219D01*
G37*
G36*
X0128034Y0069424D02*
X0132770Y0064688D01*
X0127478Y0059396D01*
X0122742Y0064132D01*
X0128034Y0069424D01*
G37*
X0129409Y0095551D03*
X0140433Y0095551D03*
G36*
X0136207Y0142483D02*
X0140943Y0147219D01*
X0146235Y0141927D01*
X0141499Y0137191D01*
X0136207Y0142483D01*
G37*
G36*
X0144002Y0150278D02*
X0148738Y0155014D01*
X0154030Y0149722D01*
X0149294Y0144986D01*
X0144002Y0150278D01*
G37*
G36*
X0071021Y0114159D02*
X0066285Y0118895D01*
X0071577Y0124187D01*
X0076313Y0119451D01*
X0071021Y0114159D01*
G37*
G36*
X0063226Y0121954D02*
X0058490Y0126690D01*
X0063782Y0131982D01*
X0068518Y0127246D01*
X0063226Y0121954D01*
G37*
X0061693Y0095551D03*
X0050669Y0095551D03*
G36*
X0238636Y0041927D02*
X0233900Y0037191D01*
X0228608Y0042483D01*
X0233344Y0047219D01*
X0238636Y0041927D01*
G37*
G36*
X0246431Y0049722D02*
X0241695Y0044986D01*
X0236403Y0050278D01*
X0241139Y0055014D01*
X0246431Y0049722D01*
G37*
G36*
X0313231Y0077337D02*
X0317967Y0072601D01*
X0312675Y0067309D01*
X0307939Y0072045D01*
X0313231Y0077337D01*
G37*
G36*
X0321026Y0069542D02*
X0325762Y0064806D01*
X0320470Y0059514D01*
X0315734Y0064250D01*
X0321026Y0069542D01*
G37*
X0322402Y0095591D03*
X0333425Y0095591D03*
G36*
X0264407Y0114435D02*
X0259671Y0119171D01*
X0264963Y0124463D01*
X0269699Y0119727D01*
X0264407Y0114435D01*
G37*
G36*
X0256612Y0122230D02*
X0251876Y0126966D01*
X0257168Y0132258D01*
X0261904Y0127522D01*
X0256612Y0122230D01*
G37*
X0254685Y0095709D03*
X0243661Y0095709D03*
G36*
X0328884Y0142759D02*
X0333620Y0147495D01*
X0338912Y0142203D01*
X0334176Y0137467D01*
X0328884Y0142759D01*
G37*
G36*
X0336679Y0150553D02*
X0341415Y0155289D01*
X0346707Y0149997D01*
X0341971Y0145261D01*
X0336679Y0150553D01*
G37*
D15*
X0288504Y0030197D03*
X0288504Y0019173D03*
X0095591Y0019134D03*
X0095591Y0030157D03*
D16*
X0186496Y0127047D03*
X0193583Y0127047D03*
X0202244Y0127047D03*
X0209331Y0127047D03*
D17*
X0203406Y0141621D03*
X0198406Y0141621D03*
X0193406Y0141621D03*
X0188406Y0141621D03*
X0188406Y0168121D03*
X0193406Y0168121D03*
X0198406Y0168121D03*
X0203406Y0168121D03*
D18*
X0095303Y0096586D03*
X0150981Y0040909D03*
M02*
