G75*
%MOIN*%
%OFA0B0*%
%FSLAX25Y25*%
%IPPOS*%
%LPD*%
%AMOC8*
5,1,8,0,0,1.08239X$1,22.5*
%
%ADD10C,0.00000*%
D10*
X0156181Y0027834D02*
X0154531Y0026366D01*
X0152845Y0024938D01*
X0151126Y0023551D01*
X0149372Y0022207D01*
X0147587Y0020906D01*
X0145771Y0019649D01*
X0143924Y0018436D01*
X0142049Y0017269D01*
X0140145Y0016148D01*
X0138215Y0015073D01*
X0136259Y0014046D01*
X0134279Y0013067D01*
X0132276Y0012136D01*
X0130250Y0011254D01*
X0128204Y0010422D01*
X0126138Y0009640D01*
X0124053Y0008909D01*
X0121952Y0008228D01*
X0119834Y0007599D01*
X0117702Y0007021D01*
X0115556Y0006496D01*
X0113398Y0006023D01*
X0111229Y0005603D01*
X0109051Y0005236D01*
X0106864Y0004921D01*
X0104671Y0004661D01*
X0102471Y0004453D01*
X0100268Y0004300D01*
X0098061Y0004200D01*
X0095852Y0004153D01*
X0093643Y0004161D01*
X0091435Y0004222D01*
X0089229Y0004338D01*
X0087026Y0004506D01*
X0084828Y0004729D01*
X0082637Y0005005D01*
X0080452Y0005334D01*
X0078276Y0005716D01*
X0076111Y0006151D01*
X0073956Y0006639D01*
X0071814Y0007179D01*
X0069686Y0007771D01*
X0067572Y0008415D01*
X0065475Y0009110D01*
X0063396Y0009855D01*
X0061335Y0010652D01*
X0059295Y0011498D01*
X0057275Y0012393D01*
X0055278Y0013338D01*
X0053305Y0014331D01*
X0051356Y0015371D01*
X0049434Y0016459D01*
X0047538Y0017593D01*
X0045671Y0018774D01*
X0043832Y0019999D01*
X0042025Y0021268D01*
X0040248Y0022582D01*
X0038504Y0023938D01*
X0036794Y0025336D01*
X0035118Y0026775D01*
X0033478Y0028255D01*
X0031874Y0029775D01*
X0030308Y0031332D01*
X0028780Y0032928D01*
X0027292Y0034560D01*
X0025844Y0036228D01*
X0024436Y0037931D01*
X0023071Y0039668D01*
X0021748Y0041437D01*
X0020469Y0043238D01*
X0019234Y0045070D01*
X0018044Y0046931D01*
X0016900Y0048821D01*
X0015802Y0050738D01*
X0014751Y0052681D01*
X0013747Y0054649D01*
X0012792Y0056641D01*
X0011886Y0058655D01*
X0011029Y0060691D01*
X0010222Y0062748D01*
X0009465Y0064823D01*
X0008759Y0066916D01*
X0008104Y0069026D01*
X0007501Y0071151D01*
X0006949Y0073290D01*
X0006450Y0075442D01*
X0006003Y0077606D01*
X0005610Y0079780D01*
X0005269Y0081962D01*
X0004981Y0084153D01*
X0004747Y0086349D01*
X0004567Y0088551D01*
X0004440Y0090756D01*
X0004367Y0092964D01*
X0004348Y0095173D01*
X0004382Y0097382D01*
X0004470Y0099589D01*
X0004612Y0101794D01*
X0004808Y0103994D01*
X0005057Y0106189D01*
X0005360Y0108378D01*
X0005715Y0110558D01*
X0006124Y0112729D01*
X0006585Y0114889D01*
X0007099Y0117038D01*
X0007665Y0119173D01*
X0008283Y0121294D01*
X0008953Y0123399D01*
X0009673Y0125488D01*
X0010444Y0127558D01*
X0011266Y0129608D01*
X0012136Y0131639D01*
X0013057Y0133647D01*
X0014025Y0135632D01*
X0015042Y0137593D01*
X0016106Y0139529D01*
X0017218Y0141439D01*
X0018375Y0143320D01*
X0019578Y0145173D01*
X0020825Y0146996D01*
X0022117Y0148789D01*
X0023451Y0150549D01*
X0024829Y0152276D01*
X0026248Y0153969D01*
X0027707Y0155627D01*
X0029207Y0157249D01*
X0030746Y0158834D01*
X0032323Y0160382D01*
X0033937Y0161890D01*
X0033936Y0161890D02*
X0034616Y0162431D01*
X0035309Y0162956D01*
X0036014Y0163463D01*
X0036731Y0163954D01*
X0037460Y0164427D01*
X0038200Y0164883D01*
X0038951Y0165320D01*
X0039712Y0165739D01*
X0040483Y0166140D01*
X0041263Y0166522D01*
X0042053Y0166884D01*
X0042851Y0167228D01*
X0043657Y0167552D01*
X0044471Y0167857D01*
X0045291Y0168142D01*
X0046119Y0168407D01*
X0046953Y0168652D01*
X0047792Y0168877D01*
X0048636Y0169081D01*
X0049486Y0169265D01*
X0050339Y0169429D01*
X0051196Y0169571D01*
X0052056Y0169693D01*
X0052919Y0169795D01*
X0053784Y0169875D01*
X0054651Y0169934D01*
X0055519Y0169972D01*
X0056388Y0169990D01*
X0057257Y0169986D01*
X0058126Y0169962D01*
X0058993Y0169916D01*
X0059860Y0169850D01*
X0060724Y0169762D01*
X0061586Y0169654D01*
X0062445Y0169525D01*
X0063301Y0169375D01*
X0064153Y0169204D01*
X0065001Y0169013D01*
X0065844Y0168802D01*
X0066681Y0168570D01*
X0067513Y0168318D01*
X0068338Y0168046D01*
X0069156Y0167754D01*
X0069968Y0167443D01*
X0070771Y0167112D01*
X0071566Y0166762D01*
X0072353Y0166392D01*
X0073130Y0166004D01*
X0073897Y0165597D01*
X0074655Y0165171D01*
X0075402Y0164728D01*
X0076138Y0164266D01*
X0076863Y0163787D01*
X0077576Y0163291D01*
X0078277Y0162777D01*
X0078965Y0162246D01*
X0079640Y0161700D01*
X0080302Y0161137D01*
X0080950Y0160558D01*
X0081584Y0159963D01*
X0082203Y0159354D01*
X0082808Y0158729D01*
X0083397Y0158091D01*
X0083970Y0157438D01*
X0084528Y0156772D01*
X0095551Y0175669D01*
X0094681Y0176021D01*
X0093819Y0176394D01*
X0092967Y0176788D01*
X0092125Y0177203D01*
X0091293Y0177638D01*
X0090472Y0178093D01*
X0089662Y0178568D01*
X0088864Y0179063D01*
X0088078Y0179577D01*
X0087305Y0180110D01*
X0086546Y0180661D01*
X0085800Y0181231D01*
X0085068Y0181819D01*
X0084350Y0182424D01*
X0083647Y0183047D01*
X0082960Y0183686D01*
X0082289Y0184342D01*
X0081634Y0185015D01*
X0080995Y0185703D01*
X0080373Y0186406D01*
X0079768Y0187124D01*
X0079182Y0187857D01*
X0078613Y0188604D01*
X0078062Y0189364D01*
X0077530Y0190138D01*
X0077018Y0190924D01*
X0076524Y0191723D01*
X0076050Y0192533D01*
X0075596Y0193355D01*
X0075162Y0194187D01*
X0074748Y0195030D01*
X0074355Y0195883D01*
X0073983Y0196745D01*
X0073632Y0197615D01*
X0073302Y0198494D01*
X0072994Y0199381D01*
X0072707Y0200275D01*
X0072443Y0201176D01*
X0072200Y0202083D01*
X0071979Y0202995D01*
X0071781Y0203913D01*
X0071605Y0204835D01*
X0071451Y0205761D01*
X0071320Y0206691D01*
X0071212Y0207623D01*
X0071127Y0208558D01*
X0071064Y0209495D01*
X0071024Y0210433D01*
X0071007Y0211372D01*
X0071012Y0212310D01*
X0071041Y0213249D01*
X0071092Y0214186D01*
X0071167Y0215122D01*
X0071263Y0216056D01*
X0071383Y0216987D01*
X0071525Y0217915D01*
X0071690Y0218839D01*
X0071877Y0219759D01*
X0072087Y0220674D01*
X0072319Y0221584D01*
X0072572Y0222488D01*
X0072848Y0223385D01*
X0073146Y0224276D01*
X0073465Y0225158D01*
X0073805Y0226033D01*
X0074167Y0226900D01*
X0074549Y0227757D01*
X0074953Y0228605D01*
X0075377Y0229442D01*
X0075821Y0230270D01*
X0076285Y0231086D01*
X0076769Y0231890D01*
X0077272Y0232683D01*
X0077794Y0233463D01*
X0078335Y0234230D01*
X0078895Y0234983D01*
X0079473Y0235723D01*
X0080069Y0236449D01*
X0080682Y0237160D01*
X0081312Y0237856D01*
X0081959Y0238536D01*
X0082623Y0239200D01*
X0083302Y0239848D01*
X0083997Y0240479D01*
X0084707Y0241093D01*
X0085432Y0241690D01*
X0086171Y0242269D01*
X0086924Y0242829D01*
X0087691Y0243371D01*
X0088470Y0243895D01*
X0089262Y0244399D01*
X0090066Y0244884D01*
X0090881Y0245349D01*
X0091708Y0245794D01*
X0092545Y0246219D01*
X0093392Y0246623D01*
X0094249Y0247007D01*
X0095115Y0247370D01*
X0095989Y0247711D01*
X0096872Y0248032D01*
X0097762Y0248330D01*
X0098659Y0248607D01*
X0099563Y0248862D01*
X0100472Y0249095D01*
X0100472Y0249094D02*
X0150669Y0249094D01*
X0192205Y0244370D02*
X0216220Y0244370D01*
X0200275Y0229409D02*
X0200277Y0229557D01*
X0200283Y0229705D01*
X0200293Y0229853D01*
X0200307Y0230000D01*
X0200325Y0230147D01*
X0200346Y0230293D01*
X0200372Y0230439D01*
X0200402Y0230584D01*
X0200435Y0230728D01*
X0200473Y0230871D01*
X0200514Y0231013D01*
X0200559Y0231154D01*
X0200607Y0231294D01*
X0200660Y0231433D01*
X0200716Y0231570D01*
X0200776Y0231705D01*
X0200839Y0231839D01*
X0200906Y0231971D01*
X0200977Y0232101D01*
X0201051Y0232229D01*
X0201128Y0232355D01*
X0201209Y0232479D01*
X0201293Y0232601D01*
X0201380Y0232720D01*
X0201471Y0232837D01*
X0201565Y0232952D01*
X0201661Y0233064D01*
X0201761Y0233174D01*
X0201863Y0233280D01*
X0201969Y0233384D01*
X0202077Y0233485D01*
X0202188Y0233583D01*
X0202301Y0233679D01*
X0202417Y0233771D01*
X0202535Y0233860D01*
X0202656Y0233945D01*
X0202779Y0234028D01*
X0202904Y0234107D01*
X0203031Y0234183D01*
X0203160Y0234255D01*
X0203291Y0234324D01*
X0203424Y0234389D01*
X0203559Y0234450D01*
X0203695Y0234508D01*
X0203832Y0234563D01*
X0203971Y0234613D01*
X0204112Y0234660D01*
X0204253Y0234703D01*
X0204396Y0234743D01*
X0204540Y0234778D01*
X0204684Y0234810D01*
X0204830Y0234837D01*
X0204976Y0234861D01*
X0205123Y0234881D01*
X0205270Y0234897D01*
X0205417Y0234909D01*
X0205565Y0234917D01*
X0205713Y0234921D01*
X0205861Y0234921D01*
X0206009Y0234917D01*
X0206157Y0234909D01*
X0206304Y0234897D01*
X0206451Y0234881D01*
X0206598Y0234861D01*
X0206744Y0234837D01*
X0206890Y0234810D01*
X0207034Y0234778D01*
X0207178Y0234743D01*
X0207321Y0234703D01*
X0207462Y0234660D01*
X0207603Y0234613D01*
X0207742Y0234563D01*
X0207879Y0234508D01*
X0208015Y0234450D01*
X0208150Y0234389D01*
X0208283Y0234324D01*
X0208414Y0234255D01*
X0208543Y0234183D01*
X0208670Y0234107D01*
X0208795Y0234028D01*
X0208918Y0233945D01*
X0209039Y0233860D01*
X0209157Y0233771D01*
X0209273Y0233679D01*
X0209386Y0233583D01*
X0209497Y0233485D01*
X0209605Y0233384D01*
X0209711Y0233280D01*
X0209813Y0233174D01*
X0209913Y0233064D01*
X0210009Y0232952D01*
X0210103Y0232837D01*
X0210194Y0232720D01*
X0210281Y0232601D01*
X0210365Y0232479D01*
X0210446Y0232355D01*
X0210523Y0232229D01*
X0210597Y0232101D01*
X0210668Y0231971D01*
X0210735Y0231839D01*
X0210798Y0231705D01*
X0210858Y0231570D01*
X0210914Y0231433D01*
X0210967Y0231294D01*
X0211015Y0231154D01*
X0211060Y0231013D01*
X0211101Y0230871D01*
X0211139Y0230728D01*
X0211172Y0230584D01*
X0211202Y0230439D01*
X0211228Y0230293D01*
X0211249Y0230147D01*
X0211267Y0230000D01*
X0211281Y0229853D01*
X0211291Y0229705D01*
X0211297Y0229557D01*
X0211299Y0229409D01*
X0211297Y0229261D01*
X0211291Y0229113D01*
X0211281Y0228965D01*
X0211267Y0228818D01*
X0211249Y0228671D01*
X0211228Y0228525D01*
X0211202Y0228379D01*
X0211172Y0228234D01*
X0211139Y0228090D01*
X0211101Y0227947D01*
X0211060Y0227805D01*
X0211015Y0227664D01*
X0210967Y0227524D01*
X0210914Y0227385D01*
X0210858Y0227248D01*
X0210798Y0227113D01*
X0210735Y0226979D01*
X0210668Y0226847D01*
X0210597Y0226717D01*
X0210523Y0226589D01*
X0210446Y0226463D01*
X0210365Y0226339D01*
X0210281Y0226217D01*
X0210194Y0226098D01*
X0210103Y0225981D01*
X0210009Y0225866D01*
X0209913Y0225754D01*
X0209813Y0225644D01*
X0209711Y0225538D01*
X0209605Y0225434D01*
X0209497Y0225333D01*
X0209386Y0225235D01*
X0209273Y0225139D01*
X0209157Y0225047D01*
X0209039Y0224958D01*
X0208918Y0224873D01*
X0208795Y0224790D01*
X0208670Y0224711D01*
X0208543Y0224635D01*
X0208414Y0224563D01*
X0208283Y0224494D01*
X0208150Y0224429D01*
X0208015Y0224368D01*
X0207879Y0224310D01*
X0207742Y0224255D01*
X0207603Y0224205D01*
X0207462Y0224158D01*
X0207321Y0224115D01*
X0207178Y0224075D01*
X0207034Y0224040D01*
X0206890Y0224008D01*
X0206744Y0223981D01*
X0206598Y0223957D01*
X0206451Y0223937D01*
X0206304Y0223921D01*
X0206157Y0223909D01*
X0206009Y0223901D01*
X0205861Y0223897D01*
X0205713Y0223897D01*
X0205565Y0223901D01*
X0205417Y0223909D01*
X0205270Y0223921D01*
X0205123Y0223937D01*
X0204976Y0223957D01*
X0204830Y0223981D01*
X0204684Y0224008D01*
X0204540Y0224040D01*
X0204396Y0224075D01*
X0204253Y0224115D01*
X0204112Y0224158D01*
X0203971Y0224205D01*
X0203832Y0224255D01*
X0203695Y0224310D01*
X0203559Y0224368D01*
X0203424Y0224429D01*
X0203291Y0224494D01*
X0203160Y0224563D01*
X0203031Y0224635D01*
X0202904Y0224711D01*
X0202779Y0224790D01*
X0202656Y0224873D01*
X0202535Y0224958D01*
X0202417Y0225047D01*
X0202301Y0225139D01*
X0202188Y0225235D01*
X0202077Y0225333D01*
X0201969Y0225434D01*
X0201863Y0225538D01*
X0201761Y0225644D01*
X0201661Y0225754D01*
X0201565Y0225866D01*
X0201471Y0225981D01*
X0201380Y0226098D01*
X0201293Y0226217D01*
X0201209Y0226339D01*
X0201128Y0226463D01*
X0201051Y0226589D01*
X0200977Y0226717D01*
X0200906Y0226847D01*
X0200839Y0226979D01*
X0200776Y0227113D01*
X0200716Y0227248D01*
X0200660Y0227385D01*
X0200607Y0227524D01*
X0200559Y0227664D01*
X0200514Y0227805D01*
X0200473Y0227947D01*
X0200435Y0228090D01*
X0200402Y0228234D01*
X0200372Y0228379D01*
X0200346Y0228525D01*
X0200325Y0228671D01*
X0200307Y0228818D01*
X0200293Y0228965D01*
X0200283Y0229113D01*
X0200277Y0229261D01*
X0200275Y0229409D01*
X0216220Y0244371D02*
X0216946Y0244287D01*
X0217671Y0244187D01*
X0218392Y0244069D01*
X0219111Y0243934D01*
X0219826Y0243781D01*
X0220537Y0243611D01*
X0221244Y0243424D01*
X0221946Y0243221D01*
X0222644Y0243000D01*
X0223335Y0242763D01*
X0224021Y0242509D01*
X0224700Y0242238D01*
X0225373Y0241952D01*
X0226039Y0241649D01*
X0226697Y0241330D01*
X0227347Y0240996D01*
X0227989Y0240646D01*
X0228622Y0240281D01*
X0229247Y0239900D01*
X0229862Y0239505D01*
X0230467Y0239095D01*
X0231063Y0238670D01*
X0231648Y0238231D01*
X0232222Y0237779D01*
X0232785Y0237312D01*
X0233337Y0236833D01*
X0233877Y0236340D01*
X0234405Y0235834D01*
X0234921Y0235315D01*
X0249094Y0241220D02*
X0386890Y0241220D01*
X0386890Y0241221D02*
X0387174Y0241201D01*
X0387459Y0241175D01*
X0387742Y0241142D01*
X0388024Y0241102D01*
X0388306Y0241055D01*
X0388586Y0241001D01*
X0388865Y0240940D01*
X0389142Y0240872D01*
X0389418Y0240798D01*
X0389691Y0240717D01*
X0389963Y0240630D01*
X0390232Y0240535D01*
X0390499Y0240435D01*
X0390764Y0240328D01*
X0391026Y0240214D01*
X0391285Y0240094D01*
X0391540Y0239968D01*
X0391793Y0239835D01*
X0392043Y0239697D01*
X0392289Y0239552D01*
X0392531Y0239401D01*
X0392770Y0239245D01*
X0393004Y0239083D01*
X0393235Y0238915D01*
X0393462Y0238741D01*
X0393684Y0238562D01*
X0393902Y0238378D01*
X0394115Y0238188D01*
X0394324Y0237993D01*
X0394527Y0237794D01*
X0394726Y0237589D01*
X0394920Y0237379D01*
X0395109Y0237165D01*
X0395292Y0236947D01*
X0395470Y0236724D01*
X0395642Y0236496D01*
X0395809Y0236265D01*
X0395970Y0236029D01*
X0396126Y0235790D01*
X0396275Y0235547D01*
X0396419Y0235300D01*
X0396556Y0235050D01*
X0396687Y0234797D01*
X0396812Y0234540D01*
X0396931Y0234281D01*
X0397044Y0234018D01*
X0397150Y0233753D01*
X0397249Y0233486D01*
X0397342Y0233216D01*
X0397428Y0232944D01*
X0397508Y0232670D01*
X0397581Y0232394D01*
X0397647Y0232117D01*
X0397707Y0231837D01*
X0397759Y0231557D01*
X0397805Y0231275D01*
X0397844Y0230993D01*
X0397876Y0230709D01*
X0397901Y0230425D01*
X0397919Y0230140D01*
X0397930Y0229855D01*
X0397934Y0229570D01*
X0397931Y0229284D01*
X0397921Y0228999D01*
X0397905Y0228714D01*
X0397881Y0228430D01*
X0397850Y0228146D01*
X0397813Y0227863D01*
X0397768Y0227581D01*
X0397717Y0227300D01*
X0397659Y0227021D01*
X0397594Y0226743D01*
X0397523Y0226467D01*
X0397444Y0226193D01*
X0397359Y0225920D01*
X0397267Y0225650D01*
X0397169Y0225382D01*
X0397065Y0225117D01*
X0396953Y0224854D01*
X0396836Y0224594D01*
X0396712Y0224337D01*
X0396582Y0224083D01*
X0396446Y0223832D01*
X0396303Y0223585D01*
X0396155Y0223341D01*
X0396001Y0223101D01*
X0395841Y0222864D01*
X0395675Y0222632D01*
X0395504Y0222404D01*
X0395327Y0222180D01*
X0395144Y0221960D01*
X0394957Y0221745D01*
X0394764Y0221535D01*
X0351850Y0159921D01*
X0351851Y0159921D02*
X0353411Y0158352D01*
X0354932Y0156746D01*
X0356413Y0155103D01*
X0357854Y0153424D01*
X0359253Y0151710D01*
X0360610Y0149963D01*
X0361924Y0148183D01*
X0363195Y0146372D01*
X0364420Y0144530D01*
X0365601Y0142659D01*
X0366735Y0140759D01*
X0367822Y0138833D01*
X0368863Y0136880D01*
X0369855Y0134903D01*
X0370799Y0132902D01*
X0371693Y0130879D01*
X0372538Y0128834D01*
X0373333Y0126770D01*
X0374077Y0124686D01*
X0374770Y0122585D01*
X0375412Y0120468D01*
X0376002Y0118336D01*
X0376539Y0116190D01*
X0377024Y0114031D01*
X0377456Y0111861D01*
X0377836Y0109682D01*
X0378161Y0107493D01*
X0378434Y0105298D01*
X0378652Y0103096D01*
X0378817Y0100890D01*
X0378928Y0098681D01*
X0378985Y0096469D01*
X0378988Y0094257D01*
X0378937Y0092045D01*
X0378832Y0089835D01*
X0378673Y0087628D01*
X0378460Y0085426D01*
X0378193Y0083230D01*
X0377873Y0081041D01*
X0377500Y0078860D01*
X0377074Y0076690D01*
X0376594Y0074530D01*
X0376063Y0072382D01*
X0375478Y0070249D01*
X0374842Y0068130D01*
X0374155Y0066027D01*
X0373416Y0063941D01*
X0372627Y0061875D01*
X0371787Y0059828D01*
X0370898Y0057802D01*
X0369960Y0055799D01*
X0368973Y0053819D01*
X0367937Y0051863D01*
X0366855Y0049934D01*
X0365726Y0048032D01*
X0364550Y0046157D01*
X0363330Y0044312D01*
X0362064Y0042498D01*
X0360755Y0040714D01*
X0359402Y0038964D01*
X0358007Y0037246D01*
X0356571Y0035564D01*
X0355094Y0033917D01*
X0353577Y0032306D01*
X0352022Y0030733D01*
X0350428Y0029198D01*
X0348798Y0027703D01*
X0347131Y0026248D01*
X0345430Y0024834D01*
X0343694Y0023462D01*
X0341926Y0022133D01*
X0340125Y0020847D01*
X0338294Y0019606D01*
X0336433Y0018409D01*
X0334543Y0017259D01*
X0332626Y0016155D01*
X0330683Y0015098D01*
X0328714Y0014089D01*
X0326721Y0013128D01*
X0324705Y0012216D01*
X0322668Y0011354D01*
X0320610Y0010541D01*
X0318533Y0009779D01*
X0316438Y0009068D01*
X0314327Y0008409D01*
X0312200Y0007801D01*
X0310058Y0007245D01*
X0307904Y0006741D01*
X0305738Y0006291D01*
X0303562Y0005893D01*
X0301376Y0005549D01*
X0299183Y0005258D01*
X0296984Y0005020D01*
X0294779Y0004837D01*
X0292570Y0004707D01*
X0290359Y0004631D01*
X0288147Y0004609D01*
X0285935Y0004641D01*
X0283724Y0004728D01*
X0281516Y0004868D01*
X0279313Y0005062D01*
X0277114Y0005309D01*
X0274922Y0005611D01*
X0272739Y0005965D01*
X0270564Y0006373D01*
X0268400Y0006834D01*
X0266248Y0007347D01*
X0264110Y0007913D01*
X0261985Y0008531D01*
X0259877Y0009201D01*
X0257785Y0009921D01*
X0255712Y0010693D01*
X0253658Y0011515D01*
X0251625Y0012387D01*
X0249613Y0013308D01*
X0247625Y0014278D01*
X0245661Y0015297D01*
X0243722Y0016363D01*
X0241810Y0017476D01*
X0239926Y0018635D01*
X0238071Y0019840D01*
X0236245Y0021090D01*
X0234451Y0022384D01*
X0232689Y0023721D01*
X0230959Y0025102D01*
X0229265Y0026523D01*
X0227605Y0027986D01*
X0225981Y0029489D01*
X0224395Y0031031D01*
X0222847Y0032612D01*
X0221338Y0034229D01*
X0219868Y0035883D01*
X0218440Y0037573D01*
X0217053Y0039296D01*
X0215709Y0041054D01*
X0214408Y0042843D01*
X0213151Y0044664D01*
X0211939Y0046514D01*
X0210772Y0048394D01*
X0209652Y0050302D01*
X0208578Y0052236D01*
X0207553Y0054196D01*
X0206575Y0056181D01*
X0206575Y0035906D01*
X0206575Y0035905D02*
X0206479Y0035626D01*
X0206376Y0035349D01*
X0206267Y0035075D01*
X0206150Y0034803D01*
X0206028Y0034535D01*
X0205898Y0034269D01*
X0205763Y0034007D01*
X0205620Y0033748D01*
X0205472Y0033492D01*
X0205317Y0033241D01*
X0205157Y0032993D01*
X0204990Y0032749D01*
X0204818Y0032509D01*
X0204639Y0032273D01*
X0204455Y0032042D01*
X0204266Y0031816D01*
X0204071Y0031594D01*
X0203871Y0031377D01*
X0203665Y0031165D01*
X0203454Y0030958D01*
X0203239Y0030756D01*
X0203018Y0030559D01*
X0202793Y0030368D01*
X0202563Y0030182D01*
X0202329Y0030003D01*
X0202090Y0029828D01*
X0201847Y0029660D01*
X0201601Y0029498D01*
X0201350Y0029341D01*
X0201096Y0029191D01*
X0200838Y0029047D01*
X0200576Y0028910D01*
X0200311Y0028779D01*
X0200044Y0028654D01*
X0199773Y0028536D01*
X0199499Y0028424D01*
X0199223Y0028320D01*
X0198945Y0028221D01*
X0198664Y0028130D01*
X0198380Y0028046D01*
X0198095Y0027968D01*
X0197809Y0027898D01*
X0197520Y0027834D01*
X0197520Y0027835D02*
X0156181Y0027835D01*
X0172519Y0234527D02*
X0171963Y0235265D01*
X0171389Y0235990D01*
X0170798Y0236700D01*
X0170190Y0237396D01*
X0169566Y0238078D01*
X0168925Y0238744D01*
X0168268Y0239394D01*
X0167596Y0240028D01*
X0166909Y0240646D01*
X0166207Y0241248D01*
X0165491Y0241832D01*
X0164761Y0242399D01*
X0164018Y0242948D01*
X0163261Y0243479D01*
X0162492Y0243991D01*
X0161711Y0244485D01*
X0160919Y0244960D01*
X0160115Y0245416D01*
X0159300Y0245852D01*
X0158475Y0246269D01*
X0157640Y0246666D01*
X0156796Y0247042D01*
X0155943Y0247398D01*
X0155082Y0247733D01*
X0154213Y0248048D01*
X0153337Y0248341D01*
X0152454Y0248614D01*
X0151564Y0248865D01*
X0150669Y0249094D01*
X0172520Y0234528D02*
X0173059Y0235084D01*
X0173611Y0235626D01*
X0174177Y0236156D01*
X0174755Y0236671D01*
X0175345Y0237173D01*
X0175947Y0237660D01*
X0176561Y0238133D01*
X0177185Y0238590D01*
X0177821Y0239033D01*
X0178467Y0239460D01*
X0179124Y0239871D01*
X0179790Y0240267D01*
X0180465Y0240646D01*
X0181149Y0241009D01*
X0181842Y0241355D01*
X0182543Y0241685D01*
X0183251Y0241998D01*
X0183967Y0242293D01*
X0184690Y0242571D01*
X0185419Y0242832D01*
X0186155Y0243075D01*
X0186896Y0243300D01*
X0187642Y0243508D01*
X0188393Y0243697D01*
X0189148Y0243868D01*
X0189908Y0244021D01*
X0190670Y0244156D01*
X0191436Y0244272D01*
X0192205Y0244370D01*
X0234922Y0235315D02*
X0235486Y0235739D01*
X0236060Y0236150D01*
X0236644Y0236546D01*
X0237237Y0236929D01*
X0237839Y0237298D01*
X0238450Y0237652D01*
X0239069Y0237992D01*
X0239695Y0238317D01*
X0240330Y0238626D01*
X0240971Y0238921D01*
X0241620Y0239200D01*
X0242274Y0239464D01*
X0242935Y0239712D01*
X0243602Y0239944D01*
X0244274Y0240161D01*
X0244951Y0240361D01*
X0245632Y0240545D01*
X0246318Y0240713D01*
X0247007Y0240865D01*
X0247700Y0241000D01*
X0248396Y0241118D01*
X0249095Y0241220D01*
X0373504Y0225472D02*
X0373506Y0225620D01*
X0373512Y0225768D01*
X0373522Y0225916D01*
X0373536Y0226063D01*
X0373554Y0226210D01*
X0373575Y0226356D01*
X0373601Y0226502D01*
X0373631Y0226647D01*
X0373664Y0226791D01*
X0373702Y0226934D01*
X0373743Y0227076D01*
X0373788Y0227217D01*
X0373836Y0227357D01*
X0373889Y0227496D01*
X0373945Y0227633D01*
X0374005Y0227768D01*
X0374068Y0227902D01*
X0374135Y0228034D01*
X0374206Y0228164D01*
X0374280Y0228292D01*
X0374357Y0228418D01*
X0374438Y0228542D01*
X0374522Y0228664D01*
X0374609Y0228783D01*
X0374700Y0228900D01*
X0374794Y0229015D01*
X0374890Y0229127D01*
X0374990Y0229237D01*
X0375092Y0229343D01*
X0375198Y0229447D01*
X0375306Y0229548D01*
X0375417Y0229646D01*
X0375530Y0229742D01*
X0375646Y0229834D01*
X0375764Y0229923D01*
X0375885Y0230008D01*
X0376008Y0230091D01*
X0376133Y0230170D01*
X0376260Y0230246D01*
X0376389Y0230318D01*
X0376520Y0230387D01*
X0376653Y0230452D01*
X0376788Y0230513D01*
X0376924Y0230571D01*
X0377061Y0230626D01*
X0377200Y0230676D01*
X0377341Y0230723D01*
X0377482Y0230766D01*
X0377625Y0230806D01*
X0377769Y0230841D01*
X0377913Y0230873D01*
X0378059Y0230900D01*
X0378205Y0230924D01*
X0378352Y0230944D01*
X0378499Y0230960D01*
X0378646Y0230972D01*
X0378794Y0230980D01*
X0378942Y0230984D01*
X0379090Y0230984D01*
X0379238Y0230980D01*
X0379386Y0230972D01*
X0379533Y0230960D01*
X0379680Y0230944D01*
X0379827Y0230924D01*
X0379973Y0230900D01*
X0380119Y0230873D01*
X0380263Y0230841D01*
X0380407Y0230806D01*
X0380550Y0230766D01*
X0380691Y0230723D01*
X0380832Y0230676D01*
X0380971Y0230626D01*
X0381108Y0230571D01*
X0381244Y0230513D01*
X0381379Y0230452D01*
X0381512Y0230387D01*
X0381643Y0230318D01*
X0381772Y0230246D01*
X0381899Y0230170D01*
X0382024Y0230091D01*
X0382147Y0230008D01*
X0382268Y0229923D01*
X0382386Y0229834D01*
X0382502Y0229742D01*
X0382615Y0229646D01*
X0382726Y0229548D01*
X0382834Y0229447D01*
X0382940Y0229343D01*
X0383042Y0229237D01*
X0383142Y0229127D01*
X0383238Y0229015D01*
X0383332Y0228900D01*
X0383423Y0228783D01*
X0383510Y0228664D01*
X0383594Y0228542D01*
X0383675Y0228418D01*
X0383752Y0228292D01*
X0383826Y0228164D01*
X0383897Y0228034D01*
X0383964Y0227902D01*
X0384027Y0227768D01*
X0384087Y0227633D01*
X0384143Y0227496D01*
X0384196Y0227357D01*
X0384244Y0227217D01*
X0384289Y0227076D01*
X0384330Y0226934D01*
X0384368Y0226791D01*
X0384401Y0226647D01*
X0384431Y0226502D01*
X0384457Y0226356D01*
X0384478Y0226210D01*
X0384496Y0226063D01*
X0384510Y0225916D01*
X0384520Y0225768D01*
X0384526Y0225620D01*
X0384528Y0225472D01*
X0384526Y0225324D01*
X0384520Y0225176D01*
X0384510Y0225028D01*
X0384496Y0224881D01*
X0384478Y0224734D01*
X0384457Y0224588D01*
X0384431Y0224442D01*
X0384401Y0224297D01*
X0384368Y0224153D01*
X0384330Y0224010D01*
X0384289Y0223868D01*
X0384244Y0223727D01*
X0384196Y0223587D01*
X0384143Y0223448D01*
X0384087Y0223311D01*
X0384027Y0223176D01*
X0383964Y0223042D01*
X0383897Y0222910D01*
X0383826Y0222780D01*
X0383752Y0222652D01*
X0383675Y0222526D01*
X0383594Y0222402D01*
X0383510Y0222280D01*
X0383423Y0222161D01*
X0383332Y0222044D01*
X0383238Y0221929D01*
X0383142Y0221817D01*
X0383042Y0221707D01*
X0382940Y0221601D01*
X0382834Y0221497D01*
X0382726Y0221396D01*
X0382615Y0221298D01*
X0382502Y0221202D01*
X0382386Y0221110D01*
X0382268Y0221021D01*
X0382147Y0220936D01*
X0382024Y0220853D01*
X0381899Y0220774D01*
X0381772Y0220698D01*
X0381643Y0220626D01*
X0381512Y0220557D01*
X0381379Y0220492D01*
X0381244Y0220431D01*
X0381108Y0220373D01*
X0380971Y0220318D01*
X0380832Y0220268D01*
X0380691Y0220221D01*
X0380550Y0220178D01*
X0380407Y0220138D01*
X0380263Y0220103D01*
X0380119Y0220071D01*
X0379973Y0220044D01*
X0379827Y0220020D01*
X0379680Y0220000D01*
X0379533Y0219984D01*
X0379386Y0219972D01*
X0379238Y0219964D01*
X0379090Y0219960D01*
X0378942Y0219960D01*
X0378794Y0219964D01*
X0378646Y0219972D01*
X0378499Y0219984D01*
X0378352Y0220000D01*
X0378205Y0220020D01*
X0378059Y0220044D01*
X0377913Y0220071D01*
X0377769Y0220103D01*
X0377625Y0220138D01*
X0377482Y0220178D01*
X0377341Y0220221D01*
X0377200Y0220268D01*
X0377061Y0220318D01*
X0376924Y0220373D01*
X0376788Y0220431D01*
X0376653Y0220492D01*
X0376520Y0220557D01*
X0376389Y0220626D01*
X0376260Y0220698D01*
X0376133Y0220774D01*
X0376008Y0220853D01*
X0375885Y0220936D01*
X0375764Y0221021D01*
X0375646Y0221110D01*
X0375530Y0221202D01*
X0375417Y0221298D01*
X0375306Y0221396D01*
X0375198Y0221497D01*
X0375092Y0221601D01*
X0374990Y0221707D01*
X0374890Y0221817D01*
X0374794Y0221929D01*
X0374700Y0222044D01*
X0374609Y0222161D01*
X0374522Y0222280D01*
X0374438Y0222402D01*
X0374357Y0222526D01*
X0374280Y0222652D01*
X0374206Y0222780D01*
X0374135Y0222910D01*
X0374068Y0223042D01*
X0374005Y0223176D01*
X0373945Y0223311D01*
X0373889Y0223448D01*
X0373836Y0223587D01*
X0373788Y0223727D01*
X0373743Y0223868D01*
X0373702Y0224010D01*
X0373664Y0224153D01*
X0373631Y0224297D01*
X0373601Y0224442D01*
X0373575Y0224588D01*
X0373554Y0224734D01*
X0373536Y0224881D01*
X0373522Y0225028D01*
X0373512Y0225176D01*
X0373506Y0225324D01*
X0373504Y0225472D01*
X0082165Y0225472D02*
X0082167Y0225620D01*
X0082173Y0225768D01*
X0082183Y0225916D01*
X0082197Y0226063D01*
X0082215Y0226210D01*
X0082236Y0226356D01*
X0082262Y0226502D01*
X0082292Y0226647D01*
X0082325Y0226791D01*
X0082363Y0226934D01*
X0082404Y0227076D01*
X0082449Y0227217D01*
X0082497Y0227357D01*
X0082550Y0227496D01*
X0082606Y0227633D01*
X0082666Y0227768D01*
X0082729Y0227902D01*
X0082796Y0228034D01*
X0082867Y0228164D01*
X0082941Y0228292D01*
X0083018Y0228418D01*
X0083099Y0228542D01*
X0083183Y0228664D01*
X0083270Y0228783D01*
X0083361Y0228900D01*
X0083455Y0229015D01*
X0083551Y0229127D01*
X0083651Y0229237D01*
X0083753Y0229343D01*
X0083859Y0229447D01*
X0083967Y0229548D01*
X0084078Y0229646D01*
X0084191Y0229742D01*
X0084307Y0229834D01*
X0084425Y0229923D01*
X0084546Y0230008D01*
X0084669Y0230091D01*
X0084794Y0230170D01*
X0084921Y0230246D01*
X0085050Y0230318D01*
X0085181Y0230387D01*
X0085314Y0230452D01*
X0085449Y0230513D01*
X0085585Y0230571D01*
X0085722Y0230626D01*
X0085861Y0230676D01*
X0086002Y0230723D01*
X0086143Y0230766D01*
X0086286Y0230806D01*
X0086430Y0230841D01*
X0086574Y0230873D01*
X0086720Y0230900D01*
X0086866Y0230924D01*
X0087013Y0230944D01*
X0087160Y0230960D01*
X0087307Y0230972D01*
X0087455Y0230980D01*
X0087603Y0230984D01*
X0087751Y0230984D01*
X0087899Y0230980D01*
X0088047Y0230972D01*
X0088194Y0230960D01*
X0088341Y0230944D01*
X0088488Y0230924D01*
X0088634Y0230900D01*
X0088780Y0230873D01*
X0088924Y0230841D01*
X0089068Y0230806D01*
X0089211Y0230766D01*
X0089352Y0230723D01*
X0089493Y0230676D01*
X0089632Y0230626D01*
X0089769Y0230571D01*
X0089905Y0230513D01*
X0090040Y0230452D01*
X0090173Y0230387D01*
X0090304Y0230318D01*
X0090433Y0230246D01*
X0090560Y0230170D01*
X0090685Y0230091D01*
X0090808Y0230008D01*
X0090929Y0229923D01*
X0091047Y0229834D01*
X0091163Y0229742D01*
X0091276Y0229646D01*
X0091387Y0229548D01*
X0091495Y0229447D01*
X0091601Y0229343D01*
X0091703Y0229237D01*
X0091803Y0229127D01*
X0091899Y0229015D01*
X0091993Y0228900D01*
X0092084Y0228783D01*
X0092171Y0228664D01*
X0092255Y0228542D01*
X0092336Y0228418D01*
X0092413Y0228292D01*
X0092487Y0228164D01*
X0092558Y0228034D01*
X0092625Y0227902D01*
X0092688Y0227768D01*
X0092748Y0227633D01*
X0092804Y0227496D01*
X0092857Y0227357D01*
X0092905Y0227217D01*
X0092950Y0227076D01*
X0092991Y0226934D01*
X0093029Y0226791D01*
X0093062Y0226647D01*
X0093092Y0226502D01*
X0093118Y0226356D01*
X0093139Y0226210D01*
X0093157Y0226063D01*
X0093171Y0225916D01*
X0093181Y0225768D01*
X0093187Y0225620D01*
X0093189Y0225472D01*
X0093187Y0225324D01*
X0093181Y0225176D01*
X0093171Y0225028D01*
X0093157Y0224881D01*
X0093139Y0224734D01*
X0093118Y0224588D01*
X0093092Y0224442D01*
X0093062Y0224297D01*
X0093029Y0224153D01*
X0092991Y0224010D01*
X0092950Y0223868D01*
X0092905Y0223727D01*
X0092857Y0223587D01*
X0092804Y0223448D01*
X0092748Y0223311D01*
X0092688Y0223176D01*
X0092625Y0223042D01*
X0092558Y0222910D01*
X0092487Y0222780D01*
X0092413Y0222652D01*
X0092336Y0222526D01*
X0092255Y0222402D01*
X0092171Y0222280D01*
X0092084Y0222161D01*
X0091993Y0222044D01*
X0091899Y0221929D01*
X0091803Y0221817D01*
X0091703Y0221707D01*
X0091601Y0221601D01*
X0091495Y0221497D01*
X0091387Y0221396D01*
X0091276Y0221298D01*
X0091163Y0221202D01*
X0091047Y0221110D01*
X0090929Y0221021D01*
X0090808Y0220936D01*
X0090685Y0220853D01*
X0090560Y0220774D01*
X0090433Y0220698D01*
X0090304Y0220626D01*
X0090173Y0220557D01*
X0090040Y0220492D01*
X0089905Y0220431D01*
X0089769Y0220373D01*
X0089632Y0220318D01*
X0089493Y0220268D01*
X0089352Y0220221D01*
X0089211Y0220178D01*
X0089068Y0220138D01*
X0088924Y0220103D01*
X0088780Y0220071D01*
X0088634Y0220044D01*
X0088488Y0220020D01*
X0088341Y0220000D01*
X0088194Y0219984D01*
X0088047Y0219972D01*
X0087899Y0219964D01*
X0087751Y0219960D01*
X0087603Y0219960D01*
X0087455Y0219964D01*
X0087307Y0219972D01*
X0087160Y0219984D01*
X0087013Y0220000D01*
X0086866Y0220020D01*
X0086720Y0220044D01*
X0086574Y0220071D01*
X0086430Y0220103D01*
X0086286Y0220138D01*
X0086143Y0220178D01*
X0086002Y0220221D01*
X0085861Y0220268D01*
X0085722Y0220318D01*
X0085585Y0220373D01*
X0085449Y0220431D01*
X0085314Y0220492D01*
X0085181Y0220557D01*
X0085050Y0220626D01*
X0084921Y0220698D01*
X0084794Y0220774D01*
X0084669Y0220853D01*
X0084546Y0220936D01*
X0084425Y0221021D01*
X0084307Y0221110D01*
X0084191Y0221202D01*
X0084078Y0221298D01*
X0083967Y0221396D01*
X0083859Y0221497D01*
X0083753Y0221601D01*
X0083651Y0221707D01*
X0083551Y0221817D01*
X0083455Y0221929D01*
X0083361Y0222044D01*
X0083270Y0222161D01*
X0083183Y0222280D01*
X0083099Y0222402D01*
X0083018Y0222526D01*
X0082941Y0222652D01*
X0082867Y0222780D01*
X0082796Y0222910D01*
X0082729Y0223042D01*
X0082666Y0223176D01*
X0082606Y0223311D01*
X0082550Y0223448D01*
X0082497Y0223587D01*
X0082449Y0223727D01*
X0082404Y0223868D01*
X0082363Y0224010D01*
X0082325Y0224153D01*
X0082292Y0224297D01*
X0082262Y0224442D01*
X0082236Y0224588D01*
X0082215Y0224734D01*
X0082197Y0224881D01*
X0082183Y0225028D01*
X0082173Y0225176D01*
X0082167Y0225324D01*
X0082165Y0225472D01*
M02*
