G75*
%MOIN*%
%OFA0B0*%
%FSLAX25Y25*%
%IPPOS*%
%LPD*%
%AMOC8*
5,1,8,0,0,1.08239X$1,22.5*
%
%ADD10R,0.04724X0.10236*%
%ADD11R,0.11811X0.10000*%
%ADD12R,0.10236X0.04724*%
%ADD13R,0.10000X0.11811*%
%ADD14R,0.06299X0.07087*%
%ADD15R,0.07087X0.06299*%
%ADD16R,0.03150X0.04724*%
%ADD17R,0.02400X0.08700*%
%ADD18C,0.07677*%
%ADD19C,0.02126*%
%ADD20C,0.03937*%
%ADD21C,0.01000*%
%ADD22C,0.03175*%
%ADD23C,0.03569*%
%ADD24C,0.03962*%
%ADD25C,0.01600*%
D10*
G36*
X0060521Y0044801D02*
X0057180Y0048142D01*
X0064417Y0055379D01*
X0067758Y0052038D01*
X0060521Y0044801D01*
G37*
X0086102Y0040433D03*
X0105000Y0040433D03*
G36*
X0133923Y0048536D02*
X0130582Y0045195D01*
X0123345Y0052432D01*
X0126686Y0055773D01*
X0133923Y0048536D01*
G37*
G36*
X0147285Y0061899D02*
X0143944Y0058558D01*
X0136707Y0065795D01*
X0140048Y0069136D01*
X0147285Y0061899D01*
G37*
G36*
X0240071Y0058164D02*
X0236730Y0061505D01*
X0243967Y0068742D01*
X0247308Y0065401D01*
X0240071Y0058164D01*
G37*
G36*
X0253434Y0044801D02*
X0250093Y0048142D01*
X0257330Y0055379D01*
X0260671Y0052038D01*
X0253434Y0044801D01*
G37*
X0279016Y0040433D03*
X0297913Y0040433D03*
G36*
X0326836Y0048142D02*
X0323495Y0044801D01*
X0316258Y0052038D01*
X0319599Y0055379D01*
X0326836Y0048142D01*
G37*
G36*
X0340199Y0061505D02*
X0336858Y0058164D01*
X0329621Y0065401D01*
X0332962Y0068742D01*
X0340199Y0061505D01*
G37*
G36*
X0336858Y0134907D02*
X0340199Y0131566D01*
X0332962Y0124329D01*
X0329621Y0127670D01*
X0336858Y0134907D01*
G37*
G36*
X0323495Y0148270D02*
X0326836Y0144929D01*
X0319599Y0137692D01*
X0316258Y0141033D01*
X0323495Y0148270D01*
G37*
G36*
X0250093Y0144929D02*
X0253434Y0148270D01*
X0260671Y0141033D01*
X0257330Y0137692D01*
X0250093Y0144929D01*
G37*
G36*
X0236730Y0131566D02*
X0240071Y0134907D01*
X0247308Y0127670D01*
X0243967Y0124329D01*
X0236730Y0131566D01*
G37*
G36*
X0143944Y0133923D02*
X0147285Y0130582D01*
X0140048Y0123345D01*
X0136707Y0126686D01*
X0143944Y0133923D01*
G37*
G36*
X0130582Y0147285D02*
X0133923Y0143944D01*
X0126686Y0136707D01*
X0123345Y0140048D01*
X0130582Y0147285D01*
G37*
G36*
X0057180Y0143944D02*
X0060521Y0147285D01*
X0067758Y0140048D01*
X0064417Y0136707D01*
X0057180Y0143944D01*
G37*
G36*
X0043817Y0130582D02*
X0047158Y0133923D01*
X0054395Y0126686D01*
X0051054Y0123345D01*
X0043817Y0130582D01*
G37*
G36*
X0047158Y0058164D02*
X0043817Y0061505D01*
X0051054Y0068742D01*
X0054395Y0065401D01*
X0047158Y0058164D01*
G37*
D11*
G36*
X0047240Y0058248D02*
X0038891Y0066597D01*
X0045962Y0073668D01*
X0054311Y0065319D01*
X0047240Y0058248D01*
G37*
G36*
X0065613Y0039875D02*
X0057264Y0048224D01*
X0064335Y0055295D01*
X0072684Y0046946D01*
X0065613Y0039875D01*
G37*
X0082559Y0040433D03*
X0108543Y0040433D03*
G36*
X0133838Y0048618D02*
X0125489Y0040269D01*
X0118418Y0047340D01*
X0126767Y0055689D01*
X0133838Y0048618D01*
G37*
G36*
X0152212Y0066991D02*
X0143863Y0058642D01*
X0136792Y0065713D01*
X0145141Y0074062D01*
X0152212Y0066991D01*
G37*
G36*
X0240153Y0058248D02*
X0231804Y0066597D01*
X0238875Y0073668D01*
X0247224Y0065319D01*
X0240153Y0058248D01*
G37*
G36*
X0258527Y0039875D02*
X0250178Y0048224D01*
X0257249Y0055295D01*
X0265598Y0046946D01*
X0258527Y0039875D01*
G37*
X0275472Y0040433D03*
X0301457Y0040433D03*
G36*
X0326752Y0048224D02*
X0318403Y0039875D01*
X0311332Y0046946D01*
X0319681Y0055295D01*
X0326752Y0048224D01*
G37*
G36*
X0345125Y0066597D02*
X0336776Y0058248D01*
X0329705Y0065319D01*
X0338054Y0073668D01*
X0345125Y0066597D01*
G37*
G36*
X0336776Y0134822D02*
X0345125Y0126473D01*
X0338054Y0119402D01*
X0329705Y0127751D01*
X0336776Y0134822D01*
G37*
G36*
X0318403Y0153196D02*
X0326752Y0144847D01*
X0319681Y0137776D01*
X0311332Y0146125D01*
X0318403Y0153196D01*
G37*
G36*
X0250178Y0144847D02*
X0258527Y0153196D01*
X0265598Y0146125D01*
X0257249Y0137776D01*
X0250178Y0144847D01*
G37*
G36*
X0231804Y0126473D02*
X0240153Y0134822D01*
X0247224Y0127751D01*
X0238875Y0119402D01*
X0231804Y0126473D01*
G37*
G36*
X0143863Y0133838D02*
X0152212Y0125489D01*
X0145141Y0118418D01*
X0136792Y0126767D01*
X0143863Y0133838D01*
G37*
G36*
X0125489Y0152212D02*
X0133838Y0143863D01*
X0126767Y0136792D01*
X0118418Y0145141D01*
X0125489Y0152212D01*
G37*
G36*
X0057264Y0143863D02*
X0065613Y0152212D01*
X0072684Y0145141D01*
X0064335Y0136792D01*
X0057264Y0143863D01*
G37*
G36*
X0038891Y0125489D02*
X0047240Y0133838D01*
X0054311Y0126767D01*
X0045962Y0118418D01*
X0038891Y0125489D01*
G37*
D12*
X0039449Y0105000D03*
X0039449Y0086102D03*
X0151654Y0086102D03*
X0151654Y0105000D03*
X0232362Y0105984D03*
X0232362Y0087087D03*
X0344567Y0087087D03*
X0344567Y0105984D03*
D13*
X0344567Y0109528D03*
X0344567Y0083543D03*
X0232362Y0083543D03*
X0232362Y0109528D03*
X0151654Y0108543D03*
X0151654Y0082559D03*
X0039449Y0082559D03*
X0039449Y0108543D03*
D14*
X0050669Y0095551D03*
X0061693Y0095551D03*
G36*
X0071021Y0114442D02*
X0066568Y0118895D01*
X0071577Y0123904D01*
X0076030Y0119451D01*
X0071021Y0114442D01*
G37*
G36*
X0063226Y0122237D02*
X0058773Y0126690D01*
X0063782Y0131699D01*
X0068235Y0127246D01*
X0063226Y0122237D01*
G37*
X0129409Y0095551D03*
X0140433Y0095551D03*
G36*
X0120239Y0076936D02*
X0124692Y0072483D01*
X0119683Y0067474D01*
X0115230Y0071927D01*
X0120239Y0076936D01*
G37*
G36*
X0128034Y0069141D02*
X0132487Y0064688D01*
X0127478Y0059679D01*
X0123025Y0064132D01*
X0128034Y0069141D01*
G37*
G36*
X0053786Y0049525D02*
X0049333Y0045072D01*
X0044324Y0050081D01*
X0048777Y0054534D01*
X0053786Y0049525D01*
G37*
G36*
X0045991Y0041730D02*
X0041538Y0037277D01*
X0036529Y0042286D01*
X0040982Y0046739D01*
X0045991Y0041730D01*
G37*
G36*
X0136490Y0142483D02*
X0140943Y0146936D01*
X0145952Y0141927D01*
X0141499Y0137474D01*
X0136490Y0142483D01*
G37*
G36*
X0144285Y0150278D02*
X0148738Y0154731D01*
X0153747Y0149722D01*
X0149294Y0145269D01*
X0144285Y0150278D01*
G37*
X0243661Y0095709D03*
X0254685Y0095709D03*
G36*
X0264407Y0114718D02*
X0259954Y0119171D01*
X0264963Y0124180D01*
X0269416Y0119727D01*
X0264407Y0114718D01*
G37*
G36*
X0256612Y0122513D02*
X0252159Y0126966D01*
X0257168Y0131975D01*
X0261621Y0127522D01*
X0256612Y0122513D01*
G37*
X0322402Y0095591D03*
X0333425Y0095591D03*
G36*
X0313231Y0077054D02*
X0317684Y0072601D01*
X0312675Y0067592D01*
X0308222Y0072045D01*
X0313231Y0077054D01*
G37*
G36*
X0321026Y0069259D02*
X0325479Y0064806D01*
X0320470Y0059797D01*
X0316017Y0064250D01*
X0321026Y0069259D01*
G37*
G36*
X0246148Y0049722D02*
X0241695Y0045269D01*
X0236686Y0050278D01*
X0241139Y0054731D01*
X0246148Y0049722D01*
G37*
G36*
X0238353Y0041927D02*
X0233900Y0037474D01*
X0228891Y0042483D01*
X0233344Y0046936D01*
X0238353Y0041927D01*
G37*
G36*
X0329167Y0142759D02*
X0333620Y0147212D01*
X0338629Y0142203D01*
X0334176Y0137750D01*
X0329167Y0142759D01*
G37*
G36*
X0336962Y0150553D02*
X0341415Y0155006D01*
X0346424Y0149997D01*
X0341971Y0145544D01*
X0336962Y0150553D01*
G37*
D15*
X0288504Y0030197D03*
X0288504Y0019173D03*
X0095591Y0019134D03*
X0095591Y0030157D03*
D16*
X0186496Y0127047D03*
X0193583Y0127047D03*
X0202244Y0127047D03*
X0209331Y0127047D03*
D17*
X0203406Y0141621D03*
X0198406Y0141621D03*
X0193406Y0141621D03*
X0188406Y0141621D03*
X0188406Y0168121D03*
X0193406Y0168121D03*
X0198406Y0168121D03*
X0203406Y0168121D03*
D18*
X0095303Y0096586D03*
X0150981Y0040909D03*
D19*
X0128634Y0050484D02*
X0127047Y0032559D01*
X0115236Y0028622D01*
X0107362Y0024685D01*
X0095551Y0024685D01*
X0087677Y0024685D01*
X0071929Y0028622D01*
X0056181Y0036496D01*
X0062469Y0050090D01*
X0049055Y0049803D02*
X0049106Y0063453D01*
X0039449Y0086102D02*
X0050669Y0095551D01*
X0056181Y0095551D02*
X0056181Y0103425D01*
X0039449Y0105000D01*
X0024685Y0095551D02*
X0028622Y0119173D01*
X0040433Y0142795D01*
X0062469Y0141996D01*
X0095551Y0133740D02*
X0095542Y0132975D01*
X0095514Y0132211D01*
X0095467Y0131448D01*
X0095402Y0130686D01*
X0095318Y0129926D01*
X0095216Y0129168D01*
X0095095Y0128413D01*
X0094956Y0127661D01*
X0094799Y0126912D01*
X0094623Y0126168D01*
X0094429Y0125428D01*
X0094218Y0124693D01*
X0093988Y0123964D01*
X0093741Y0123240D01*
X0093476Y0122523D01*
X0093194Y0121812D01*
X0092894Y0121108D01*
X0092578Y0120412D01*
X0092244Y0119724D01*
X0091894Y0119044D01*
X0091527Y0118373D01*
X0091144Y0117711D01*
X0090745Y0117058D01*
X0090331Y0116416D01*
X0089900Y0115784D01*
X0089455Y0115162D01*
X0088994Y0114552D01*
X0088519Y0113953D01*
X0088029Y0113365D01*
X0087525Y0112790D01*
X0087007Y0112227D01*
X0086476Y0111677D01*
X0085931Y0111141D01*
X0085374Y0110617D01*
X0084803Y0110108D01*
X0084221Y0109612D01*
X0083627Y0109131D01*
X0083021Y0108664D01*
X0082404Y0108213D01*
X0081776Y0107776D01*
X0081137Y0107355D01*
X0080489Y0106950D01*
X0079831Y0106560D01*
X0079163Y0106187D01*
X0078487Y0105830D01*
X0077802Y0105490D01*
X0077109Y0105167D01*
X0076408Y0104860D01*
X0075700Y0104571D01*
X0074985Y0104299D01*
X0074264Y0104045D01*
X0073537Y0103808D01*
X0072804Y0103589D01*
X0072066Y0103388D01*
X0071324Y0103205D01*
X0070577Y0103040D01*
X0069826Y0102894D01*
X0069073Y0102766D01*
X0068316Y0102656D01*
X0067556Y0102565D01*
X0066795Y0102492D01*
X0066032Y0102438D01*
X0065268Y0102402D01*
X0064504Y0102386D01*
X0063739Y0102387D01*
X0062975Y0102408D01*
X0062211Y0102447D01*
X0061448Y0102505D01*
X0060687Y0102581D01*
X0059928Y0102676D01*
X0059172Y0102789D01*
X0058419Y0102921D01*
X0057669Y0103071D01*
X0056923Y0103239D01*
X0056181Y0103425D01*
X0051756Y0126968D02*
X0063504Y0126968D01*
X0051756Y0126968D02*
X0051664Y0126949D01*
X0051571Y0126934D01*
X0051478Y0126923D01*
X0051384Y0126916D01*
X0051291Y0126913D01*
X0051197Y0126914D01*
X0051103Y0126919D01*
X0051009Y0126928D01*
X0050916Y0126941D01*
X0050824Y0126957D01*
X0050732Y0126978D01*
X0050641Y0127002D01*
X0050552Y0127031D01*
X0050464Y0127063D01*
X0050377Y0127099D01*
X0050291Y0127138D01*
X0050208Y0127181D01*
X0050126Y0127228D01*
X0050047Y0127278D01*
X0049970Y0127331D01*
X0049895Y0127388D01*
X0049822Y0127447D01*
X0049752Y0127510D01*
X0049685Y0127576D01*
X0049620Y0127644D01*
X0049559Y0127715D01*
X0049501Y0127789D01*
X0049446Y0127865D01*
X0049394Y0127943D01*
X0049345Y0128024D01*
X0049300Y0128106D01*
X0049259Y0128190D01*
X0049221Y0128276D01*
X0049186Y0128364D01*
X0049156Y0128453D01*
X0049129Y0128543D01*
X0049106Y0128634D01*
X0095551Y0133740D02*
X0095551Y0151457D01*
X0095551Y0151456D02*
X0095605Y0151910D01*
X0095670Y0152362D01*
X0095746Y0152812D01*
X0095833Y0153261D01*
X0095932Y0153707D01*
X0096041Y0154150D01*
X0096160Y0154591D01*
X0096291Y0155029D01*
X0096432Y0155463D01*
X0096584Y0155893D01*
X0096747Y0156320D01*
X0096920Y0156743D01*
X0097103Y0157161D01*
X0097296Y0157575D01*
X0097500Y0157984D01*
X0097713Y0158388D01*
X0097937Y0158786D01*
X0098170Y0159179D01*
X0098412Y0159566D01*
X0098664Y0159947D01*
X0098926Y0160321D01*
X0099196Y0160689D01*
X0099475Y0161050D01*
X0099763Y0161405D01*
X0100060Y0161752D01*
X0100365Y0162092D01*
X0100679Y0162424D01*
X0101000Y0162748D01*
X0101330Y0163065D01*
X0101667Y0163373D01*
X0102011Y0163673D01*
X0102363Y0163964D01*
X0102722Y0164247D01*
X0103087Y0164520D01*
X0103459Y0164785D01*
X0103838Y0165040D01*
X0104223Y0165286D01*
X0104614Y0165523D01*
X0105010Y0165750D01*
X0105412Y0165967D01*
X0105819Y0166174D01*
X0106231Y0166371D01*
X0106647Y0166558D01*
X0107069Y0166735D01*
X0107494Y0166901D01*
X0107923Y0167057D01*
X0108356Y0167202D01*
X0108793Y0167336D01*
X0109232Y0167460D01*
X0109675Y0167573D01*
X0110120Y0167675D01*
X0110567Y0167766D01*
X0111017Y0167846D01*
X0111468Y0167915D01*
X0111921Y0167973D01*
X0112376Y0168020D01*
X0112831Y0168056D01*
X0113287Y0168080D01*
X0113744Y0168093D01*
X0114200Y0168095D01*
X0114657Y0168086D01*
X0115113Y0168066D01*
X0115569Y0168034D01*
X0116023Y0167992D01*
X0116024Y0167992D02*
X0188406Y0168121D01*
X0175276Y0168121D01*
X0175276Y0167992D01*
X0193406Y0168121D02*
X0193976Y0158543D01*
X0237283Y0146732D01*
X0255382Y0142981D01*
X0260906Y0158543D02*
X0261244Y0158587D01*
X0261583Y0158623D01*
X0261922Y0158650D01*
X0262263Y0158670D01*
X0262603Y0158680D01*
X0262944Y0158683D01*
X0263285Y0158677D01*
X0263626Y0158663D01*
X0263966Y0158640D01*
X0264305Y0158609D01*
X0264644Y0158570D01*
X0264981Y0158523D01*
X0265318Y0158467D01*
X0265653Y0158403D01*
X0265986Y0158331D01*
X0266317Y0158250D01*
X0266646Y0158162D01*
X0266973Y0158066D01*
X0267298Y0157961D01*
X0267620Y0157849D01*
X0267939Y0157729D01*
X0268255Y0157601D01*
X0268567Y0157465D01*
X0268877Y0157322D01*
X0269182Y0157171D01*
X0269484Y0157013D01*
X0269782Y0156848D01*
X0270076Y0156675D01*
X0270366Y0156495D01*
X0270651Y0156308D01*
X0270931Y0156114D01*
X0271207Y0155913D01*
X0271477Y0155706D01*
X0271743Y0155492D01*
X0272003Y0155271D01*
X0272257Y0155045D01*
X0272506Y0154812D01*
X0272749Y0154573D01*
X0272987Y0154328D01*
X0273218Y0154078D01*
X0273443Y0153822D01*
X0273661Y0153560D01*
X0273874Y0153293D01*
X0274079Y0153021D01*
X0274278Y0152745D01*
X0274470Y0152463D01*
X0274655Y0152177D01*
X0274833Y0151886D01*
X0275004Y0151591D01*
X0275167Y0151292D01*
X0275324Y0150989D01*
X0275472Y0150682D01*
X0275613Y0150372D01*
X0275747Y0150058D01*
X0275873Y0149741D01*
X0275991Y0149421D01*
X0276101Y0149099D01*
X0276203Y0148774D01*
X0276297Y0148446D01*
X0276383Y0148116D01*
X0276461Y0147784D01*
X0276531Y0147451D01*
X0276593Y0147115D01*
X0276646Y0146779D01*
X0276692Y0146441D01*
X0276729Y0146102D01*
X0276757Y0145762D01*
X0276777Y0145422D01*
X0276789Y0145081D01*
X0276793Y0144741D01*
X0276788Y0144400D01*
X0276775Y0144059D01*
X0276754Y0143719D01*
X0276724Y0143379D01*
X0276686Y0143041D01*
X0276640Y0142703D01*
X0276585Y0142366D01*
X0276522Y0142031D01*
X0276451Y0141698D01*
X0276372Y0141366D01*
X0276285Y0141037D01*
X0276189Y0140710D01*
X0276086Y0140385D01*
X0275975Y0140062D01*
X0275856Y0139743D01*
X0275729Y0139427D01*
X0275594Y0139113D01*
X0275452Y0138804D01*
X0275303Y0138497D01*
X0275145Y0138195D01*
X0274981Y0137896D01*
X0274809Y0137602D01*
X0274630Y0137312D01*
X0274444Y0137026D01*
X0274251Y0136745D01*
X0274051Y0136469D01*
X0273845Y0136198D01*
X0273632Y0135932D01*
X0273412Y0135671D01*
X0273186Y0135415D01*
X0272954Y0135166D01*
X0272716Y0134922D01*
X0272717Y0134921D02*
X0260906Y0123110D01*
X0256890Y0127244D02*
X0242019Y0129618D01*
X0237283Y0146732D02*
X0221535Y0123110D01*
X0217598Y0095551D01*
X0232362Y0087087D02*
X0243661Y0095709D01*
X0249094Y0095551D02*
X0249094Y0103425D01*
X0232362Y0105984D01*
X0254685Y0095709D02*
X0256698Y0095570D01*
X0256969Y0095551D01*
X0249095Y0103426D02*
X0249208Y0104130D01*
X0249338Y0104832D01*
X0249485Y0105531D01*
X0249649Y0106226D01*
X0249829Y0106916D01*
X0250025Y0107603D01*
X0250238Y0108284D01*
X0250466Y0108960D01*
X0250711Y0109631D01*
X0250972Y0110296D01*
X0251248Y0110954D01*
X0251540Y0111605D01*
X0251848Y0112249D01*
X0252170Y0112886D01*
X0252508Y0113515D01*
X0252861Y0114136D01*
X0253228Y0114748D01*
X0253610Y0115351D01*
X0254006Y0115945D01*
X0254416Y0116529D01*
X0254839Y0117104D01*
X0255277Y0117668D01*
X0255727Y0118221D01*
X0256191Y0118764D01*
X0256667Y0119296D01*
X0257156Y0119816D01*
X0257658Y0120324D01*
X0258171Y0120820D01*
X0258696Y0121304D01*
X0259232Y0121775D01*
X0259779Y0122234D01*
X0260337Y0122679D01*
X0260906Y0123111D01*
X0337875Y0146338D02*
X0339118Y0145082D01*
X0340330Y0143795D01*
X0341511Y0142479D01*
X0342659Y0141134D01*
X0343773Y0139761D01*
X0344854Y0138362D01*
X0345899Y0136936D01*
X0346910Y0135485D01*
X0347884Y0134010D01*
X0348822Y0132512D01*
X0349723Y0130991D01*
X0350587Y0129448D01*
X0351412Y0127884D01*
X0352198Y0126301D01*
X0352946Y0124699D01*
X0353654Y0123079D01*
X0354322Y0121442D01*
X0354950Y0119789D01*
X0355537Y0118121D01*
X0356082Y0116439D01*
X0356587Y0114745D01*
X0357049Y0113039D01*
X0357470Y0111321D01*
X0357848Y0109594D01*
X0358184Y0107858D01*
X0358477Y0106115D01*
X0358727Y0104365D01*
X0358935Y0102609D01*
X0359099Y0100849D01*
X0359220Y0099085D01*
X0359297Y0097318D01*
X0359331Y0095551D01*
X0344567Y0087087D02*
X0327835Y0087677D01*
X0327835Y0095551D01*
X0322402Y0095591D02*
X0319961Y0095551D01*
X0312953Y0072323D01*
X0288465Y0056181D02*
X0297913Y0040433D01*
X0288504Y0030197D02*
X0279016Y0040433D01*
X0280591Y0024685D02*
X0264843Y0028622D01*
X0249094Y0036496D01*
X0255382Y0050090D01*
X0241417Y0050000D02*
X0242019Y0063453D01*
X0217599Y0095551D02*
X0217620Y0093839D01*
X0217682Y0092127D01*
X0217785Y0090418D01*
X0217930Y0088711D01*
X0218116Y0087009D01*
X0218343Y0085312D01*
X0218611Y0083620D01*
X0218919Y0081936D01*
X0219269Y0080259D01*
X0219658Y0078592D01*
X0220088Y0076934D01*
X0220558Y0075287D01*
X0221067Y0073652D01*
X0221616Y0072030D01*
X0222204Y0070422D01*
X0222831Y0068828D01*
X0223496Y0067250D01*
X0224198Y0065688D01*
X0224939Y0064144D01*
X0225716Y0062618D01*
X0226530Y0061111D01*
X0227381Y0059625D01*
X0228267Y0058159D01*
X0229188Y0056716D01*
X0230143Y0055295D01*
X0231133Y0053897D01*
X0232156Y0052524D01*
X0233213Y0051176D01*
X0234301Y0049854D01*
X0235421Y0048558D01*
X0236572Y0047290D01*
X0237753Y0046050D01*
X0238964Y0044839D01*
X0240204Y0043658D01*
X0241472Y0042507D01*
X0242768Y0041387D01*
X0244090Y0040299D01*
X0245438Y0039242D01*
X0246811Y0038219D01*
X0248209Y0037229D01*
X0249630Y0036274D01*
X0251073Y0035353D01*
X0252539Y0034467D01*
X0254025Y0033616D01*
X0255532Y0032802D01*
X0257058Y0032025D01*
X0258602Y0031284D01*
X0260164Y0030582D01*
X0261742Y0029917D01*
X0263336Y0029290D01*
X0264944Y0028702D01*
X0266566Y0028153D01*
X0268201Y0027644D01*
X0269848Y0027174D01*
X0271506Y0026744D01*
X0273173Y0026355D01*
X0274850Y0026005D01*
X0276534Y0025697D01*
X0278226Y0025429D01*
X0279923Y0025202D01*
X0281625Y0025016D01*
X0283332Y0024871D01*
X0285041Y0024768D01*
X0286753Y0024706D01*
X0288465Y0024685D01*
X0280591Y0024685D01*
X0288465Y0024685D02*
X0296339Y0024685D01*
X0312087Y0028622D01*
X0327835Y0036496D01*
X0321547Y0050090D01*
X0333425Y0095591D02*
X0344567Y0105984D01*
X0334910Y0129618D02*
X0333898Y0130630D01*
X0333898Y0142481D01*
X0337874Y0146339D02*
X0332953Y0150472D01*
X0321547Y0142981D01*
X0260906Y0158543D02*
X0221535Y0158543D01*
X0198406Y0168121D02*
X0197913Y0168613D01*
X0197913Y0185118D01*
X0193976Y0158543D02*
X0146732Y0158543D01*
X0139676Y0151439D01*
X0138858Y0152244D01*
X0128634Y0141996D01*
X0141221Y0142205D02*
X0141996Y0128634D01*
X0151654Y0139646D02*
X0139676Y0151439D01*
X0151654Y0139646D02*
X0158543Y0127047D01*
X0162480Y0115236D01*
X0166417Y0095551D01*
X0151654Y0086102D02*
X0134921Y0087677D01*
X0134921Y0095551D01*
X0130984Y0095551D02*
X0129409Y0095551D01*
X0119961Y0072205D01*
X0095551Y0056181D02*
X0105000Y0040433D01*
X0095591Y0030157D02*
X0086102Y0040433D01*
X0095551Y0024685D02*
X0097263Y0024706D01*
X0098975Y0024768D01*
X0100684Y0024871D01*
X0102391Y0025016D01*
X0104093Y0025202D01*
X0105790Y0025429D01*
X0107482Y0025697D01*
X0109166Y0026005D01*
X0110843Y0026355D01*
X0112510Y0026744D01*
X0114168Y0027174D01*
X0115815Y0027644D01*
X0117450Y0028153D01*
X0119072Y0028702D01*
X0120680Y0029290D01*
X0122274Y0029917D01*
X0123852Y0030582D01*
X0125414Y0031284D01*
X0126958Y0032025D01*
X0128484Y0032802D01*
X0129991Y0033616D01*
X0131477Y0034467D01*
X0132943Y0035353D01*
X0134386Y0036274D01*
X0135807Y0037229D01*
X0137205Y0038219D01*
X0138578Y0039242D01*
X0139926Y0040299D01*
X0141248Y0041387D01*
X0142544Y0042507D01*
X0143812Y0043658D01*
X0145052Y0044839D01*
X0146263Y0046050D01*
X0147444Y0047290D01*
X0148595Y0048558D01*
X0149715Y0049854D01*
X0150803Y0051176D01*
X0151860Y0052524D01*
X0152883Y0053897D01*
X0153873Y0055295D01*
X0154828Y0056716D01*
X0155749Y0058159D01*
X0156635Y0059625D01*
X0157486Y0061111D01*
X0158300Y0062618D01*
X0159077Y0064144D01*
X0159818Y0065688D01*
X0160520Y0067250D01*
X0161185Y0068828D01*
X0161812Y0070422D01*
X0162400Y0072030D01*
X0162949Y0073652D01*
X0163458Y0075287D01*
X0163928Y0076934D01*
X0164358Y0078592D01*
X0164747Y0080259D01*
X0165097Y0081936D01*
X0165405Y0083620D01*
X0165673Y0085312D01*
X0165900Y0087009D01*
X0166086Y0088711D01*
X0166231Y0090418D01*
X0166334Y0092127D01*
X0166396Y0093839D01*
X0166417Y0095551D01*
X0151654Y0105000D02*
X0140433Y0095551D01*
X0187480Y0092205D02*
X0187480Y0127047D01*
X0186496Y0127047D01*
X0186693Y0127047D01*
X0186693Y0133150D01*
X0193406Y0133150D01*
X0193406Y0141621D01*
X0198406Y0141621D02*
X0198406Y0127047D01*
X0193583Y0127047D01*
X0198406Y0127047D02*
X0202244Y0127047D01*
X0209331Y0127047D02*
X0213661Y0127047D01*
X0288465Y0024685D02*
X0290177Y0024706D01*
X0291889Y0024768D01*
X0293598Y0024871D01*
X0295305Y0025016D01*
X0297007Y0025202D01*
X0298704Y0025429D01*
X0300396Y0025697D01*
X0302080Y0026005D01*
X0303757Y0026355D01*
X0305424Y0026744D01*
X0307082Y0027174D01*
X0308729Y0027644D01*
X0310364Y0028153D01*
X0311986Y0028702D01*
X0313594Y0029290D01*
X0315188Y0029917D01*
X0316766Y0030582D01*
X0318328Y0031284D01*
X0319872Y0032025D01*
X0321398Y0032802D01*
X0322905Y0033616D01*
X0324391Y0034467D01*
X0325857Y0035353D01*
X0327300Y0036274D01*
X0328721Y0037229D01*
X0330119Y0038219D01*
X0331492Y0039242D01*
X0332840Y0040299D01*
X0334162Y0041387D01*
X0335458Y0042507D01*
X0336726Y0043658D01*
X0337966Y0044839D01*
X0339177Y0046050D01*
X0340358Y0047290D01*
X0341509Y0048558D01*
X0342629Y0049854D01*
X0343717Y0051176D01*
X0344774Y0052524D01*
X0345797Y0053897D01*
X0346787Y0055295D01*
X0347742Y0056716D01*
X0348663Y0058159D01*
X0349549Y0059625D01*
X0350400Y0061111D01*
X0351214Y0062618D01*
X0351991Y0064144D01*
X0352732Y0065688D01*
X0353434Y0067250D01*
X0354099Y0068828D01*
X0354726Y0070422D01*
X0355314Y0072030D01*
X0355863Y0073652D01*
X0356372Y0075287D01*
X0356842Y0076934D01*
X0357272Y0078592D01*
X0357661Y0080259D01*
X0358011Y0081936D01*
X0358319Y0083620D01*
X0358587Y0085312D01*
X0358814Y0087009D01*
X0359000Y0088711D01*
X0359145Y0090418D01*
X0359248Y0092127D01*
X0359310Y0093839D01*
X0359331Y0095551D01*
X0288465Y0056181D02*
X0287514Y0056192D01*
X0286563Y0056227D01*
X0285613Y0056284D01*
X0284665Y0056365D01*
X0283719Y0056468D01*
X0282776Y0056594D01*
X0281837Y0056743D01*
X0280901Y0056914D01*
X0279970Y0057109D01*
X0279043Y0057325D01*
X0278122Y0057564D01*
X0277207Y0057825D01*
X0276299Y0058108D01*
X0275398Y0058413D01*
X0274504Y0058739D01*
X0273619Y0059088D01*
X0272742Y0059457D01*
X0271874Y0059847D01*
X0271017Y0060259D01*
X0270169Y0060691D01*
X0269332Y0061143D01*
X0268506Y0061615D01*
X0267692Y0062107D01*
X0266890Y0062619D01*
X0266100Y0063150D01*
X0265324Y0063700D01*
X0264561Y0064268D01*
X0263812Y0064855D01*
X0263078Y0065460D01*
X0262358Y0066082D01*
X0261653Y0066722D01*
X0260965Y0067378D01*
X0260292Y0068051D01*
X0259636Y0068739D01*
X0258996Y0069444D01*
X0258374Y0070164D01*
X0257769Y0070898D01*
X0257182Y0071647D01*
X0256614Y0072410D01*
X0256064Y0073186D01*
X0255533Y0073976D01*
X0255021Y0074778D01*
X0254529Y0075592D01*
X0254057Y0076418D01*
X0253605Y0077255D01*
X0253173Y0078103D01*
X0252761Y0078960D01*
X0252371Y0079828D01*
X0252002Y0080705D01*
X0251653Y0081590D01*
X0251327Y0082484D01*
X0251022Y0083385D01*
X0250739Y0084293D01*
X0250478Y0085208D01*
X0250239Y0086129D01*
X0250023Y0087056D01*
X0249828Y0087987D01*
X0249657Y0088923D01*
X0249508Y0089862D01*
X0249382Y0090805D01*
X0249279Y0091751D01*
X0249198Y0092699D01*
X0249141Y0093649D01*
X0249106Y0094600D01*
X0249095Y0095551D01*
X0288465Y0056181D02*
X0289416Y0056192D01*
X0290367Y0056227D01*
X0291317Y0056284D01*
X0292265Y0056365D01*
X0293211Y0056468D01*
X0294154Y0056594D01*
X0295093Y0056743D01*
X0296029Y0056914D01*
X0296960Y0057109D01*
X0297887Y0057325D01*
X0298808Y0057564D01*
X0299723Y0057825D01*
X0300631Y0058108D01*
X0301532Y0058413D01*
X0302426Y0058739D01*
X0303311Y0059088D01*
X0304188Y0059457D01*
X0305056Y0059847D01*
X0305913Y0060259D01*
X0306761Y0060691D01*
X0307598Y0061143D01*
X0308424Y0061615D01*
X0309238Y0062107D01*
X0310040Y0062619D01*
X0310830Y0063150D01*
X0311606Y0063700D01*
X0312369Y0064268D01*
X0313118Y0064855D01*
X0313852Y0065460D01*
X0314572Y0066082D01*
X0315277Y0066722D01*
X0315965Y0067378D01*
X0316638Y0068051D01*
X0317294Y0068739D01*
X0317934Y0069444D01*
X0318556Y0070164D01*
X0319161Y0070898D01*
X0319748Y0071647D01*
X0320316Y0072410D01*
X0320866Y0073186D01*
X0321397Y0073976D01*
X0321909Y0074778D01*
X0322401Y0075592D01*
X0322873Y0076418D01*
X0323325Y0077255D01*
X0323757Y0078103D01*
X0324169Y0078960D01*
X0324559Y0079828D01*
X0324928Y0080705D01*
X0325277Y0081590D01*
X0325603Y0082484D01*
X0325908Y0083385D01*
X0326191Y0084293D01*
X0326452Y0085208D01*
X0326691Y0086129D01*
X0326907Y0087056D01*
X0327102Y0087987D01*
X0327273Y0088923D01*
X0327422Y0089862D01*
X0327548Y0090805D01*
X0327651Y0091751D01*
X0327732Y0092699D01*
X0327789Y0093649D01*
X0327824Y0094600D01*
X0327835Y0095551D01*
X0095551Y0024685D02*
X0093839Y0024706D01*
X0092127Y0024768D01*
X0090418Y0024871D01*
X0088711Y0025016D01*
X0087009Y0025202D01*
X0085312Y0025429D01*
X0083620Y0025697D01*
X0081936Y0026005D01*
X0080259Y0026355D01*
X0078592Y0026744D01*
X0076934Y0027174D01*
X0075287Y0027644D01*
X0073652Y0028153D01*
X0072030Y0028702D01*
X0070422Y0029290D01*
X0068828Y0029917D01*
X0067250Y0030582D01*
X0065688Y0031284D01*
X0064144Y0032025D01*
X0062618Y0032802D01*
X0061111Y0033616D01*
X0059625Y0034467D01*
X0058159Y0035353D01*
X0056716Y0036274D01*
X0055295Y0037229D01*
X0053897Y0038219D01*
X0052524Y0039242D01*
X0051176Y0040299D01*
X0049854Y0041387D01*
X0048558Y0042507D01*
X0047290Y0043658D01*
X0046050Y0044839D01*
X0044839Y0046050D01*
X0043658Y0047290D01*
X0042507Y0048558D01*
X0041387Y0049854D01*
X0040299Y0051176D01*
X0039242Y0052524D01*
X0038219Y0053897D01*
X0037229Y0055295D01*
X0036274Y0056716D01*
X0035353Y0058159D01*
X0034467Y0059625D01*
X0033616Y0061111D01*
X0032802Y0062618D01*
X0032025Y0064144D01*
X0031284Y0065688D01*
X0030582Y0067250D01*
X0029917Y0068828D01*
X0029290Y0070422D01*
X0028702Y0072030D01*
X0028153Y0073652D01*
X0027644Y0075287D01*
X0027174Y0076934D01*
X0026744Y0078592D01*
X0026355Y0080259D01*
X0026005Y0081936D01*
X0025697Y0083620D01*
X0025429Y0085312D01*
X0025202Y0087009D01*
X0025016Y0088711D01*
X0024871Y0090418D01*
X0024768Y0092127D01*
X0024706Y0093839D01*
X0024685Y0095551D01*
X0095551Y0056181D02*
X0096502Y0056192D01*
X0097453Y0056227D01*
X0098403Y0056284D01*
X0099351Y0056365D01*
X0100297Y0056468D01*
X0101240Y0056594D01*
X0102179Y0056743D01*
X0103115Y0056914D01*
X0104046Y0057109D01*
X0104973Y0057325D01*
X0105894Y0057564D01*
X0106809Y0057825D01*
X0107717Y0058108D01*
X0108618Y0058413D01*
X0109512Y0058739D01*
X0110397Y0059088D01*
X0111274Y0059457D01*
X0112142Y0059847D01*
X0112999Y0060259D01*
X0113847Y0060691D01*
X0114684Y0061143D01*
X0115510Y0061615D01*
X0116324Y0062107D01*
X0117126Y0062619D01*
X0117916Y0063150D01*
X0118692Y0063700D01*
X0119455Y0064268D01*
X0120204Y0064855D01*
X0120938Y0065460D01*
X0121658Y0066082D01*
X0122363Y0066722D01*
X0123051Y0067378D01*
X0123724Y0068051D01*
X0124380Y0068739D01*
X0125020Y0069444D01*
X0125642Y0070164D01*
X0126247Y0070898D01*
X0126834Y0071647D01*
X0127402Y0072410D01*
X0127952Y0073186D01*
X0128483Y0073976D01*
X0128995Y0074778D01*
X0129487Y0075592D01*
X0129959Y0076418D01*
X0130411Y0077255D01*
X0130843Y0078103D01*
X0131255Y0078960D01*
X0131645Y0079828D01*
X0132014Y0080705D01*
X0132363Y0081590D01*
X0132689Y0082484D01*
X0132994Y0083385D01*
X0133277Y0084293D01*
X0133538Y0085208D01*
X0133777Y0086129D01*
X0133993Y0087056D01*
X0134188Y0087987D01*
X0134359Y0088923D01*
X0134508Y0089862D01*
X0134634Y0090805D01*
X0134737Y0091751D01*
X0134818Y0092699D01*
X0134875Y0093649D01*
X0134910Y0094600D01*
X0134921Y0095551D01*
X0095551Y0056181D02*
X0094600Y0056192D01*
X0093649Y0056227D01*
X0092699Y0056284D01*
X0091751Y0056365D01*
X0090805Y0056468D01*
X0089862Y0056594D01*
X0088923Y0056743D01*
X0087987Y0056914D01*
X0087056Y0057109D01*
X0086129Y0057325D01*
X0085208Y0057564D01*
X0084293Y0057825D01*
X0083385Y0058108D01*
X0082484Y0058413D01*
X0081590Y0058739D01*
X0080705Y0059088D01*
X0079828Y0059457D01*
X0078960Y0059847D01*
X0078103Y0060259D01*
X0077255Y0060691D01*
X0076418Y0061143D01*
X0075592Y0061615D01*
X0074778Y0062107D01*
X0073976Y0062619D01*
X0073186Y0063150D01*
X0072410Y0063700D01*
X0071647Y0064268D01*
X0070898Y0064855D01*
X0070164Y0065460D01*
X0069444Y0066082D01*
X0068739Y0066722D01*
X0068051Y0067378D01*
X0067378Y0068051D01*
X0066722Y0068739D01*
X0066082Y0069444D01*
X0065460Y0070164D01*
X0064855Y0070898D01*
X0064268Y0071647D01*
X0063700Y0072410D01*
X0063150Y0073186D01*
X0062619Y0073976D01*
X0062107Y0074778D01*
X0061615Y0075592D01*
X0061143Y0076418D01*
X0060691Y0077255D01*
X0060259Y0078103D01*
X0059847Y0078960D01*
X0059457Y0079828D01*
X0059088Y0080705D01*
X0058739Y0081590D01*
X0058413Y0082484D01*
X0058108Y0083385D01*
X0057825Y0084293D01*
X0057564Y0085208D01*
X0057325Y0086129D01*
X0057109Y0087056D01*
X0056914Y0087987D01*
X0056743Y0088923D01*
X0056594Y0089862D01*
X0056468Y0090805D01*
X0056365Y0091751D01*
X0056284Y0092699D01*
X0056227Y0093649D01*
X0056192Y0094600D01*
X0056181Y0095551D01*
D20*
X0095590Y0019134D02*
X0097490Y0019185D01*
X0099388Y0019283D01*
X0101283Y0019428D01*
X0103174Y0019619D01*
X0105060Y0019856D01*
X0106939Y0020140D01*
X0108811Y0020470D01*
X0110674Y0020845D01*
X0112527Y0021266D01*
X0114370Y0021733D01*
X0116200Y0022244D01*
X0118018Y0022801D01*
X0119821Y0023401D01*
X0121609Y0024046D01*
X0123380Y0024735D01*
X0125134Y0025467D01*
X0126870Y0026241D01*
X0128586Y0027058D01*
X0130281Y0027917D01*
X0131955Y0028817D01*
X0133606Y0029758D01*
X0135234Y0030739D01*
X0136837Y0031760D01*
X0138415Y0032820D01*
X0139966Y0033919D01*
X0141489Y0035055D01*
X0142985Y0036228D01*
X0144451Y0037437D01*
X0145887Y0038682D01*
X0147292Y0039962D01*
X0148665Y0041276D01*
X0150005Y0042623D01*
X0151312Y0044003D01*
X0152585Y0045415D01*
X0153823Y0046857D01*
X0155025Y0048329D01*
X0156190Y0049830D01*
X0157318Y0051360D01*
X0158409Y0052917D01*
X0159461Y0054500D01*
X0160473Y0056108D01*
X0161446Y0057740D01*
X0162379Y0059396D01*
X0163271Y0061075D01*
X0164121Y0062775D01*
X0164929Y0064495D01*
X0165695Y0066234D01*
X0166418Y0067992D01*
X0166417Y0067992D02*
X0207835Y0067992D01*
X0233622Y0042205D01*
X0288504Y0019173D02*
X0290363Y0019209D01*
X0292221Y0019290D01*
X0294077Y0019417D01*
X0295929Y0019588D01*
X0297776Y0019805D01*
X0299618Y0020066D01*
X0301452Y0020372D01*
X0303279Y0020722D01*
X0305096Y0021116D01*
X0306904Y0021555D01*
X0308700Y0022037D01*
X0310484Y0022563D01*
X0312255Y0023132D01*
X0314011Y0023744D01*
X0315752Y0024398D01*
X0317476Y0025095D01*
X0319184Y0025833D01*
X0320872Y0026612D01*
X0322542Y0027432D01*
X0324190Y0028293D01*
X0325818Y0029193D01*
X0327423Y0030132D01*
X0329005Y0031110D01*
X0330563Y0032127D01*
X0332095Y0033181D01*
X0333601Y0034271D01*
X0335081Y0035398D01*
X0336533Y0036561D01*
X0337956Y0037759D01*
X0339349Y0038990D01*
X0340712Y0040256D01*
X0342044Y0041554D01*
X0343345Y0042884D01*
X0344612Y0044245D01*
X0345846Y0045636D01*
X0347046Y0047057D01*
X0348211Y0048507D01*
X0349340Y0049985D01*
X0350434Y0051489D01*
X0351490Y0053020D01*
X0352509Y0054576D01*
X0353489Y0056156D01*
X0354432Y0057760D01*
X0355334Y0059386D01*
X0356198Y0061033D01*
X0357020Y0062701D01*
X0357802Y0064389D01*
X0358543Y0066095D01*
X0359242Y0067818D01*
X0359900Y0069558D01*
X0360514Y0071313D01*
X0361086Y0073083D01*
X0361615Y0074866D01*
X0362100Y0076662D01*
X0362542Y0078469D01*
X0362939Y0080285D01*
X0363292Y0082111D01*
X0363601Y0083945D01*
X0363865Y0085787D01*
X0364085Y0087633D01*
X0364259Y0089485D01*
X0364388Y0091340D01*
X0364473Y0093198D01*
X0364512Y0095058D01*
X0364506Y0096918D01*
X0364455Y0098777D01*
X0364358Y0100634D01*
X0364217Y0102489D01*
X0364031Y0104339D01*
X0363799Y0106185D01*
X0363523Y0108024D01*
X0363203Y0109856D01*
X0362838Y0111680D01*
X0362428Y0113494D01*
X0361975Y0115298D01*
X0361478Y0117090D01*
X0360938Y0118870D01*
X0360355Y0120636D01*
X0359729Y0122387D01*
X0359060Y0124123D01*
X0358350Y0125841D01*
X0357598Y0127543D01*
X0356805Y0129225D01*
X0355971Y0130888D01*
X0355098Y0132529D01*
X0354184Y0134150D01*
X0353232Y0135747D01*
X0352241Y0137321D01*
X0351212Y0138870D01*
X0350146Y0140394D01*
X0349043Y0141892D01*
X0347904Y0143362D01*
X0346730Y0144804D01*
X0345521Y0146218D01*
X0344278Y0147601D01*
X0343001Y0148954D01*
X0341693Y0150275D01*
X0341688Y0150706D01*
X0341672Y0151137D01*
X0341646Y0151568D01*
X0341610Y0151997D01*
X0341563Y0152426D01*
X0341506Y0152854D01*
X0341438Y0153279D01*
X0341361Y0153704D01*
X0341273Y0154126D01*
X0341174Y0154546D01*
X0341066Y0154963D01*
X0340948Y0155378D01*
X0340820Y0155790D01*
X0340681Y0156198D01*
X0340533Y0156603D01*
X0340376Y0157005D01*
X0340208Y0157402D01*
X0340031Y0157795D01*
X0339845Y0158184D01*
X0339649Y0158568D01*
X0339444Y0158948D01*
X0339230Y0159322D01*
X0339007Y0159691D01*
X0338775Y0160055D01*
X0338534Y0160413D01*
X0338285Y0160765D01*
X0338027Y0161110D01*
X0337761Y0161450D01*
X0337487Y0161783D01*
X0337205Y0162109D01*
X0336915Y0162428D01*
X0336618Y0162741D01*
X0336313Y0163046D01*
X0336000Y0163343D01*
X0335681Y0163633D01*
X0335355Y0163915D01*
X0335022Y0164189D01*
X0334682Y0164455D01*
X0334337Y0164713D01*
X0333985Y0164962D01*
X0333627Y0165203D01*
X0333263Y0165435D01*
X0332894Y0165658D01*
X0332520Y0165872D01*
X0332140Y0166077D01*
X0331756Y0166273D01*
X0331367Y0166459D01*
X0330974Y0166636D01*
X0330577Y0166804D01*
X0330175Y0166961D01*
X0329770Y0167109D01*
X0329362Y0167248D01*
X0328950Y0167376D01*
X0328535Y0167494D01*
X0328118Y0167602D01*
X0327698Y0167701D01*
X0327276Y0167789D01*
X0326851Y0167866D01*
X0326426Y0167934D01*
X0325998Y0167991D01*
X0325569Y0168038D01*
X0325140Y0168074D01*
X0324709Y0168100D01*
X0324278Y0168116D01*
X0323847Y0168121D01*
X0203406Y0168121D01*
X0233622Y0042205D02*
X0234982Y0040865D01*
X0236374Y0039560D01*
X0237798Y0038289D01*
X0239253Y0037053D01*
X0240738Y0035854D01*
X0242251Y0034691D01*
X0243793Y0033566D01*
X0245361Y0032479D01*
X0246956Y0031431D01*
X0248577Y0030422D01*
X0250221Y0029453D01*
X0251889Y0028525D01*
X0253579Y0027638D01*
X0255290Y0026793D01*
X0257022Y0025990D01*
X0258773Y0025230D01*
X0260541Y0024513D01*
X0262327Y0023840D01*
X0264129Y0023211D01*
X0265946Y0022626D01*
X0267777Y0022086D01*
X0269620Y0021591D01*
X0271475Y0021141D01*
X0273340Y0020737D01*
X0275215Y0020379D01*
X0277098Y0020067D01*
X0278988Y0019802D01*
X0280884Y0019583D01*
X0282784Y0019410D01*
X0284689Y0019284D01*
X0286596Y0019205D01*
X0288504Y0019173D01*
X0166417Y0067992D02*
X0167083Y0069720D01*
X0167706Y0071464D01*
X0168286Y0073222D01*
X0168823Y0074995D01*
X0169316Y0076779D01*
X0169765Y0078576D01*
X0170169Y0080383D01*
X0170530Y0082199D01*
X0170846Y0084024D01*
X0171116Y0085856D01*
X0171342Y0087693D01*
X0171523Y0089536D01*
X0171658Y0091383D01*
X0171748Y0093233D01*
X0171793Y0095084D01*
X0171792Y0096936D01*
X0171746Y0098787D01*
X0171654Y0100636D01*
X0171517Y0102483D01*
X0171334Y0104326D01*
X0171107Y0106163D01*
X0170834Y0107995D01*
X0170517Y0109819D01*
X0170155Y0111635D01*
X0169748Y0113442D01*
X0169297Y0115238D01*
X0168803Y0117022D01*
X0168264Y0118794D01*
X0167683Y0120552D01*
X0167058Y0122295D01*
X0166391Y0124022D01*
X0165681Y0125733D01*
X0164930Y0127425D01*
X0164137Y0129099D01*
X0163304Y0130752D01*
X0162430Y0132385D01*
X0161517Y0133996D01*
X0160564Y0135584D01*
X0159573Y0137148D01*
X0158543Y0138687D01*
X0157476Y0140200D01*
X0156373Y0141687D01*
X0155233Y0143146D01*
X0154057Y0144577D01*
X0152847Y0145979D01*
X0151603Y0147350D01*
X0150325Y0148691D01*
X0149015Y0149999D01*
X0095591Y0019134D02*
X0093758Y0019167D01*
X0091926Y0019243D01*
X0090097Y0019362D01*
X0088271Y0019525D01*
X0086450Y0019732D01*
X0084634Y0019982D01*
X0082825Y0020275D01*
X0081023Y0020611D01*
X0079229Y0020989D01*
X0077445Y0021411D01*
X0075672Y0021874D01*
X0073910Y0022380D01*
X0072160Y0022927D01*
X0070425Y0023516D01*
X0068703Y0024146D01*
X0066997Y0024817D01*
X0065308Y0025529D01*
X0063636Y0026280D01*
X0061982Y0027071D01*
X0060348Y0027901D01*
X0058734Y0028769D01*
X0057141Y0029676D01*
X0055570Y0030621D01*
X0054021Y0031602D01*
X0052497Y0032620D01*
X0050998Y0033675D01*
X0049523Y0034764D01*
X0048076Y0035888D01*
X0046655Y0037047D01*
X0045262Y0038239D01*
X0043899Y0039463D01*
X0042564Y0040720D01*
X0041260Y0042008D01*
D21*
X0038521Y0025969D02*
X0057400Y0025969D01*
X0055693Y0026967D02*
X0037189Y0026967D01*
X0037194Y0026963D02*
X0029140Y0034751D01*
X0022126Y0043487D01*
X0016262Y0053033D01*
X0011640Y0063239D01*
X0008335Y0073943D01*
X0006397Y0084977D01*
X0005857Y0096168D01*
X0006724Y0107337D01*
X0008984Y0118310D01*
X0012602Y0128914D01*
X0017520Y0138980D01*
X0023660Y0148350D01*
X0030927Y0156877D01*
X0034914Y0160749D01*
X0037607Y0162735D01*
X0043572Y0165903D01*
X0050041Y0167847D01*
X0056765Y0168491D01*
X0063485Y0167811D01*
X0069943Y0165833D01*
X0075892Y0162633D01*
X0081101Y0158335D01*
X0083169Y0156042D01*
X0083235Y0155789D01*
X0083537Y0155613D01*
X0083758Y0155342D01*
X0084053Y0155312D01*
X0084308Y0155163D01*
X0084647Y0155252D01*
X0084995Y0155217D01*
X0085224Y0155404D01*
X0085510Y0155479D01*
X0085686Y0155781D01*
X0085957Y0156002D01*
X0085987Y0156297D01*
X0096601Y0174492D01*
X0096722Y0174545D01*
X0096906Y0175015D01*
X0097160Y0175450D01*
X0097126Y0175579D01*
X0097174Y0175702D01*
X0096972Y0176164D01*
X0096844Y0176652D01*
X0096729Y0176719D01*
X0096676Y0176840D01*
X0096206Y0177024D01*
X0095770Y0177278D01*
X0095678Y0177254D01*
X0092804Y0178541D01*
X0086725Y0182412D01*
X0081509Y0187386D01*
X0077355Y0193275D01*
X0074417Y0199857D01*
X0072809Y0206882D01*
X0072590Y0214086D01*
X0073768Y0221196D01*
X0076300Y0227944D01*
X0080089Y0234074D01*
X0084993Y0239356D01*
X0090825Y0243590D01*
X0097367Y0246615D01*
X0100683Y0247594D01*
X0150461Y0247594D01*
X0153405Y0246740D01*
X0159294Y0244156D01*
X0164644Y0240589D01*
X0169294Y0236147D01*
X0171034Y0233984D01*
X0171037Y0233865D01*
X0171391Y0233531D01*
X0171679Y0233139D01*
X0171829Y0233116D01*
X0171940Y0233011D01*
X0172426Y0233024D01*
X0172907Y0232951D01*
X0173030Y0233041D01*
X0173182Y0233045D01*
X0173516Y0233399D01*
X0173909Y0233687D01*
X0173926Y0233804D01*
X0175532Y0235357D01*
X0179826Y0238543D01*
X0184609Y0240934D01*
X0189734Y0242458D01*
X0192315Y0242870D01*
X0216121Y0242870D01*
X0218560Y0242513D01*
X0223403Y0241139D01*
X0227933Y0238946D01*
X0232013Y0235999D01*
X0233800Y0234313D01*
X0234112Y0233907D01*
X0234210Y0233895D01*
X0234278Y0233824D01*
X0234814Y0233816D01*
X0235345Y0233748D01*
X0235422Y0233807D01*
X0235521Y0233806D01*
X0235888Y0234163D01*
X0237846Y0235540D01*
X0242196Y0237816D01*
X0246875Y0239302D01*
X0249219Y0239720D01*
X0386823Y0239720D01*
X0388441Y0239498D01*
X0391497Y0238277D01*
X0394005Y0236147D01*
X0395704Y0233329D01*
X0396418Y0230117D01*
X0396070Y0226844D01*
X0394699Y0223853D01*
X0393950Y0222914D01*
X0393888Y0222903D01*
X0393595Y0222482D01*
X0393245Y0222109D01*
X0393249Y0221985D01*
X0350692Y0160882D01*
X0350345Y0160529D01*
X0350346Y0160386D01*
X0350264Y0160269D01*
X0350352Y0159781D01*
X0350356Y0159286D01*
X0350458Y0159186D01*
X0350483Y0159045D01*
X0350873Y0158774D01*
X0354641Y0154838D01*
X0361536Y0146133D01*
X0367296Y0136639D01*
X0371831Y0126503D01*
X0375070Y0115881D01*
X0376963Y0104939D01*
X0377481Y0093846D01*
X0376616Y0082775D01*
X0374381Y0071897D01*
X0370810Y0061382D01*
X0365960Y0051393D01*
X0359905Y0042084D01*
X0352740Y0033600D01*
X0344575Y0026073D01*
X0335538Y0019620D01*
X0325769Y0014340D01*
X0315419Y0010316D01*
X0304648Y0007611D01*
X0293625Y0006265D01*
X0282521Y0006301D01*
X0271507Y0007717D01*
X0260754Y0010492D01*
X0250430Y0014582D01*
X0240695Y0019924D01*
X0231699Y0026435D01*
X0223583Y0034015D01*
X0216472Y0042544D01*
X0210478Y0051892D01*
X0208075Y0056544D01*
X0208075Y0056802D01*
X0207817Y0057060D01*
X0207661Y0057388D01*
X0207395Y0057482D01*
X0207196Y0057681D01*
X0206832Y0057681D01*
X0206489Y0057802D01*
X0206235Y0057681D01*
X0205953Y0057681D01*
X0205696Y0057424D01*
X0205368Y0057267D01*
X0205274Y0057001D01*
X0205075Y0056802D01*
X0205075Y0056438D01*
X0204953Y0056095D01*
X0205075Y0055841D01*
X0205075Y0036189D01*
X0204629Y0035087D01*
X0203106Y0032768D01*
X0201034Y0030921D01*
X0198555Y0029674D01*
X0197328Y0029335D01*
X0156216Y0029335D01*
X0155629Y0029362D01*
X0155600Y0029335D01*
X0155560Y0029335D01*
X0155155Y0028930D01*
X0150913Y0025299D01*
X0141754Y0018847D01*
X0131858Y0013594D01*
X0121382Y0009623D01*
X0110491Y0006996D01*
X0099357Y0005754D01*
X0088155Y0005918D01*
X0077062Y0007485D01*
X0066252Y0010429D01*
X0055897Y0014706D01*
X0046160Y0020246D01*
X0037194Y0026963D01*
X0036157Y0027966D02*
X0053987Y0027966D01*
X0052280Y0028964D02*
X0035124Y0028964D01*
X0034091Y0029963D02*
X0050694Y0029963D01*
X0051060Y0029678D02*
X0051060Y0029678D01*
X0060122Y0024376D01*
X0069798Y0020302D01*
X0079923Y0017526D01*
X0090323Y0016096D01*
X0090324Y0016096D01*
X0090947Y0016092D01*
X0090947Y0015529D01*
X0091592Y0014884D01*
X0099589Y0014884D01*
X0100234Y0015529D01*
X0100234Y0016134D01*
X0100912Y0016144D01*
X0111354Y0017676D01*
X0121506Y0020558D01*
X0131195Y0024741D01*
X0140255Y0030152D01*
X0148430Y0036620D01*
X0149999Y0035970D01*
X0151964Y0035970D01*
X0153779Y0036722D01*
X0155168Y0038111D01*
X0155920Y0039926D01*
X0155920Y0041891D01*
X0155217Y0043587D01*
X0155882Y0044272D01*
X0155882Y0044272D01*
X0155882Y0044272D01*
X0162182Y0052739D01*
X0167323Y0061956D01*
X0168501Y0064924D01*
X0206564Y0064924D01*
X0228169Y0043318D01*
X0227790Y0042939D01*
X0227790Y0042028D01*
X0233445Y0036372D01*
X0234356Y0036372D01*
X0234721Y0036737D01*
X0235171Y0036282D01*
X0235171Y0036282D01*
X0243548Y0029792D01*
X0252700Y0024451D01*
X0262470Y0020351D01*
X0262470Y0020351D01*
X0272693Y0017561D01*
X0283192Y0016129D01*
X0283861Y0016126D01*
X0283861Y0015568D01*
X0284505Y0014924D01*
X0292503Y0014924D01*
X0293147Y0015568D01*
X0293147Y0016138D01*
X0294054Y0016145D01*
X0304992Y0017752D01*
X0315603Y0020855D01*
X0325684Y0025394D01*
X0335040Y0031282D01*
X0343494Y0038407D01*
X0350882Y0046631D01*
X0357064Y0055797D01*
X0361919Y0065729D01*
X0365356Y0076237D01*
X0367308Y0087118D01*
X0367738Y0098165D01*
X0366638Y0109166D01*
X0364029Y0119909D01*
X0359960Y0130188D01*
X0354510Y0139807D01*
X0347784Y0148581D01*
X0347170Y0149186D01*
X0347525Y0149541D01*
X0347525Y0150453D01*
X0344692Y0153286D01*
X0343336Y0158348D01*
X0340583Y0163117D01*
X0336689Y0167011D01*
X0336689Y0167011D01*
X0331919Y0169764D01*
X0326600Y0171190D01*
X0205705Y0171190D01*
X0205705Y0172927D01*
X0205061Y0173571D01*
X0201750Y0173571D01*
X0201106Y0172927D01*
X0201106Y0170161D01*
X0200804Y0169859D01*
X0200705Y0169621D01*
X0200705Y0172927D01*
X0200076Y0173556D01*
X0200076Y0183481D01*
X0200192Y0183596D01*
X0200601Y0184584D01*
X0200601Y0185653D01*
X0200192Y0186640D01*
X0199436Y0187396D01*
X0198448Y0187805D01*
X0197379Y0187805D01*
X0196391Y0187396D01*
X0195635Y0186640D01*
X0195226Y0185653D01*
X0195226Y0184584D01*
X0195635Y0183596D01*
X0195750Y0183481D01*
X0195750Y0167717D01*
X0196106Y0167362D01*
X0196106Y0163316D01*
X0196750Y0162671D01*
X0200061Y0162671D01*
X0200705Y0163316D01*
X0200705Y0166621D01*
X0200804Y0166383D01*
X0201106Y0166082D01*
X0201106Y0163316D01*
X0201750Y0162671D01*
X0205061Y0162671D01*
X0205705Y0163316D01*
X0205705Y0165053D01*
X0323847Y0165053D01*
X0325776Y0164926D01*
X0329502Y0163928D01*
X0332843Y0161999D01*
X0335571Y0159271D01*
X0337499Y0155930D01*
X0338193Y0153342D01*
X0335860Y0151009D01*
X0335860Y0150855D01*
X0334587Y0151925D01*
X0334269Y0152409D01*
X0333926Y0152480D01*
X0333658Y0152705D01*
X0333081Y0152655D01*
X0332514Y0152772D01*
X0332222Y0152580D01*
X0331873Y0152550D01*
X0331500Y0152106D01*
X0325293Y0148029D01*
X0323951Y0149370D01*
X0323784Y0149370D01*
X0318857Y0154297D01*
X0317946Y0154297D01*
X0310230Y0146582D01*
X0310230Y0145671D01*
X0315158Y0140743D01*
X0315158Y0140576D01*
X0319143Y0136591D01*
X0320054Y0136591D01*
X0320137Y0136675D01*
X0320137Y0136675D01*
X0327853Y0144390D01*
X0327936Y0144474D01*
X0327936Y0144590D01*
X0332319Y0147468D01*
X0328065Y0143215D01*
X0328065Y0142303D01*
X0328184Y0142185D01*
X0327504Y0142267D01*
X0324813Y0141247D01*
X0322905Y0139093D01*
X0322217Y0136299D01*
X0322905Y0133505D01*
X0324813Y0131352D01*
X0327504Y0130331D01*
X0330360Y0130678D01*
X0331735Y0131627D01*
X0331735Y0131339D01*
X0328604Y0128208D01*
X0328520Y0128125D01*
X0328520Y0127214D01*
X0332505Y0123229D01*
X0332672Y0123229D01*
X0337600Y0118301D01*
X0338511Y0118301D01*
X0346227Y0126016D01*
X0346227Y0126928D01*
X0341299Y0131855D01*
X0341299Y0132022D01*
X0337314Y0136007D01*
X0336403Y0136007D01*
X0336319Y0135924D01*
X0336061Y0135665D01*
X0336061Y0138077D01*
X0339486Y0141502D01*
X0339504Y0141483D01*
X0345119Y0134271D01*
X0349745Y0126389D01*
X0353302Y0117969D01*
X0355729Y0109158D01*
X0356986Y0100105D01*
X0357167Y0095544D01*
X0356993Y0090650D01*
X0355598Y0080947D01*
X0352836Y0071542D01*
X0348764Y0062625D01*
X0343464Y0054379D01*
X0337045Y0046971D01*
X0329637Y0040551D01*
X0328639Y0039910D01*
X0325957Y0045707D01*
X0327936Y0047686D01*
X0327936Y0048597D01*
X0327853Y0048681D01*
X0320137Y0056396D01*
X0320054Y0056480D01*
X0319143Y0056480D01*
X0315158Y0052495D01*
X0315158Y0052328D01*
X0310230Y0047400D01*
X0310230Y0046489D01*
X0317946Y0038773D01*
X0318857Y0038773D01*
X0322646Y0042562D01*
X0324965Y0037549D01*
X0324478Y0037236D01*
X0312211Y0031103D01*
X0307171Y0029623D01*
X0301384Y0028176D01*
X0293366Y0027023D01*
X0293147Y0027015D01*
X0293147Y0033802D01*
X0292503Y0034446D01*
X0287514Y0034446D01*
X0287365Y0034607D01*
X0287740Y0034465D01*
X0290596Y0034812D01*
X0292964Y0036446D01*
X0294302Y0038994D01*
X0294302Y0041872D01*
X0292964Y0044420D01*
X0290596Y0046054D01*
X0287740Y0046401D01*
X0285049Y0045381D01*
X0283141Y0043227D01*
X0282478Y0040535D01*
X0282478Y0046007D01*
X0281834Y0046651D01*
X0276198Y0046651D01*
X0276080Y0046533D01*
X0269111Y0046533D01*
X0268467Y0045889D01*
X0268467Y0034977D01*
X0269111Y0034333D01*
X0276080Y0034333D01*
X0276198Y0034215D01*
X0281830Y0034215D01*
X0283861Y0032024D01*
X0283861Y0027012D01*
X0283563Y0027023D01*
X0275545Y0028176D01*
X0269758Y0029623D01*
X0264718Y0031103D01*
X0252452Y0037236D01*
X0251965Y0037549D01*
X0254283Y0042562D01*
X0258072Y0038773D01*
X0258984Y0038773D01*
X0266699Y0046489D01*
X0266699Y0047400D01*
X0261771Y0052328D01*
X0261771Y0052495D01*
X0257786Y0056480D01*
X0256875Y0056480D01*
X0256792Y0056396D01*
X0256792Y0056396D01*
X0253223Y0052827D01*
X0254538Y0055333D01*
X0254538Y0058210D01*
X0253201Y0060758D01*
X0250833Y0062393D01*
X0247976Y0062740D01*
X0245286Y0061719D01*
X0244044Y0060318D01*
X0244057Y0060594D01*
X0248325Y0064863D01*
X0248409Y0064946D01*
X0248409Y0065857D01*
X0244424Y0069842D01*
X0244257Y0069842D01*
X0239329Y0074770D01*
X0238418Y0074770D01*
X0230703Y0067054D01*
X0230703Y0066143D01*
X0235630Y0061216D01*
X0235630Y0061049D01*
X0239570Y0057108D01*
X0239458Y0054608D01*
X0236141Y0051290D01*
X0233465Y0054379D01*
X0228165Y0062625D01*
X0224093Y0071542D01*
X0221331Y0080947D01*
X0219936Y0090650D01*
X0219766Y0095428D01*
X0223607Y0122319D01*
X0238274Y0144318D01*
X0248437Y0142211D01*
X0247976Y0142267D01*
X0245286Y0141247D01*
X0243378Y0139093D01*
X0242689Y0136299D01*
X0243378Y0133505D01*
X0245286Y0131352D01*
X0245581Y0131240D01*
X0245239Y0131294D01*
X0240610Y0135924D01*
X0240526Y0136007D01*
X0239615Y0136007D01*
X0235630Y0132022D01*
X0235630Y0131855D01*
X0230703Y0126928D01*
X0230703Y0126016D01*
X0238418Y0118301D01*
X0239329Y0118301D01*
X0244257Y0123229D01*
X0244424Y0123229D01*
X0247714Y0126518D01*
X0251682Y0125885D01*
X0255899Y0121668D01*
X0252817Y0118271D01*
X0249558Y0112839D01*
X0238462Y0112839D01*
X0238462Y0111841D02*
X0249200Y0111841D01*
X0249558Y0112839D02*
X0247421Y0106876D01*
X0247275Y0105892D01*
X0238580Y0107221D01*
X0238580Y0108802D01*
X0238462Y0108920D01*
X0238462Y0115889D01*
X0237818Y0116533D01*
X0226907Y0116533D01*
X0226262Y0115889D01*
X0226262Y0108920D01*
X0226144Y0108802D01*
X0226144Y0103166D01*
X0226788Y0102522D01*
X0237936Y0102522D01*
X0238302Y0102888D01*
X0246931Y0101568D01*
X0246931Y0100352D01*
X0240056Y0100352D01*
X0239412Y0099708D01*
X0239412Y0095187D01*
X0237468Y0093704D01*
X0238199Y0095097D01*
X0238199Y0097974D01*
X0236862Y0100522D01*
X0234494Y0102157D01*
X0231638Y0102503D01*
X0228947Y0101483D01*
X0227039Y0099329D01*
X0226350Y0096535D01*
X0227039Y0093742D01*
X0228947Y0091588D01*
X0231638Y0090567D01*
X0233684Y0090816D01*
X0233334Y0090549D01*
X0226788Y0090549D01*
X0226144Y0089904D01*
X0226144Y0084269D01*
X0226262Y0084151D01*
X0226262Y0077182D01*
X0226907Y0076538D01*
X0237818Y0076538D01*
X0238462Y0077182D01*
X0238462Y0084151D01*
X0238580Y0084269D01*
X0238580Y0089111D01*
X0241142Y0091065D01*
X0247082Y0091065D01*
X0248193Y0084761D01*
X0250679Y0077932D01*
X0254313Y0071638D01*
X0258984Y0066071D01*
X0258984Y0066071D01*
X0264551Y0061399D01*
X0264551Y0061399D01*
X0270845Y0057766D01*
X0277674Y0055280D01*
X0284831Y0054018D01*
X0287240Y0054018D01*
X0294451Y0041999D01*
X0294451Y0034859D01*
X0295096Y0034215D01*
X0300731Y0034215D01*
X0300849Y0034333D01*
X0307818Y0034333D01*
X0308462Y0034977D01*
X0308462Y0045889D01*
X0307818Y0046533D01*
X0300849Y0046533D01*
X0300731Y0046651D01*
X0296705Y0046651D01*
X0292267Y0054048D01*
X0299255Y0055280D01*
X0299255Y0055280D01*
X0306084Y0057766D01*
X0312378Y0061399D01*
X0315060Y0063649D01*
X0320014Y0058695D01*
X0320925Y0058695D01*
X0323783Y0061553D01*
X0324666Y0061553D01*
X0322905Y0059565D01*
X0322217Y0056772D01*
X0322905Y0053978D01*
X0324813Y0051824D01*
X0327504Y0050804D01*
X0330360Y0051151D01*
X0332728Y0052785D01*
X0334065Y0055333D01*
X0334065Y0058210D01*
X0332750Y0060716D01*
X0336319Y0057147D01*
X0336403Y0057064D01*
X0337314Y0057064D01*
X0341299Y0061049D01*
X0341299Y0061216D01*
X0346227Y0066143D01*
X0346227Y0067054D01*
X0338511Y0074770D01*
X0337600Y0074770D01*
X0332672Y0069842D01*
X0332505Y0069842D01*
X0328520Y0065857D01*
X0328520Y0065353D01*
X0326489Y0065353D01*
X0321516Y0070326D01*
X0322616Y0071638D01*
X0326250Y0077931D01*
X0326250Y0077932D01*
X0328736Y0084761D01*
X0328862Y0085477D01*
X0338349Y0085142D01*
X0338349Y0084269D01*
X0338467Y0084151D01*
X0338467Y0077182D01*
X0339111Y0076538D01*
X0350023Y0076538D01*
X0350667Y0077182D01*
X0350667Y0084151D01*
X0350785Y0084269D01*
X0350785Y0089904D01*
X0350141Y0090549D01*
X0338993Y0090549D01*
X0338349Y0089904D01*
X0338349Y0089470D01*
X0329998Y0089765D01*
X0329998Y0090947D01*
X0337030Y0090947D01*
X0337675Y0091592D01*
X0337675Y0096597D01*
X0338838Y0097682D01*
X0338555Y0096535D01*
X0339244Y0093742D01*
X0341152Y0091588D01*
X0343842Y0090567D01*
X0346699Y0090914D01*
X0349067Y0092549D01*
X0350404Y0095097D01*
X0350404Y0097974D01*
X0349067Y0100522D01*
X0346699Y0102157D01*
X0343988Y0102486D01*
X0344026Y0102522D01*
X0350141Y0102522D01*
X0350785Y0103166D01*
X0350785Y0108802D01*
X0350667Y0108920D01*
X0350667Y0115889D01*
X0350023Y0116533D01*
X0339111Y0116533D01*
X0338467Y0115889D01*
X0338467Y0108920D01*
X0338349Y0108802D01*
X0338349Y0103166D01*
X0338362Y0103154D01*
X0335232Y0100234D01*
X0329820Y0100234D01*
X0329176Y0099589D01*
X0329176Y0097269D01*
X0328731Y0097714D01*
X0326939Y0097714D01*
X0325672Y0096447D01*
X0325672Y0095551D01*
X0325530Y0092308D01*
X0324404Y0085921D01*
X0322186Y0079827D01*
X0318943Y0074210D01*
X0314774Y0069242D01*
X0309806Y0065073D01*
X0304189Y0061830D01*
X0298094Y0059612D01*
X0291707Y0058486D01*
X0288691Y0058354D01*
X0288120Y0058497D01*
X0287906Y0058368D01*
X0285222Y0058486D01*
X0278835Y0059612D01*
X0272740Y0061830D01*
X0267123Y0065073D01*
X0262155Y0069242D01*
X0257986Y0074210D01*
X0254743Y0079827D01*
X0252525Y0085921D01*
X0251399Y0092308D01*
X0251257Y0095551D01*
X0251257Y0103225D01*
X0251768Y0105785D01*
X0253608Y0110921D01*
X0256415Y0115600D01*
X0260081Y0119641D01*
X0261675Y0120947D01*
X0261801Y0120947D01*
X0262322Y0121468D01*
X0262913Y0121906D01*
X0262940Y0122086D01*
X0273612Y0132758D01*
X0273621Y0132767D01*
X0274880Y0134025D01*
X0275834Y0134980D01*
X0278019Y0138906D01*
X0279045Y0143280D01*
X0278832Y0147768D01*
X0277398Y0152026D01*
X0274852Y0155728D01*
X0271390Y0158590D01*
X0271390Y0158590D01*
X0267275Y0160395D01*
X0262823Y0161002D01*
X0260752Y0160706D01*
X0223451Y0160706D01*
X0223169Y0160988D01*
X0222109Y0161428D01*
X0220962Y0161428D01*
X0219902Y0160988D01*
X0219090Y0160177D01*
X0218651Y0159117D01*
X0218651Y0157970D01*
X0219090Y0156910D01*
X0219902Y0156098D01*
X0220962Y0155659D01*
X0222109Y0155659D01*
X0223169Y0156098D01*
X0223451Y0156380D01*
X0260184Y0156380D01*
X0260324Y0156275D01*
X0261059Y0156380D01*
X0261801Y0156380D01*
X0261871Y0156450D01*
X0262837Y0156520D01*
X0266060Y0156080D01*
X0269039Y0154774D01*
X0271546Y0152702D01*
X0273389Y0150021D01*
X0274427Y0146939D01*
X0274581Y0143690D01*
X0273839Y0140523D01*
X0272257Y0137681D01*
X0271187Y0136451D01*
X0270562Y0135826D01*
X0270554Y0135817D01*
X0262718Y0127982D01*
X0257624Y0133076D01*
X0256713Y0133076D01*
X0253596Y0129960D01*
X0249848Y0130559D01*
X0250833Y0130678D01*
X0253201Y0132313D01*
X0254538Y0134860D01*
X0254538Y0137738D01*
X0253223Y0140243D01*
X0256792Y0136675D01*
X0256875Y0136591D01*
X0257786Y0136591D01*
X0261771Y0140576D01*
X0261771Y0140743D01*
X0266699Y0145671D01*
X0266699Y0146582D01*
X0258984Y0154297D01*
X0258072Y0154297D01*
X0253145Y0149370D01*
X0252978Y0149370D01*
X0249928Y0146320D01*
X0238134Y0148765D01*
X0237738Y0149029D01*
X0237360Y0148953D01*
X0196043Y0160222D01*
X0195705Y0165887D01*
X0195705Y0172927D01*
X0195061Y0173571D01*
X0191750Y0173571D01*
X0191106Y0172927D01*
X0191106Y0163316D01*
X0191552Y0162869D01*
X0191681Y0160706D01*
X0147624Y0160706D01*
X0147621Y0160709D01*
X0146728Y0160706D01*
X0145836Y0160706D01*
X0145833Y0160703D01*
X0145829Y0160703D01*
X0145202Y0160072D01*
X0144569Y0159439D01*
X0144569Y0159435D01*
X0139582Y0154413D01*
X0138848Y0154407D01*
X0137960Y0154406D01*
X0137954Y0154400D01*
X0137946Y0154400D01*
X0137322Y0153767D01*
X0131496Y0147928D01*
X0131038Y0148386D01*
X0130871Y0148386D01*
X0125943Y0153313D01*
X0125032Y0153313D01*
X0117317Y0145598D01*
X0117317Y0144686D01*
X0122244Y0139759D01*
X0122244Y0139592D01*
X0126229Y0135607D01*
X0127141Y0135607D01*
X0127224Y0135690D01*
X0134939Y0143406D01*
X0135023Y0143489D01*
X0135023Y0144401D01*
X0134555Y0144869D01*
X0138872Y0149195D01*
X0140269Y0147820D01*
X0135388Y0142939D01*
X0135388Y0142028D01*
X0136346Y0141070D01*
X0134590Y0141283D01*
X0131900Y0140263D01*
X0129992Y0138109D01*
X0129303Y0135315D01*
X0129992Y0132521D01*
X0131900Y0130367D01*
X0134590Y0129347D01*
X0137447Y0129694D01*
X0139681Y0131236D01*
X0139682Y0131216D01*
X0135690Y0127224D01*
X0135607Y0127141D01*
X0135607Y0126229D01*
X0139592Y0122244D01*
X0139759Y0122244D01*
X0144686Y0117317D01*
X0145598Y0117317D01*
X0153313Y0125032D01*
X0153313Y0125943D01*
X0148386Y0130871D01*
X0148386Y0131038D01*
X0144401Y0135023D01*
X0143798Y0135023D01*
X0143625Y0138043D01*
X0146886Y0141304D01*
X0149909Y0138328D01*
X0156553Y0126179D01*
X0160386Y0114680D01*
X0164248Y0095369D01*
X0164079Y0090650D01*
X0162684Y0080947D01*
X0159923Y0071542D01*
X0155850Y0062625D01*
X0150551Y0054379D01*
X0144132Y0046971D01*
X0136723Y0040551D01*
X0129516Y0035920D01*
X0130178Y0043402D01*
X0130871Y0044095D01*
X0131038Y0044095D01*
X0135023Y0048080D01*
X0135023Y0048991D01*
X0134939Y0049074D01*
X0134939Y0049074D01*
X0127224Y0056790D01*
X0127141Y0056873D01*
X0126229Y0056873D01*
X0122244Y0052888D01*
X0122244Y0052721D01*
X0117317Y0047794D01*
X0117317Y0046883D01*
X0125032Y0039167D01*
X0125461Y0039167D01*
X0125018Y0034163D01*
X0115236Y0030902D01*
X0115070Y0030957D01*
X0114406Y0030625D01*
X0113702Y0030391D01*
X0113624Y0030234D01*
X0109926Y0028385D01*
X0100452Y0027023D01*
X0100234Y0027015D01*
X0100234Y0033763D01*
X0099589Y0034407D01*
X0094611Y0034407D01*
X0094412Y0034622D01*
X0094827Y0034465D01*
X0097683Y0034812D01*
X0100051Y0036446D01*
X0101388Y0038994D01*
X0101388Y0041872D01*
X0100051Y0044420D01*
X0097683Y0046054D01*
X0094827Y0046401D01*
X0092136Y0045381D01*
X0090228Y0043227D01*
X0089565Y0040535D01*
X0089565Y0046007D01*
X0088920Y0046651D01*
X0083285Y0046651D01*
X0083166Y0046533D01*
X0076198Y0046533D01*
X0075554Y0045889D01*
X0075554Y0034977D01*
X0076198Y0034333D01*
X0083166Y0034333D01*
X0083285Y0034215D01*
X0088900Y0034215D01*
X0090947Y0031998D01*
X0090947Y0027012D01*
X0090650Y0027023D01*
X0082632Y0028176D01*
X0076845Y0029623D01*
X0071804Y0031103D01*
X0059538Y0037236D01*
X0059051Y0037549D01*
X0061370Y0042562D01*
X0065159Y0038773D01*
X0066070Y0038773D01*
X0073786Y0046489D01*
X0073786Y0047400D01*
X0068858Y0052328D01*
X0068858Y0052495D01*
X0064873Y0056480D01*
X0063962Y0056480D01*
X0063878Y0056396D01*
X0060309Y0052827D01*
X0061625Y0055333D01*
X0061625Y0058210D01*
X0060287Y0060758D01*
X0057919Y0062393D01*
X0055063Y0062740D01*
X0052372Y0061719D01*
X0051258Y0060461D01*
X0051259Y0060709D01*
X0055412Y0064863D01*
X0055495Y0064946D01*
X0055495Y0065857D01*
X0051510Y0069842D01*
X0051343Y0069842D01*
X0046416Y0074770D01*
X0045505Y0074770D01*
X0037789Y0067054D01*
X0037789Y0066143D01*
X0042717Y0061216D01*
X0042717Y0061049D01*
X0046702Y0057064D01*
X0046919Y0057064D01*
X0046908Y0054223D01*
X0043575Y0050890D01*
X0040551Y0054379D01*
X0035252Y0062625D01*
X0031180Y0071542D01*
X0028418Y0080947D01*
X0027023Y0090650D01*
X0026853Y0095404D01*
X0030702Y0118497D01*
X0041745Y0140583D01*
X0052317Y0140200D01*
X0050464Y0138109D01*
X0049776Y0135315D01*
X0050464Y0132521D01*
X0052372Y0130367D01*
X0055063Y0129347D01*
X0057919Y0129694D01*
X0060287Y0131328D01*
X0061625Y0133876D01*
X0061625Y0136754D01*
X0060310Y0139259D01*
X0063878Y0135690D01*
X0063962Y0135607D01*
X0064873Y0135607D01*
X0068858Y0139592D01*
X0068858Y0139759D01*
X0073786Y0144686D01*
X0073786Y0145598D01*
X0066070Y0153313D01*
X0065159Y0153313D01*
X0060231Y0148386D01*
X0060064Y0148386D01*
X0056079Y0144401D01*
X0056079Y0144392D01*
X0040981Y0144940D01*
X0040599Y0145131D01*
X0040120Y0144971D01*
X0039616Y0144989D01*
X0039304Y0144699D01*
X0038899Y0144564D01*
X0038673Y0144113D01*
X0038304Y0143769D01*
X0038289Y0143343D01*
X0026928Y0120621D01*
X0026636Y0120413D01*
X0026542Y0119850D01*
X0026287Y0119339D01*
X0026400Y0118999D01*
X0022665Y0096591D01*
X0022522Y0096447D01*
X0022522Y0095730D01*
X0022404Y0095023D01*
X0022522Y0094858D01*
X0022522Y0090328D01*
X0024009Y0079988D01*
X0026952Y0069965D01*
X0026952Y0069965D01*
X0031291Y0060463D01*
X0031291Y0060463D01*
X0036939Y0051675D01*
X0036939Y0051675D01*
X0040384Y0047699D01*
X0035427Y0042742D01*
X0035427Y0041831D01*
X0041083Y0036175D01*
X0041994Y0036175D01*
X0042355Y0036536D01*
X0042768Y0036118D01*
X0051060Y0029678D01*
X0049408Y0030961D02*
X0033059Y0030961D01*
X0032026Y0031960D02*
X0048122Y0031960D01*
X0046836Y0032958D02*
X0030994Y0032958D01*
X0029961Y0033957D02*
X0045550Y0033957D01*
X0044265Y0034955D02*
X0028976Y0034955D01*
X0028174Y0035954D02*
X0042979Y0035954D01*
X0042768Y0036118D02*
X0042768Y0036118D01*
X0040306Y0036952D02*
X0027372Y0036952D01*
X0026571Y0037951D02*
X0039307Y0037951D01*
X0038309Y0038949D02*
X0025769Y0038949D01*
X0024967Y0039948D02*
X0037310Y0039948D01*
X0036312Y0040946D02*
X0024165Y0040946D01*
X0023364Y0041945D02*
X0035427Y0041945D01*
X0035629Y0042943D02*
X0022562Y0042943D01*
X0021846Y0043942D02*
X0036627Y0043942D01*
X0037626Y0044940D02*
X0021233Y0044940D01*
X0020619Y0045939D02*
X0038624Y0045939D01*
X0039623Y0046937D02*
X0020006Y0046937D01*
X0019393Y0047936D02*
X0040179Y0047936D01*
X0039313Y0048934D02*
X0018779Y0048934D01*
X0018166Y0049933D02*
X0038448Y0049933D01*
X0037583Y0050932D02*
X0017553Y0050932D01*
X0016939Y0051930D02*
X0036775Y0051930D01*
X0036133Y0052929D02*
X0016326Y0052929D01*
X0015857Y0053927D02*
X0035491Y0053927D01*
X0034850Y0054926D02*
X0015405Y0054926D01*
X0014953Y0055924D02*
X0034208Y0055924D01*
X0033566Y0056923D02*
X0014500Y0056923D01*
X0014048Y0057921D02*
X0032925Y0057921D01*
X0032283Y0058920D02*
X0013596Y0058920D01*
X0013144Y0059918D02*
X0031641Y0059918D01*
X0031084Y0060917D02*
X0012692Y0060917D01*
X0012240Y0061915D02*
X0030628Y0061915D01*
X0030172Y0062914D02*
X0011788Y0062914D01*
X0011432Y0063912D02*
X0029716Y0063912D01*
X0029260Y0064911D02*
X0011124Y0064911D01*
X0010816Y0065909D02*
X0028804Y0065909D01*
X0028348Y0066908D02*
X0010507Y0066908D01*
X0010199Y0067906D02*
X0027892Y0067906D01*
X0027436Y0068905D02*
X0009891Y0068905D01*
X0009582Y0069903D02*
X0026980Y0069903D01*
X0026677Y0070902D02*
X0009274Y0070902D01*
X0008966Y0071900D02*
X0026384Y0071900D01*
X0026090Y0072899D02*
X0008657Y0072899D01*
X0008349Y0073897D02*
X0025797Y0073897D01*
X0025504Y0074896D02*
X0008167Y0074896D01*
X0007992Y0075894D02*
X0025211Y0075894D01*
X0024918Y0076893D02*
X0007817Y0076893D01*
X0007641Y0077891D02*
X0024624Y0077891D01*
X0024331Y0078890D02*
X0007466Y0078890D01*
X0007291Y0079888D02*
X0024038Y0079888D01*
X0024009Y0079988D02*
X0024009Y0079988D01*
X0023879Y0080887D02*
X0007115Y0080887D01*
X0006940Y0081885D02*
X0023736Y0081885D01*
X0023592Y0082884D02*
X0006764Y0082884D01*
X0006589Y0083882D02*
X0023449Y0083882D01*
X0023305Y0084881D02*
X0006414Y0084881D01*
X0006353Y0085879D02*
X0023162Y0085879D01*
X0023018Y0086878D02*
X0006305Y0086878D01*
X0006257Y0087876D02*
X0022875Y0087876D01*
X0022731Y0088875D02*
X0006209Y0088875D01*
X0006161Y0089873D02*
X0022587Y0089873D01*
X0022522Y0090872D02*
X0006112Y0090872D01*
X0006064Y0091870D02*
X0022522Y0091870D01*
X0022522Y0092869D02*
X0006016Y0092869D01*
X0005968Y0093868D02*
X0022522Y0093868D01*
X0022516Y0094866D02*
X0005920Y0094866D01*
X0005872Y0095865D02*
X0022522Y0095865D01*
X0022711Y0096863D02*
X0005911Y0096863D01*
X0005988Y0097862D02*
X0022877Y0097862D01*
X0023044Y0098860D02*
X0006066Y0098860D01*
X0006143Y0099859D02*
X0023210Y0099859D01*
X0023377Y0100857D02*
X0006221Y0100857D01*
X0006298Y0101856D02*
X0023543Y0101856D01*
X0023709Y0102854D02*
X0006376Y0102854D01*
X0006453Y0103853D02*
X0023876Y0103853D01*
X0024042Y0104851D02*
X0006531Y0104851D01*
X0006608Y0105850D02*
X0024209Y0105850D01*
X0024375Y0106848D02*
X0006686Y0106848D01*
X0006829Y0107847D02*
X0024541Y0107847D01*
X0024708Y0108845D02*
X0007035Y0108845D01*
X0007240Y0109844D02*
X0024874Y0109844D01*
X0025041Y0110842D02*
X0007446Y0110842D01*
X0007652Y0111841D02*
X0025207Y0111841D01*
X0025374Y0112839D02*
X0007857Y0112839D01*
X0008063Y0113838D02*
X0025540Y0113838D01*
X0025706Y0114836D02*
X0008269Y0114836D01*
X0008474Y0115835D02*
X0025873Y0115835D01*
X0026039Y0116833D02*
X0008680Y0116833D01*
X0008886Y0117832D02*
X0026206Y0117832D01*
X0026372Y0118830D02*
X0009161Y0118830D01*
X0009502Y0119829D02*
X0026532Y0119829D01*
X0027031Y0120827D02*
X0009843Y0120827D01*
X0010183Y0121826D02*
X0027530Y0121826D01*
X0028029Y0122824D02*
X0010524Y0122824D01*
X0010865Y0123823D02*
X0028529Y0123823D01*
X0029028Y0124821D02*
X0011205Y0124821D01*
X0011546Y0125820D02*
X0029527Y0125820D01*
X0030026Y0126818D02*
X0011887Y0126818D01*
X0012227Y0127817D02*
X0030526Y0127817D01*
X0031025Y0128815D02*
X0012568Y0128815D01*
X0013042Y0129814D02*
X0031524Y0129814D01*
X0032023Y0130812D02*
X0013529Y0130812D01*
X0014017Y0131811D02*
X0032523Y0131811D01*
X0033022Y0132809D02*
X0014505Y0132809D01*
X0014993Y0133808D02*
X0033521Y0133808D01*
X0034020Y0134806D02*
X0015481Y0134806D01*
X0015969Y0135805D02*
X0034520Y0135805D01*
X0035019Y0136803D02*
X0016456Y0136803D01*
X0016944Y0137802D02*
X0035518Y0137802D01*
X0036017Y0138801D02*
X0017432Y0138801D01*
X0018057Y0139799D02*
X0036517Y0139799D01*
X0037016Y0140798D02*
X0018711Y0140798D01*
X0019365Y0141796D02*
X0037515Y0141796D01*
X0038014Y0142795D02*
X0020020Y0142795D01*
X0020674Y0143793D02*
X0038330Y0143793D01*
X0039404Y0144792D02*
X0021328Y0144792D01*
X0021983Y0145790D02*
X0057469Y0145790D01*
X0058467Y0146789D02*
X0022637Y0146789D01*
X0023291Y0147787D02*
X0059466Y0147787D01*
X0060631Y0148786D02*
X0024032Y0148786D01*
X0024883Y0149784D02*
X0061630Y0149784D01*
X0062628Y0150783D02*
X0025734Y0150783D01*
X0026584Y0151781D02*
X0063627Y0151781D01*
X0064625Y0152780D02*
X0027435Y0152780D01*
X0028286Y0153778D02*
X0093623Y0153778D01*
X0093690Y0154405D02*
X0093481Y0152446D01*
X0093388Y0152353D01*
X0093388Y0151571D01*
X0093306Y0150795D01*
X0093388Y0150692D01*
X0093388Y0133740D01*
X0093238Y0130779D01*
X0092042Y0124977D01*
X0092042Y0124977D01*
X0089700Y0119537D01*
X0086308Y0114681D01*
X0082006Y0110609D01*
X0076970Y0107490D01*
X0071408Y0105452D01*
X0065550Y0104578D01*
X0059636Y0104905D01*
X0057369Y0105383D01*
X0057276Y0105495D01*
X0057160Y0105506D01*
X0057077Y0105588D01*
X0056462Y0105588D01*
X0055868Y0105745D01*
X0055693Y0105644D01*
X0045667Y0106587D01*
X0045667Y0107818D01*
X0045549Y0107936D01*
X0045549Y0114904D01*
X0044904Y0115549D01*
X0033993Y0115549D01*
X0033349Y0114904D01*
X0033349Y0107936D01*
X0033231Y0107818D01*
X0033231Y0102182D01*
X0033875Y0101538D01*
X0045023Y0101538D01*
X0045667Y0102182D01*
X0045667Y0102242D01*
X0054018Y0101456D01*
X0054018Y0100194D01*
X0047064Y0100194D01*
X0046420Y0099550D01*
X0046420Y0094800D01*
X0045035Y0093634D01*
X0045286Y0094112D01*
X0045286Y0096990D01*
X0043949Y0099538D01*
X0041581Y0101172D01*
X0038724Y0101519D01*
X0036034Y0100499D01*
X0034126Y0098345D01*
X0033437Y0095551D01*
X0034126Y0092757D01*
X0036034Y0090604D01*
X0038724Y0089583D01*
X0040477Y0089796D01*
X0040202Y0089565D01*
X0033875Y0089565D01*
X0033231Y0088920D01*
X0033231Y0083285D01*
X0033349Y0083166D01*
X0033349Y0076198D01*
X0033993Y0075554D01*
X0044904Y0075554D01*
X0045549Y0076198D01*
X0045549Y0083166D01*
X0045667Y0083285D01*
X0045667Y0088511D01*
X0048513Y0090908D01*
X0054196Y0090908D01*
X0055280Y0084761D01*
X0055280Y0084761D01*
X0057766Y0077932D01*
X0057766Y0077931D01*
X0061399Y0071638D01*
X0061399Y0071638D01*
X0066071Y0066071D01*
X0071638Y0061399D01*
X0077931Y0057766D01*
X0084761Y0055280D01*
X0091917Y0054018D01*
X0094327Y0054018D01*
X0101538Y0041999D01*
X0101538Y0034859D01*
X0102182Y0034215D01*
X0107818Y0034215D01*
X0107936Y0034333D01*
X0114904Y0034333D01*
X0115549Y0034977D01*
X0115549Y0045889D01*
X0114904Y0046533D01*
X0107936Y0046533D01*
X0107818Y0046651D01*
X0103792Y0046651D01*
X0099354Y0054048D01*
X0106342Y0055280D01*
X0113171Y0057766D01*
X0119465Y0061399D01*
X0122039Y0063560D01*
X0127022Y0058577D01*
X0127933Y0058577D01*
X0131303Y0061947D01*
X0131753Y0061947D01*
X0129992Y0059959D01*
X0129303Y0057165D01*
X0129992Y0054372D01*
X0131900Y0052218D01*
X0134590Y0051197D01*
X0137447Y0051544D01*
X0139815Y0053179D01*
X0141152Y0055727D01*
X0141152Y0058604D01*
X0139837Y0061110D01*
X0143406Y0057541D01*
X0143489Y0057457D01*
X0144401Y0057457D01*
X0148386Y0061442D01*
X0148386Y0061609D01*
X0153313Y0066537D01*
X0153313Y0067448D01*
X0145598Y0075164D01*
X0144686Y0075164D01*
X0139759Y0070236D01*
X0139592Y0070236D01*
X0135607Y0066251D01*
X0135607Y0065747D01*
X0132985Y0065747D01*
X0128513Y0070219D01*
X0129703Y0071638D01*
X0133337Y0077931D01*
X0133337Y0077932D01*
X0135822Y0084761D01*
X0135937Y0085409D01*
X0145435Y0084515D01*
X0145435Y0083285D01*
X0145554Y0083166D01*
X0145554Y0076198D01*
X0146198Y0075554D01*
X0157109Y0075554D01*
X0157754Y0076198D01*
X0157754Y0083166D01*
X0157872Y0083285D01*
X0157872Y0088920D01*
X0157227Y0089565D01*
X0146080Y0089565D01*
X0145435Y0088920D01*
X0145435Y0088860D01*
X0137084Y0089646D01*
X0137084Y0090908D01*
X0144038Y0090908D01*
X0144683Y0091552D01*
X0144683Y0096302D01*
X0146126Y0097518D01*
X0145642Y0095551D01*
X0146330Y0092757D01*
X0148238Y0090604D01*
X0150929Y0089583D01*
X0153785Y0089930D01*
X0156153Y0091565D01*
X0157491Y0094112D01*
X0157491Y0096990D01*
X0156153Y0099538D01*
X0153785Y0101172D01*
X0150929Y0101519D01*
X0150836Y0101484D01*
X0150900Y0101538D01*
X0157227Y0101538D01*
X0157872Y0102182D01*
X0157872Y0107818D01*
X0157754Y0107936D01*
X0157754Y0114904D01*
X0157109Y0115549D01*
X0146198Y0115549D01*
X0145554Y0114904D01*
X0145554Y0107936D01*
X0145435Y0107818D01*
X0145435Y0102591D01*
X0142589Y0100194D01*
X0136828Y0100194D01*
X0136183Y0099550D01*
X0136183Y0097348D01*
X0135817Y0097714D01*
X0134025Y0097714D01*
X0132758Y0096447D01*
X0132758Y0095551D01*
X0132617Y0092308D01*
X0131490Y0085921D01*
X0129272Y0079827D01*
X0126029Y0074210D01*
X0121861Y0069242D01*
X0116892Y0065073D01*
X0111276Y0061830D01*
X0105181Y0059612D01*
X0098794Y0058486D01*
X0095778Y0058354D01*
X0095207Y0058497D01*
X0094993Y0058368D01*
X0092308Y0058486D01*
X0085921Y0059612D01*
X0079827Y0061830D01*
X0074210Y0065073D01*
X0069242Y0069242D01*
X0065073Y0074210D01*
X0061830Y0079827D01*
X0059612Y0085921D01*
X0058486Y0092308D01*
X0058344Y0095551D01*
X0058344Y0100616D01*
X0058933Y0100460D01*
X0065759Y0100083D01*
X0072520Y0101092D01*
X0072520Y0101092D01*
X0078939Y0103444D01*
X0084751Y0107044D01*
X0089716Y0111743D01*
X0093631Y0117347D01*
X0093631Y0117347D01*
X0096334Y0123626D01*
X0097714Y0130322D01*
X0097714Y0151298D01*
X0098069Y0153347D01*
X0099613Y0157353D01*
X0102140Y0160823D01*
X0105480Y0163521D01*
X0109404Y0165262D01*
X0113645Y0165928D01*
X0115089Y0165870D01*
X0115132Y0165828D01*
X0115911Y0165829D01*
X0116686Y0165746D01*
X0116790Y0165830D01*
X0173258Y0165931D01*
X0173642Y0165547D01*
X0174702Y0165108D01*
X0175849Y0165108D01*
X0176909Y0165547D01*
X0177301Y0165938D01*
X0186106Y0165954D01*
X0186106Y0163316D01*
X0186750Y0162671D01*
X0190061Y0162671D01*
X0190705Y0163316D01*
X0190705Y0172927D01*
X0190061Y0173571D01*
X0186750Y0173571D01*
X0186106Y0172927D01*
X0186106Y0170284D01*
X0177062Y0170284D01*
X0176909Y0170437D01*
X0175849Y0170876D01*
X0174702Y0170876D01*
X0173642Y0170437D01*
X0173462Y0170258D01*
X0116136Y0170155D01*
X0113533Y0170432D01*
X0108130Y0169584D01*
X0103131Y0167365D01*
X0098876Y0163929D01*
X0098876Y0163929D01*
X0098876Y0163929D01*
X0095656Y0159508D01*
X0093690Y0154405D01*
X0093690Y0154405D01*
X0093833Y0154777D02*
X0029137Y0154777D01*
X0029988Y0155775D02*
X0083259Y0155775D01*
X0082509Y0156774D02*
X0030839Y0156774D01*
X0031849Y0157772D02*
X0081608Y0157772D01*
X0080573Y0158771D02*
X0032877Y0158771D01*
X0033905Y0159769D02*
X0079363Y0159769D01*
X0078152Y0160768D02*
X0034940Y0160768D01*
X0036294Y0161766D02*
X0076942Y0161766D01*
X0075892Y0162633D02*
X0075892Y0162633D01*
X0075647Y0162765D02*
X0037663Y0162765D01*
X0039543Y0163763D02*
X0073791Y0163763D01*
X0071935Y0164762D02*
X0041423Y0164762D01*
X0043303Y0165760D02*
X0070078Y0165760D01*
X0066920Y0166759D02*
X0046420Y0166759D01*
X0049744Y0167757D02*
X0063660Y0167757D01*
X0066604Y0152780D02*
X0093517Y0152780D01*
X0093388Y0151781D02*
X0067602Y0151781D01*
X0068601Y0150783D02*
X0093315Y0150783D01*
X0093388Y0149784D02*
X0069599Y0149784D01*
X0070598Y0148786D02*
X0093388Y0148786D01*
X0093388Y0147787D02*
X0071596Y0147787D01*
X0072595Y0146789D02*
X0093388Y0146789D01*
X0093388Y0145790D02*
X0073593Y0145790D01*
X0073786Y0144792D02*
X0093388Y0144792D01*
X0093388Y0143793D02*
X0072892Y0143793D01*
X0071894Y0142795D02*
X0093388Y0142795D01*
X0093388Y0141796D02*
X0070895Y0141796D01*
X0069897Y0140798D02*
X0093388Y0140798D01*
X0093388Y0139799D02*
X0068898Y0139799D01*
X0068067Y0138801D02*
X0093388Y0138801D01*
X0093388Y0137802D02*
X0067068Y0137802D01*
X0066070Y0136803D02*
X0093388Y0136803D01*
X0093388Y0135805D02*
X0065071Y0135805D01*
X0063878Y0135690D02*
X0063878Y0135690D01*
X0063764Y0135805D02*
X0061625Y0135805D01*
X0061625Y0134806D02*
X0093388Y0134806D01*
X0093388Y0133808D02*
X0061589Y0133808D01*
X0061065Y0132809D02*
X0093341Y0132809D01*
X0093290Y0131811D02*
X0065228Y0131811D01*
X0064238Y0132801D02*
X0063327Y0132801D01*
X0059657Y0129131D01*
X0053505Y0129131D01*
X0047697Y0134939D01*
X0047613Y0135023D01*
X0046702Y0135023D01*
X0042717Y0131038D01*
X0042717Y0130871D01*
X0037789Y0125943D01*
X0037789Y0125032D01*
X0045505Y0117317D01*
X0046416Y0117317D01*
X0051343Y0122244D01*
X0051510Y0122244D01*
X0054071Y0124805D01*
X0059101Y0124805D01*
X0062770Y0121136D01*
X0063681Y0121136D01*
X0069337Y0126791D01*
X0069337Y0127702D01*
X0064238Y0132801D01*
X0062337Y0131811D02*
X0060541Y0131811D01*
X0061338Y0130812D02*
X0059540Y0130812D01*
X0060340Y0129814D02*
X0058093Y0129814D01*
X0053832Y0129814D02*
X0052822Y0129814D01*
X0051978Y0130812D02*
X0051824Y0130812D01*
X0051093Y0131811D02*
X0050825Y0131811D01*
X0050393Y0132809D02*
X0049827Y0132809D01*
X0050147Y0133808D02*
X0048828Y0133808D01*
X0047830Y0134806D02*
X0049901Y0134806D01*
X0049896Y0135805D02*
X0039356Y0135805D01*
X0038857Y0134806D02*
X0046485Y0134806D01*
X0047697Y0134939D02*
X0047697Y0134939D01*
X0045487Y0133808D02*
X0038358Y0133808D01*
X0037858Y0132809D02*
X0044488Y0132809D01*
X0043490Y0131811D02*
X0037359Y0131811D01*
X0036860Y0130812D02*
X0042658Y0130812D01*
X0041660Y0129814D02*
X0036361Y0129814D01*
X0035861Y0128815D02*
X0040661Y0128815D01*
X0039663Y0127817D02*
X0035362Y0127817D01*
X0034863Y0126818D02*
X0038664Y0126818D01*
X0037789Y0125820D02*
X0034364Y0125820D01*
X0033864Y0124821D02*
X0038000Y0124821D01*
X0038999Y0123823D02*
X0033365Y0123823D01*
X0032866Y0122824D02*
X0039997Y0122824D01*
X0040996Y0121826D02*
X0032367Y0121826D01*
X0031867Y0120827D02*
X0041994Y0120827D01*
X0042993Y0119829D02*
X0031368Y0119829D01*
X0030869Y0118830D02*
X0043991Y0118830D01*
X0044990Y0117832D02*
X0030591Y0117832D01*
X0030425Y0116833D02*
X0087812Y0116833D01*
X0088509Y0117832D02*
X0046931Y0117832D01*
X0047929Y0118830D02*
X0089207Y0118830D01*
X0089826Y0119829D02*
X0048928Y0119829D01*
X0049926Y0120827D02*
X0090256Y0120827D01*
X0090685Y0121826D02*
X0064372Y0121826D01*
X0065370Y0122824D02*
X0091115Y0122824D01*
X0091545Y0123823D02*
X0066369Y0123823D01*
X0067367Y0124821D02*
X0091975Y0124821D01*
X0092216Y0125820D02*
X0068366Y0125820D01*
X0069337Y0126818D02*
X0092421Y0126818D01*
X0092627Y0127817D02*
X0069222Y0127817D01*
X0068224Y0128815D02*
X0092833Y0128815D01*
X0093039Y0129814D02*
X0067225Y0129814D01*
X0066227Y0130812D02*
X0093239Y0130812D01*
X0097714Y0130812D02*
X0131506Y0130812D01*
X0130621Y0131811D02*
X0097714Y0131811D01*
X0097714Y0132809D02*
X0129921Y0132809D01*
X0129675Y0133808D02*
X0097714Y0133808D01*
X0097714Y0134806D02*
X0129428Y0134806D01*
X0129424Y0135805D02*
X0127339Y0135805D01*
X0127224Y0135690D02*
X0127224Y0135690D01*
X0126031Y0135805D02*
X0097714Y0135805D01*
X0097714Y0136803D02*
X0125033Y0136803D01*
X0124034Y0137802D02*
X0097714Y0137802D01*
X0097714Y0138801D02*
X0123036Y0138801D01*
X0122204Y0139799D02*
X0097714Y0139799D01*
X0097714Y0140798D02*
X0121206Y0140798D01*
X0120207Y0141796D02*
X0097714Y0141796D01*
X0097714Y0142795D02*
X0119209Y0142795D01*
X0118210Y0143793D02*
X0097714Y0143793D01*
X0097714Y0144792D02*
X0117317Y0144792D01*
X0117509Y0145790D02*
X0097714Y0145790D01*
X0097714Y0146789D02*
X0118508Y0146789D01*
X0119506Y0147787D02*
X0097714Y0147787D01*
X0097714Y0148786D02*
X0120505Y0148786D01*
X0121503Y0149784D02*
X0097714Y0149784D01*
X0097714Y0150783D02*
X0122502Y0150783D01*
X0123500Y0151781D02*
X0097798Y0151781D01*
X0097971Y0152780D02*
X0124499Y0152780D01*
X0126477Y0152780D02*
X0136337Y0152780D01*
X0137333Y0153778D02*
X0098235Y0153778D01*
X0098620Y0154777D02*
X0139943Y0154777D01*
X0140935Y0155775D02*
X0099004Y0155775D01*
X0099389Y0156774D02*
X0141926Y0156774D01*
X0142918Y0157772D02*
X0099918Y0157772D01*
X0100645Y0158771D02*
X0143910Y0158771D01*
X0144899Y0159769D02*
X0101372Y0159769D01*
X0102100Y0160768D02*
X0191677Y0160768D01*
X0191617Y0161766D02*
X0103308Y0161766D01*
X0104544Y0162765D02*
X0186656Y0162765D01*
X0186106Y0163763D02*
X0106026Y0163763D01*
X0108277Y0164762D02*
X0186106Y0164762D01*
X0186106Y0165760D02*
X0177123Y0165760D01*
X0173428Y0165760D02*
X0116703Y0165760D01*
X0116556Y0165760D02*
X0112575Y0165760D01*
X0113533Y0170432D02*
X0113533Y0170432D01*
X0109218Y0169754D02*
X0093837Y0169754D01*
X0093255Y0168756D02*
X0106265Y0168756D01*
X0108130Y0169584D02*
X0108130Y0169584D01*
X0104015Y0167757D02*
X0092672Y0167757D01*
X0092090Y0166759D02*
X0102380Y0166759D01*
X0103131Y0167365D02*
X0103131Y0167365D01*
X0101144Y0165760D02*
X0091507Y0165760D01*
X0090925Y0164762D02*
X0099908Y0164762D01*
X0098756Y0163763D02*
X0090343Y0163763D01*
X0089760Y0162765D02*
X0098028Y0162765D01*
X0097301Y0161766D02*
X0089178Y0161766D01*
X0088595Y0160768D02*
X0096574Y0160768D01*
X0095846Y0159769D02*
X0088013Y0159769D01*
X0087430Y0158771D02*
X0095372Y0158771D01*
X0095656Y0159508D02*
X0095656Y0159508D01*
X0094987Y0157772D02*
X0086848Y0157772D01*
X0086265Y0156774D02*
X0094602Y0156774D01*
X0094218Y0155775D02*
X0085683Y0155775D01*
X0094420Y0170753D02*
X0174404Y0170753D01*
X0176147Y0170753D02*
X0186106Y0170753D01*
X0186106Y0171751D02*
X0095002Y0171751D01*
X0095585Y0172750D02*
X0186106Y0172750D01*
X0190705Y0172750D02*
X0191106Y0172750D01*
X0191106Y0171751D02*
X0190705Y0171751D01*
X0190705Y0170753D02*
X0191106Y0170753D01*
X0191106Y0169754D02*
X0190705Y0169754D01*
X0190705Y0168756D02*
X0191106Y0168756D01*
X0191106Y0167757D02*
X0190705Y0167757D01*
X0190705Y0166759D02*
X0191106Y0166759D01*
X0191106Y0165760D02*
X0190705Y0165760D01*
X0190705Y0164762D02*
X0191106Y0164762D01*
X0191106Y0163763D02*
X0190705Y0163763D01*
X0190155Y0162765D02*
X0191558Y0162765D01*
X0195892Y0162765D02*
X0196656Y0162765D01*
X0196106Y0163763D02*
X0195832Y0163763D01*
X0195773Y0164762D02*
X0196106Y0164762D01*
X0196106Y0165760D02*
X0195713Y0165760D01*
X0195705Y0166759D02*
X0196106Y0166759D01*
X0195750Y0167757D02*
X0195705Y0167757D01*
X0195705Y0168756D02*
X0195750Y0168756D01*
X0195750Y0169754D02*
X0195705Y0169754D01*
X0195705Y0170753D02*
X0195750Y0170753D01*
X0195750Y0171751D02*
X0195705Y0171751D01*
X0195705Y0172750D02*
X0195750Y0172750D01*
X0195750Y0173748D02*
X0096167Y0173748D01*
X0096801Y0174747D02*
X0195750Y0174747D01*
X0195750Y0175745D02*
X0097156Y0175745D01*
X0096718Y0176744D02*
X0195750Y0176744D01*
X0195750Y0177742D02*
X0094587Y0177742D01*
X0092490Y0178741D02*
X0195750Y0178741D01*
X0195750Y0179739D02*
X0090922Y0179739D01*
X0089354Y0180738D02*
X0195750Y0180738D01*
X0195750Y0181737D02*
X0087786Y0181737D01*
X0086386Y0182735D02*
X0195750Y0182735D01*
X0195578Y0183734D02*
X0085339Y0183734D01*
X0084292Y0184732D02*
X0195226Y0184732D01*
X0195258Y0185731D02*
X0083245Y0185731D01*
X0082198Y0186729D02*
X0195724Y0186729D01*
X0197191Y0187728D02*
X0081268Y0187728D01*
X0080564Y0188726D02*
X0370085Y0188726D01*
X0370780Y0189725D02*
X0079860Y0189725D01*
X0079155Y0190723D02*
X0371475Y0190723D01*
X0372171Y0191722D02*
X0078451Y0191722D01*
X0077746Y0192720D02*
X0372866Y0192720D01*
X0373562Y0193719D02*
X0077157Y0193719D01*
X0076711Y0194717D02*
X0374257Y0194717D01*
X0374953Y0195716D02*
X0076265Y0195716D01*
X0075820Y0196714D02*
X0375648Y0196714D01*
X0376344Y0197713D02*
X0075374Y0197713D01*
X0074929Y0198711D02*
X0377039Y0198711D01*
X0377735Y0199710D02*
X0074483Y0199710D01*
X0074222Y0200708D02*
X0378430Y0200708D01*
X0379125Y0201707D02*
X0073994Y0201707D01*
X0073765Y0202705D02*
X0379821Y0202705D01*
X0380516Y0203704D02*
X0073537Y0203704D01*
X0073308Y0204702D02*
X0381212Y0204702D01*
X0381907Y0205701D02*
X0073079Y0205701D01*
X0072851Y0206699D02*
X0382603Y0206699D01*
X0383298Y0207698D02*
X0072784Y0207698D01*
X0072754Y0208696D02*
X0383994Y0208696D01*
X0384689Y0209695D02*
X0072723Y0209695D01*
X0072693Y0210693D02*
X0385384Y0210693D01*
X0386080Y0211692D02*
X0072662Y0211692D01*
X0072632Y0212690D02*
X0386775Y0212690D01*
X0387471Y0213689D02*
X0072602Y0213689D01*
X0072689Y0214687D02*
X0388166Y0214687D01*
X0388862Y0215686D02*
X0072855Y0215686D01*
X0073020Y0216684D02*
X0389557Y0216684D01*
X0390253Y0217683D02*
X0073186Y0217683D01*
X0073351Y0218681D02*
X0085749Y0218681D01*
X0086282Y0218461D02*
X0089072Y0218461D01*
X0091649Y0219528D01*
X0093621Y0221501D01*
X0094689Y0224078D01*
X0094689Y0226867D01*
X0093621Y0229444D01*
X0091649Y0231417D01*
X0089072Y0232484D01*
X0086282Y0232484D01*
X0083705Y0231417D01*
X0081733Y0229444D01*
X0080665Y0226867D01*
X0080665Y0224078D01*
X0081733Y0221501D01*
X0083705Y0219528D01*
X0086282Y0218461D01*
X0083553Y0219680D02*
X0073517Y0219680D01*
X0073682Y0220678D02*
X0082555Y0220678D01*
X0081660Y0221677D02*
X0073949Y0221677D01*
X0074323Y0222675D02*
X0081246Y0222675D01*
X0080833Y0223674D02*
X0074698Y0223674D01*
X0075073Y0224672D02*
X0080665Y0224672D01*
X0080665Y0225671D02*
X0075447Y0225671D01*
X0075822Y0226670D02*
X0080665Y0226670D01*
X0080997Y0227668D02*
X0076196Y0227668D01*
X0076747Y0228667D02*
X0081411Y0228667D01*
X0081954Y0229665D02*
X0077364Y0229665D01*
X0077981Y0230664D02*
X0082952Y0230664D01*
X0084298Y0231662D02*
X0078598Y0231662D01*
X0079215Y0232661D02*
X0199545Y0232661D01*
X0199843Y0233381D02*
X0198776Y0230804D01*
X0198776Y0228015D01*
X0199843Y0225438D01*
X0201816Y0223465D01*
X0204393Y0222398D01*
X0207182Y0222398D01*
X0209759Y0223465D01*
X0211732Y0225438D01*
X0212799Y0228015D01*
X0212799Y0230804D01*
X0211732Y0233381D01*
X0209759Y0235354D01*
X0207182Y0236421D01*
X0204393Y0236421D01*
X0201816Y0235354D01*
X0199843Y0233381D01*
X0200121Y0233659D02*
X0173871Y0233659D01*
X0174809Y0234658D02*
X0201119Y0234658D01*
X0202545Y0235656D02*
X0175935Y0235656D01*
X0177281Y0236655D02*
X0231105Y0236655D01*
X0232376Y0235656D02*
X0209029Y0235656D01*
X0210455Y0234658D02*
X0233434Y0234658D01*
X0236592Y0234658D02*
X0394903Y0234658D01*
X0394301Y0235656D02*
X0238068Y0235656D01*
X0239976Y0236655D02*
X0393408Y0236655D01*
X0392232Y0237653D02*
X0241885Y0237653D01*
X0244827Y0238652D02*
X0390560Y0238652D01*
X0387334Y0239650D02*
X0248825Y0239650D01*
X0229722Y0237653D02*
X0178627Y0237653D01*
X0180044Y0238652D02*
X0228340Y0238652D01*
X0226477Y0239650D02*
X0182041Y0239650D01*
X0184038Y0240649D02*
X0224415Y0240649D01*
X0221611Y0241647D02*
X0187007Y0241647D01*
X0190908Y0242646D02*
X0217652Y0242646D01*
X0211454Y0233659D02*
X0395505Y0233659D01*
X0395853Y0232661D02*
X0212030Y0232661D01*
X0212444Y0231662D02*
X0375636Y0231662D01*
X0375044Y0231417D02*
X0373071Y0229444D01*
X0372004Y0226867D01*
X0372004Y0224078D01*
X0373071Y0221501D01*
X0375044Y0219528D01*
X0377621Y0218461D01*
X0380410Y0218461D01*
X0382988Y0219528D01*
X0384960Y0221501D01*
X0386028Y0224078D01*
X0386028Y0226867D01*
X0384960Y0229444D01*
X0382988Y0231417D01*
X0380410Y0232484D01*
X0377621Y0232484D01*
X0375044Y0231417D01*
X0374291Y0230664D02*
X0212799Y0230664D01*
X0212799Y0229665D02*
X0373292Y0229665D01*
X0372749Y0228667D02*
X0212799Y0228667D01*
X0212656Y0227668D02*
X0372336Y0227668D01*
X0372004Y0226670D02*
X0212242Y0226670D01*
X0211828Y0225671D02*
X0372004Y0225671D01*
X0372004Y0224672D02*
X0210967Y0224672D01*
X0209968Y0223674D02*
X0372171Y0223674D01*
X0372585Y0222675D02*
X0207853Y0222675D01*
X0203722Y0222675D02*
X0094108Y0222675D01*
X0093695Y0221677D02*
X0372998Y0221677D01*
X0373894Y0220678D02*
X0092799Y0220678D01*
X0091801Y0219680D02*
X0374892Y0219680D01*
X0377088Y0218681D02*
X0089605Y0218681D01*
X0094522Y0223674D02*
X0201607Y0223674D01*
X0200608Y0224672D02*
X0094689Y0224672D01*
X0094689Y0225671D02*
X0199746Y0225671D01*
X0199333Y0226670D02*
X0094689Y0226670D01*
X0094357Y0227668D02*
X0198919Y0227668D01*
X0198776Y0228667D02*
X0093944Y0228667D01*
X0093401Y0229665D02*
X0198776Y0229665D01*
X0198776Y0230664D02*
X0092402Y0230664D01*
X0091057Y0231662D02*
X0199131Y0231662D01*
X0171255Y0233659D02*
X0079832Y0233659D01*
X0080630Y0234658D02*
X0170492Y0234658D01*
X0169689Y0235656D02*
X0081557Y0235656D01*
X0082484Y0236655D02*
X0168763Y0236655D01*
X0167717Y0237653D02*
X0083411Y0237653D01*
X0084338Y0238652D02*
X0166672Y0238652D01*
X0165627Y0239650D02*
X0085398Y0239650D01*
X0086773Y0240649D02*
X0164555Y0240649D01*
X0163057Y0241647D02*
X0088149Y0241647D01*
X0089525Y0242646D02*
X0161559Y0242646D01*
X0160061Y0243644D02*
X0090943Y0243644D01*
X0093102Y0244643D02*
X0158184Y0244643D01*
X0155909Y0245641D02*
X0095261Y0245641D01*
X0097450Y0246640D02*
X0153633Y0246640D01*
X0198636Y0187728D02*
X0369389Y0187728D01*
X0368694Y0186729D02*
X0200103Y0186729D01*
X0200569Y0185731D02*
X0367998Y0185731D01*
X0367303Y0184732D02*
X0200601Y0184732D01*
X0200249Y0183734D02*
X0366607Y0183734D01*
X0365912Y0182735D02*
X0200076Y0182735D01*
X0200076Y0181737D02*
X0365216Y0181737D01*
X0364521Y0180738D02*
X0200076Y0180738D01*
X0200076Y0179739D02*
X0363826Y0179739D01*
X0363130Y0178741D02*
X0200076Y0178741D01*
X0200076Y0177742D02*
X0362435Y0177742D01*
X0361739Y0176744D02*
X0200076Y0176744D01*
X0200076Y0175745D02*
X0361044Y0175745D01*
X0360348Y0174747D02*
X0200076Y0174747D01*
X0200076Y0173748D02*
X0359653Y0173748D01*
X0358957Y0172750D02*
X0205705Y0172750D01*
X0205705Y0171751D02*
X0358262Y0171751D01*
X0357567Y0170753D02*
X0328231Y0170753D01*
X0331919Y0169764D02*
X0331919Y0169764D01*
X0331937Y0169754D02*
X0356871Y0169754D01*
X0356176Y0168756D02*
X0333666Y0168756D01*
X0335396Y0167757D02*
X0355480Y0167757D01*
X0354785Y0166759D02*
X0336941Y0166759D01*
X0337939Y0165760D02*
X0354089Y0165760D01*
X0353394Y0164762D02*
X0338938Y0164762D01*
X0339936Y0163763D02*
X0352698Y0163763D01*
X0352003Y0162765D02*
X0340786Y0162765D01*
X0340583Y0163117D02*
X0340583Y0163117D01*
X0341362Y0161766D02*
X0351307Y0161766D01*
X0350579Y0160768D02*
X0341939Y0160768D01*
X0342515Y0159769D02*
X0350352Y0159769D01*
X0350876Y0158771D02*
X0343092Y0158771D01*
X0343336Y0158348D02*
X0343336Y0158348D01*
X0343490Y0157772D02*
X0351832Y0157772D01*
X0352788Y0156774D02*
X0343758Y0156774D01*
X0344025Y0155775D02*
X0353743Y0155775D01*
X0354689Y0154777D02*
X0344293Y0154777D01*
X0344560Y0153778D02*
X0355480Y0153778D01*
X0356271Y0152780D02*
X0345198Y0152780D01*
X0346197Y0151781D02*
X0357062Y0151781D01*
X0357853Y0150783D02*
X0347195Y0150783D01*
X0347525Y0149784D02*
X0358644Y0149784D01*
X0359435Y0148786D02*
X0347576Y0148786D01*
X0348392Y0147787D02*
X0360226Y0147787D01*
X0361017Y0146789D02*
X0349158Y0146789D01*
X0349923Y0145790D02*
X0361745Y0145790D01*
X0362351Y0144792D02*
X0350689Y0144792D01*
X0351454Y0143793D02*
X0362956Y0143793D01*
X0363562Y0142795D02*
X0352220Y0142795D01*
X0352985Y0141796D02*
X0364168Y0141796D01*
X0364774Y0140798D02*
X0353751Y0140798D01*
X0354515Y0139799D02*
X0365379Y0139799D01*
X0365985Y0138801D02*
X0355080Y0138801D01*
X0355646Y0137802D02*
X0366591Y0137802D01*
X0367197Y0136803D02*
X0356212Y0136803D01*
X0356778Y0135805D02*
X0367670Y0135805D01*
X0368116Y0134806D02*
X0357343Y0134806D01*
X0357909Y0133808D02*
X0368563Y0133808D01*
X0369010Y0132809D02*
X0358475Y0132809D01*
X0359041Y0131811D02*
X0369456Y0131811D01*
X0369903Y0130812D02*
X0359606Y0130812D01*
X0360108Y0129814D02*
X0370350Y0129814D01*
X0370796Y0128815D02*
X0360503Y0128815D01*
X0360899Y0127817D02*
X0371243Y0127817D01*
X0371690Y0126818D02*
X0361294Y0126818D01*
X0361689Y0125820D02*
X0372039Y0125820D01*
X0372344Y0124821D02*
X0362084Y0124821D01*
X0362479Y0123823D02*
X0372648Y0123823D01*
X0372953Y0122824D02*
X0362875Y0122824D01*
X0363270Y0121826D02*
X0373257Y0121826D01*
X0373562Y0120827D02*
X0363665Y0120827D01*
X0364048Y0119829D02*
X0373866Y0119829D01*
X0374171Y0118830D02*
X0364291Y0118830D01*
X0364533Y0117832D02*
X0374475Y0117832D01*
X0374780Y0116833D02*
X0364776Y0116833D01*
X0365018Y0115835D02*
X0375078Y0115835D01*
X0375251Y0114836D02*
X0365261Y0114836D01*
X0365503Y0113838D02*
X0375424Y0113838D01*
X0375596Y0112839D02*
X0365746Y0112839D01*
X0365988Y0111841D02*
X0375769Y0111841D01*
X0375942Y0110842D02*
X0366231Y0110842D01*
X0366473Y0109844D02*
X0376115Y0109844D01*
X0376287Y0108845D02*
X0366670Y0108845D01*
X0366770Y0107847D02*
X0376460Y0107847D01*
X0376633Y0106848D02*
X0366870Y0106848D01*
X0366970Y0105850D02*
X0376806Y0105850D01*
X0376967Y0104851D02*
X0367070Y0104851D01*
X0367169Y0103853D02*
X0377014Y0103853D01*
X0377061Y0102854D02*
X0367269Y0102854D01*
X0367369Y0101856D02*
X0377107Y0101856D01*
X0377154Y0100857D02*
X0367469Y0100857D01*
X0367569Y0099859D02*
X0377201Y0099859D01*
X0377247Y0098860D02*
X0367669Y0098860D01*
X0367726Y0097862D02*
X0377294Y0097862D01*
X0377340Y0096863D02*
X0367688Y0096863D01*
X0367649Y0095865D02*
X0377387Y0095865D01*
X0377434Y0094866D02*
X0367610Y0094866D01*
X0367571Y0093868D02*
X0377480Y0093868D01*
X0377405Y0092869D02*
X0367532Y0092869D01*
X0367493Y0091870D02*
X0377327Y0091870D01*
X0377249Y0090872D02*
X0367454Y0090872D01*
X0367415Y0089873D02*
X0377171Y0089873D01*
X0377093Y0088875D02*
X0367377Y0088875D01*
X0367338Y0087876D02*
X0377015Y0087876D01*
X0376937Y0086878D02*
X0367265Y0086878D01*
X0367086Y0085879D02*
X0376859Y0085879D01*
X0376781Y0084881D02*
X0366907Y0084881D01*
X0366728Y0083882D02*
X0376703Y0083882D01*
X0376624Y0082884D02*
X0366549Y0082884D01*
X0366369Y0081885D02*
X0376433Y0081885D01*
X0376228Y0080887D02*
X0366190Y0080887D01*
X0366011Y0079888D02*
X0376023Y0079888D01*
X0375818Y0078890D02*
X0365832Y0078890D01*
X0365653Y0077891D02*
X0375612Y0077891D01*
X0375407Y0076893D02*
X0365474Y0076893D01*
X0365244Y0075894D02*
X0375202Y0075894D01*
X0374997Y0074896D02*
X0364917Y0074896D01*
X0364591Y0073897D02*
X0374792Y0073897D01*
X0374586Y0072899D02*
X0364264Y0072899D01*
X0363938Y0071900D02*
X0374381Y0071900D01*
X0374043Y0070902D02*
X0363611Y0070902D01*
X0363284Y0069903D02*
X0373704Y0069903D01*
X0373364Y0068905D02*
X0362958Y0068905D01*
X0362631Y0067906D02*
X0373025Y0067906D01*
X0372686Y0066908D02*
X0362305Y0066908D01*
X0361978Y0065909D02*
X0372347Y0065909D01*
X0372008Y0064911D02*
X0361519Y0064911D01*
X0361919Y0065729D02*
X0361919Y0065729D01*
X0361031Y0063912D02*
X0371669Y0063912D01*
X0371330Y0062914D02*
X0360543Y0062914D01*
X0360055Y0061915D02*
X0370991Y0061915D01*
X0370584Y0060917D02*
X0359566Y0060917D01*
X0359078Y0059918D02*
X0370099Y0059918D01*
X0369614Y0058920D02*
X0358590Y0058920D01*
X0358102Y0057921D02*
X0369130Y0057921D01*
X0368645Y0056923D02*
X0357614Y0056923D01*
X0357126Y0055924D02*
X0368160Y0055924D01*
X0367675Y0054926D02*
X0356476Y0054926D01*
X0357064Y0055797D02*
X0357064Y0055797D01*
X0355803Y0053927D02*
X0367190Y0053927D01*
X0366706Y0052929D02*
X0355129Y0052929D01*
X0354456Y0051930D02*
X0366221Y0051930D01*
X0365660Y0050932D02*
X0353782Y0050932D01*
X0353109Y0049933D02*
X0365010Y0049933D01*
X0364361Y0048934D02*
X0352436Y0048934D01*
X0351762Y0047936D02*
X0363711Y0047936D01*
X0363062Y0046937D02*
X0351089Y0046937D01*
X0350882Y0046631D02*
X0350882Y0046631D01*
X0350261Y0045939D02*
X0362413Y0045939D01*
X0361763Y0044940D02*
X0349364Y0044940D01*
X0348467Y0043942D02*
X0361114Y0043942D01*
X0360464Y0042943D02*
X0347570Y0042943D01*
X0346673Y0041945D02*
X0359788Y0041945D01*
X0358944Y0040946D02*
X0345776Y0040946D01*
X0344878Y0039948D02*
X0358101Y0039948D01*
X0357258Y0038949D02*
X0343981Y0038949D01*
X0343494Y0038407D02*
X0343494Y0038407D01*
X0343494Y0038407D01*
X0342953Y0037951D02*
X0356414Y0037951D01*
X0355571Y0036952D02*
X0341768Y0036952D01*
X0340583Y0035954D02*
X0354728Y0035954D01*
X0353884Y0034955D02*
X0339399Y0034955D01*
X0338214Y0033957D02*
X0353041Y0033957D01*
X0352044Y0032958D02*
X0337029Y0032958D01*
X0335844Y0031960D02*
X0350961Y0031960D01*
X0349878Y0030961D02*
X0334530Y0030961D01*
X0335040Y0031282D02*
X0335040Y0031282D01*
X0332944Y0029963D02*
X0348794Y0029963D01*
X0347711Y0028964D02*
X0331357Y0028964D01*
X0329770Y0027966D02*
X0346628Y0027966D01*
X0345545Y0026967D02*
X0328183Y0026967D01*
X0326597Y0025969D02*
X0344429Y0025969D01*
X0343031Y0024970D02*
X0324742Y0024970D01*
X0325684Y0025394D02*
X0325684Y0025394D01*
X0322525Y0023972D02*
X0341633Y0023972D01*
X0340234Y0022973D02*
X0320307Y0022973D01*
X0318090Y0021975D02*
X0338836Y0021975D01*
X0337438Y0020976D02*
X0315872Y0020976D01*
X0315603Y0020855D02*
X0315603Y0020855D01*
X0312603Y0019978D02*
X0336039Y0019978D01*
X0334353Y0018979D02*
X0309188Y0018979D01*
X0305773Y0017981D02*
X0332505Y0017981D01*
X0330657Y0016982D02*
X0299751Y0016982D01*
X0294054Y0016145D02*
X0294054Y0016145D01*
X0293147Y0015984D02*
X0328810Y0015984D01*
X0326962Y0014985D02*
X0292564Y0014985D01*
X0284443Y0014985D02*
X0249695Y0014985D01*
X0247876Y0015984D02*
X0283861Y0015984D01*
X0283192Y0016129D02*
X0283192Y0016129D01*
X0276938Y0016982D02*
X0246056Y0016982D01*
X0244237Y0017981D02*
X0271156Y0017981D01*
X0272693Y0017561D02*
X0272693Y0017561D01*
X0267497Y0018979D02*
X0242417Y0018979D01*
X0240621Y0019978D02*
X0263839Y0019978D01*
X0260981Y0020976D02*
X0239241Y0020976D01*
X0237862Y0021975D02*
X0258602Y0021975D01*
X0256222Y0022973D02*
X0236482Y0022973D01*
X0235103Y0023972D02*
X0253843Y0023972D01*
X0252700Y0024451D02*
X0252700Y0024451D01*
X0251811Y0024970D02*
X0233723Y0024970D01*
X0232344Y0025969D02*
X0250100Y0025969D01*
X0248389Y0026967D02*
X0231130Y0026967D01*
X0230061Y0027966D02*
X0246678Y0027966D01*
X0244966Y0028964D02*
X0228991Y0028964D01*
X0227922Y0029963D02*
X0243328Y0029963D01*
X0243548Y0029792D02*
X0243548Y0029792D01*
X0242039Y0030961D02*
X0226853Y0030961D01*
X0225784Y0031960D02*
X0240750Y0031960D01*
X0239461Y0032958D02*
X0224714Y0032958D01*
X0223645Y0033957D02*
X0238172Y0033957D01*
X0236883Y0034955D02*
X0222799Y0034955D01*
X0221967Y0035954D02*
X0235594Y0035954D01*
X0232865Y0036952D02*
X0221134Y0036952D01*
X0220302Y0037951D02*
X0231866Y0037951D01*
X0230868Y0038949D02*
X0219469Y0038949D01*
X0218637Y0039948D02*
X0229869Y0039948D01*
X0228871Y0040946D02*
X0217805Y0040946D01*
X0216972Y0041945D02*
X0227872Y0041945D01*
X0227794Y0042943D02*
X0216216Y0042943D01*
X0215576Y0043942D02*
X0227546Y0043942D01*
X0226547Y0044940D02*
X0214936Y0044940D01*
X0214295Y0045939D02*
X0225549Y0045939D01*
X0224550Y0046937D02*
X0213655Y0046937D01*
X0213015Y0047936D02*
X0223552Y0047936D01*
X0222553Y0048934D02*
X0212374Y0048934D01*
X0211734Y0049933D02*
X0221555Y0049933D01*
X0220556Y0050932D02*
X0211094Y0050932D01*
X0210458Y0051930D02*
X0219558Y0051930D01*
X0218559Y0052929D02*
X0209942Y0052929D01*
X0209426Y0053927D02*
X0217561Y0053927D01*
X0216562Y0054926D02*
X0208911Y0054926D01*
X0208395Y0055924D02*
X0215564Y0055924D01*
X0214565Y0056923D02*
X0207955Y0056923D01*
X0205195Y0056923D02*
X0164515Y0056923D01*
X0165072Y0057921D02*
X0213567Y0057921D01*
X0212568Y0058920D02*
X0165629Y0058920D01*
X0166186Y0059918D02*
X0211570Y0059918D01*
X0210571Y0060917D02*
X0166743Y0060917D01*
X0167300Y0061915D02*
X0209573Y0061915D01*
X0208574Y0062914D02*
X0167703Y0062914D01*
X0167323Y0061956D02*
X0167323Y0061956D01*
X0168099Y0063912D02*
X0207575Y0063912D01*
X0206577Y0064911D02*
X0168496Y0064911D01*
X0166417Y0067992D02*
X0150981Y0040909D01*
X0155920Y0040946D02*
X0205075Y0040946D01*
X0205075Y0039948D02*
X0155920Y0039948D01*
X0155515Y0038949D02*
X0205075Y0038949D01*
X0205075Y0037951D02*
X0155008Y0037951D01*
X0154009Y0036952D02*
X0205075Y0036952D01*
X0204980Y0035954D02*
X0147588Y0035954D01*
X0146326Y0034955D02*
X0204542Y0034955D01*
X0203886Y0033957D02*
X0145064Y0033957D01*
X0143802Y0032958D02*
X0203231Y0032958D01*
X0202199Y0031960D02*
X0142539Y0031960D01*
X0141277Y0030961D02*
X0201079Y0030961D01*
X0199129Y0029963D02*
X0139937Y0029963D01*
X0138266Y0028964D02*
X0155189Y0028964D01*
X0154029Y0027966D02*
X0136594Y0027966D01*
X0134922Y0026967D02*
X0152862Y0026967D01*
X0151696Y0025969D02*
X0133250Y0025969D01*
X0131579Y0024970D02*
X0150446Y0024970D01*
X0149029Y0023972D02*
X0129413Y0023972D01*
X0127100Y0022973D02*
X0147611Y0022973D01*
X0146194Y0021975D02*
X0124787Y0021975D01*
X0122473Y0020976D02*
X0144776Y0020976D01*
X0143359Y0019978D02*
X0119460Y0019978D01*
X0115943Y0018979D02*
X0141941Y0018979D01*
X0140122Y0017981D02*
X0112426Y0017981D01*
X0106624Y0016982D02*
X0138241Y0016982D01*
X0136360Y0015984D02*
X0100234Y0015984D01*
X0099690Y0014985D02*
X0134479Y0014985D01*
X0132598Y0013987D02*
X0057639Y0013987D01*
X0055406Y0014985D02*
X0091491Y0014985D01*
X0090947Y0015984D02*
X0053651Y0015984D01*
X0051896Y0016982D02*
X0083880Y0016982D01*
X0079923Y0017526D02*
X0079923Y0017526D01*
X0078266Y0017981D02*
X0050141Y0017981D01*
X0048386Y0018979D02*
X0074624Y0018979D01*
X0070982Y0019978D02*
X0046631Y0019978D01*
X0045185Y0020976D02*
X0068197Y0020976D01*
X0069798Y0020302D02*
X0069798Y0020302D01*
X0065826Y0021975D02*
X0043852Y0021975D01*
X0042519Y0022973D02*
X0063454Y0022973D01*
X0061083Y0023972D02*
X0041187Y0023972D01*
X0039854Y0024970D02*
X0059106Y0024970D01*
X0060122Y0024376D02*
X0060122Y0024376D01*
X0066096Y0033957D02*
X0089138Y0033957D01*
X0090060Y0032958D02*
X0068093Y0032958D01*
X0070090Y0031960D02*
X0090947Y0031960D01*
X0090947Y0030961D02*
X0072286Y0030961D01*
X0075687Y0029963D02*
X0090947Y0029963D01*
X0090947Y0028964D02*
X0079478Y0028964D01*
X0084093Y0027966D02*
X0090947Y0027966D01*
X0100040Y0033957D02*
X0124401Y0033957D01*
X0125088Y0034955D02*
X0115527Y0034955D01*
X0115549Y0035954D02*
X0125176Y0035954D01*
X0125265Y0036952D02*
X0115549Y0036952D01*
X0115549Y0037951D02*
X0125353Y0037951D01*
X0125441Y0038949D02*
X0115549Y0038949D01*
X0115549Y0039948D02*
X0124251Y0039948D01*
X0123253Y0040946D02*
X0115549Y0040946D01*
X0115549Y0041945D02*
X0122254Y0041945D01*
X0121256Y0042943D02*
X0115549Y0042943D01*
X0115549Y0043942D02*
X0120257Y0043942D01*
X0119259Y0044940D02*
X0115549Y0044940D01*
X0115499Y0045939D02*
X0118260Y0045939D01*
X0117317Y0046937D02*
X0103620Y0046937D01*
X0103021Y0047936D02*
X0117459Y0047936D01*
X0118457Y0048934D02*
X0102422Y0048934D01*
X0101822Y0049933D02*
X0119456Y0049933D01*
X0120454Y0050932D02*
X0101223Y0050932D01*
X0100624Y0051930D02*
X0121453Y0051930D01*
X0122284Y0052929D02*
X0100025Y0052929D01*
X0099426Y0053927D02*
X0123283Y0053927D01*
X0124281Y0054926D02*
X0104331Y0054926D01*
X0106342Y0055280D02*
X0106342Y0055280D01*
X0108111Y0055924D02*
X0125280Y0055924D01*
X0127224Y0056790D02*
X0127224Y0056790D01*
X0128090Y0055924D02*
X0129609Y0055924D01*
X0129855Y0054926D02*
X0129088Y0054926D01*
X0130087Y0053927D02*
X0130386Y0053927D01*
X0131085Y0052929D02*
X0131270Y0052929D01*
X0132084Y0051930D02*
X0132658Y0051930D01*
X0133082Y0050932D02*
X0147564Y0050932D01*
X0148429Y0051930D02*
X0138006Y0051930D01*
X0139452Y0052929D02*
X0149294Y0052929D01*
X0150159Y0053927D02*
X0140208Y0053927D01*
X0140732Y0054926D02*
X0150902Y0054926D01*
X0151544Y0055924D02*
X0141152Y0055924D01*
X0141152Y0056923D02*
X0152186Y0056923D01*
X0152827Y0057921D02*
X0144864Y0057921D01*
X0145863Y0058920D02*
X0153469Y0058920D01*
X0154111Y0059918D02*
X0146861Y0059918D01*
X0147860Y0060917D02*
X0154752Y0060917D01*
X0155394Y0061915D02*
X0148691Y0061915D01*
X0149690Y0062914D02*
X0155982Y0062914D01*
X0156438Y0063912D02*
X0150688Y0063912D01*
X0151687Y0064911D02*
X0156894Y0064911D01*
X0157350Y0065909D02*
X0152686Y0065909D01*
X0153313Y0066908D02*
X0157806Y0066908D01*
X0158262Y0067906D02*
X0152855Y0067906D01*
X0151856Y0068905D02*
X0158718Y0068905D01*
X0159174Y0069903D02*
X0150858Y0069903D01*
X0149859Y0070902D02*
X0159630Y0070902D01*
X0160028Y0071900D02*
X0148861Y0071900D01*
X0147862Y0072899D02*
X0160321Y0072899D01*
X0160614Y0073897D02*
X0146864Y0073897D01*
X0145865Y0074896D02*
X0160907Y0074896D01*
X0161201Y0075894D02*
X0157450Y0075894D01*
X0157754Y0076893D02*
X0161494Y0076893D01*
X0161787Y0077891D02*
X0157754Y0077891D01*
X0157754Y0078890D02*
X0162080Y0078890D01*
X0162373Y0079888D02*
X0157754Y0079888D01*
X0157754Y0080887D02*
X0162667Y0080887D01*
X0162819Y0081885D02*
X0157754Y0081885D01*
X0157754Y0082884D02*
X0162963Y0082884D01*
X0163106Y0083882D02*
X0157872Y0083882D01*
X0157872Y0084881D02*
X0163250Y0084881D01*
X0163393Y0085879D02*
X0157872Y0085879D01*
X0157872Y0086878D02*
X0163537Y0086878D01*
X0163681Y0087876D02*
X0157872Y0087876D01*
X0157872Y0088875D02*
X0163824Y0088875D01*
X0163968Y0089873D02*
X0153319Y0089873D01*
X0155150Y0090872D02*
X0164087Y0090872D01*
X0164123Y0091870D02*
X0156314Y0091870D01*
X0156838Y0092869D02*
X0164159Y0092869D01*
X0164194Y0093868D02*
X0157362Y0093868D01*
X0157491Y0094866D02*
X0164230Y0094866D01*
X0164149Y0095865D02*
X0157491Y0095865D01*
X0157491Y0096863D02*
X0163949Y0096863D01*
X0163749Y0097862D02*
X0157033Y0097862D01*
X0156509Y0098860D02*
X0163550Y0098860D01*
X0163350Y0099859D02*
X0155689Y0099859D01*
X0154242Y0100857D02*
X0163150Y0100857D01*
X0162951Y0101856D02*
X0157545Y0101856D01*
X0157872Y0102854D02*
X0162751Y0102854D01*
X0162551Y0103853D02*
X0157872Y0103853D01*
X0157872Y0104851D02*
X0162352Y0104851D01*
X0162152Y0105850D02*
X0157872Y0105850D01*
X0157872Y0106848D02*
X0161952Y0106848D01*
X0161752Y0107847D02*
X0157843Y0107847D01*
X0157754Y0108845D02*
X0161553Y0108845D01*
X0161353Y0109844D02*
X0157754Y0109844D01*
X0157754Y0110842D02*
X0161153Y0110842D01*
X0160954Y0111841D02*
X0157754Y0111841D01*
X0157754Y0112839D02*
X0160754Y0112839D01*
X0160554Y0113838D02*
X0157754Y0113838D01*
X0157754Y0114836D02*
X0160334Y0114836D01*
X0160001Y0115835D02*
X0092575Y0115835D01*
X0093272Y0116833D02*
X0159668Y0116833D01*
X0159335Y0117832D02*
X0146113Y0117832D01*
X0147111Y0118830D02*
X0159002Y0118830D01*
X0158669Y0119829D02*
X0148110Y0119829D01*
X0149108Y0120827D02*
X0158337Y0120827D01*
X0158004Y0121826D02*
X0150107Y0121826D01*
X0151105Y0122824D02*
X0157671Y0122824D01*
X0157338Y0123823D02*
X0152104Y0123823D01*
X0153102Y0124821D02*
X0157005Y0124821D01*
X0156672Y0125820D02*
X0153313Y0125820D01*
X0152438Y0126818D02*
X0156203Y0126818D01*
X0155657Y0127817D02*
X0151440Y0127817D01*
X0150441Y0128815D02*
X0155111Y0128815D01*
X0154565Y0129814D02*
X0149443Y0129814D01*
X0148444Y0130812D02*
X0154019Y0130812D01*
X0153473Y0131811D02*
X0147613Y0131811D01*
X0146614Y0132809D02*
X0152927Y0132809D01*
X0152381Y0133808D02*
X0145616Y0133808D01*
X0144617Y0134806D02*
X0151835Y0134806D01*
X0151289Y0135805D02*
X0143753Y0135805D01*
X0143696Y0136803D02*
X0150743Y0136803D01*
X0150196Y0137802D02*
X0143639Y0137802D01*
X0144383Y0138801D02*
X0149429Y0138801D01*
X0148415Y0139799D02*
X0145381Y0139799D01*
X0146380Y0140798D02*
X0147401Y0140798D01*
X0139238Y0146789D02*
X0136471Y0146789D01*
X0137467Y0147787D02*
X0140236Y0147787D01*
X0139288Y0148786D02*
X0138463Y0148786D01*
X0138239Y0145790D02*
X0135474Y0145790D01*
X0134632Y0144792D02*
X0137241Y0144792D01*
X0136242Y0143793D02*
X0135023Y0143793D01*
X0134939Y0143406D02*
X0134939Y0143406D01*
X0135388Y0142795D02*
X0134328Y0142795D01*
X0133330Y0141796D02*
X0135620Y0141796D01*
X0133310Y0140798D02*
X0132331Y0140798D01*
X0131489Y0139799D02*
X0131333Y0139799D01*
X0130605Y0138801D02*
X0130334Y0138801D01*
X0129916Y0137802D02*
X0129336Y0137802D01*
X0129670Y0136803D02*
X0128337Y0136803D01*
X0133359Y0129814D02*
X0097609Y0129814D01*
X0097404Y0128815D02*
X0137282Y0128815D01*
X0137621Y0129814D02*
X0138280Y0129814D01*
X0139067Y0130812D02*
X0139279Y0130812D01*
X0136283Y0127817D02*
X0097198Y0127817D01*
X0096992Y0126818D02*
X0135607Y0126818D01*
X0135690Y0127224D02*
X0135690Y0127224D01*
X0136016Y0125820D02*
X0096786Y0125820D01*
X0096580Y0124821D02*
X0137015Y0124821D01*
X0138013Y0123823D02*
X0096375Y0123823D01*
X0095989Y0122824D02*
X0139012Y0122824D01*
X0140177Y0121826D02*
X0095559Y0121826D01*
X0095129Y0120827D02*
X0141176Y0120827D01*
X0142174Y0119829D02*
X0094699Y0119829D01*
X0094270Y0118830D02*
X0143173Y0118830D01*
X0144171Y0117832D02*
X0093840Y0117832D01*
X0091877Y0114836D02*
X0145554Y0114836D01*
X0145554Y0113838D02*
X0091180Y0113838D01*
X0090482Y0112839D02*
X0145554Y0112839D01*
X0145554Y0111841D02*
X0089785Y0111841D01*
X0089716Y0111743D02*
X0089716Y0111743D01*
X0088765Y0110842D02*
X0145554Y0110842D01*
X0145554Y0109844D02*
X0087709Y0109844D01*
X0086654Y0108845D02*
X0145554Y0108845D01*
X0145464Y0107847D02*
X0085599Y0107847D01*
X0084751Y0107044D02*
X0084751Y0107044D01*
X0084434Y0106848D02*
X0145435Y0106848D01*
X0145435Y0105850D02*
X0082822Y0105850D01*
X0081210Y0104851D02*
X0145435Y0104851D01*
X0145435Y0103853D02*
X0079598Y0103853D01*
X0078939Y0103444D02*
X0078939Y0103444D01*
X0077329Y0102854D02*
X0145435Y0102854D01*
X0144562Y0101856D02*
X0074604Y0101856D01*
X0070946Y0100857D02*
X0143376Y0100857D01*
X0136492Y0099859D02*
X0058344Y0099859D01*
X0058933Y0100460D02*
X0058933Y0100460D01*
X0058344Y0098860D02*
X0136183Y0098860D01*
X0136183Y0097862D02*
X0058344Y0097862D01*
X0058344Y0096863D02*
X0133174Y0096863D01*
X0132758Y0095865D02*
X0058344Y0095865D01*
X0058374Y0094866D02*
X0132728Y0094866D01*
X0132685Y0093868D02*
X0058418Y0093868D01*
X0058461Y0092869D02*
X0132641Y0092869D01*
X0132539Y0091870D02*
X0058563Y0091870D01*
X0058739Y0090872D02*
X0132363Y0090872D01*
X0132187Y0089873D02*
X0058915Y0089873D01*
X0059091Y0088875D02*
X0132011Y0088875D01*
X0131835Y0087876D02*
X0059267Y0087876D01*
X0059443Y0086878D02*
X0131659Y0086878D01*
X0131475Y0085879D02*
X0059627Y0085879D01*
X0059991Y0084881D02*
X0131112Y0084881D01*
X0130748Y0083882D02*
X0060354Y0083882D01*
X0060717Y0082884D02*
X0130385Y0082884D01*
X0130022Y0081885D02*
X0061081Y0081885D01*
X0061444Y0080887D02*
X0129658Y0080887D01*
X0129295Y0079888D02*
X0061808Y0079888D01*
X0062371Y0078890D02*
X0128731Y0078890D01*
X0128155Y0077891D02*
X0062948Y0077891D01*
X0063524Y0076893D02*
X0127578Y0076893D01*
X0127002Y0075894D02*
X0064101Y0075894D01*
X0064677Y0074896D02*
X0126425Y0074896D01*
X0125767Y0073897D02*
X0065335Y0073897D01*
X0066173Y0072899D02*
X0124929Y0072899D01*
X0124091Y0071900D02*
X0067011Y0071900D01*
X0067849Y0070902D02*
X0123253Y0070902D01*
X0122416Y0069903D02*
X0068687Y0069903D01*
X0069643Y0068905D02*
X0121459Y0068905D01*
X0120269Y0067906D02*
X0070833Y0067906D01*
X0072023Y0066908D02*
X0119079Y0066908D01*
X0117889Y0065909D02*
X0073213Y0065909D01*
X0074491Y0064911D02*
X0116611Y0064911D01*
X0114882Y0063912D02*
X0076221Y0063912D01*
X0077950Y0062914D02*
X0113152Y0062914D01*
X0111423Y0061915D02*
X0079679Y0061915D01*
X0082336Y0060917D02*
X0108766Y0060917D01*
X0106022Y0059918D02*
X0085080Y0059918D01*
X0082991Y0055924D02*
X0065429Y0055924D01*
X0066427Y0054926D02*
X0086771Y0054926D01*
X0080248Y0056923D02*
X0061625Y0056923D01*
X0061625Y0057921D02*
X0077662Y0057921D01*
X0075933Y0058920D02*
X0061252Y0058920D01*
X0060728Y0059918D02*
X0074203Y0059918D01*
X0072474Y0060917D02*
X0060058Y0060917D01*
X0058611Y0061915D02*
X0071023Y0061915D01*
X0071638Y0061399D02*
X0071638Y0061399D01*
X0069833Y0062914D02*
X0053463Y0062914D01*
X0052889Y0061915D02*
X0052465Y0061915D01*
X0051661Y0060917D02*
X0051466Y0060917D01*
X0054462Y0063912D02*
X0068643Y0063912D01*
X0067453Y0064911D02*
X0055460Y0064911D01*
X0055412Y0064863D02*
X0055412Y0064863D01*
X0055444Y0065909D02*
X0066263Y0065909D01*
X0066071Y0066071D02*
X0066071Y0066071D01*
X0065368Y0066908D02*
X0054445Y0066908D01*
X0053447Y0067906D02*
X0064530Y0067906D01*
X0063693Y0068905D02*
X0052448Y0068905D01*
X0051283Y0069903D02*
X0062855Y0069903D01*
X0062017Y0070902D02*
X0050284Y0070902D01*
X0049285Y0071900D02*
X0061248Y0071900D01*
X0060671Y0072899D02*
X0048287Y0072899D01*
X0047288Y0073897D02*
X0060095Y0073897D01*
X0059518Y0074896D02*
X0030195Y0074896D01*
X0029902Y0075894D02*
X0033652Y0075894D01*
X0033349Y0076893D02*
X0029609Y0076893D01*
X0029315Y0077891D02*
X0033349Y0077891D01*
X0033349Y0078890D02*
X0029022Y0078890D01*
X0028729Y0079888D02*
X0033349Y0079888D01*
X0033349Y0080887D02*
X0028436Y0080887D01*
X0028283Y0081885D02*
X0033349Y0081885D01*
X0033349Y0082884D02*
X0028140Y0082884D01*
X0027996Y0083882D02*
X0033231Y0083882D01*
X0033231Y0084881D02*
X0027853Y0084881D01*
X0027709Y0085879D02*
X0033231Y0085879D01*
X0033231Y0086878D02*
X0027565Y0086878D01*
X0027422Y0087876D02*
X0033231Y0087876D01*
X0033231Y0088875D02*
X0027278Y0088875D01*
X0027135Y0089873D02*
X0037959Y0089873D01*
X0035796Y0090872D02*
X0027015Y0090872D01*
X0026979Y0091870D02*
X0034911Y0091870D01*
X0034098Y0092869D02*
X0026944Y0092869D01*
X0026908Y0093868D02*
X0033852Y0093868D01*
X0033606Y0094866D02*
X0026873Y0094866D01*
X0026930Y0095865D02*
X0033514Y0095865D01*
X0033760Y0096863D02*
X0027096Y0096863D01*
X0027263Y0097862D02*
X0034006Y0097862D01*
X0034582Y0098860D02*
X0027429Y0098860D01*
X0027596Y0099859D02*
X0035467Y0099859D01*
X0036978Y0100857D02*
X0027762Y0100857D01*
X0027929Y0101856D02*
X0033557Y0101856D01*
X0033231Y0102854D02*
X0028095Y0102854D01*
X0028261Y0103853D02*
X0033231Y0103853D01*
X0033231Y0104851D02*
X0028428Y0104851D01*
X0028594Y0105850D02*
X0033231Y0105850D01*
X0033231Y0106848D02*
X0028761Y0106848D01*
X0028927Y0107847D02*
X0033260Y0107847D01*
X0033349Y0108845D02*
X0029094Y0108845D01*
X0029260Y0109844D02*
X0033349Y0109844D01*
X0033349Y0110842D02*
X0029426Y0110842D01*
X0029593Y0111841D02*
X0033349Y0111841D01*
X0033349Y0112839D02*
X0029759Y0112839D01*
X0029926Y0113838D02*
X0033349Y0113838D01*
X0033349Y0114836D02*
X0030092Y0114836D01*
X0030258Y0115835D02*
X0087114Y0115835D01*
X0086417Y0114836D02*
X0045549Y0114836D01*
X0045549Y0113838D02*
X0085417Y0113838D01*
X0084362Y0112839D02*
X0045549Y0112839D01*
X0045549Y0111841D02*
X0083307Y0111841D01*
X0082252Y0110842D02*
X0045549Y0110842D01*
X0045549Y0109844D02*
X0080769Y0109844D01*
X0079157Y0108845D02*
X0045549Y0108845D01*
X0045638Y0107847D02*
X0077545Y0107847D01*
X0075217Y0106848D02*
X0045667Y0106848D01*
X0045340Y0101856D02*
X0049775Y0101856D01*
X0046728Y0099859D02*
X0043484Y0099859D01*
X0044304Y0098860D02*
X0046420Y0098860D01*
X0046420Y0097862D02*
X0044828Y0097862D01*
X0045286Y0096863D02*
X0046420Y0096863D01*
X0046420Y0095865D02*
X0045286Y0095865D01*
X0045286Y0094866D02*
X0046420Y0094866D01*
X0045312Y0093868D02*
X0045157Y0093868D01*
X0048471Y0090872D02*
X0054202Y0090872D01*
X0054379Y0089873D02*
X0047285Y0089873D01*
X0046099Y0088875D02*
X0054555Y0088875D01*
X0054731Y0087876D02*
X0045667Y0087876D01*
X0045667Y0086878D02*
X0054907Y0086878D01*
X0055083Y0085879D02*
X0045667Y0085879D01*
X0045667Y0084881D02*
X0055259Y0084881D01*
X0055600Y0083882D02*
X0045667Y0083882D01*
X0045549Y0082884D02*
X0055963Y0082884D01*
X0056327Y0081885D02*
X0045549Y0081885D01*
X0045549Y0080887D02*
X0056690Y0080887D01*
X0057053Y0079888D02*
X0045549Y0079888D01*
X0045549Y0078890D02*
X0057417Y0078890D01*
X0057789Y0077891D02*
X0045549Y0077891D01*
X0045549Y0076893D02*
X0058365Y0076893D01*
X0058942Y0075894D02*
X0045245Y0075894D01*
X0044632Y0073897D02*
X0030488Y0073897D01*
X0030781Y0072899D02*
X0043634Y0072899D01*
X0042635Y0071900D02*
X0031075Y0071900D01*
X0031472Y0070902D02*
X0041637Y0070902D01*
X0040638Y0069903D02*
X0031928Y0069903D01*
X0032384Y0068905D02*
X0039640Y0068905D01*
X0038641Y0067906D02*
X0032840Y0067906D01*
X0033296Y0066908D02*
X0037789Y0066908D01*
X0038023Y0065909D02*
X0033752Y0065909D01*
X0034208Y0064911D02*
X0039022Y0064911D01*
X0040020Y0063912D02*
X0034664Y0063912D01*
X0035120Y0062914D02*
X0041019Y0062914D01*
X0042017Y0061915D02*
X0035708Y0061915D01*
X0036350Y0060917D02*
X0042849Y0060917D01*
X0043847Y0059918D02*
X0036992Y0059918D01*
X0037633Y0058920D02*
X0044846Y0058920D01*
X0045844Y0057921D02*
X0038275Y0057921D01*
X0038917Y0056923D02*
X0046919Y0056923D01*
X0046915Y0055924D02*
X0039558Y0055924D01*
X0040200Y0054926D02*
X0046911Y0054926D01*
X0046612Y0053927D02*
X0040943Y0053927D01*
X0041808Y0052929D02*
X0045614Y0052929D01*
X0044615Y0051930D02*
X0042673Y0051930D01*
X0043539Y0050932D02*
X0043617Y0050932D01*
X0060363Y0052929D02*
X0060411Y0052929D01*
X0060887Y0053927D02*
X0061409Y0053927D01*
X0061411Y0054926D02*
X0062408Y0054926D01*
X0061625Y0055924D02*
X0063406Y0055924D01*
X0063878Y0056396D02*
X0063878Y0056396D01*
X0067426Y0053927D02*
X0094381Y0053927D01*
X0094980Y0052929D02*
X0068424Y0052929D01*
X0069256Y0051930D02*
X0095579Y0051930D01*
X0096178Y0050932D02*
X0070254Y0050932D01*
X0071253Y0049933D02*
X0096778Y0049933D01*
X0097377Y0048934D02*
X0072251Y0048934D01*
X0073250Y0047936D02*
X0097976Y0047936D01*
X0098575Y0046937D02*
X0073786Y0046937D01*
X0073236Y0045939D02*
X0075604Y0045939D01*
X0075554Y0044940D02*
X0072237Y0044940D01*
X0071239Y0043942D02*
X0075554Y0043942D01*
X0075554Y0042943D02*
X0070240Y0042943D01*
X0069242Y0041945D02*
X0075554Y0041945D01*
X0075554Y0040946D02*
X0068243Y0040946D01*
X0067245Y0039948D02*
X0075554Y0039948D01*
X0075554Y0038949D02*
X0066246Y0038949D01*
X0064983Y0038949D02*
X0059699Y0038949D01*
X0059237Y0037951D02*
X0075554Y0037951D01*
X0075554Y0036952D02*
X0060105Y0036952D01*
X0062102Y0035954D02*
X0075554Y0035954D01*
X0075576Y0034955D02*
X0064099Y0034955D01*
X0063984Y0039948D02*
X0060161Y0039948D01*
X0060623Y0040946D02*
X0062986Y0040946D01*
X0061987Y0041945D02*
X0061084Y0041945D01*
X0089565Y0041945D02*
X0089912Y0041945D01*
X0090158Y0042943D02*
X0089565Y0042943D01*
X0089565Y0043942D02*
X0090861Y0043942D01*
X0091746Y0044940D02*
X0089565Y0044940D01*
X0089565Y0045939D02*
X0093608Y0045939D01*
X0097850Y0045939D02*
X0099174Y0045939D01*
X0099297Y0044940D02*
X0099773Y0044940D01*
X0100302Y0043942D02*
X0100372Y0043942D01*
X0100826Y0042943D02*
X0100971Y0042943D01*
X0101350Y0041945D02*
X0101538Y0041945D01*
X0101538Y0040946D02*
X0101388Y0040946D01*
X0101388Y0039948D02*
X0101538Y0039948D01*
X0101538Y0038949D02*
X0101365Y0038949D01*
X0101538Y0037951D02*
X0100841Y0037951D01*
X0100317Y0036952D02*
X0101538Y0036952D01*
X0101538Y0035954D02*
X0099337Y0035954D01*
X0097891Y0034955D02*
X0101538Y0034955D01*
X0100234Y0032958D02*
X0121405Y0032958D01*
X0118410Y0031960D02*
X0100234Y0031960D01*
X0100234Y0030961D02*
X0115414Y0030961D01*
X0113081Y0029963D02*
X0100234Y0029963D01*
X0100234Y0028964D02*
X0111084Y0028964D01*
X0107009Y0027966D02*
X0100234Y0027966D01*
X0089666Y0040946D02*
X0089565Y0040946D01*
X0110855Y0056923D02*
X0129363Y0056923D01*
X0129489Y0057921D02*
X0113440Y0057921D01*
X0113171Y0057766D02*
X0113171Y0057766D01*
X0115170Y0058920D02*
X0126679Y0058920D01*
X0125681Y0059918D02*
X0116899Y0059918D01*
X0118629Y0060917D02*
X0124682Y0060917D01*
X0123684Y0061915D02*
X0120079Y0061915D01*
X0119465Y0061399D02*
X0119465Y0061399D01*
X0121269Y0062914D02*
X0122685Y0062914D01*
X0128276Y0058920D02*
X0129736Y0058920D01*
X0129982Y0059918D02*
X0129274Y0059918D01*
X0130273Y0060917D02*
X0130840Y0060917D01*
X0131271Y0061915D02*
X0131725Y0061915D01*
X0132823Y0065909D02*
X0135607Y0065909D01*
X0136264Y0066908D02*
X0131824Y0066908D01*
X0130826Y0067906D02*
X0137262Y0067906D01*
X0138261Y0068905D02*
X0129827Y0068905D01*
X0128829Y0069903D02*
X0139259Y0069903D01*
X0140425Y0070902D02*
X0129085Y0070902D01*
X0129703Y0071638D02*
X0129703Y0071638D01*
X0129855Y0071900D02*
X0141423Y0071900D01*
X0142422Y0072899D02*
X0130431Y0072899D01*
X0131008Y0073897D02*
X0143420Y0073897D01*
X0144419Y0074896D02*
X0131584Y0074896D01*
X0132161Y0075894D02*
X0145857Y0075894D01*
X0145554Y0076893D02*
X0132737Y0076893D01*
X0133313Y0077891D02*
X0145554Y0077891D01*
X0145554Y0078890D02*
X0133685Y0078890D01*
X0134049Y0079888D02*
X0145554Y0079888D01*
X0145554Y0080887D02*
X0134412Y0080887D01*
X0134776Y0081885D02*
X0145554Y0081885D01*
X0145554Y0082884D02*
X0135139Y0082884D01*
X0135503Y0083882D02*
X0145435Y0083882D01*
X0141548Y0084881D02*
X0135843Y0084881D01*
X0135822Y0084761D02*
X0135822Y0084761D01*
X0137084Y0089873D02*
X0150164Y0089873D01*
X0148001Y0090872D02*
X0137084Y0090872D01*
X0144683Y0091870D02*
X0147116Y0091870D01*
X0146303Y0092869D02*
X0144683Y0092869D01*
X0144683Y0093868D02*
X0146057Y0093868D01*
X0145811Y0094866D02*
X0144683Y0094866D01*
X0144683Y0095865D02*
X0145719Y0095865D01*
X0145965Y0096863D02*
X0145349Y0096863D01*
X0145278Y0088875D02*
X0145435Y0088875D01*
X0173713Y0081608D02*
X0171176Y0071633D01*
X0171176Y0071633D01*
X0170947Y0071061D01*
X0208445Y0071061D01*
X0209573Y0070593D01*
X0210436Y0069730D01*
X0232509Y0047658D01*
X0232888Y0048038D01*
X0233004Y0048038D01*
X0229852Y0051675D01*
X0229852Y0051675D01*
X0224205Y0060463D01*
X0224205Y0060463D01*
X0219865Y0069965D01*
X0219865Y0069965D01*
X0216922Y0079988D01*
X0216922Y0079988D01*
X0215435Y0090328D01*
X0215435Y0094830D01*
X0215330Y0094970D01*
X0215435Y0095705D01*
X0215435Y0096447D01*
X0215559Y0096571D01*
X0219342Y0123049D01*
X0219239Y0123565D01*
X0219464Y0123902D01*
X0219521Y0124303D01*
X0219941Y0124618D01*
X0233819Y0145435D01*
X0193750Y0156363D01*
X0193211Y0156331D01*
X0193155Y0156380D01*
X0147633Y0156380D01*
X0142742Y0151456D01*
X0143328Y0150879D01*
X0148282Y0155832D01*
X0149193Y0155832D01*
X0154848Y0150177D01*
X0154848Y0149266D01*
X0154511Y0148928D01*
X0154843Y0148605D01*
X0154843Y0148605D01*
X0161212Y0140520D01*
X0161212Y0140520D01*
X0166471Y0131672D01*
X0166471Y0131672D01*
X0170531Y0122214D01*
X0170531Y0122214D01*
X0173321Y0112307D01*
X0173321Y0112307D01*
X0174795Y0102121D01*
X0174795Y0102121D01*
X0174926Y0091829D01*
X0174926Y0091829D01*
X0173713Y0081608D01*
X0173713Y0081608D01*
X0173745Y0081885D02*
X0216649Y0081885D01*
X0216793Y0080887D02*
X0173529Y0080887D01*
X0173275Y0079888D02*
X0216951Y0079888D01*
X0217245Y0078890D02*
X0173021Y0078890D01*
X0172767Y0077891D02*
X0217538Y0077891D01*
X0217831Y0076893D02*
X0172513Y0076893D01*
X0172259Y0075894D02*
X0218124Y0075894D01*
X0218417Y0074896D02*
X0172005Y0074896D01*
X0171751Y0073897D02*
X0218711Y0073897D01*
X0219004Y0072899D02*
X0171497Y0072899D01*
X0171243Y0071900D02*
X0219297Y0071900D01*
X0219590Y0070902D02*
X0208829Y0070902D01*
X0210263Y0069903D02*
X0219893Y0069903D01*
X0220349Y0068905D02*
X0211262Y0068905D01*
X0212260Y0067906D02*
X0220805Y0067906D01*
X0221261Y0066908D02*
X0213259Y0066908D01*
X0214257Y0065909D02*
X0221717Y0065909D01*
X0222173Y0064911D02*
X0215256Y0064911D01*
X0216255Y0063912D02*
X0222629Y0063912D01*
X0223085Y0062914D02*
X0217253Y0062914D01*
X0218252Y0061915D02*
X0223541Y0061915D01*
X0223997Y0060917D02*
X0219250Y0060917D01*
X0220249Y0059918D02*
X0224555Y0059918D01*
X0225196Y0058920D02*
X0221247Y0058920D01*
X0222246Y0057921D02*
X0225838Y0057921D01*
X0226480Y0056923D02*
X0223244Y0056923D01*
X0224243Y0055924D02*
X0227121Y0055924D01*
X0227763Y0054926D02*
X0225241Y0054926D01*
X0226240Y0053927D02*
X0228405Y0053927D01*
X0229047Y0052929D02*
X0227238Y0052929D01*
X0228237Y0051930D02*
X0229688Y0051930D01*
X0229235Y0050932D02*
X0230496Y0050932D01*
X0230234Y0049933D02*
X0231362Y0049933D01*
X0231232Y0048934D02*
X0232227Y0048934D01*
X0232231Y0047936D02*
X0232787Y0047936D01*
X0235587Y0051930D02*
X0236781Y0051930D01*
X0237779Y0052929D02*
X0234722Y0052929D01*
X0233856Y0053927D02*
X0238778Y0053927D01*
X0239473Y0054926D02*
X0233114Y0054926D01*
X0232472Y0055924D02*
X0239517Y0055924D01*
X0239562Y0056923D02*
X0231830Y0056923D01*
X0231188Y0057921D02*
X0238758Y0057921D01*
X0237759Y0058920D02*
X0230547Y0058920D01*
X0229905Y0059918D02*
X0236761Y0059918D01*
X0235762Y0060917D02*
X0229263Y0060917D01*
X0228622Y0061915D02*
X0234931Y0061915D01*
X0233932Y0062914D02*
X0228034Y0062914D01*
X0227578Y0063912D02*
X0232934Y0063912D01*
X0231935Y0064911D02*
X0227122Y0064911D01*
X0226666Y0065909D02*
X0230937Y0065909D01*
X0230703Y0066908D02*
X0226210Y0066908D01*
X0225754Y0067906D02*
X0231554Y0067906D01*
X0232553Y0068905D02*
X0225298Y0068905D01*
X0224842Y0069903D02*
X0233551Y0069903D01*
X0234550Y0070902D02*
X0224386Y0070902D01*
X0223988Y0071900D02*
X0235548Y0071900D01*
X0236547Y0072899D02*
X0223695Y0072899D01*
X0223402Y0073897D02*
X0237546Y0073897D01*
X0240202Y0073897D02*
X0253008Y0073897D01*
X0253585Y0072899D02*
X0241200Y0072899D01*
X0242199Y0071900D02*
X0254161Y0071900D01*
X0254930Y0070902D02*
X0243197Y0070902D01*
X0244196Y0069903D02*
X0255768Y0069903D01*
X0256606Y0068905D02*
X0245361Y0068905D01*
X0246360Y0067906D02*
X0257444Y0067906D01*
X0258282Y0066908D02*
X0247358Y0066908D01*
X0248357Y0065909D02*
X0259177Y0065909D01*
X0260366Y0064911D02*
X0248373Y0064911D01*
X0248325Y0064863D02*
X0248325Y0064863D01*
X0247375Y0063912D02*
X0261556Y0063912D01*
X0262746Y0062914D02*
X0246376Y0062914D01*
X0245802Y0061915D02*
X0245378Y0061915D01*
X0244575Y0060917D02*
X0244379Y0060917D01*
X0251525Y0061915D02*
X0263936Y0061915D01*
X0265387Y0060917D02*
X0252971Y0060917D01*
X0253642Y0059918D02*
X0267117Y0059918D01*
X0268846Y0058920D02*
X0254166Y0058920D01*
X0254538Y0057921D02*
X0270576Y0057921D01*
X0270845Y0057766D02*
X0270845Y0057766D01*
X0273161Y0056923D02*
X0254538Y0056923D01*
X0254538Y0055924D02*
X0256320Y0055924D01*
X0255321Y0054926D02*
X0254324Y0054926D01*
X0254323Y0053927D02*
X0253800Y0053927D01*
X0253324Y0052929D02*
X0253276Y0052929D01*
X0258342Y0055924D02*
X0275905Y0055924D01*
X0277674Y0055280D02*
X0277674Y0055280D01*
X0279684Y0054926D02*
X0259341Y0054926D01*
X0260339Y0053927D02*
X0287295Y0053927D01*
X0287894Y0052929D02*
X0261338Y0052929D01*
X0262169Y0051930D02*
X0288493Y0051930D01*
X0289092Y0050932D02*
X0263168Y0050932D01*
X0264166Y0049933D02*
X0289691Y0049933D01*
X0290290Y0048934D02*
X0265165Y0048934D01*
X0266163Y0047936D02*
X0290889Y0047936D01*
X0291488Y0046937D02*
X0266699Y0046937D01*
X0266149Y0045939D02*
X0268517Y0045939D01*
X0268467Y0044940D02*
X0265151Y0044940D01*
X0264152Y0043942D02*
X0268467Y0043942D01*
X0268467Y0042943D02*
X0263153Y0042943D01*
X0262155Y0041945D02*
X0268467Y0041945D01*
X0268467Y0040946D02*
X0261156Y0040946D01*
X0260158Y0039948D02*
X0268467Y0039948D01*
X0268467Y0038949D02*
X0259159Y0038949D01*
X0257896Y0038949D02*
X0252612Y0038949D01*
X0252150Y0037951D02*
X0268467Y0037951D01*
X0268467Y0036952D02*
X0253018Y0036952D01*
X0255015Y0035954D02*
X0268467Y0035954D01*
X0268489Y0034955D02*
X0257012Y0034955D01*
X0259010Y0033957D02*
X0282069Y0033957D01*
X0282995Y0032958D02*
X0261007Y0032958D01*
X0263004Y0031960D02*
X0283861Y0031960D01*
X0283861Y0030961D02*
X0265199Y0030961D01*
X0268600Y0029963D02*
X0283861Y0029963D01*
X0283861Y0028964D02*
X0272392Y0028964D01*
X0277007Y0027966D02*
X0283861Y0027966D01*
X0293147Y0027966D02*
X0299922Y0027966D01*
X0304537Y0028964D02*
X0293147Y0028964D01*
X0293147Y0029963D02*
X0308329Y0029963D01*
X0311730Y0030961D02*
X0293147Y0030961D01*
X0293147Y0031960D02*
X0313926Y0031960D01*
X0315923Y0032958D02*
X0293147Y0032958D01*
X0292992Y0033957D02*
X0317920Y0033957D01*
X0319917Y0034955D02*
X0308440Y0034955D01*
X0308462Y0035954D02*
X0321914Y0035954D01*
X0323911Y0036952D02*
X0308462Y0036952D01*
X0308462Y0037951D02*
X0324779Y0037951D01*
X0324317Y0038949D02*
X0319033Y0038949D01*
X0317770Y0038949D02*
X0308462Y0038949D01*
X0308462Y0039948D02*
X0316771Y0039948D01*
X0315773Y0040946D02*
X0308462Y0040946D01*
X0308462Y0041945D02*
X0314774Y0041945D01*
X0313776Y0042943D02*
X0308462Y0042943D01*
X0308462Y0043942D02*
X0312777Y0043942D01*
X0311779Y0044940D02*
X0308462Y0044940D01*
X0308412Y0045939D02*
X0310780Y0045939D01*
X0310230Y0046937D02*
X0296533Y0046937D01*
X0295934Y0047936D02*
X0310766Y0047936D01*
X0311765Y0048934D02*
X0295335Y0048934D01*
X0294736Y0049933D02*
X0312763Y0049933D01*
X0313762Y0050932D02*
X0294137Y0050932D01*
X0293538Y0051930D02*
X0314760Y0051930D01*
X0315592Y0052929D02*
X0292939Y0052929D01*
X0292339Y0053927D02*
X0316590Y0053927D01*
X0317589Y0054926D02*
X0297245Y0054926D01*
X0301025Y0055924D02*
X0318587Y0055924D01*
X0320137Y0056396D02*
X0320137Y0056396D01*
X0320610Y0055924D02*
X0322425Y0055924D01*
X0322254Y0056923D02*
X0303768Y0056923D01*
X0306084Y0057766D02*
X0306084Y0057766D01*
X0306353Y0057921D02*
X0322500Y0057921D01*
X0322746Y0058920D02*
X0321150Y0058920D01*
X0319789Y0058920D02*
X0308083Y0058920D01*
X0309812Y0059918D02*
X0318791Y0059918D01*
X0317792Y0060917D02*
X0311542Y0060917D01*
X0312378Y0061399D02*
X0312378Y0061399D01*
X0312993Y0061915D02*
X0316794Y0061915D01*
X0315795Y0062914D02*
X0314183Y0062914D01*
X0309525Y0064911D02*
X0267404Y0064911D01*
X0266127Y0065909D02*
X0310802Y0065909D01*
X0311992Y0066908D02*
X0264937Y0066908D01*
X0263747Y0067906D02*
X0313182Y0067906D01*
X0314372Y0068905D02*
X0262557Y0068905D01*
X0261600Y0069903D02*
X0315329Y0069903D01*
X0316167Y0070902D02*
X0260762Y0070902D01*
X0259924Y0071900D02*
X0317005Y0071900D01*
X0317843Y0072899D02*
X0259087Y0072899D01*
X0258249Y0073897D02*
X0318680Y0073897D01*
X0319339Y0074896D02*
X0257590Y0074896D01*
X0257014Y0075894D02*
X0319915Y0075894D01*
X0320492Y0076893D02*
X0256437Y0076893D01*
X0255861Y0077891D02*
X0321068Y0077891D01*
X0321645Y0078890D02*
X0255284Y0078890D01*
X0254721Y0079888D02*
X0322208Y0079888D01*
X0322571Y0080887D02*
X0254358Y0080887D01*
X0253994Y0081885D02*
X0322935Y0081885D01*
X0323298Y0082884D02*
X0253631Y0082884D01*
X0253267Y0083882D02*
X0323662Y0083882D01*
X0324025Y0084881D02*
X0252904Y0084881D01*
X0252541Y0085879D02*
X0324389Y0085879D01*
X0324573Y0086878D02*
X0252357Y0086878D01*
X0252181Y0087876D02*
X0324749Y0087876D01*
X0324925Y0088875D02*
X0252004Y0088875D01*
X0251828Y0089873D02*
X0325101Y0089873D01*
X0325277Y0090872D02*
X0251652Y0090872D01*
X0251476Y0091870D02*
X0325453Y0091870D01*
X0325555Y0092869D02*
X0251375Y0092869D01*
X0251331Y0093868D02*
X0325598Y0093868D01*
X0325642Y0094866D02*
X0251287Y0094866D01*
X0251257Y0095865D02*
X0325672Y0095865D01*
X0326088Y0096863D02*
X0251257Y0096863D01*
X0251257Y0097862D02*
X0329176Y0097862D01*
X0329176Y0098860D02*
X0251257Y0098860D01*
X0251257Y0099859D02*
X0329445Y0099859D01*
X0335900Y0100857D02*
X0251257Y0100857D01*
X0251257Y0101856D02*
X0336970Y0101856D01*
X0338041Y0102854D02*
X0251257Y0102854D01*
X0251383Y0103853D02*
X0338349Y0103853D01*
X0338349Y0104851D02*
X0251582Y0104851D01*
X0251791Y0105850D02*
X0338349Y0105850D01*
X0338349Y0106848D02*
X0252149Y0106848D01*
X0252507Y0107847D02*
X0338349Y0107847D01*
X0338392Y0108845D02*
X0252864Y0108845D01*
X0253222Y0109844D02*
X0338467Y0109844D01*
X0338467Y0110842D02*
X0253580Y0110842D01*
X0254160Y0111841D02*
X0338467Y0111841D01*
X0338467Y0112839D02*
X0254759Y0112839D01*
X0255358Y0113838D02*
X0338467Y0113838D01*
X0338467Y0114836D02*
X0255957Y0114836D01*
X0256629Y0115835D02*
X0338467Y0115835D01*
X0339040Y0118830D02*
X0352938Y0118830D01*
X0353340Y0117832D02*
X0258440Y0117832D01*
X0259346Y0118830D02*
X0337071Y0118830D01*
X0336072Y0119829D02*
X0260311Y0119829D01*
X0261528Y0120827D02*
X0335074Y0120827D01*
X0334075Y0121826D02*
X0262805Y0121826D01*
X0263679Y0122824D02*
X0333077Y0122824D01*
X0331911Y0123823D02*
X0264677Y0123823D01*
X0265676Y0124821D02*
X0330912Y0124821D01*
X0329914Y0125820D02*
X0266674Y0125820D01*
X0267673Y0126818D02*
X0328915Y0126818D01*
X0328520Y0127817D02*
X0268671Y0127817D01*
X0269670Y0128815D02*
X0329211Y0128815D01*
X0328604Y0128208D02*
X0328604Y0128208D01*
X0330209Y0129814D02*
X0270668Y0129814D01*
X0271667Y0130812D02*
X0326235Y0130812D01*
X0324406Y0131811D02*
X0272665Y0131811D01*
X0273664Y0132809D02*
X0323522Y0132809D01*
X0322831Y0133808D02*
X0274662Y0133808D01*
X0274880Y0134025D02*
X0274880Y0134025D01*
X0275661Y0134806D02*
X0322584Y0134806D01*
X0322338Y0135805D02*
X0276293Y0135805D01*
X0275834Y0134980D02*
X0275834Y0134980D01*
X0276849Y0136803D02*
X0318930Y0136803D01*
X0320266Y0136803D02*
X0322341Y0136803D01*
X0322587Y0137802D02*
X0321265Y0137802D01*
X0322263Y0138801D02*
X0322833Y0138801D01*
X0323262Y0139799D02*
X0323531Y0139799D01*
X0324260Y0140798D02*
X0324415Y0140798D01*
X0325259Y0141796D02*
X0326261Y0141796D01*
X0326257Y0142795D02*
X0328065Y0142795D01*
X0328644Y0143793D02*
X0327256Y0143793D01*
X0327853Y0144390D02*
X0327853Y0144390D01*
X0328244Y0144792D02*
X0329642Y0144792D01*
X0329764Y0145790D02*
X0330641Y0145790D01*
X0331284Y0146789D02*
X0331639Y0146789D01*
X0326445Y0148786D02*
X0324536Y0148786D01*
X0323370Y0149784D02*
X0327965Y0149784D01*
X0329485Y0150783D02*
X0322372Y0150783D01*
X0321373Y0151781D02*
X0331005Y0151781D01*
X0334758Y0151781D02*
X0336632Y0151781D01*
X0337630Y0152780D02*
X0320375Y0152780D01*
X0319376Y0153778D02*
X0338076Y0153778D01*
X0337808Y0154777D02*
X0275506Y0154777D01*
X0274852Y0155728D02*
X0274852Y0155728D01*
X0274852Y0155728D01*
X0274795Y0155775D02*
X0337541Y0155775D01*
X0337012Y0156774D02*
X0273587Y0156774D01*
X0272379Y0157772D02*
X0336436Y0157772D01*
X0335859Y0158771D02*
X0270978Y0158771D01*
X0268701Y0159769D02*
X0335073Y0159769D01*
X0334074Y0160768D02*
X0264541Y0160768D01*
X0262823Y0161002D02*
X0262823Y0161002D01*
X0261182Y0160768D02*
X0223390Y0160768D01*
X0219681Y0160768D02*
X0196011Y0160768D01*
X0195951Y0161766D02*
X0333076Y0161766D01*
X0331516Y0162765D02*
X0205155Y0162765D01*
X0205705Y0163763D02*
X0329787Y0163763D01*
X0326390Y0164762D02*
X0205705Y0164762D01*
X0201656Y0162765D02*
X0200155Y0162765D01*
X0200705Y0163763D02*
X0201106Y0163763D01*
X0201106Y0164762D02*
X0200705Y0164762D01*
X0200705Y0165760D02*
X0201106Y0165760D01*
X0200761Y0169754D02*
X0200705Y0169754D01*
X0200705Y0170753D02*
X0201106Y0170753D01*
X0201106Y0171751D02*
X0200705Y0171751D01*
X0200705Y0172750D02*
X0201106Y0172750D01*
X0197702Y0159769D02*
X0218921Y0159769D01*
X0218651Y0158771D02*
X0201363Y0158771D01*
X0205024Y0157772D02*
X0218733Y0157772D01*
X0219226Y0156774D02*
X0208685Y0156774D01*
X0212347Y0155775D02*
X0220681Y0155775D01*
X0222390Y0155775D02*
X0266756Y0155775D01*
X0269033Y0154777D02*
X0216008Y0154777D01*
X0219669Y0153778D02*
X0257553Y0153778D01*
X0256555Y0152780D02*
X0223330Y0152780D01*
X0226992Y0151781D02*
X0255556Y0151781D01*
X0254558Y0150783D02*
X0230653Y0150783D01*
X0234314Y0149784D02*
X0253559Y0149784D01*
X0252394Y0148786D02*
X0238103Y0148786D01*
X0242851Y0147787D02*
X0251395Y0147787D01*
X0250396Y0146789D02*
X0247668Y0146789D01*
X0245623Y0142795D02*
X0237258Y0142795D01*
X0237924Y0143793D02*
X0240806Y0143793D01*
X0236592Y0141796D02*
X0246734Y0141796D01*
X0244888Y0140798D02*
X0235927Y0140798D01*
X0235261Y0139799D02*
X0244003Y0139799D01*
X0243305Y0138801D02*
X0234595Y0138801D01*
X0233930Y0137802D02*
X0243059Y0137802D01*
X0242813Y0136803D02*
X0233264Y0136803D01*
X0232598Y0135805D02*
X0239413Y0135805D01*
X0240610Y0135924D02*
X0240610Y0135924D01*
X0240729Y0135805D02*
X0242811Y0135805D01*
X0243057Y0134806D02*
X0241727Y0134806D01*
X0242726Y0133808D02*
X0243303Y0133808D01*
X0243724Y0132809D02*
X0243994Y0132809D01*
X0244723Y0131811D02*
X0244879Y0131811D01*
X0251027Y0130812D02*
X0254449Y0130812D01*
X0255447Y0131811D02*
X0252474Y0131811D01*
X0253461Y0132809D02*
X0256446Y0132809D01*
X0257891Y0132809D02*
X0267546Y0132809D01*
X0266547Y0131811D02*
X0258890Y0131811D01*
X0259888Y0130812D02*
X0265549Y0130812D01*
X0264550Y0129814D02*
X0260887Y0129814D01*
X0261885Y0128815D02*
X0263552Y0128815D01*
X0268544Y0133808D02*
X0253985Y0133808D01*
X0254510Y0134806D02*
X0269543Y0134806D01*
X0270541Y0135805D02*
X0254538Y0135805D01*
X0254538Y0136803D02*
X0256663Y0136803D01*
X0256792Y0136675D02*
X0256792Y0136675D01*
X0257999Y0136803D02*
X0271494Y0136803D01*
X0272325Y0137802D02*
X0258997Y0137802D01*
X0259996Y0138801D02*
X0272880Y0138801D01*
X0273436Y0139799D02*
X0260994Y0139799D01*
X0261826Y0140798D02*
X0273903Y0140798D01*
X0274137Y0141796D02*
X0262824Y0141796D01*
X0263823Y0142795D02*
X0274371Y0142795D01*
X0274576Y0143793D02*
X0264821Y0143793D01*
X0265820Y0144792D02*
X0274529Y0144792D01*
X0274482Y0145790D02*
X0266699Y0145790D01*
X0266492Y0146789D02*
X0274435Y0146789D01*
X0274142Y0147787D02*
X0265494Y0147787D01*
X0264495Y0148786D02*
X0273805Y0148786D01*
X0273469Y0149784D02*
X0263497Y0149784D01*
X0262498Y0150783D02*
X0272866Y0150783D01*
X0272179Y0151781D02*
X0261500Y0151781D01*
X0260501Y0152780D02*
X0271452Y0152780D01*
X0270244Y0153778D02*
X0259503Y0153778D01*
X0267275Y0160395D02*
X0267275Y0160395D01*
X0276193Y0153778D02*
X0317426Y0153778D01*
X0316428Y0152780D02*
X0276880Y0152780D01*
X0277398Y0152026D02*
X0277398Y0152026D01*
X0277481Y0151781D02*
X0315429Y0151781D01*
X0314431Y0150783D02*
X0277817Y0150783D01*
X0278153Y0149784D02*
X0313432Y0149784D01*
X0312434Y0148786D02*
X0278490Y0148786D01*
X0278826Y0147787D02*
X0311435Y0147787D01*
X0310437Y0146789D02*
X0278879Y0146789D01*
X0278832Y0147768D02*
X0278832Y0147768D01*
X0278926Y0145790D02*
X0310230Y0145790D01*
X0311109Y0144792D02*
X0278973Y0144792D01*
X0279020Y0143793D02*
X0312108Y0143793D01*
X0313106Y0142795D02*
X0278931Y0142795D01*
X0279045Y0143280D02*
X0279045Y0143280D01*
X0278697Y0141796D02*
X0314105Y0141796D01*
X0315103Y0140798D02*
X0278463Y0140798D01*
X0278229Y0139799D02*
X0315935Y0139799D01*
X0316933Y0138801D02*
X0277960Y0138801D01*
X0278019Y0138906D02*
X0278019Y0138906D01*
X0277405Y0137802D02*
X0317932Y0137802D01*
X0330555Y0130812D02*
X0331208Y0130812D01*
X0336061Y0135805D02*
X0336200Y0135805D01*
X0336319Y0135924D02*
X0336319Y0135924D01*
X0336061Y0136803D02*
X0343148Y0136803D01*
X0343925Y0135805D02*
X0337516Y0135805D01*
X0338515Y0134806D02*
X0344703Y0134806D01*
X0345391Y0133808D02*
X0339513Y0133808D01*
X0340512Y0132809D02*
X0345977Y0132809D01*
X0346563Y0131811D02*
X0341343Y0131811D01*
X0342342Y0130812D02*
X0347149Y0130812D01*
X0347735Y0129814D02*
X0343340Y0129814D01*
X0344339Y0128815D02*
X0348321Y0128815D01*
X0348907Y0127817D02*
X0345337Y0127817D01*
X0346227Y0126818D02*
X0349492Y0126818D01*
X0349985Y0125820D02*
X0346030Y0125820D01*
X0345031Y0124821D02*
X0350407Y0124821D01*
X0350829Y0123823D02*
X0344033Y0123823D01*
X0343034Y0122824D02*
X0351251Y0122824D01*
X0351672Y0121826D02*
X0342036Y0121826D01*
X0341037Y0120827D02*
X0352094Y0120827D01*
X0352516Y0119829D02*
X0340039Y0119829D01*
X0350667Y0115835D02*
X0353890Y0115835D01*
X0353615Y0116833D02*
X0257534Y0116833D01*
X0254230Y0119829D02*
X0240857Y0119829D01*
X0241856Y0120827D02*
X0255136Y0120827D01*
X0255741Y0121826D02*
X0242854Y0121826D01*
X0243853Y0122824D02*
X0254743Y0122824D01*
X0253744Y0123823D02*
X0245018Y0123823D01*
X0246017Y0124821D02*
X0252746Y0124821D01*
X0251747Y0125820D02*
X0247015Y0125820D01*
X0253324Y0118830D02*
X0239859Y0118830D01*
X0237889Y0118830D02*
X0223109Y0118830D01*
X0222966Y0117832D02*
X0252553Y0117832D01*
X0252817Y0118271D02*
X0252817Y0118271D01*
X0251954Y0116833D02*
X0222824Y0116833D01*
X0222681Y0115835D02*
X0226262Y0115835D01*
X0226262Y0114836D02*
X0222538Y0114836D01*
X0222396Y0113838D02*
X0226262Y0113838D01*
X0226262Y0112839D02*
X0222253Y0112839D01*
X0222110Y0111841D02*
X0226262Y0111841D01*
X0226262Y0110842D02*
X0221968Y0110842D01*
X0221825Y0109844D02*
X0226262Y0109844D01*
X0226187Y0108845D02*
X0221683Y0108845D01*
X0221540Y0107847D02*
X0226144Y0107847D01*
X0226144Y0106848D02*
X0221397Y0106848D01*
X0221255Y0105850D02*
X0226144Y0105850D01*
X0226144Y0104851D02*
X0221112Y0104851D01*
X0220969Y0103853D02*
X0226144Y0103853D01*
X0226456Y0102854D02*
X0220827Y0102854D01*
X0220684Y0101856D02*
X0229929Y0101856D01*
X0228393Y0100857D02*
X0220541Y0100857D01*
X0220399Y0099859D02*
X0227508Y0099859D01*
X0226923Y0098860D02*
X0220256Y0098860D01*
X0220113Y0097862D02*
X0226677Y0097862D01*
X0226431Y0096863D02*
X0219971Y0096863D01*
X0219828Y0095865D02*
X0226516Y0095865D01*
X0226762Y0094866D02*
X0219786Y0094866D01*
X0219822Y0093868D02*
X0227008Y0093868D01*
X0227812Y0092869D02*
X0219857Y0092869D01*
X0219893Y0091870D02*
X0228697Y0091870D01*
X0230835Y0090872D02*
X0219929Y0090872D01*
X0220048Y0089873D02*
X0226144Y0089873D01*
X0226144Y0088875D02*
X0220192Y0088875D01*
X0220335Y0087876D02*
X0226144Y0087876D01*
X0226144Y0086878D02*
X0220479Y0086878D01*
X0220622Y0085879D02*
X0226144Y0085879D01*
X0226144Y0084881D02*
X0220766Y0084881D01*
X0220909Y0083882D02*
X0226262Y0083882D01*
X0226262Y0082884D02*
X0221053Y0082884D01*
X0221197Y0081885D02*
X0226262Y0081885D01*
X0226262Y0080887D02*
X0221349Y0080887D01*
X0221642Y0079888D02*
X0226262Y0079888D01*
X0226262Y0078890D02*
X0221936Y0078890D01*
X0222229Y0077891D02*
X0226262Y0077891D01*
X0226552Y0076893D02*
X0222522Y0076893D01*
X0222815Y0075894D02*
X0251855Y0075894D01*
X0252432Y0074896D02*
X0223108Y0074896D01*
X0216506Y0082884D02*
X0173864Y0082884D01*
X0173983Y0083882D02*
X0216362Y0083882D01*
X0216219Y0084881D02*
X0174101Y0084881D01*
X0174220Y0085879D02*
X0216075Y0085879D01*
X0215931Y0086878D02*
X0174338Y0086878D01*
X0174457Y0087876D02*
X0215788Y0087876D01*
X0215644Y0088875D02*
X0174575Y0088875D01*
X0174694Y0089873D02*
X0185454Y0089873D01*
X0185735Y0089593D02*
X0186867Y0089124D01*
X0188093Y0089124D01*
X0189226Y0089593D01*
X0190092Y0090459D01*
X0190561Y0091592D01*
X0190561Y0092818D01*
X0190092Y0093950D01*
X0189643Y0094399D01*
X0189643Y0127943D01*
X0189171Y0128416D01*
X0189171Y0129865D01*
X0188856Y0130180D01*
X0188856Y0130987D01*
X0194301Y0130987D01*
X0195568Y0132254D01*
X0195568Y0136679D01*
X0195705Y0136816D01*
X0195705Y0146427D01*
X0195061Y0147071D01*
X0191750Y0147071D01*
X0191106Y0146427D01*
X0191106Y0136816D01*
X0191243Y0136679D01*
X0191243Y0135313D01*
X0185797Y0135313D01*
X0184530Y0134046D01*
X0184530Y0130509D01*
X0184466Y0130509D01*
X0183821Y0129865D01*
X0183821Y0124229D01*
X0184466Y0123585D01*
X0185317Y0123585D01*
X0185317Y0094399D01*
X0184868Y0093950D01*
X0184399Y0092818D01*
X0184399Y0091592D01*
X0184868Y0090459D01*
X0185735Y0089593D01*
X0184697Y0090872D02*
X0174812Y0090872D01*
X0174925Y0091870D02*
X0184399Y0091870D01*
X0184421Y0092869D02*
X0174913Y0092869D01*
X0174900Y0093868D02*
X0184834Y0093868D01*
X0185317Y0094866D02*
X0174887Y0094866D01*
X0174874Y0095865D02*
X0185317Y0095865D01*
X0185317Y0096863D02*
X0174862Y0096863D01*
X0174849Y0097862D02*
X0185317Y0097862D01*
X0185317Y0098860D02*
X0174836Y0098860D01*
X0174824Y0099859D02*
X0185317Y0099859D01*
X0185317Y0100857D02*
X0174811Y0100857D01*
X0174798Y0101856D02*
X0185317Y0101856D01*
X0185317Y0102854D02*
X0174689Y0102854D01*
X0174544Y0103853D02*
X0185317Y0103853D01*
X0185317Y0104851D02*
X0174400Y0104851D01*
X0174255Y0105850D02*
X0185317Y0105850D01*
X0185317Y0106848D02*
X0174111Y0106848D01*
X0173966Y0107847D02*
X0185317Y0107847D01*
X0185317Y0108845D02*
X0173822Y0108845D01*
X0173678Y0109844D02*
X0185317Y0109844D01*
X0185317Y0110842D02*
X0173533Y0110842D01*
X0173389Y0111841D02*
X0185317Y0111841D01*
X0185317Y0112839D02*
X0173171Y0112839D01*
X0172890Y0113838D02*
X0185317Y0113838D01*
X0185317Y0114836D02*
X0172609Y0114836D01*
X0172328Y0115835D02*
X0185317Y0115835D01*
X0185317Y0116833D02*
X0172046Y0116833D01*
X0171765Y0117832D02*
X0185317Y0117832D01*
X0185317Y0118830D02*
X0171484Y0118830D01*
X0171203Y0119829D02*
X0185317Y0119829D01*
X0185317Y0120827D02*
X0170922Y0120827D01*
X0170640Y0121826D02*
X0185317Y0121826D01*
X0185317Y0122824D02*
X0170269Y0122824D01*
X0169840Y0123823D02*
X0184228Y0123823D01*
X0183821Y0124821D02*
X0169412Y0124821D01*
X0168983Y0125820D02*
X0183821Y0125820D01*
X0183821Y0126818D02*
X0168555Y0126818D01*
X0168126Y0127817D02*
X0183821Y0127817D01*
X0183821Y0128815D02*
X0167698Y0128815D01*
X0167269Y0129814D02*
X0183821Y0129814D01*
X0184530Y0130812D02*
X0166840Y0130812D01*
X0166389Y0131811D02*
X0184530Y0131811D01*
X0184530Y0132809D02*
X0165795Y0132809D01*
X0165202Y0133808D02*
X0184530Y0133808D01*
X0185291Y0134806D02*
X0164608Y0134806D01*
X0164015Y0135805D02*
X0191243Y0135805D01*
X0191118Y0136803D02*
X0163421Y0136803D01*
X0162827Y0137802D02*
X0191106Y0137802D01*
X0191106Y0138801D02*
X0162234Y0138801D01*
X0161640Y0139799D02*
X0191106Y0139799D01*
X0191106Y0140798D02*
X0160993Y0140798D01*
X0160206Y0141796D02*
X0191106Y0141796D01*
X0191106Y0142795D02*
X0159420Y0142795D01*
X0158633Y0143793D02*
X0191106Y0143793D01*
X0191106Y0144792D02*
X0157846Y0144792D01*
X0157060Y0145790D02*
X0191106Y0145790D01*
X0191467Y0146789D02*
X0156273Y0146789D01*
X0155487Y0147787D02*
X0225195Y0147787D01*
X0221534Y0148786D02*
X0154657Y0148786D01*
X0154848Y0149784D02*
X0217873Y0149784D01*
X0214211Y0150783D02*
X0154243Y0150783D01*
X0153244Y0151781D02*
X0210550Y0151781D01*
X0206889Y0152780D02*
X0152246Y0152780D01*
X0151247Y0153778D02*
X0203228Y0153778D01*
X0199567Y0154777D02*
X0150248Y0154777D01*
X0149250Y0155775D02*
X0195905Y0155775D01*
X0196750Y0147071D02*
X0196106Y0146427D01*
X0196106Y0136816D01*
X0196243Y0136679D01*
X0196243Y0129880D01*
X0195613Y0130509D01*
X0191552Y0130509D01*
X0190908Y0129865D01*
X0190908Y0124229D01*
X0191552Y0123585D01*
X0195613Y0123585D01*
X0196257Y0124229D01*
X0196257Y0124884D01*
X0199569Y0124884D01*
X0199569Y0124229D01*
X0200214Y0123585D01*
X0204275Y0123585D01*
X0204919Y0124229D01*
X0204919Y0129865D01*
X0204275Y0130509D01*
X0200568Y0130509D01*
X0200568Y0136679D01*
X0200705Y0136816D01*
X0200705Y0146427D01*
X0200061Y0147071D01*
X0196750Y0147071D01*
X0196467Y0146789D02*
X0195344Y0146789D01*
X0195705Y0145790D02*
X0196106Y0145790D01*
X0196106Y0144792D02*
X0195705Y0144792D01*
X0195705Y0143793D02*
X0196106Y0143793D01*
X0196106Y0142795D02*
X0195705Y0142795D01*
X0195705Y0141796D02*
X0196106Y0141796D01*
X0196106Y0140798D02*
X0195705Y0140798D01*
X0195705Y0139799D02*
X0196106Y0139799D01*
X0196106Y0138801D02*
X0195705Y0138801D01*
X0195705Y0137802D02*
X0196106Y0137802D01*
X0196118Y0136803D02*
X0195693Y0136803D01*
X0195568Y0135805D02*
X0196243Y0135805D01*
X0196243Y0134806D02*
X0195568Y0134806D01*
X0195568Y0133808D02*
X0196243Y0133808D01*
X0196243Y0132809D02*
X0195568Y0132809D01*
X0195126Y0131811D02*
X0196243Y0131811D01*
X0196243Y0130812D02*
X0188856Y0130812D01*
X0189171Y0129814D02*
X0190908Y0129814D01*
X0190908Y0128815D02*
X0189171Y0128815D01*
X0189643Y0127817D02*
X0190908Y0127817D01*
X0190908Y0126818D02*
X0189643Y0126818D01*
X0189643Y0125820D02*
X0190908Y0125820D01*
X0190908Y0124821D02*
X0189643Y0124821D01*
X0189643Y0123823D02*
X0191314Y0123823D01*
X0189643Y0122824D02*
X0219310Y0122824D01*
X0219411Y0123823D02*
X0211599Y0123823D01*
X0211361Y0123585D02*
X0212005Y0124229D01*
X0212005Y0124884D01*
X0212024Y0124884D01*
X0212139Y0124769D01*
X0213127Y0124360D01*
X0214196Y0124360D01*
X0215184Y0124769D01*
X0215940Y0125525D01*
X0216349Y0126513D01*
X0216349Y0127582D01*
X0215940Y0128570D01*
X0215184Y0129326D01*
X0214196Y0129735D01*
X0213127Y0129735D01*
X0212139Y0129326D01*
X0212024Y0129210D01*
X0212005Y0129210D01*
X0212005Y0129865D01*
X0211361Y0130509D01*
X0207300Y0130509D01*
X0206656Y0129865D01*
X0206656Y0124229D01*
X0207300Y0123585D01*
X0211361Y0123585D01*
X0212005Y0124821D02*
X0212087Y0124821D01*
X0215236Y0124821D02*
X0220077Y0124821D01*
X0220742Y0125820D02*
X0216062Y0125820D01*
X0216349Y0126818D02*
X0221408Y0126818D01*
X0222074Y0127817D02*
X0216251Y0127817D01*
X0215694Y0128815D02*
X0222739Y0128815D01*
X0223405Y0129814D02*
X0212005Y0129814D01*
X0206656Y0129814D02*
X0204919Y0129814D01*
X0204919Y0128815D02*
X0206656Y0128815D01*
X0206656Y0127817D02*
X0204919Y0127817D01*
X0204919Y0126818D02*
X0206656Y0126818D01*
X0206656Y0125820D02*
X0204919Y0125820D01*
X0204919Y0124821D02*
X0206656Y0124821D01*
X0207062Y0123823D02*
X0204512Y0123823D01*
X0199976Y0123823D02*
X0195851Y0123823D01*
X0196257Y0124821D02*
X0199569Y0124821D01*
X0200568Y0130812D02*
X0224071Y0130812D01*
X0224736Y0131811D02*
X0200568Y0131811D01*
X0200568Y0132809D02*
X0225402Y0132809D01*
X0226068Y0133808D02*
X0200568Y0133808D01*
X0200568Y0134806D02*
X0226733Y0134806D01*
X0227399Y0135805D02*
X0200568Y0135805D01*
X0200693Y0136803D02*
X0201118Y0136803D01*
X0201106Y0136816D02*
X0201750Y0136171D01*
X0205061Y0136171D01*
X0205705Y0136816D01*
X0205705Y0146427D01*
X0205061Y0147071D01*
X0201750Y0147071D01*
X0201106Y0146427D01*
X0201106Y0136816D01*
X0201106Y0137802D02*
X0200705Y0137802D01*
X0200705Y0138801D02*
X0201106Y0138801D01*
X0201106Y0139799D02*
X0200705Y0139799D01*
X0200705Y0140798D02*
X0201106Y0140798D01*
X0201106Y0141796D02*
X0200705Y0141796D01*
X0200705Y0142795D02*
X0201106Y0142795D01*
X0201106Y0143793D02*
X0200705Y0143793D01*
X0200705Y0144792D02*
X0201106Y0144792D01*
X0201106Y0145790D02*
X0200705Y0145790D01*
X0200344Y0146789D02*
X0201467Y0146789D01*
X0205344Y0146789D02*
X0228856Y0146789D01*
X0232517Y0145790D02*
X0205705Y0145790D01*
X0205705Y0144792D02*
X0233390Y0144792D01*
X0232724Y0143793D02*
X0205705Y0143793D01*
X0205705Y0142795D02*
X0232059Y0142795D01*
X0231393Y0141796D02*
X0205705Y0141796D01*
X0205705Y0140798D02*
X0230727Y0140798D01*
X0230062Y0139799D02*
X0205705Y0139799D01*
X0205705Y0138801D02*
X0229396Y0138801D01*
X0228730Y0137802D02*
X0205705Y0137802D01*
X0205693Y0136803D02*
X0228065Y0136803D01*
X0231932Y0134806D02*
X0238414Y0134806D01*
X0237416Y0133808D02*
X0231267Y0133808D01*
X0230601Y0132809D02*
X0236417Y0132809D01*
X0235586Y0131811D02*
X0229935Y0131811D01*
X0229270Y0130812D02*
X0234587Y0130812D01*
X0233589Y0129814D02*
X0228604Y0129814D01*
X0227938Y0128815D02*
X0232590Y0128815D01*
X0231592Y0127817D02*
X0227273Y0127817D01*
X0226607Y0126818D02*
X0230703Y0126818D01*
X0230899Y0125820D02*
X0225941Y0125820D01*
X0225276Y0124821D02*
X0231898Y0124821D01*
X0232896Y0123823D02*
X0224610Y0123823D01*
X0223944Y0122824D02*
X0233895Y0122824D01*
X0234893Y0121826D02*
X0223537Y0121826D01*
X0223394Y0120827D02*
X0235892Y0120827D01*
X0236890Y0119829D02*
X0223252Y0119829D01*
X0219024Y0120827D02*
X0189643Y0120827D01*
X0189643Y0119829D02*
X0218882Y0119829D01*
X0218739Y0118830D02*
X0189643Y0118830D01*
X0189643Y0117832D02*
X0218596Y0117832D01*
X0218454Y0116833D02*
X0189643Y0116833D01*
X0189643Y0115835D02*
X0218311Y0115835D01*
X0218168Y0114836D02*
X0189643Y0114836D01*
X0189643Y0113838D02*
X0218026Y0113838D01*
X0217883Y0112839D02*
X0189643Y0112839D01*
X0189643Y0111841D02*
X0217741Y0111841D01*
X0217598Y0110842D02*
X0189643Y0110842D01*
X0189643Y0109844D02*
X0217455Y0109844D01*
X0217313Y0108845D02*
X0189643Y0108845D01*
X0189643Y0107847D02*
X0217170Y0107847D01*
X0217027Y0106848D02*
X0189643Y0106848D01*
X0189643Y0105850D02*
X0216885Y0105850D01*
X0216742Y0104851D02*
X0189643Y0104851D01*
X0189643Y0103853D02*
X0216599Y0103853D01*
X0216457Y0102854D02*
X0189643Y0102854D01*
X0189643Y0101856D02*
X0216314Y0101856D01*
X0216171Y0100857D02*
X0189643Y0100857D01*
X0189643Y0099859D02*
X0216029Y0099859D01*
X0215886Y0098860D02*
X0189643Y0098860D01*
X0189643Y0097862D02*
X0215744Y0097862D01*
X0215601Y0096863D02*
X0189643Y0096863D01*
X0189643Y0095865D02*
X0215435Y0095865D01*
X0215409Y0094866D02*
X0189643Y0094866D01*
X0190127Y0093868D02*
X0215435Y0093868D01*
X0215435Y0092869D02*
X0190540Y0092869D01*
X0190561Y0091870D02*
X0215435Y0091870D01*
X0215435Y0090872D02*
X0190263Y0090872D01*
X0189506Y0089873D02*
X0215501Y0089873D01*
X0234930Y0101856D02*
X0245050Y0101856D01*
X0246931Y0100857D02*
X0236377Y0100857D01*
X0237210Y0099859D02*
X0239563Y0099859D01*
X0239412Y0098860D02*
X0237734Y0098860D01*
X0238199Y0097862D02*
X0239412Y0097862D01*
X0239412Y0096863D02*
X0238199Y0096863D01*
X0238199Y0095865D02*
X0239412Y0095865D01*
X0238992Y0094866D02*
X0238078Y0094866D01*
X0237683Y0093868D02*
X0237554Y0093868D01*
X0239580Y0089873D02*
X0247292Y0089873D01*
X0247468Y0088875D02*
X0238580Y0088875D01*
X0238580Y0087876D02*
X0247644Y0087876D01*
X0247820Y0086878D02*
X0238580Y0086878D01*
X0238580Y0085879D02*
X0247996Y0085879D01*
X0248172Y0084881D02*
X0238580Y0084881D01*
X0238462Y0083882D02*
X0248513Y0083882D01*
X0248877Y0082884D02*
X0238462Y0082884D01*
X0238462Y0081885D02*
X0249240Y0081885D01*
X0249603Y0080887D02*
X0238462Y0080887D01*
X0238462Y0079888D02*
X0249967Y0079888D01*
X0250330Y0078890D02*
X0238462Y0078890D01*
X0238462Y0077891D02*
X0250702Y0077891D01*
X0251279Y0076893D02*
X0238173Y0076893D01*
X0240889Y0090872D02*
X0247116Y0090872D01*
X0238521Y0102854D02*
X0238268Y0102854D01*
X0241021Y0106848D02*
X0247417Y0106848D01*
X0247421Y0106876D02*
X0247421Y0106876D01*
X0247769Y0107847D02*
X0238580Y0107847D01*
X0238537Y0108845D02*
X0248127Y0108845D01*
X0248485Y0109844D02*
X0238462Y0109844D01*
X0238462Y0110842D02*
X0248842Y0110842D01*
X0249558Y0112839D02*
X0249558Y0112839D01*
X0250157Y0113838D02*
X0238462Y0113838D01*
X0238462Y0114836D02*
X0250756Y0114836D01*
X0251355Y0115835D02*
X0238462Y0115835D01*
X0219167Y0121826D02*
X0189643Y0121826D01*
X0144230Y0151781D02*
X0143065Y0151781D01*
X0144057Y0152780D02*
X0145229Y0152780D01*
X0145048Y0153778D02*
X0146227Y0153778D01*
X0146040Y0154777D02*
X0147226Y0154777D01*
X0147032Y0155775D02*
X0148224Y0155775D01*
X0135341Y0151781D02*
X0127475Y0151781D01*
X0128474Y0150783D02*
X0134345Y0150783D01*
X0133348Y0149784D02*
X0129472Y0149784D01*
X0130471Y0148786D02*
X0132352Y0148786D01*
X0072493Y0105850D02*
X0053505Y0105850D01*
X0054018Y0100857D02*
X0042037Y0100857D01*
X0060612Y0104851D02*
X0067379Y0104851D01*
X0065759Y0100083D02*
X0065759Y0100083D01*
X0062080Y0121826D02*
X0050925Y0121826D01*
X0052091Y0122824D02*
X0061081Y0122824D01*
X0060083Y0123823D02*
X0053089Y0123823D01*
X0050142Y0136803D02*
X0039855Y0136803D01*
X0040355Y0137802D02*
X0050389Y0137802D01*
X0051077Y0138801D02*
X0040854Y0138801D01*
X0041353Y0139799D02*
X0051962Y0139799D01*
X0056470Y0144792D02*
X0045069Y0144792D01*
X0060550Y0138801D02*
X0060768Y0138801D01*
X0061074Y0137802D02*
X0061767Y0137802D01*
X0061598Y0136803D02*
X0062765Y0136803D01*
X0139938Y0060917D02*
X0140030Y0060917D01*
X0140462Y0059918D02*
X0141029Y0059918D01*
X0140986Y0058920D02*
X0142027Y0058920D01*
X0141152Y0057921D02*
X0143026Y0057921D01*
X0143406Y0057541D02*
X0143406Y0057541D01*
X0146698Y0049933D02*
X0134081Y0049933D01*
X0135023Y0048934D02*
X0145833Y0048934D01*
X0144968Y0047936D02*
X0134879Y0047936D01*
X0133881Y0046937D02*
X0144093Y0046937D01*
X0142941Y0045939D02*
X0132882Y0045939D01*
X0131884Y0044940D02*
X0141789Y0044940D01*
X0140636Y0043942D02*
X0130718Y0043942D01*
X0130138Y0042943D02*
X0139484Y0042943D01*
X0138332Y0041945D02*
X0130049Y0041945D01*
X0129961Y0040946D02*
X0137179Y0040946D01*
X0135784Y0039948D02*
X0129873Y0039948D01*
X0129784Y0038949D02*
X0134231Y0038949D01*
X0132677Y0037951D02*
X0129696Y0037951D01*
X0129607Y0036952D02*
X0131123Y0036952D01*
X0129569Y0035954D02*
X0129519Y0035954D01*
X0155484Y0042943D02*
X0205075Y0042943D01*
X0205075Y0041945D02*
X0155897Y0041945D01*
X0155561Y0043942D02*
X0205075Y0043942D01*
X0205075Y0044940D02*
X0156379Y0044940D01*
X0157122Y0045939D02*
X0205075Y0045939D01*
X0205075Y0046937D02*
X0157865Y0046937D01*
X0158608Y0047936D02*
X0205075Y0047936D01*
X0205075Y0048934D02*
X0159351Y0048934D01*
X0160094Y0049933D02*
X0205075Y0049933D01*
X0205075Y0050932D02*
X0160837Y0050932D01*
X0161580Y0051930D02*
X0205075Y0051930D01*
X0205075Y0052929D02*
X0162288Y0052929D01*
X0162182Y0052739D02*
X0162182Y0052739D01*
X0162844Y0053927D02*
X0205075Y0053927D01*
X0205075Y0054926D02*
X0163401Y0054926D01*
X0163958Y0055924D02*
X0205035Y0055924D01*
X0253074Y0039948D02*
X0256898Y0039948D01*
X0255899Y0040946D02*
X0253536Y0040946D01*
X0253998Y0041945D02*
X0254901Y0041945D01*
X0282478Y0041945D02*
X0282825Y0041945D01*
X0282579Y0040946D02*
X0282478Y0040946D01*
X0282478Y0042943D02*
X0283072Y0042943D01*
X0282478Y0043942D02*
X0283775Y0043942D01*
X0284659Y0044940D02*
X0282478Y0044940D01*
X0282478Y0045939D02*
X0286522Y0045939D01*
X0290763Y0045939D02*
X0292087Y0045939D01*
X0292210Y0044940D02*
X0292686Y0044940D01*
X0293215Y0043942D02*
X0293286Y0043942D01*
X0293739Y0042943D02*
X0293885Y0042943D01*
X0294263Y0041945D02*
X0294451Y0041945D01*
X0294451Y0040946D02*
X0294302Y0040946D01*
X0294302Y0039948D02*
X0294451Y0039948D01*
X0294451Y0038949D02*
X0294278Y0038949D01*
X0294451Y0037951D02*
X0293754Y0037951D01*
X0293230Y0036952D02*
X0294451Y0036952D01*
X0294451Y0035954D02*
X0292251Y0035954D01*
X0290804Y0034955D02*
X0294451Y0034955D01*
X0320031Y0039948D02*
X0323855Y0039948D01*
X0323393Y0040946D02*
X0321030Y0040946D01*
X0322028Y0041945D02*
X0322931Y0041945D01*
X0326774Y0043942D02*
X0333550Y0043942D01*
X0334702Y0044940D02*
X0326312Y0044940D01*
X0326189Y0045939D02*
X0335854Y0045939D01*
X0337007Y0046937D02*
X0327188Y0046937D01*
X0327936Y0047936D02*
X0337881Y0047936D01*
X0338747Y0048934D02*
X0327599Y0048934D01*
X0327853Y0048681D02*
X0327853Y0048681D01*
X0326601Y0049933D02*
X0339612Y0049933D01*
X0340477Y0050932D02*
X0328557Y0050932D01*
X0327167Y0050932D02*
X0325602Y0050932D01*
X0324719Y0051930D02*
X0324604Y0051930D01*
X0323835Y0052929D02*
X0323605Y0052929D01*
X0322950Y0053927D02*
X0322607Y0053927D01*
X0322672Y0054926D02*
X0321608Y0054926D01*
X0322148Y0059918D02*
X0323218Y0059918D01*
X0323147Y0060917D02*
X0324102Y0060917D01*
X0325933Y0065909D02*
X0328572Y0065909D01*
X0329571Y0066908D02*
X0324934Y0066908D01*
X0323936Y0067906D02*
X0330569Y0067906D01*
X0331568Y0068905D02*
X0322937Y0068905D01*
X0321939Y0069903D02*
X0332733Y0069903D01*
X0333732Y0070902D02*
X0321999Y0070902D01*
X0322616Y0071638D02*
X0322616Y0071638D01*
X0322768Y0071900D02*
X0334730Y0071900D01*
X0335729Y0072899D02*
X0323344Y0072899D01*
X0323921Y0073897D02*
X0336727Y0073897D01*
X0339384Y0073897D02*
X0353528Y0073897D01*
X0353234Y0072899D02*
X0340382Y0072899D01*
X0341381Y0071900D02*
X0352941Y0071900D01*
X0352544Y0070902D02*
X0342379Y0070902D01*
X0343378Y0069903D02*
X0352088Y0069903D01*
X0351632Y0068905D02*
X0344376Y0068905D01*
X0345375Y0067906D02*
X0351176Y0067906D01*
X0350720Y0066908D02*
X0346227Y0066908D01*
X0345993Y0065909D02*
X0350264Y0065909D01*
X0349808Y0064911D02*
X0344994Y0064911D01*
X0343996Y0063912D02*
X0349352Y0063912D01*
X0348896Y0062914D02*
X0342997Y0062914D01*
X0341999Y0061915D02*
X0348308Y0061915D01*
X0347666Y0060917D02*
X0341167Y0060917D01*
X0340169Y0059918D02*
X0347024Y0059918D01*
X0346382Y0058920D02*
X0339170Y0058920D01*
X0338172Y0057921D02*
X0345741Y0057921D01*
X0345099Y0056923D02*
X0334065Y0056923D01*
X0334065Y0057921D02*
X0335545Y0057921D01*
X0336319Y0057147D02*
X0336319Y0057147D01*
X0334547Y0058920D02*
X0333693Y0058920D01*
X0333548Y0059918D02*
X0333169Y0059918D01*
X0334065Y0055924D02*
X0344457Y0055924D01*
X0343816Y0054926D02*
X0333852Y0054926D01*
X0333328Y0053927D02*
X0343073Y0053927D01*
X0342208Y0052929D02*
X0332804Y0052929D01*
X0331489Y0051930D02*
X0341342Y0051930D01*
X0332397Y0042943D02*
X0327236Y0042943D01*
X0327698Y0041945D02*
X0331245Y0041945D01*
X0330093Y0040946D02*
X0328159Y0040946D01*
X0328621Y0039948D02*
X0328698Y0039948D01*
X0306066Y0062914D02*
X0270863Y0062914D01*
X0269134Y0063912D02*
X0307795Y0063912D01*
X0304336Y0061915D02*
X0272593Y0061915D01*
X0275250Y0060917D02*
X0301679Y0060917D01*
X0298936Y0059918D02*
X0277993Y0059918D01*
X0282761Y0058920D02*
X0294168Y0058920D01*
X0324497Y0074896D02*
X0353821Y0074896D01*
X0354114Y0075894D02*
X0325074Y0075894D01*
X0325650Y0076893D02*
X0338756Y0076893D01*
X0338467Y0077891D02*
X0326227Y0077891D01*
X0326599Y0078890D02*
X0338467Y0078890D01*
X0338467Y0079888D02*
X0326962Y0079888D01*
X0327326Y0080887D02*
X0338467Y0080887D01*
X0338467Y0081885D02*
X0327689Y0081885D01*
X0328053Y0082884D02*
X0338467Y0082884D01*
X0338467Y0083882D02*
X0328416Y0083882D01*
X0328736Y0084761D02*
X0328736Y0084761D01*
X0328757Y0084881D02*
X0338349Y0084881D01*
X0338349Y0089873D02*
X0329998Y0089873D01*
X0329998Y0090872D02*
X0343039Y0090872D01*
X0340901Y0091870D02*
X0337675Y0091870D01*
X0337675Y0092869D02*
X0340017Y0092869D01*
X0339213Y0093868D02*
X0337675Y0093868D01*
X0337675Y0094866D02*
X0338967Y0094866D01*
X0338720Y0095865D02*
X0337675Y0095865D01*
X0337960Y0096863D02*
X0338636Y0096863D01*
X0346350Y0090872D02*
X0357001Y0090872D01*
X0357036Y0091870D02*
X0348084Y0091870D01*
X0349235Y0092869D02*
X0357072Y0092869D01*
X0357108Y0093868D02*
X0349759Y0093868D01*
X0350283Y0094866D02*
X0357143Y0094866D01*
X0357155Y0095865D02*
X0350404Y0095865D01*
X0350404Y0096863D02*
X0357115Y0096863D01*
X0357075Y0097862D02*
X0350404Y0097862D01*
X0349939Y0098860D02*
X0357036Y0098860D01*
X0356996Y0099859D02*
X0349415Y0099859D01*
X0348581Y0100857D02*
X0356882Y0100857D01*
X0356743Y0101856D02*
X0347135Y0101856D01*
X0350473Y0102854D02*
X0356604Y0102854D01*
X0356466Y0103853D02*
X0350785Y0103853D01*
X0350785Y0104851D02*
X0356327Y0104851D01*
X0356189Y0105850D02*
X0350785Y0105850D01*
X0350785Y0106848D02*
X0356050Y0106848D01*
X0355911Y0107847D02*
X0350785Y0107847D01*
X0350742Y0108845D02*
X0355773Y0108845D01*
X0355540Y0109844D02*
X0350667Y0109844D01*
X0350667Y0110842D02*
X0355265Y0110842D01*
X0354990Y0111841D02*
X0350667Y0111841D01*
X0350667Y0112839D02*
X0354715Y0112839D01*
X0354440Y0113838D02*
X0350667Y0113838D01*
X0350667Y0114836D02*
X0354165Y0114836D01*
X0356881Y0089873D02*
X0350785Y0089873D01*
X0350785Y0088875D02*
X0356737Y0088875D01*
X0356594Y0087876D02*
X0350785Y0087876D01*
X0350785Y0086878D02*
X0356450Y0086878D01*
X0356307Y0085879D02*
X0350785Y0085879D01*
X0350785Y0084881D02*
X0356163Y0084881D01*
X0356020Y0083882D02*
X0350667Y0083882D01*
X0350667Y0082884D02*
X0355876Y0082884D01*
X0355733Y0081885D02*
X0350667Y0081885D01*
X0350667Y0080887D02*
X0355580Y0080887D01*
X0355287Y0079888D02*
X0350667Y0079888D01*
X0350667Y0078890D02*
X0354994Y0078890D01*
X0354700Y0077891D02*
X0350667Y0077891D01*
X0350378Y0076893D02*
X0354407Y0076893D01*
X0342370Y0137802D02*
X0336061Y0137802D01*
X0336784Y0138801D02*
X0341593Y0138801D01*
X0340816Y0139799D02*
X0337783Y0139799D01*
X0338781Y0140798D02*
X0340038Y0140798D01*
X0255664Y0137802D02*
X0254504Y0137802D01*
X0254666Y0138801D02*
X0253980Y0138801D01*
X0253667Y0139799D02*
X0253456Y0139799D01*
X0380944Y0218681D02*
X0390948Y0218681D01*
X0391643Y0219680D02*
X0383139Y0219680D01*
X0384138Y0220678D02*
X0392339Y0220678D01*
X0393034Y0221677D02*
X0385033Y0221677D01*
X0385447Y0222675D02*
X0393730Y0222675D01*
X0394556Y0223674D02*
X0385860Y0223674D01*
X0386028Y0224672D02*
X0395075Y0224672D01*
X0395533Y0225671D02*
X0386028Y0225671D01*
X0386028Y0226670D02*
X0395990Y0226670D01*
X0396158Y0227668D02*
X0385696Y0227668D01*
X0385282Y0228667D02*
X0396264Y0228667D01*
X0396370Y0229665D02*
X0384739Y0229665D01*
X0383741Y0230664D02*
X0396296Y0230664D01*
X0396074Y0231662D02*
X0382395Y0231662D01*
X0101255Y0058920D02*
X0089847Y0058920D01*
X0064892Y0010991D02*
X0124992Y0010991D01*
X0122358Y0009993D02*
X0067856Y0009993D01*
X0071522Y0008994D02*
X0118777Y0008994D01*
X0114637Y0007996D02*
X0075187Y0007996D01*
X0080516Y0006997D02*
X0110498Y0006997D01*
X0101549Y0005999D02*
X0087586Y0005999D01*
X0062474Y0011990D02*
X0127626Y0011990D01*
X0130260Y0012988D02*
X0060056Y0012988D01*
X0251933Y0013987D02*
X0324859Y0013987D01*
X0322291Y0012988D02*
X0254453Y0012988D01*
X0256974Y0011990D02*
X0319722Y0011990D01*
X0317154Y0010991D02*
X0259494Y0010991D01*
X0262689Y0009993D02*
X0314130Y0009993D01*
X0310155Y0008994D02*
X0266558Y0008994D01*
X0270428Y0007996D02*
X0306180Y0007996D01*
X0299620Y0006997D02*
X0277107Y0006997D01*
X0304992Y0017752D02*
X0304992Y0017752D01*
D22*
X0218780Y0066220D03*
X0213661Y0071929D03*
X0205787Y0060118D03*
X0213661Y0052244D03*
X0213661Y0127047D03*
X0221535Y0146732D03*
X0229409Y0154606D03*
X0197913Y0185118D03*
X0170354Y0162480D03*
X0166417Y0162480D03*
X0166417Y0154606D03*
X0170354Y0154606D03*
X0099488Y0130984D03*
X0087677Y0130984D03*
X0067992Y0111299D03*
X0071929Y0095551D03*
X0331772Y0158543D03*
X0343583Y0170354D03*
D23*
X0221535Y0158543D03*
X0175276Y0167992D03*
D24*
X0187480Y0092205D03*
D25*
X0141996Y0063847D02*
X0127756Y0063847D01*
X0127756Y0064410D01*
X0320748Y0064528D02*
X0320748Y0063453D01*
X0334910Y0063453D01*
M02*
